<?xml version="1.0" encoding="UTF-8"?>
<svg version="1.1" xmlns="http://www.w3.org/2000/svg" width="136" height="117">
<path d="M0 0 C2.25900493 2.25900493 2.34458029 2.94183075 2.6875 6 C2.77386719 6.70125 2.86023438 7.4025 2.94921875 8.125 C3 10 3 10 2 12 C3.134375 11.7834375 4.26875 11.566875 5.4375 11.34375 C6.9582643 11.06212698 8.47910162 10.78089804 10 10.5 C10.74378906 10.35691406 11.48757812 10.21382812 12.25390625 10.06640625 C19.37088301 8.76678441 25.80928437 7.79721122 32.4375 11.375 C33.28183594 11.81585938 34.12617187 12.25671875 34.99609375 12.7109375 C37 14 37 14 38 16 C38.22467831 17.53668865 38.40796805 19.07968054 38.5625 20.625 C38.64628906 21.44226563 38.73007813 22.25953125 38.81640625 23.1015625 C38.87699219 23.72804688 38.93757813 24.35453125 39 25 C40.11375 24.67 41.2275 24.34 42.375 24 C45.59107547 23.22155064 48.69342243 22.73141186 52 22.5625 C52.763125 22.52253906 53.52625 22.48257812 54.3125 22.44140625 C58.83519206 23.38144254 62.04729241 24.2446845 65 28 C66.22351802 34.08605347 66.00323591 40.13581124 65.88671875 46.3203125 C65.87940851 48.14442999 65.87520592 49.96856236 65.87397766 51.79269409 C65.86321838 55.61130058 65.82613678 59.42840279 65.76831055 63.24658203 C65.6946496 68.14406732 65.66906568 73.04026121 65.66089153 77.93824959 C65.65231276 81.70267584 65.62720011 85.46683384 65.59613991 89.23113632 C65.58155269 91.03725859 65.57006529 92.84340861 65.56171227 94.64957047 C65.54581786 97.17066981 65.50981304 99.69064843 65.4675293 102.21142578 C65.4648555 103.33360504 65.4648555 103.33360504 65.46212769 104.47845459 C65.34724793 109.50904482 65.34724793 109.50904482 63.80383015 111.69120026 C61.35283576 113.46956106 59.74001774 113.37736773 56.72412109 113.38095093 C55.63049255 113.3894104 54.53686401 113.39786987 53.41009521 113.40658569 C51.60994965 113.39747665 51.60994965 113.39747665 49.7734375 113.38818359 C47.87806244 113.39606903 47.87806244 113.39606903 45.94439697 113.40411377 C42.47745401 113.41780202 39.01077857 113.41248268 35.54383087 113.40297651 C31.91772229 113.39538765 28.29163681 113.40242337 24.66552734 113.40713501 C18.57580447 113.41259483 12.48619069 113.40539506 6.39648438 113.39111328 C-0.64670111 113.37478625 -7.68962608 113.3800746 -14.73280525 113.3965925 C-20.77704666 113.41020096 -26.82120958 113.41213019 -32.86546135 113.40427649 C-36.47669623 113.39959642 -40.08780861 113.39898419 -43.69903564 113.40888596 C-47.72399354 113.41915101 -51.74850144 113.40492876 -55.7734375 113.38818359 C-56.97353455 113.39425629 -58.17363159 113.40032898 -59.41009521 113.40658569 C-60.50372375 113.39812622 -61.59735229 113.38966675 -62.72412109 113.38095093 C-63.67612396 113.37981985 -64.62812683 113.37868877 -65.60897827 113.37752342 C-68 113 -68 113 -69.805933 111.74186897 C-71.28816195 109.57963803 -71.37702929 108.35956617 -71.38095093 105.74914551 C-71.3894104 104.88269913 -71.39786987 104.01625275 -71.40658569 103.12355042 C-71.400513 102.17592331 -71.39444031 101.2282962 -71.38818359 100.25195312 C-71.39344055 99.25171616 -71.39869751 98.25147919 -71.40411377 97.22093201 C-71.41734073 93.90754682 -71.40856595 90.59464025 -71.3984375 87.28125 C-71.40045745 84.98343819 -71.40336823 82.685627 -71.40713501 80.38781738 C-71.41156203 75.56919254 -71.40511503 70.75073439 -71.39111328 65.93212891 C-71.37402136 59.74780256 -71.3838605 53.56386676 -71.40183067 47.37955475 C-71.41265822 42.63386072 -71.40922687 37.88825966 -71.4014473 33.14256287 C-71.39944245 30.86193292 -71.4019145 28.58129461 -71.40888596 26.30067444 C-71.41648336 23.11623696 -71.40491983 19.93243675 -71.38818359 16.74804688 C-71.39425629 15.80041977 -71.40032898 14.85279266 -71.40658569 13.87644958 C-71.39812622 13.0100032 -71.38966675 12.14355682 -71.38095093 11.25085449 C-71.37981985 10.49795891 -71.37868877 9.74506332 -71.37752342 8.96935272 C-70.89596669 6.45730977 -69.97268753 5.57723992 -68 4 C-66.11254883 3.35571289 -66.11254883 3.35571289 -63.95703125 2.97265625 C-63.14234375 2.8221582 -62.32765625 2.67166016 -61.48828125 2.51660156 C-60.60527344 2.36674805 -59.72226562 2.21689453 -58.8125 2.0625 C-57.89210938 1.8984668 -56.97171875 1.73443359 -56.0234375 1.56542969 C-54.04735982 1.21596897 -52.07025949 0.87225207 -50.09228516 0.53369141 C-46.96773874 -0.00556791 -43.84927901 -0.57311287 -40.73046875 -1.14453125 C-11.51671712 -6.40077179 -11.51671712 -6.40077179 0 0 Z M-31.640625 3.49609375 C-32.56341248 3.64909439 -33.48619995 3.80209503 -34.43695068 3.95973206 C-36.3805004 4.28309132 -38.32371212 4.60848788 -40.26660156 4.93579102 C-43.25227651 5.43788283 -46.23930186 5.9312688 -49.2265625 6.42382812 C-51.11467027 6.73906308 -53.0026942 7.05480069 -54.890625 7.37109375 C-55.78847717 7.51904892 -56.68632935 7.66700409 -57.61138916 7.81944275 C-61.6351163 8.16877924 -61.6351163 8.16877924 -65 10 C-65.04092937 12.33297433 -65.04241723 14.66705225 -65 17 C-53.60112427 15.43265459 -42.22664178 13.75658296 -30.875 11.875 C-29.83859375 11.70452148 -28.8021875 11.53404297 -27.734375 11.35839844 C-26.28417969 11.11524902 -26.28417969 11.11524902 -24.8046875 10.8671875 C-23.52053955 10.65231689 -23.52053955 10.65231689 -22.21044922 10.43310547 C-19.83893665 10.01737598 -19.83893665 10.01737598 -17 9 C-17 6.69 -17 4.38 -17 2 C-21.98550237 1.75431711 -26.74541683 2.67094505 -31.640625 3.49609375 Z M-11 3 C-11 37.65 -11 72.3 -11 108 C-8.69 108 -6.38 108 -4 108 C-4 74.01 -4 40.02 -4 5 C-7.7018576 2.7763932 -7.7018576 2.7763932 -11 3 Z M-25.17016602 15.62670898 C-26.38646446 15.83208534 -26.38646446 15.83208534 -27.62733459 16.04161072 C-28.49410324 16.19159012 -29.36087189 16.34156952 -30.25390625 16.49609375 C-31.15116928 16.64909439 -32.04843231 16.80209503 -32.97288513 16.95973206 C-34.86688151 17.2834871 -36.76059875 17.60887875 -38.65405273 17.93579102 C-41.55445558 18.43611233 -44.45584671 18.93035627 -47.35742188 19.42382812 C-49.19797862 19.739222 -51.03847552 20.05496536 -52.87890625 20.37109375 C-54.18209557 20.5930265 -54.18209557 20.5930265 -55.51161194 20.81944275 C-56.31932541 20.95951248 -57.12703888 21.09958221 -57.95922852 21.24389648 C-58.66886246 21.36603012 -59.3784964 21.48816376 -60.1096344 21.61399841 C-62.21133007 22.00375708 -62.21133007 22.00375708 -65 23 C-65 25.31 -65 27.62 -65 30 C-55.60734035 29.4641345 -46.44876301 28.03401916 -37.19604492 26.41601562 C-34.77964104 25.99426491 -32.36166101 25.58258968 -29.94335938 25.171875 C-28.4061488 24.90683628 -26.86903544 24.64123295 -25.33203125 24.375 C-24.60925491 24.25205566 -23.88647858 24.12911133 -23.14179993 24.00244141 C-19.78336877 23.64046214 -19.78336877 23.64046214 -17 22 C-16.95907063 19.66702567 -16.95758277 17.33294775 -17 15 C-19.95086445 15 -22.31476812 15.13902037 -25.17016602 15.62670898 Z M10.375 16.5 C9.57320313 16.64308594 8.77140625 16.78617188 7.9453125 16.93359375 C5.96326746 17.28753036 3.98159764 17.64356702 2 18 C2 20.64 2 23.28 2 26 C8.27 25.01 14.54 24.02 21 23 C21 20.36 21 17.72 21 15 C17.41552701 15 13.89530066 15.86566011 10.375 16.5 Z M27 16 C27 46.36 27 76.72 27 108 C28.65 108 30.3 108 32 108 C32 78.3 32 48.6 32 18 C29.525 17.01 29.525 17.01 27 16 Z M-32.51953125 30.49609375 C-33.41870773 30.64909439 -34.31788422 30.80209503 -35.24430847 30.95973206 C-37.13488462 31.28267068 -39.02504183 31.60807046 -40.91479492 31.93579102 C-43.81902461 32.43862967 -46.72478763 32.93175979 -49.63085938 33.42382812 C-51.46884869 33.73900833 -53.30674289 34.05474389 -55.14453125 34.37109375 C-56.45379326 34.5930265 -56.45379326 34.5930265 -57.789505 34.81944275 C-61.71774136 35.18797514 -61.71774136 35.18797514 -65 37 C-65.04092937 39.33297433 -65.04241723 41.66705225 -65 44 C-48.89199906 41.87643717 -32.95508579 39.05955611 -17 36 C-17 33.69 -17 31.38 -17 29 C-22.3311492 28.79272864 -27.29157597 29.58724102 -32.51953125 30.49609375 Z M11.4375 29.5 C10.63119141 29.64308594 9.82488281 29.78617188 8.99414062 29.93359375 C6.99595836 30.28830066 4.99796181 30.64405346 3 31 C2.17361624 33.89234315 2 35.88742431 2 39 C4.60466543 38.69127671 7.20867691 38.37818277 9.8125 38.0625 C10.55048828 37.97548828 11.28847656 37.88847656 12.04882812 37.79882812 C15.16733121 37.41783454 18.01108122 36.99630626 21 36 C21 33.36 21 30.72 21 28 C17.84935986 28 14.54932248 28.94512081 11.4375 29.5 Z M42.875 30.5 C41.96492188 30.7784375 41.05484375 31.056875 40.1171875 31.34375 C39.41851562 31.5603125 38.71984375 31.776875 38 32 C38 33.98 38 35.96 38 38 C39.43791516 37.85831863 40.8753237 37.71148957 42.3125 37.5625 C43.11300781 37.48128906 43.91351563 37.40007813 44.73828125 37.31640625 C47.16087179 37.04734307 47.16087179 37.04734307 50 36 C50 33.69 50 31.38 50 29 C47.41784939 29 45.34193416 29.74094334 42.875 30.5 Z M56 30 C56 55.74 56 81.48 56 108 C57.485 107.505 57.485 107.505 59 107 C59.06941478 97.25580177 59.12276776 87.51166205 59.15543652 77.76726723 C59.17111343 73.24286816 59.19238839 68.71863786 59.22631836 64.19433594 C59.25883996 59.83067535 59.27683774 55.46717739 59.28463173 51.103405 C59.29018824 49.43596205 59.30103834 47.76852831 59.31719017 46.10115433 C59.33886932 43.77117711 59.34197101 41.44187773 59.34057617 39.11181641 C59.351362 38.41770157 59.36214783 37.72358673 59.3732605 37.00843811 C59.39454011 34.88762683 59.39454011 34.88762683 59 32 C58.01 31.34 57.02 30.68 56 30 Z M-24.1484375 42.62670898 C-25.39488037 42.83208534 -25.39488037 42.83208534 -26.66650391 43.04161072 C-27.56030762 43.19159012 -28.45411133 43.34156952 -29.375 43.49609375 C-30.75631104 43.72559471 -30.75631104 43.72559471 -32.16552734 43.95973206 C-34.11250437 44.28388798 -36.05927714 44.60927272 -38.00585938 44.93579102 C-40.98768825 45.435437 -43.97034472 45.92989743 -46.953125 46.42382812 C-48.84380207 46.73927138 -50.73442882 47.05501647 -52.625 47.37109375 C-53.51880371 47.51904892 -54.41260742 47.66700409 -55.33349609 47.81944275 C-56.57993896 48.02954735 -56.57993896 48.02954735 -57.8515625 48.24389648 C-58.58197754 48.36603012 -59.31239258 48.48816376 -60.06494141 48.61399841 C-62.20487568 48.99910699 -62.20487568 48.99910699 -65 50 C-65 52.31 -65 54.62 -65 57 C-55.60734035 56.4641345 -46.44876301 55.03401916 -37.19604492 53.41601562 C-34.77964104 52.99426491 -32.36166101 52.58258968 -29.94335938 52.171875 C-28.4061488 51.90683628 -26.86903544 51.64123295 -25.33203125 51.375 C-24.60925491 51.25205566 -23.88647858 51.12911133 -23.14179993 51.00244141 C-19.78336877 50.64046214 -19.78336877 50.64046214 -17 49 C-16.95907063 46.66702567 -16.95758277 44.33294775 -17 42 C-19.53010913 42 -21.66928109 42.21486644 -24.1484375 42.62670898 Z M9.8125 43.5 C9.06291016 43.64308594 8.31332031 43.78617188 7.54101562 43.93359375 C5.69354094 44.28661439 3.84670679 44.64298419 2 45 C2 47.64 2 50.28 2 53 C8.27 52.01 14.54 51.02 21 50 C21 47.36 21 44.72 21 42 C17.16858032 42 13.55782618 42.77383195 9.8125 43.5 Z M42.875 43 C41.96492188 43.185625 41.05484375 43.37125 40.1171875 43.5625 C39.41851562 43.706875 38.71984375 43.85125 38 44 C38 46.64 38 49.28 38 52 C39.81332154 51.69230293 41.62564345 51.37870936 43.4375 51.0625 C44.44683594 50.88847656 45.45617187 50.71445312 46.49609375 50.53515625 C48.9287438 50.25248903 48.9287438 50.25248903 50 49 C50.04092937 46.66702567 50.04241723 44.33294775 50 42 C47.52324269 42 45.30140305 42.5022763 42.875 43 Z M-32.7734375 57.53125 C-33.6971817 57.68662231 -34.6209259 57.84199463 -35.57266235 58.0020752 C-38.50757147 58.4968006 -41.4412761 58.99829906 -44.375 59.5 C-46.37101793 59.83768803 -48.36711096 60.17493252 -50.36328125 60.51171875 C-55.24307212 61.33601159 -60.12179446 62.16637859 -65 63 C-65 65.64 -65 68.28 -65 71 C-53.60112427 69.43265459 -42.22664178 67.75658296 -30.875 65.875 C-29.83859375 65.70452148 -28.8021875 65.53404297 -27.734375 65.35839844 C-26.28417969 65.11524902 -26.28417969 65.11524902 -24.8046875 64.8671875 C-23.52053955 64.65231689 -23.52053955 64.65231689 -22.21044922 64.43310547 C-19.83893665 64.01737598 -19.83893665 64.01737598 -17 63 C-17 60.69 -17 58.38 -17 56 C-22.41254221 55.78318858 -27.46404912 56.61548305 -32.7734375 57.53125 Z M11.4375 56.5 C10.63119141 56.64308594 9.82488281 56.78617188 8.99414062 56.93359375 C6.99595836 57.28830066 4.99796181 57.64405346 3 58 C2.02391783 60.92824652 1.91773332 62.95613276 2 66 C12.13198139 65.67301578 12.13198139 65.67301578 21 62 C21.04092937 59.66702567 21.04241723 57.33294775 21 55 C17.84935986 55 14.54932248 55.94512081 11.4375 56.5 Z M38 58 C38 60.31 38 62.62 38 65 C39.43791516 64.85831863 40.8753237 64.71148957 42.3125 64.5625 C43.11300781 64.48128906 43.91351563 64.40007812 44.73828125 64.31640625 C47.16087179 64.04734307 47.16087179 64.04734307 50 63 C50 60.69 50 58.38 50 56 C45.66831683 55.73747375 42.1196377 56.70756464 38 58 Z M-25.17016602 69.62670898 C-26.38646446 69.83208534 -26.38646446 69.83208534 -27.62733459 70.04161072 C-28.49410324 70.19159012 -29.36087189 70.34156952 -30.25390625 70.49609375 C-31.15116928 70.64909439 -32.04843231 70.80209503 -32.97288513 70.95973206 C-34.86688151 71.2834871 -36.76059875 71.60887875 -38.65405273 71.93579102 C-41.55445558 72.43611233 -44.45584671 72.93035627 -47.35742188 73.42382812 C-49.19797862 73.739222 -51.03847552 74.05496536 -52.87890625 74.37109375 C-54.18209557 74.5930265 -54.18209557 74.5930265 -55.51161194 74.81944275 C-56.31932541 74.95951248 -57.12703888 75.09958221 -57.95922852 75.24389648 C-58.66886246 75.36603012 -59.3784964 75.48816376 -60.1096344 75.61399841 C-62.21133007 76.00375708 -62.21133007 76.00375708 -65 77 C-65 79.31 -65 81.62 -65 84 C-55.60734035 83.4641345 -46.44876301 82.03401916 -37.19604492 80.41601562 C-34.77964104 79.99426491 -32.36166101 79.58258968 -29.94335938 79.171875 C-28.4061488 78.90683628 -26.86903544 78.64123295 -25.33203125 78.375 C-24.60925491 78.25205566 -23.88647858 78.12911133 -23.14179993 78.00244141 C-19.78336877 77.64046214 -19.78336877 77.64046214 -17 76 C-16.95907063 73.66702567 -16.95758277 71.33294775 -17 69 C-19.95086445 69 -22.31476812 69.13902037 -25.17016602 69.62670898 Z M9.8125 70.5 C9.06291016 70.64308594 8.31332031 70.78617187 7.54101562 70.93359375 C5.69354094 71.28661439 3.84670679 71.64298419 2 72 C2 74.64 2 77.28 2 80 C8.27 79.01 14.54 78.02 21 77 C21 74.36 21 71.72 21 69 C17.16858032 69 13.55782618 69.77383195 9.8125 70.5 Z M42.875 70 C41.96492188 70.185625 41.05484375 70.37125 40.1171875 70.5625 C39.41851562 70.706875 38.71984375 70.85125 38 71 C38 73.64 38 76.28 38 79 C41.96 78.34 45.92 77.68 50 77 C50 74.36 50 71.72 50 69 C47.52324269 69 45.30140305 69.5022763 42.875 70 Z M-20 83 C-20 91.25 -20 99.5 -20 108 C-19.01 108 -18.02 108 -17 108 C-17 99.75 -17 91.5 -17 83 C-17.99 83 -18.98 83 -20 83 Z M18 83 C18 91.25 18 99.5 18 108 C18.99 108 19.98 108 21 108 C21 99.42 21 90.84 21 82 C19.7763932 81.9254644 19.7763932 81.9254644 18 83 Z M48 83 C46.7494687 84.02714661 46.7494687 84.02714661 46.88647461 86.22485352 C46.89171143 87.18319092 46.89694824 88.14152832 46.90234375 89.12890625 C46.90556641 90.16337891 46.90878906 91.19785156 46.91210938 92.26367188 C46.92048828 93.35228516 46.92886719 94.44089844 46.9375 95.5625 C46.94201172 96.65498047 46.94652344 97.74746094 46.95117188 98.87304688 C46.96300174 101.58208495 46.97948457 104.29101599 47 107 C47.99 107.33 48.98 107.66 50 108 C50 99.75 50 91.5 50 83 C49.34 83 48.68 83 48 83 Z M-29 84 C-29 91.92 -29 99.84 -29 108 C-28.01 108 -27.02 108 -26 108 C-26 100.41 -26 92.82 -26 85 C-26.99 84.67 -27.98 84.34 -29 84 Z M9 84 C9 91.92 9 99.84 9 108 C9.99 108 10.98 108 12 108 C12 100.08 12 92.16 12 84 C11.01 84 10.02 84 9 84 Z M39 84 C37.7736243 86.45275141 37.88584686 88.0505781 37.90234375 90.7890625 C37.90556641 91.73007813 37.90878906 92.67109375 37.91210938 93.640625 C37.92048828 94.62546875 37.92886719 95.6103125 37.9375 96.625 C37.94201172 97.61757812 37.94652344 98.61015625 37.95117188 99.6328125 C37.96297855 102.0886016 37.979446 104.54427104 38 107 C38.99 107.33 39.98 107.66 41 108 C41 100.08 41 92.16 41 84 C40.34 84 39.68 84 39 84 Z M2 85 C2 92.59 2 100.18 2 108 C2.33 108 2.66 108 3 108 C3 100.41 3 92.82 3 85 C2.67 85 2.34 85 2 85 Z M-38 86 C-38 93.26 -38 100.52 -38 108 C-37.01 108 -36.02 108 -35 108 C-35 100.74 -35 93.48 -35 86 C-35.99 86 -36.98 86 -38 86 Z M-47 87 C-47 93.93 -47 100.86 -47 108 C-46.01 108 -45.02 108 -44 108 C-44 101.4 -44 94.8 -44 88 C-44.99 87.67 -45.98 87.34 -47 87 Z M-56 89 C-56 95.27 -56 101.54 -56 108 C-55.01 108 -54.02 108 -53 108 C-53 101.73 -53 95.46 -53 89 C-53.99 89 -54.98 89 -56 89 Z M-65 90 C-65 95.61 -65 101.22 -65 107 C-64.01 107.33 -63.02 107.66 -62 108 C-62 102.39 -62 96.78 -62 91 C-62.99 90.67 -63.98 90.34 -65 90 Z " fill="#009ee2" transform="translate(71,4)"/>
<path d="M0 0 C0.125 6.75 0.125 6.75 -1 9 C-2.32 8.67 -3.64 8.34 -5 8 C-4.01 8 -3.02 8 -2 8 C-2 5.69 -2 3.38 -2 1 C-3.65 1 -5.3 1 -7 1 C-7 0.67 -7 0.34 -7 0 C-2.25 -1.125 -2.25 -1.125 0 0 Z " fill="#009ee2" transform="translate(123,59)"/>
<path d="M0 0 C1.65 0 3.3 0 5 0 C4.01 0.33 3.02 0.66 2 1 C2 3.31 2 5.62 2 8 C2.66 8.33 3.32 8.66 4 9 C3.01 9.33 2.02 9.66 1 10 C0 9 0 9 -0.09765625 6.93359375 C-0.08605469 6.10988281 -0.07445312 5.28617188 -0.0625 4.4375 C-0.05347656 3.61121094 -0.04445312 2.78492188 -0.03515625 1.93359375 C-0.02355469 1.29550781 -0.01195312 0.65742188 0 0 Z " fill="#009ee2" transform="translate(4,26)"/>
<path d="M0 0 C0.33 0 0.66 0 1 0 C1 2.31 1 4.62 1 7 C2.98 7 4.96 7 7 7 C7 7.33 7 7.66 7 8 C4.6739143 8.38063221 2.33944736 8.71269945 0 9 C-1 8 -1 8 -1.125 4.5 C-1 1 -1 1 0 0 Z " fill="#009ee2" transform="translate(5,81)"/>
</svg>
