<?xml version="1.0" encoding="UTF-8"?>
<svg version="1.1" xmlns="http://www.w3.org/2000/svg" width="149" height="148">
<path d="M0 0 C6.6 0 13.2 0 20 0 C20.99 2.64 21.98 5.28 23 8 C25.43256474 9.97302479 27.88663697 10.69625727 31 11 C33.23024131 9.76486718 33.23024131 9.76486718 35 8 C38.28725959 7.51299858 39.6227279 7.74004656 42.38671875 9.64453125 C43.14597656 10.35996094 43.90523438 11.07539063 44.6875 11.8125 C45.45449219 12.52019531 46.22148438 13.22789063 47.01171875 13.95703125 C49 16 49 16 51 19 C50.625 22.1875 50.625 22.1875 50 25 C51.010625 25.185625 52.02125 25.37125 53.0625 25.5625 C57.85923001 26.92742317 61.02958628 30.08908589 64 34 C66.05924224 38.00938555 66.29791384 41.45954791 66.3125 45.9375 C66.32925781 47.12214844 66.34601563 48.30679688 66.36328125 49.52734375 C65.83905369 54.53850831 63.75517867 57.86723199 61 62 C67.08213192 64.67205012 67.08213192 64.67205012 73.4921875 64.2734375 C75.80408737 63.16683938 75.80408737 63.16683938 77.89453125 61.8828125 C80 61 80 61 85 62 C85 73.88 85 85.76 85 98 C81.596875 99.77375 78.19375 101.5475 74.6875 103.375 C72.58198329 104.4803774 70.47650642 105.5858307 68.37109375 106.69140625 C64.38804014 108.7748404 60.38728663 110.80600413 56.34765625 112.77734375 C55.48503174 113.2067627 54.62240723 113.63618164 53.73364258 114.07861328 C52.11581 114.88236103 50.48955271 115.66943674 48.85424805 116.43701172 C45.00889793 118.37177374 42.7316352 119.75825712 40.984375 123.79296875 C40.65953125 124.85128906 40.3346875 125.90960938 40 127 C38.35 127 36.7 127 35 127 C34.9175 127.763125 34.835 128.52625 34.75 129.3125 C33.84730645 132.54715191 32.86406539 133.35099265 30 135 C29.34 135 28.68 135 28 135 C27.773125 135.94875 27.54625 136.8975 27.3125 137.875 C26 141 26 141 23.5625 142.0625 C22.716875 142.371875 21.87125 142.68125 21 143 C20.62875 143.86625 20.2575 144.7325 19.875 145.625 C18 148 18 148 15.51171875 148.359375 C11.16673811 148.38239476 7.19625529 148.14685791 3 147 C1.989375 146.855625 0.97875 146.71125 -0.0625 146.5625 C-3 146 -3 146 -6 144 C-6.6875 141.375 -6.6875 141.375 -7 139 C-7.78375 138.896875 -8.5675 138.79375 -9.375 138.6875 C-12 138 -12 138 -14 135 C-14 134.01 -14 133.02 -14 132 C-14.556875 131.95875 -15.11375 131.9175 -15.6875 131.875 C-19.15543888 130.56280691 -20.68848944 127.83160043 -23 125 C-23.70125 124.649375 -24.4025 124.29875 -25.125 123.9375 C-27.83560282 122.58219859 -28.67185898 120.65628204 -30 118 C-30 117.34 -30 116.68 -30 116 C-33.26208393 115.13011095 -36.04610458 115.05026627 -39.375 115.25 C-45.54791798 115.3522622 -50.96616038 113.26659534 -56.6796875 111.19140625 C-60.07642694 109.91050564 -60.07642694 109.91050564 -64 109 C-64 91.84 -64 74.68 -64 57 C-52.78823529 57 -52.78823529 57 -49.125 59.9375 C-46.39315983 62.069545 -44.44048692 63.3905864 -41 64 C-40.60811628 59.98001629 -40.60811628 59.98001629 -42.97265625 57.28515625 C-45.54895527 53.11045977 -45.56714516 50.22600673 -45.4375 45.4375 C-45.44458984 44.69564453 -45.45167969 43.95378906 -45.45898438 43.18945312 C-45.38890822 37.13595112 -43.57796395 33.98372611 -39.8125 29.25 C-36.0777831 26.26222648 -33.71644453 26.23981921 -29 26 C-29.495 25.01 -29.495 25.01 -30 24 C-30.375 21.125 -30.375 21.125 -30 18 C-27.8125 15.9375 -27.8125 15.9375 -25 14 C-23.3142876 12.35259924 -21.6436814 10.68933922 -20 9 C-19 8 -19 8 -16.75 7.75 C-14 8 -14 8 -11.625 9.6875 C-8.91479607 11.38669474 -8.91479607 11.38669474 -5.3125 10.1875 C-1.01360011 7.88448644 -1.01360011 7.88448644 0 0 Z M6 6 C4.52952664 9.91063224 4.52952664 9.91063224 4 14 C2.80375 14.103125 1.6075 14.20625 0.375 14.3125 C-3.58377703 14.7819479 -6.45092881 16.18419614 -10 18 C-10.99 17.67 -11.98 17.34 -13 17 C-13.33 16.34 -13.66 15.68 -14 15 C-18.25219775 15.47246642 -20.37314725 17.77272377 -23 21 C-23.00478037 23.1477633 -23.00478037 23.1477633 -22 25 C-21.67 25.99 -21.34 26.98 -21 28 C-18.49552484 29.21869929 -18.49552484 29.21869929 -16 30 C-15.360625 29.113125 -14.72125 28.22625 -14.0625 27.3125 C-9.18440625 21.46707888 -2.27584926 18.68081328 5 17 C15.43874805 16.58877659 24.10760563 17.6902491 32.09375 24.88671875 C33.78982808 26.54577925 35.41690469 28.2336525 37 30 C39.33779524 29.04362922 40.71629369 28.46790368 42.046875 26.2734375 C42.27890625 25.64695312 42.5109375 25.02046875 42.75 24.375 C43.1625 23.26125 43.575 22.1475 44 21 C43.09972412 19.96468274 42.17906965 18.94705835 41.25 17.9375 C40.48429687 17.08478516 40.48429687 17.08478516 39.703125 16.21484375 C38.04312742 14.73501743 38.04312742 14.73501743 35.796875 15.31640625 C35.20390625 15.54199219 34.6109375 15.76757812 34 16 C34 16.66 34 17.32 34 18 C29.55800974 18.53842306 27.33712512 17.14167075 23.71484375 14.890625 C21.41732764 13.69738201 19.54006972 13.69211276 17 14 C16.34 11.36 15.68 8.72 15 6 C12.03 6 9.06 6 6 6 Z M-9 31 C-11.39506424 33.46827581 -12.00656591 34.39429439 -11.96875 37.8828125 C-11.8140625 38.95273437 -11.659375 40.02265625 -11.5 41.125 C-10.66352787 49.20786657 -11.84120994 55.60947636 -17 62 C-14.14787234 64.85212766 -11.98009518 64.73901015 -8 65 C-5.54740506 64.52944399 -3.37043901 63.82239721 -1 63 C-1.33 61.68 -1.66 60.36 -2 59 C-2.66 59 -3.32 59 -4 59 C-6.84049955 51.36615745 -7.75985421 42.05182251 -4.4375 34.4375 C-2.11188413 30.63121521 0.69815345 28.24446275 5 27 C9.92271458 26.23751432 14.66134385 25.8368371 19.22265625 28.10546875 C23.32719138 31.35598171 25.58624729 34.92712264 27 40 C27.92989489 48.74887024 26.17271725 55.29652199 22 63 C28.61910181 65.24576669 31.6644368 64.94151148 38 62 C37.65066406 61.46890625 37.30132812 60.9378125 36.94140625 60.390625 C36.25884766 59.33101562 36.25884766 59.33101562 35.5625 58.25 C35.11003906 57.55390625 34.65757813 56.8578125 34.19140625 56.140625 C31.88751615 52.00117656 32.02666988 48.65144491 32.31958008 43.95751953 C32.81409503 36.87891437 32.81409503 36.87891437 30.3984375 30.43359375 C28.35574714 28.66249705 26.35761991 27.3142288 24 26 C23.21625 25.38125 22.4325 24.7625 21.625 24.125 C10.1610902 19.2118958 -0.37085891 22.78672113 -9 31 Z M-31.9375 32.6875 C-32.62714844 33.00074219 -33.31679688 33.31398437 -34.02734375 33.63671875 C-36.63732824 35.4404506 -37.65680661 37.13287773 -39 40 C-39.75963023 44.70337716 -40.11633754 49.76319034 -37.9453125 54.11328125 C-36.52931609 55.97039917 -36.52931609 55.97039917 -34 58 C-33.34 58 -32.68 58 -32 58 C-32 60.97 -32 63.94 -32 67 C-33.32 67.66 -34.64 68.32 -36 69 C-34.906875 69.66 -33.81375 70.32 -32.6875 71 C-32.07261719 71.37125 -31.45773438 71.7425 -30.82421875 72.125 C-28.88638074 73.21623999 -28.88638074 73.21623999 -26 73 C-25.67 75.31 -25.34 77.62 -25 80 C-22.01773585 79.76097486 -22.01773585 79.76097486 -19 78 C-17.53868671 74.76691126 -16.72873963 71.46470949 -16 68 C-18.64 67.67 -21.28 67.34 -24 67 C-23.80695424 58.78678038 -23.80695424 58.78678038 -20.5 55.5625 C-19.675 55.046875 -18.85 54.53125 -18 54 C-16.66172099 51.32344199 -16.79421444 49.17565948 -16.75 46.1875 C-16.72421875 45.14980469 -16.6984375 44.11210938 -16.671875 43.04296875 C-17.04629283 39.57068912 -17.93111109 37.78745406 -20 35 C-24.76189509 31.4042833 -26.57063025 30.15897477 -31.9375 32.6875 Z M4.75 32.5 C0.51626789 36.34884737 -1.13846426 39.76546723 -1.4375 45.4375 C-1.27419959 50.26302705 0.17050354 53.11954771 3 57 C3.99 57.33 4.98 57.66 6 58 C6 60.97 6 63.94 6 67 C5.35933594 67.10957031 4.71867187 67.21914062 4.05859375 67.33203125 C-1.32418977 68.3187412 -6.20631879 69.30355432 -11 72 C-12.50452457 74.54368999 -12.50452457 74.54368999 -13 77 C-12.16082031 76.94779297 -12.16082031 76.94779297 -11.3046875 76.89453125 C0.46053682 76.49731307 11.69907973 80.05265711 22.87109375 83.3737793 C26.68635958 84.48246364 29.97918463 85.29459439 34 85 C34.08204828 83.60517921 34.13966204 82.20891272 34.1875 80.8125 C34.22230469 80.03519531 34.25710937 79.25789063 34.29296875 78.45703125 C33.8973684 75.13926296 33.16614587 73.57229822 31 71 C28.36456684 69.6986743 25.64611215 68.94230498 22.8125 68.1875 C22.06291016 67.97158203 21.31332031 67.75566406 20.54101562 67.53320312 C18.69878718 67.00517586 16.84995735 66.50027615 15 66 C15.57712204 59.57295911 16.0231317 57.47918147 21 53 C22.83139088 48.77371335 22.43320268 43.69342867 21.3125 39.3125 C18.93706019 35.12720129 15.90666431 33.39563534 11.5625 31.5 C7.9535992 30.66582826 7.9535992 30.66582826 4.75 32.5 Z M40 36 C37.3808991 39.92865135 36.68992869 43.36193296 37.24609375 48.09375 C38.16428426 52.44906074 39.31337086 55.23502814 43 58 C43.66 58 44.32 58 45 58 C45 60.97 45 63.94 45 67 C42.36 67.33 39.72 67.66 37 68 C37.309375 68.825 37.61875 69.65 37.9375 70.5 C39.11877583 74.39126155 39.58224168 77.96166953 40 82 C44.84015316 80.23465356 49.2835127 77.80463275 53.8125 75.375 C54.60076172 74.95476562 55.38902344 74.53453125 56.20117188 74.1015625 C58.13535326 73.0699991 60.06823983 72.03608828 62 71 C62 70.34 62 69.68 62 69 C59.03 68.34 56.06 67.68 53 67 C53 64.03 53 61.06 53 58 C54.32 57.34 55.64 56.68 57 56 C60.61770603 51.99468261 60.44406689 47.73416364 60.28515625 42.59375 C59.92476812 39.31569904 59.22230506 37.45219869 57 35 C54.28575479 32.87261862 52.4760723 32.07090439 49.0625 31.5625 C45.16469912 32.1193287 43.06010349 33.56582677 40 36 Z M-58 63 C-58.21700021 68.49873202 -58.41386992 73.99767537 -58.59204102 79.49780273 C-58.65550484 81.36909282 -58.72448516 83.24020424 -58.79907227 85.11108398 C-58.90527889 87.79903823 -58.9916863 90.48700897 -59.07421875 93.17578125 C-59.11157639 94.01337479 -59.14893402 94.85096832 -59.18742371 95.71394348 C-59.43876925 99.97266484 -59.43876925 99.97266484 -57.71492004 103.70207214 C-55.05414352 105.7158663 -52.25120382 105.69328266 -49 106 C-47.85602518 101.64125819 -46.71682533 97.28130705 -45.58203125 92.92016602 C-45.19532135 91.43675073 -44.80730913 89.95367432 -44.41796875 88.47094727 C-43.85854804 86.33958289 -43.30382301 84.20704354 -42.75 82.07421875 C-42.57500977 81.41161545 -42.40001953 80.74901215 -42.21972656 80.06632996 C-41.50088942 77.28185301 -41 74.8909461 -41 72 C-43.64440376 70.49743011 -46.29041852 68.9978388 -48.9375 67.5 C-49.69224609 67.07074219 -50.44699219 66.64148438 -51.22460938 66.19921875 C-51.94326172 65.79316406 -52.66191406 65.38710937 -53.40234375 64.96875 C-54.06741943 64.59169922 -54.73249512 64.21464844 -55.41772461 63.82617188 C-56.850243 62.92285893 -56.850243 62.92285893 -58 63 Z M70.8125 72.5 C70.09433105 72.85876221 69.37616211 73.21752441 68.63623047 73.5871582 C63.88323994 75.98667037 59.23076909 78.51748893 54.625 81.1875 C53.48675781 81.84105469 52.34851563 82.49460937 51.17578125 83.16796875 C49.20734786 84.30351028 47.24507897 85.44990243 45.29296875 86.61328125 C38.33682866 90.50214697 32.10048783 91.31240623 24.328125 89.3125 C22.63777791 88.77978455 20.95013083 88.23840757 19.265625 87.6875 C13.68970941 85.99549803 9.97240665 86.82394307 4.875 89.3125 C3.24410627 90.19755818 1.61843681 91.09236314 0 92 C-1.03125 92.515625 -2.0625 93.03125 -3.125 93.5625 C-3.74375 94.036875 -4.3625 94.51125 -5 95 C-5 96.32 -5 97.64 -5 99 C-3.20800528 99.78282648 -3.20800528 99.78282648 -1 100 C1.09663191 98.65670412 1.09663191 98.65670412 3 97 C3.99 96.67 4.98 96.34 6 96 C6 95.34 6 94.68 6 94 C11.07514156 93.20486177 15.26983187 92.97641802 19.79296875 95.65234375 C23.17203435 98.42678578 26.33104034 101.36743161 29.45556641 104.42382812 C30.89907109 105.83329467 32.35568446 107.2292958 33.8125 108.625 C34.66457031 109.48351562 35.51664063 110.34203125 36.39453125 111.2265625 C38.84787538 113.23247057 38.84787538 113.23247057 41.703125 113.109375 C46.44924796 111.51233836 50.60928982 109.12019878 54.9375 106.625 C64.78846362 101.00841495 64.78846362 101.00841495 68.69140625 99.3984375 C72.71790666 97.77388739 72.71790666 97.77388739 79 94 C79 85.75 79 77.5 79 69 C76.33522347 69 73.21296763 71.29866125 70.8125 72.5 Z M-36 77 C-37.17665228 81.39322261 -38.33957098 85.78996685 -39.5 90.1875 C-39.83386719 91.43337891 -40.16773438 92.67925781 -40.51171875 93.96289062 C-40.82753906 95.16494141 -41.14335938 96.36699219 -41.46875 97.60546875 C-41.76201172 98.71043701 -42.05527344 99.81540527 -42.35742188 100.95385742 C-42.94723233 103.74985478 -43.12958035 106.15617421 -43 109 C-42.01 109 -41.02 109 -40 109 C-35.88495827 98.97676987 -33.50225125 88.51099987 -31 78 C-32.65 77.67 -34.3 77.34 -36 77 Z M-26.61254883 86.30151367 C-28.18825738 88.23046042 -28.75624031 89.73257386 -29.421875 92.125 C-29.64230469 92.91390625 -29.86273438 93.7028125 -30.08984375 94.515625 C-30.30769531 95.33546875 -30.52554688 96.1553125 -30.75 97 C-30.98332031 97.81984375 -31.21664062 98.6396875 -31.45703125 99.484375 C-32.87816741 104.22714785 -32.87816741 104.22714785 -32 109 C-28.99992729 110.70855022 -28.99992729 110.70855022 -26 112 C-25.21625 111.195625 -24.4325 110.39125 -23.625 109.5625 C-20.85665279 106.86006582 -19.96124026 106.17477096 -16.25 105.5 C-12.52575604 106.07296061 -12.15773173 106.58241956 -9.875 109.375 C-9.41867188 110.00148438 -8.96234375 110.62796875 -8.4921875 111.2734375 C-6.82330954 113.20444289 -5.26054141 113.88147847 -3 115 C-2.690625 115.825 -2.38125 116.65 -2.0625 117.5 C-1.23958333 120.23958333 -1.23958333 120.23958333 1.5 121.0625 C2.325 121.371875 3.15 121.68125 4 122 C4.6837045 123.32467746 5.34964186 124.65863633 6 126 C7.65071396 127.02611949 9.31970006 128.02308143 11 129 C11.825 129.845625 12.65 130.69125 13.5 131.5625 C15.97724988 133.97781863 17.74002375 134.97543604 21 136 C21.495 135.01 21.495 135.01 22 134 C21.67 133.34 21.34 132.68 21 132 C20.34 132 19.68 132 19 132 C19 131.34 19 130.68 19 130 C17.7262007 129.01055681 16.40490671 128.0816514 15.0625 127.1875 C11.1258048 124.36168881 11.1258048 124.36168881 10 121.125 C10 120.42375 10 119.7225 10 119 C14.27597647 119 14.55590237 119.0613962 17.4375 121.75 C18.03949219 122.29269531 18.64148438 122.83539063 19.26171875 123.39453125 C19.83535156 123.92433594 20.40898438 124.45414063 21 125 C23.58860393 127.3909907 23.58860393 127.3909907 26 129 C26.99 128.67 27.98 128.34 29 128 C28.95231597 126.12119128 28.95231597 126.12119128 28 124 C25.21829104 121.92293518 25.21829104 121.92293518 22 120 C20.31916921 118.68456721 18.6475884 117.35683751 17 116 C17.33 114.02 17.66 112.04 18 110 C19.7732461 111.26746453 21.54350975 112.53910235 23.3125 113.8125 C24.29863281 114.52019531 25.28476563 115.22789063 26.30078125 115.95703125 C29 118 29 118 30.60546875 119.76171875 C32.18767807 121.44264915 32.18767807 121.44264915 36 121 C33.91205707 114.52056841 29.05979919 111.26347982 24 107 C23.09507813 106.20980469 22.19015625 105.41960937 21.2578125 104.60546875 C19.95457031 103.50138672 19.95457031 103.50138672 18.625 102.375 C17.83351562 101.70210937 17.04203125 101.02921875 16.2265625 100.3359375 C14.14452614 98.79254388 14.14452614 98.79254388 12 99.1640625 C11.34 99.43992187 10.68 99.71578125 10 100 C9.24460938 100.309375 8.48921875 100.61875 7.7109375 100.9375 C6.94007812 101.288125 6.16921875 101.63875 5.375 102 C4.59898438 102.350625 3.82296875 102.70125 3.0234375 103.0625 C1.6728143 103.68827137 0.33139711 104.33430144 -1 105 C-3.6723621 105.13415472 -6.32250488 105.04318541 -9 105 C-10.79840245 101.1783948 -11.61508797 98.2177461 -11 94 C-7.52123726 89.43412391 -3.12604788 87.2768302 2 85 C2 84.34 2 83.68 2 83 C-4.60200684 79.69899658 -20.95083961 81.73185858 -26.61254883 86.30151367 Z M-20.25 112.6875 C-22.32147777 114.8856322 -22.32147777 114.8856322 -21.75 117.75 C-21.5025 118.4925 -21.255 119.235 -21 120 C-18.69 118.02 -16.38 116.04 -14 114 C-14.33 113.01 -14.66 112.02 -15 111 C-18.06875 110.7 -18.06875 110.7 -20.25 112.6875 Z M-10 118 C-12.56249975 120.31232422 -12.56249975 120.31232422 -15 123 C-15 123.99 -15 124.98 -15 126 C-11.21388773 125.45912682 -9.44599233 123.88277668 -7 121 C-7 120.34 -7 119.68 -7 119 C-7.99 118.67 -8.98 118.34 -10 118 Z M-5.6875 128.375 C-8.22034351 130.66706542 -8.22034351 130.66706542 -8 133 C-4.65980694 132.40353695 -2.49529367 131.31705841 0 129 C0 128.01 0 127.02 0 126 C-3.2230924 125.6689011 -3.2230924 125.6689011 -5.6875 128.375 Z M4 132 C1.23979568 134.76223489 1.23979568 134.76223489 -1 138 C-0.67 138.99 -0.34 139.98 0 141 C2.84383123 139.7251791 5.13754018 138.54862922 7 136 C6.77242269 133.83700789 6.77242269 133.83700789 6 132 C5.34 132 4.68 132 4 132 Z M12 139 C11.01 140.485 11.01 140.485 10 142 C11.485 142.99 11.485 142.99 13 144 C13.33 142.35 13.66 140.7 14 139 C13.34 139 12.68 139 12 139 Z " fill="#009ee2" transform="translate(64,0)"/>
<path d="M0 0 C0.66 0.33 1.32 0.66 2 1 C0.59921602 2.53547475 -0.82120903 4.05305148 -2.25 5.5625 C-3.43335938 6.83287109 -3.43335938 6.83287109 -4.640625 8.12890625 C-7 10 -7 10 -9.296875 9.77734375 C-10.13992187 9.39255859 -10.13992187 9.39255859 -11 9 C-10.67 8.34 -10.34 7.68 -10 7 C-9.01 7 -8.02 7 -7 7 C-5.62517293 5.36739286 -4.29352333 3.69774938 -3 2 C-2.01 1.34 -1.02 0.68 0 0 Z " fill="#009ee2" transform="translate(56,21)"/>
<path d="M0 0 C0 0.99 0 1.98 0 3 C-0.495 3.4125 -0.99 3.825 -1.5 4.25 C-3.82742825 6.96533296 -3.19449836 9.56386238 -3 13 C-3.66 13 -4.32 13 -5 13 C-5.29359745 9.9465865 -5.4451258 7.04256578 -5 4 C-2.5 1.4375 -2.5 1.4375 0 0 Z " fill="#009ee2" transform="translate(45,54)"/>
<path d="M0 0 C0.66 0.33 1.32 0.66 2 1 C-0.64 3.64 -3.28 6.28 -6 9 C-6 6 -6 6 -3.5625 3.375 C-2.716875 2.59125 -1.87125 1.8075 -1 1 C-0.67 0.67 -0.34 0.34 0 0 Z " fill="#009ee2" transform="translate(66,27)"/>
</svg>
