<?xml version="1.0" encoding="UTF-8"?>
<svg version="1.1" xmlns="http://www.w3.org/2000/svg" width="428" height="429">
<path d="M0 0 C3.60728316 0.98254589 7.22215158 1.93632778 10.83652496 2.89239502 C16.01041237 4.26344182 21.18196714 5.64269409 26.35056114 7.03356552 C35.36835657 9.46014317 44.39949758 11.83119093 53.44150543 14.16583252 C54.6991571 14.49056549 55.95680878 14.81529846 57.25257111 15.14987183 C59.69732709 15.78055709 62.14215937 16.4109467 64.58707428 17.04101562 C71.14450639 18.73294633 77.69852858 20.43802033 84.25302887 22.14126587 C85.12330719 22.36722443 85.99358551 22.59318298 86.8902359 22.82598877 C87.64158813 23.02120117 88.39294037 23.21641357 89.16706085 23.4175415 C91.1937802 23.93938802 93.22301871 24.4499383 95.25400543 24.95489502 C95.59689606 24.42380127 95.93978668 23.89270752 96.29306793 23.34552002 C101.56671977 16.22738897 107.72039023 14.43330643 116.25400543 12.95489502 C126.63412636 11.90066399 136.28728077 13.50449202 145.12119293 19.18145752 C148.43283285 21.93509218 149.89459043 24.93575501 151.25400543 28.95489502 C151.76225357 30.23103668 151.76225357 30.23103668 152.28076935 31.53295898 C153.47483108 35.73132659 153.54936771 39.49063335 153.54453278 43.83087158 C153.55125 44.70325974 153.55796722 45.57564789 153.564888 46.47447205 C153.58382898 49.34821325 153.58779046 52.22172034 153.58994293 55.09552002 C153.59637437 57.10323175 153.60310299 59.11094255 153.61011505 61.11865234 C153.62207866 65.3249936 153.6257969 69.5312528 153.6246109 73.73760986 C153.62440795 79.10851668 153.65168942 84.47889295 153.68615532 89.84967422 C153.70847444 93.99687074 153.71244688 98.14394069 153.71139145 102.2911911 C153.71374065 104.27019831 153.72252553 106.24920938 153.73805618 108.22815704 C153.89821922 130.74767234 153.89821922 130.74767234 147.80072784 137.58435059 C140.45652781 144.09201634 130.95653938 146.60734052 121.37900543 146.57989502 C120.22174957 146.57735718 120.22174957 146.57735718 119.04111481 146.57476807 C110.79094537 146.28226527 104.66698998 144.08528266 98.25400543 138.95489502 C94.67127976 139.46146894 91.85191894 141.16848977 88.74228668 142.91973877 C81.31932818 146.00778273 73.82397752 146.26811761 65.87900543 146.20489502 C64.91478668 146.21262939 63.95056793 146.22036377 62.95713043 146.22833252 C53.84371821 146.20389978 45.1646333 145.01327791 36.62900543 141.70489502 C35.62611481 141.32848877 34.62322418 140.95208252 33.58994293 140.56427002 C30.25400543 138.95489502 30.25400543 138.95489502 28.49025726 137.50582886 C21.52053046 131.8813459 14.77722247 132.17087872 6.15634918 132.36895752 C4.71191432 132.38016971 3.2674564 132.38870033 1.82299042 132.39468384 C-1.95050017 132.41742436 -5.72257082 132.4762134 -9.49550629 132.54290771 C-13.35680184 132.60465421 -17.21833036 132.63176727 -21.07997894 132.66192627 C-28.63595982 132.72597666 -36.19077708 132.82816932 -43.74599457 132.95489502 C-43.75408142 134.08162628 -43.76216827 135.20835754 -43.77050018 136.36923218 C-43.84801664 146.99251996 -43.93576997 157.61568054 -44.03352165 168.23880196 C-44.08344726 173.7001301 -44.12977777 179.16143925 -44.16786957 184.62286377 C-44.20476936 189.8943647 -44.25114233 195.1657053 -44.30405807 200.43706894 C-44.32257703 202.44724589 -44.3376942 204.45745717 -44.34933853 206.4676857 C-44.36624361 209.28536616 -44.39528922 212.10268142 -44.42714691 214.92022705 C-44.4293071 215.7495726 -44.43146729 216.57891815 -44.43369293 217.43339539 C-44.5194733 223.38033147 -45.10379366 228.75190047 -49.42568207 233.20880127 C-49.94259613 233.75343018 -50.45951019 234.29805908 -50.99208832 234.85919189 C-51.79839691 235.68000244 -51.79839691 235.68000244 -52.62099457 236.51739502 C-53.6824014 237.62141308 -54.74232484 238.7268594 -55.80068207 239.83380127 C-56.56203461 240.62609131 -56.56203461 240.62609131 -57.33876801 241.43438721 C-58.5817878 242.77746967 -59.73815291 244.1996358 -60.87880707 245.63067627 C-62.69132941 247.88684948 -64.55066342 249.70185782 -66.74599457 251.57989502 C-67.40599457 252.14966064 -68.06599457 252.71942627 -68.74599457 253.30645752 C-74.7031969 258.21649538 -79.02210278 259.68356406 -86.74599457 258.95489502 C-90.75590261 257.48973631 -93.17780686 255.60383878 -96.12685394 252.59381104 C-98.15349077 250.54242186 -100.22007106 248.5340755 -102.28505707 246.52130127 C-103.98056121 244.85352733 -105.67586847 243.1855532 -107.37099457 241.51739502 C-108.65876801 240.26732666 -108.65876801 240.26732666 -109.97255707 238.99200439 C-117.89018679 231.1671594 -120.73720546 224.95165519 -120.84606171 213.83753967 C-120.83991899 212.363362 -120.82826763 210.88919984 -120.81191254 209.4151001 C-120.80723969 208.60266342 -120.80256683 207.79022675 -120.79775238 206.95317078 C-120.78731759 205.20390756 -120.77467822 203.45465635 -120.76002884 201.70542336 C-120.73786828 198.9352002 -120.72388021 196.16504677 -120.71233368 193.39476013 C-120.67885889 185.5235142 -120.63695299 177.65238498 -120.57460785 169.78131104 C-120.53695649 164.95456421 -120.51393977 160.12793339 -120.50030136 155.30106163 C-120.49225485 153.46583492 -120.47865689 151.63062373 -120.45936966 149.79548073 C-120.43288187 147.23234298 -120.42499728 144.669764 -120.42128754 142.10650635 C-120.40893066 141.35158905 -120.39657379 140.59667175 -120.38384247 139.81887817 C-120.41166971 132.52557835 -123.61038794 128.97125957 -128.18349457 123.64239502 C-131.80256817 119.27252495 -134.57393206 115.1758159 -136.74599457 109.95489502 C-137.24615082 108.87337158 -137.74630707 107.79184814 -138.26161957 106.67755127 C-144.38564941 92.28398519 -141.64142939 75.62688625 -136.12099457 61.51739502 C-128.76492611 45.94195422 -116.86798674 37.16289236 -101.18349457 31.14239502 C-91.77423261 27.50723054 -86.33082047 22.40397932 -79.74599457 14.95489502 C-77.16931042 12.50704508 -74.49037102 10.21200463 -71.74599457 7.95489502 C-70.70572113 7.09831299 -70.70572113 7.09831299 -69.64443207 6.22442627 C-46.45769507 -12.33315652 -26.99939471 -7.39837481 0 0 Z M-56.49599457 20.39239502 C-57.05931488 20.86999268 -57.62263519 21.34759033 -58.20302582 21.83966064 C-61.09194341 24.32904708 -63.61646403 26.78309425 -65.74599457 29.95489502 C-64.59099457 30.53239502 -63.43599457 31.10989502 -62.24599457 31.70489502 C-61.14577972 32.25983643 -61.14577972 32.25983643 -60.02333832 32.82598877 C-58.60922252 33.52698271 -57.18598582 34.21024148 -55.74990082 34.86505127 C-42.77055301 40.89770588 -35.17069424 50.6814798 -29.00380707 63.32598877 C-28.68742279 63.96693481 -28.37103851 64.60788086 -28.04506683 65.26824951 C-27.27533773 66.82880616 -26.51018079 68.39161662 -25.74599457 69.95489502 C-25.10563766 69.96076126 -24.46528076 69.9666275 -23.8055191 69.97267151 C-17.13800738 70.03662695 -10.47097737 70.12105261 -3.8038559 70.21734619 C-1.31596479 70.25059159 1.17200167 70.27862468 3.66001129 70.30133057 C7.23724212 70.33488272 10.81378262 70.38720094 14.39072418 70.44317627 C15.50235428 70.44956619 16.61398437 70.45595612 17.75930023 70.46253967 C18.80000168 70.48233383 19.84070313 70.50212799 20.91294098 70.52252197 C22.28194801 70.53917656 22.28194801 70.53917656 23.67861176 70.5561676 C26.7937356 71.03845709 28.70547689 72.12758789 31.25400543 73.95489502 C32.78247204 77.01182824 32.48642988 79.58474049 32.25400543 82.95489502 C30.49385413 86.13993072 29.75509627 86.78786474 26.25400543 87.95489502 C23.53278984 88.02906564 20.83791607 88.04649089 18.11753082 88.01739502 C16.39748519 88.00794812 14.67743809 87.99876463 12.95738983 87.98980713 C12.04466372 87.98351288 11.1319376 87.97721863 10.19155312 87.97073364 C5.344539 87.94370091 0.49755824 87.95364549 -4.34951019 87.95880127 C-10.51175308 87.96499524 -16.67308076 87.95989129 -22.8351059 87.90362549 C-27.81874948 87.85910429 -32.80071027 87.85895331 -37.78444862 87.88775635 C-39.6753029 87.89081898 -41.56625649 87.87811215 -43.45688438 87.84869385 C-54.8183074 87.68177971 -62.13079886 88.32173151 -70.8275528 96.02349854 C-71.46063858 96.66085938 -72.09372437 97.29822021 -72.74599457 97.95489502 C-72.73108964 103.2784777 -72.73108964 103.2784777 -70.26161957 107.78692627 C-64.57614683 112.77993758 -60.07646034 113.10248289 -52.61611176 113.11260986 C-51.79932449 113.11769058 -50.98253723 113.1227713 -50.14099884 113.12800598 C-48.36932441 113.13869442 -46.5976366 113.14732057 -44.82594299 113.15412521 C-42.01734179 113.1659399 -39.20889257 113.18540028 -36.40035248 113.20724487 C-28.41552064 113.26876823 -20.43070449 113.3228481 -12.4457016 113.35626221 C-7.55856511 113.37726168 -2.67170633 113.41260796 2.215271 113.45701981 C4.07307151 113.47113881 5.93092115 113.47989294 7.78877258 113.48307419 C10.39499006 113.4880086 13.00047672 113.51123147 15.60654449 113.53839111 C16.74619408 113.53388191 16.74619408 113.53388191 17.90886688 113.52928162 C25.42193705 113.64496749 31.28905781 115.99023888 37.37900543 120.45489502 C43.75723864 124.59330971 49.75536436 126.05354321 57.25400543 126.95489502 C57.96008942 127.05012451 58.6661734 127.145354 59.39365387 127.24346924 C69.16331596 128.4277356 75.84705595 127.64863225 83.81650543 121.57989502 C89.3181574 117.43664195 89.3181574 117.43664195 91.56821442 111.22637939 C92.47093227 97.64142259 92.36476536 84.06419333 92.31650543 70.45489502 C92.31147899 67.97442718 92.30691811 65.49395834 92.30283356 63.01348877 C92.29192187 56.99393559 92.27527499 50.97442005 92.25400543 44.95489502 C85.37759126 42.12599745 78.29505807 40.32148024 71.09738922 38.51560783 C67.19660147 37.53652376 63.29975545 36.54194355 59.40244293 35.5491333 C58.57913483 35.33976985 57.75582672 35.1304064 56.90756989 34.9146986 C48.30321142 32.72220619 39.71976348 30.45216779 31.13654327 28.17860031 C25.84936173 26.78002976 20.55947636 25.39171741 15.2698288 24.00250816 C10.76745369 22.81931792 6.26655398 21.63094368 1.76816559 20.43267822 C-2.69765739 19.24340076 -7.16679297 18.06740966 -11.63845062 16.90027046 C-13.31086124 16.4612905 -14.98205559 16.01764536 -16.65187836 15.56892204 C-32.05439399 11.43461408 -43.73321366 9.17616286 -56.49599457 20.39239502 Z M112.25400543 33.95489502 C110.61942186 37.22406216 111.11587937 40.83548791 111.1246109 44.42779541 C111.12285858 45.30430252 111.12110626 46.18080963 111.11930084 47.08387756 C111.1148883 49.99012209 111.11781798 52.89630609 111.12119293 55.80255127 C111.12051978 57.81511954 111.11954966 59.82768774 111.11829376 61.84025574 C111.11681765 66.06117526 111.11896881 70.28207365 111.12363434 74.50299072 C111.12933522 79.92626405 111.12604979 85.34948792 111.12006187 90.77275944 C111.11645705 94.92901485 111.11759442 99.08525845 111.12018967 103.24151421 C111.12085896 105.24189701 111.12003042 107.24228086 111.11771011 109.24266243 C111.11518448 112.03226715 111.11902274 114.82179053 111.1246109 117.61138916 C111.12258667 118.44621826 111.12056244 119.28104736 111.11847687 120.14117432 C110.77617543 123.85071886 110.77617543 123.85071886 112.25400543 126.95489502 C115.20428917 127.1087714 118.11499132 127.18660523 121.06650543 127.20489502 C121.88699371 127.22552002 122.70748199 127.24614502 123.55283356 127.26739502 C124.34754059 127.27255127 125.14224762 127.27770752 125.96103668 127.28302002 C126.68782623 127.29236572 127.41461578 127.30171143 128.16342926 127.31134033 C131.09212748 126.81199438 132.19447027 126.13767244 134.25400543 123.95489502 C134.64541692 120.97539195 134.78031924 118.36483238 134.73984528 115.38433838 C134.74364197 114.50929153 134.74743866 113.63424469 134.7513504 112.73268127 C134.75876823 109.83633743 134.73735803 106.94099365 134.71494293 104.04473877 C134.71255935 102.03599668 134.711653 100.02725235 134.71216583 98.01850891 C134.70903582 93.80762793 134.69245367 89.59708696 134.66562653 85.3862915 C134.63162461 79.97988458 134.62399842 74.57385113 134.62551689 69.16734982 C134.62497394 65.01960157 134.61401913 60.87193552 134.59951401 56.72421455 C134.59313547 54.73024683 134.58920466 52.73626978 134.58772659 50.7422924 C134.583406 47.96005142 134.56593261 45.17821225 134.54453278 42.39605713 C134.54543915 41.56639435 134.54634552 40.73673157 134.54727936 39.88192749 C134.67782176 35.44777956 134.67782176 35.44777956 132.25400543 31.95489502 C129.10200363 31.63351599 129.10200363 31.63351599 125.50400543 31.70489502 C123.68642731 31.69716064 123.68642731 31.69716064 121.83213043 31.68927002 C118.27847396 31.95307858 115.52669521 32.56351194 112.25400543 33.95489502 Z M-110.74599457 58.95489502 C-113.10293319 61.80029375 -114.96536085 64.72490828 -116.74599457 67.95489502 C-117.14431488 68.59684814 -117.54263519 69.23880127 -117.95302582 69.90020752 C-123.33019757 78.67848791 -122.34830152 88.75998293 -120.67958832 98.61114502 C-117.69717767 109.29291704 -110.10147164 116.51693836 -100.74599457 121.95489502 C-94.44745286 125.05382229 -86.79823524 127.39566006 -79.74599457 126.95489502 C-79.43015809 123.97971929 -79.43015809 123.97971929 -81.12099457 122.26739502 C-82.65716715 120.74544932 -82.65716715 120.74544932 -84.74599457 120.95489502 C-85.01411957 120.27427002 -85.28224457 119.59364502 -85.55849457 118.89239502 C-86.3972758 116.81751512 -87.32341912 114.77694893 -88.30849457 112.76739502 C-90.92363721 106.62981535 -91.565957 99.61610393 -89.69130707 93.17364502 C-87.93710029 89.05633325 -85.56177862 85.29054686 -83.20693207 81.49395752 C-81.57975402 79.15420171 -81.57975402 79.15420171 -81.74599457 76.95489502 C-80.50849457 76.70739502 -79.27099457 76.45989502 -77.99599457 76.20489502 C-74.2090783 75.38370725 -70.69150189 74.23343799 -67.05849457 72.89239502 C-60.36151999 70.56789675 -53.79163547 70.16334593 -46.74599457 69.95489502 C-50.19318429 61.92450987 -57.24164888 54.20570989 -65.29677582 50.77130127 C-82.18485092 44.62672521 -97.29166315 46.16822215 -110.74599457 58.95489502 Z M-68.87099457 143.95489502 C-69.59544769 144.14052002 -70.31990082 144.32614502 -71.06630707 144.51739502 C-71.62060394 144.66177002 -72.17490082 144.80614502 -72.74599457 144.95489502 C-72.75534027 146.19465088 -72.76468597 147.43440674 -72.77431488 148.71173096 C-72.81454684 153.36393605 -72.88039401 158.01550267 -72.9535141 162.66729736 C-72.98153278 164.6707939 -73.00284111 166.67439706 -73.01699066 168.67803955 C-73.10104801 179.91370545 -73.38523158 189.48203845 -77.74599457 199.95489502 C-77.74599457 200.61489502 -77.74599457 201.27489502 -77.74599457 201.95489502 C-81.79634081 202.2676186 -83.88349982 201.80072894 -87.02724457 199.19708252 C-92.85385909 192.98512436 -91.56288694 184.78674716 -91.33730316 176.81085205 C-91.27655035 174.99379076 -91.21567843 173.17673344 -91.15468597 171.35968018 C-90.45787044 158.75615742 -90.45787044 158.75615742 -95.71474457 147.69708252 C-97.78042939 145.484526 -97.78042939 145.484526 -99.74599457 143.95489502 C-100.07599457 143.95489502 -100.40599457 143.95489502 -100.74599457 143.95489502 C-101.16647287 153.68225639 -101.48451663 163.40641243 -101.67861366 173.1409359 C-101.77187 177.66360674 -101.89784182 182.17998751 -102.10390472 186.69903564 C-103.90400866 208.11490993 -103.90400866 208.11490993 -96.65908051 227.44805908 C-92.51424173 231.96124478 -87.93593217 235.70492177 -82.74599457 238.95489502 C-81.64657226 238.02071182 -80.5483372 237.08513129 -79.45058441 236.14898682 C-78.53301865 235.36771675 -78.53301865 235.36771675 -77.5969162 234.57066345 C-74.74351499 232.07977701 -72.0500828 229.443092 -69.37099457 226.76739502 C-68.83861176 226.2472583 -68.30622894 225.72712158 -67.75771332 225.19122314 C-63.64237982 221.09159702 -62.63407855 218.59977744 -62.6215744 212.82203674 C-62.62516968 212.13151718 -62.62876495 211.44099762 -62.63246918 210.72955322 C-62.63232315 209.99759735 -62.63217712 209.26564148 -62.63202667 208.51150513 C-62.63272317 206.09286533 -62.64050328 203.67430261 -62.64833832 201.25567627 C-62.65020343 199.57844586 -62.65162689 197.90121491 -62.65262604 196.22398376 C-62.65644387 191.8098907 -62.66626791 187.39583055 -62.67733002 182.98175049 C-62.6875599 178.47736049 -62.69212704 173.97296517 -62.69716644 169.46856689 C-62.70789082 160.63066181 -62.72495846 151.79278115 -62.74599457 142.95489502 C-64.9562899 142.95489502 -66.7326705 143.40306945 -68.87099457 143.95489502 Z " fill="#39a935" transform="translate(274.7459945678711,7.04510498046875)"/>
<path d="M0 0 C0.70125 0.825 1.4025 1.65 2.125 2.5 C2.82625 3.2425 3.5275 3.985 4.25 4.75 C8.97545831 11.68067219 10.10792939 19.24796487 9.125 27.5 C5.58987141 44.13867189 -10.24160909 56.08937722 -21.8125 67.5 C-24.22996404 69.88978775 -26.64590333 72.28107016 -29.05897522 74.67529297 C-30.55086612 76.15497759 -32.04542255 77.63198075 -33.54295349 79.10595703 C-34.21447952 79.77095215 -34.88600555 80.43594727 -35.57788086 81.12109375 C-36.16806503 81.7030249 -36.75824921 82.28495605 -37.36631775 82.88452148 C-39.08080125 84.63265906 -39.08080125 84.63265906 -40.875 87.5 C-41.535 87.5 -42.195 87.5 -42.875 87.5 C-43.205 88.49 -43.535 89.48 -43.875 90.5 C-44.97041903 91.65715176 -46.0769957 92.8050697 -47.22653198 93.90847778 C-49.22917346 95.84193865 -51.16625991 97.83292783 -53.10766602 99.82788086 C-57.09032244 103.90673635 -61.08632252 107.97218144 -65.09227085 112.02814388 C-67.50304624 114.4701438 -69.90791133 116.91741463 -72.30004883 119.37768555 C-75.08011074 122.23635168 -77.88498505 125.06954915 -80.69140625 127.90234375 C-81.53248428 128.7743895 -82.37356232 129.64643524 -83.24012756 130.54490662 C-95.05709352 142.36837307 -107.56133837 145.69229985 -123.91241455 145.76786804 C-125.15070007 145.76374405 -126.3889856 145.75962006 -127.66479492 145.75537109 C-129.01302806 145.75812802 -130.36125957 145.76181214 -131.70948792 145.76634216 C-134.58986298 145.77439149 -137.47016072 145.77663868 -140.35054588 145.77439499 C-144.91135766 145.77153901 -149.47201744 145.7859963 -154.03279114 145.80337524 C-166.99376186 145.85019222 -179.9547198 145.87434968 -192.91577148 145.88085938 C-200.09163678 145.88461533 -207.26732747 145.90267909 -214.44311792 145.93595374 C-218.97121898 145.95609791 -223.4988677 145.95857381 -228.02699506 145.94767356 C-230.84742856 145.94505739 -233.66760099 145.95911273 -236.48796654 145.97775459 C-238.40669355 145.98556824 -240.3254696 145.97367611 -242.24417114 145.96107483 C-250.78704929 146.04251352 -256.29811424 147.14049404 -262.703125 153.15625 C-263.50234375 154.0946875 -264.3015625 155.033125 -265.125 156 C-274.09781797 166.40161064 -282.33694002 172.70591531 -296.48953247 173.77236938 C-300.6331231 173.87852055 -304.76582012 173.89143243 -308.91015625 173.86328125 C-310.43989562 173.86276111 -311.96963567 173.86328476 -313.49937439 173.86479187 C-316.68726738 173.86470274 -319.87490435 173.85439508 -323.06274414 173.83618164 C-327.12294485 173.81347734 -331.18277328 173.81296044 -335.24302006 173.81969929 C-338.39598323 173.82306045 -341.54886347 173.81636932 -344.70181084 173.80657005 C-346.19793703 173.80275615 -347.69407251 173.80155378 -349.19020271 173.8031559 C-373.3716414 173.8074878 -373.3716414 173.8074878 -382.8203125 164.60546875 C-390.9614949 155.69785704 -391.31446719 148.07996044 -390.875 136.5 C-390.8440625 135.283125 -390.813125 134.06625 -390.78125 132.8125 C-390.33723088 123.22168705 -386.93235021 117.52909313 -381.125 110.0625 C-380.47084106 109.21619019 -380.47084106 109.21619019 -379.8034668 108.3527832 C-376.73345674 104.44402154 -373.468821 100.87813643 -369.86035156 97.45336914 C-368.00340848 95.62633992 -366.29986387 93.74670632 -364.60546875 91.76953125 C-360.36623715 86.88244365 -355.92881244 82.19598344 -351.48046875 77.5 C-347.63479573 73.42342736 -343.92706871 69.2741078 -340.33789062 64.96875 C-339.85513672 64.4840625 -339.37238281 63.999375 -338.875 63.5 C-338.215 63.5 -337.555 63.5 -336.875 63.5 C-336.66359375 62.95601563 -336.4521875 62.41203125 -336.234375 61.8515625 C-334.37913334 58.64220767 -331.84008478 56.34521352 -329.125 53.875 C-328.54790283 53.34938477 -327.97080566 52.82376953 -327.3762207 52.28222656 C-316.57141876 42.62159966 -305.03640594 35.50758658 -291.875 29.5 C-291.00488281 29.09007812 -290.13476562 28.68015625 -289.23828125 28.2578125 C-275.44652567 22.21660208 -260.08312413 20.31813321 -245.1875 20.25 C-244.07955078 20.229375 -242.97160156 20.20875 -241.83007812 20.1875 C-231.70896192 20.14017742 -222.40438156 21.73724929 -213.375 26.5 C-212.4159375 26.995 -211.456875 27.49 -210.46875 28 C-207.875 29.5 -207.875 29.5 -206.22277832 31.06396484 C-202.84173567 33.13200341 -199.56694869 32.96056861 -195.71679688 32.9765625 C-194.89668121 32.99168884 -194.07656555 33.00681519 -193.2315979 33.0223999 C-191.45183714 33.05335877 -189.67194953 33.07759072 -187.89201355 33.09588623 C-185.06519874 33.12529705 -182.23919875 33.1728439 -179.41271973 33.22509766 C-173.40034998 33.33296657 -167.38776963 33.41792587 -161.375 33.5 C-154.43150678 33.59526516 -147.4884042 33.70013997 -140.54542542 33.82781982 C-137.77831277 33.87400583 -135.01135966 33.90346102 -132.24401855 33.93212891 C-108.15268274 34.28837244 -108.15268274 34.28837244 -99.203125 43.07421875 C-98.76484375 43.54472656 -98.3265625 44.01523437 -97.875 44.5 C-93.0951511 41.47691026 -88.91591008 38.0593518 -84.6875 34.3125 C-79.42843544 29.70125862 -74.10914369 25.19712201 -68.66796875 20.80078125 C-66.62131397 19.11479571 -64.60956726 17.4115898 -62.61328125 15.66796875 C-56.53052643 10.35512845 -50.37833032 5.23189067 -43.875 0.4375 C-43.26430664 -0.01544434 -42.65361328 -0.46838867 -42.02441406 -0.93505859 C-28.53500767 -10.72360143 -12.95100895 -11.26174691 0 0 Z M-37.6875 20.1875 C-38.91185564 21.26535154 -40.13712516 22.34216583 -41.36328125 23.41796875 C-41.95963379 23.94438965 -42.55598633 24.47081055 -43.17041016 25.01318359 C-45.52537237 27.06728269 -47.94449292 29.03620772 -50.375 31 C-55.21731567 34.93082095 -59.94943328 38.9777268 -64.67260742 43.04980469 C-68.30148156 46.17152409 -71.96959327 49.23407566 -75.6875 52.25 C-76.5640625 52.97832031 -77.440625 53.70664062 -78.34375 54.45703125 C-80.875 56.5 -80.875 56.5 -83.34375 58.19921875 C-89.17103553 62.52112218 -90.8718325 66.68449697 -92.8125 73.4375 C-95.2586816 81.80400225 -98.10085368 86.94765838 -105.875 91.5 C-117.70218263 95.67795693 -130.63872055 95.08791198 -143 95.0625 C-144.61693756 95.06576294 -144.61693756 95.06576294 -146.26654053 95.0690918 C-169.12928746 95.06404047 -191.36826979 92.319406 -213.875 88.5 C-214.0390625 82.7890625 -214.0390625 82.7890625 -212.5625 80.1875 C-209.43137237 77.05637237 -206.07122314 77.37899303 -201.85687256 77.35655212 C-201.03551819 77.35708084 -200.21416382 77.35760956 -199.36791992 77.3581543 C-198.49929825 77.35467987 -197.63067657 77.35120544 -196.73573303 77.34762573 C-194.84835132 77.34027159 -192.96096097 77.33492439 -191.07356834 77.33133507 C-188.08496968 77.3241696 -185.0965352 77.30850233 -182.10798645 77.28999329 C-173.61034394 77.23752772 -165.11279124 77.18954655 -156.61499023 77.17407227 C-151.41774431 77.16398736 -146.22091127 77.13464985 -141.02382851 77.09275246 C-139.04435665 77.08044495 -137.06482647 77.07532074 -135.08531761 77.07755089 C-132.31318525 77.07990548 -129.54223605 77.05772554 -126.77026367 77.0300293 C-125.95498199 77.03663071 -125.13970032 77.04323212 -124.29971313 77.05003357 C-119.04141496 76.96390666 -116.05838185 75.96141558 -111.875 72.5 C-109.92417733 69.96393053 -108.99199927 68.25618478 -108.50390625 65.1015625 C-108.64236737 62.31994871 -108.64236737 62.31994871 -110.95703125 60.33203125 C-111.85808594 59.66558594 -112.75914062 58.99914062 -113.6875 58.3125 C-114.58082031 57.63832031 -115.47414063 56.96414063 -116.39453125 56.26953125 C-121.19547984 52.84460257 -124.09181083 52.21364796 -129.87548828 52.24462891 C-131.0980407 52.23919823 -131.0980407 52.23919823 -132.34529114 52.23365784 C-134.11643479 52.22676194 -135.88759969 52.22425876 -137.65875626 52.22560501 C-140.46762683 52.22657017 -143.27611459 52.21362717 -146.08493042 52.19662476 C-154.07156356 52.15036369 -162.05815942 52.12576784 -170.04492188 52.11914062 C-174.93094148 52.1141087 -179.81656472 52.08976806 -184.7024498 52.05381393 C-186.55943287 52.04404936 -188.41647071 52.04166565 -190.27347183 52.04698563 C-208.78194441 52.0974954 -208.78194441 52.0974954 -215.875 47.5 C-216.81730469 46.96117187 -217.75960937 46.42234375 -218.73046875 45.8671875 C-219.50003906 45.37476563 -220.26960937 44.88234375 -221.0625 44.375 C-234.58599359 36.11526622 -251.4125465 37.72869998 -266.375 41.125 C-297.36654529 48.72047477 -319.85564425 69.96055365 -340.20849609 93.58618164 C-342.97232763 96.76017453 -345.86508999 99.81140385 -348.75 102.875 C-364.97285908 118.10087094 -364.97285908 118.10087094 -373.1328125 137.75390625 C-373.08425414 144.07256489 -373.08425414 144.07256489 -370.16015625 149.3828125 C-368.10265266 150.66252609 -366.12584128 151.61052098 -363.875 152.5 C-363.01409004 153.01175278 -363.01409004 153.01175278 -362.13578796 153.53384399 C-359.18807047 154.79356185 -356.80116512 154.76869123 -353.59692383 154.79052734 C-352.3249263 154.80328705 -351.05292877 154.81604675 -349.74238586 154.82919312 C-348.35560254 154.83225184 -346.96881718 154.83447903 -345.58203125 154.8359375 C-344.15199145 154.8423696 -342.72195297 154.84909827 -341.29191589 154.85610962 C-338.29345657 154.86807896 -335.29511238 154.87179108 -332.29663086 154.87060547 C-328.47470419 154.87040291 -324.65352638 154.89764023 -320.83177662 154.93214989 C-317.87614123 154.9545161 -314.92068285 154.95843998 -311.96497154 154.95738602 C-310.55730307 154.95972988 -309.1496288 154.96848422 -307.74204445 154.98405075 C-299.83558415 155.06326404 -292.6195836 155.07838549 -285.875 150.5 C-284.31166295 148.90536158 -282.96676655 147.26930582 -281.60546875 145.5 C-277.9315957 141.25389842 -273.27217895 137.96269842 -268.875 134.5 C-268.17928391 133.84240692 -267.48356781 133.18481384 -266.76676941 132.5072937 C-262.94375041 129.85358213 -259.45577742 129.10444848 -254.9230957 128.27001953 C-254.01061978 128.10115297 -253.09814386 127.93228642 -252.15801716 127.75830269 C-239.8978828 125.73258707 -227.54992339 126.02568952 -215.162256 126.16028738 C-211.65611033 126.1933582 -208.14990466 126.20103421 -204.64363098 126.21121216 C-198.03092891 126.23374144 -191.41850955 126.27503985 -184.80596286 126.32500756 C-172.94070966 126.41448522 -161.07535203 126.48024799 -149.20984918 126.52549565 C-145.05807641 126.54219656 -140.90658102 126.57011749 -136.75494421 126.60744071 C-133.56999012 126.63384464 -130.38497165 126.64750857 -127.19995117 126.66357422 C-125.4972406 126.68378632 -125.4972406 126.68378632 -123.76013184 126.70440674 C-112.7836028 126.73586605 -105.37162077 124.91020729 -97.25390625 117.109375 C-95.97656409 115.82808637 -94.70451353 114.54150311 -93.4375 113.25 C-92.80779297 112.61964844 -92.17808594 111.98929687 -91.52929688 111.33984375 C-88.54257468 108.32549514 -85.67496062 105.26621183 -82.92138672 102.03759766 C-78.24961781 96.67758448 -73.18431029 91.71346752 -68.13430977 86.71471024 C-66.3456795 84.94366237 -64.56078109 83.16892859 -62.77684021 81.39315796 C-57.71041245 76.35103653 -52.63815567 71.31480747 -47.56176758 66.28271484 C-44.44372816 63.19137532 -41.33051086 60.09524803 -38.22025871 56.99607468 C-37.03594415 55.81797864 -35.84973424 54.64178484 -34.661623 53.46751785 C-33.01020405 51.83520307 -31.3649339 50.19692387 -29.72094727 48.55712891 C-28.98003342 47.82935745 -28.98003342 47.82935745 -28.22415161 47.08688354 C-25.60571403 44.74281424 -25.60571403 44.74281424 -24.875 41.5 C-24.215 41.5 -23.555 41.5 -22.875 41.5 C-21.01329669 39.65236497 -19.3786109 37.65617581 -17.69140625 35.6484375 C-16.61151934 34.37115191 -15.50315842 33.11585832 -14.33984375 31.9140625 C-11.23887226 28.64131708 -9.966719 25.87225115 -9.6796875 21.45703125 C-10.0296808 17.95009843 -11.55520896 16.05771833 -13.875 13.5 C-23.43057084 7.6496505 -30.34860289 13.56045896 -37.6875 20.1875 Z " fill="#39a935" transform="translate(390.875,255.5)"/>
</svg>
