<?xml version="1.0" encoding="UTF-8"?>
<!DOCTYPE svg PUBLIC "-//W3C//DTD SVG 1.1//EN" "http://www.w3.org/Graphics/SVG/1.1/DTD/svg11.dtd">
<svg xmlns="http://www.w3.org/2000/svg" version="1.1" width="463px" height="602px" style="shape-rendering:geometricPrecision; text-rendering:geometricPrecision; image-rendering:optimizeQuality; fill-rule:evenodd; clip-rule:evenodd" xmlns:xlink="http://www.w3.org/1999/xlink">
<g><path style="opacity:0.998" fill="#39a935" d="M 211.5,-0.5 C 217.833,-0.5 224.167,-0.5 230.5,-0.5C 236.994,1.06509 242.994,3.89843 248.5,8C 251.333,10.8333 254.167,13.6667 257,16.5C 262.277,24.0803 267.777,31.4136 273.5,38.5C 275.458,41.7915 277.791,44.7915 280.5,47.5C 314.081,94.3002 348.414,140.634 383.5,186.5C 388.671,193.501 392.838,201.168 396,209.5C 398.396,222.201 396.062,233.868 389,244.5C 386.323,247.01 383.823,249.677 381.5,252.5C 378.37,253.572 375.704,255.406 373.5,258C 358.137,263.65 343.47,262.483 329.5,254.5C 323.795,249.796 318.795,244.463 314.5,238.5C 306.269,225.934 297.269,213.934 287.5,202.5C 268.229,174.957 248.229,147.957 227.5,121.5C 225.552,118.379 223.385,115.379 221,112.5C 216.647,118.021 212.481,123.688 208.5,129.5C 196.169,146.158 183.836,162.825 171.5,179.5C 163.105,189.29 155.438,199.623 148.5,210.5C 139.201,221.739 130.368,233.406 122,245.5C 107.133,261.744 89.2992,265.911 68.5,258C 46.2174,243.813 39.8841,224.146 49.5,199C 54.9204,191.238 60.7538,183.738 67,176.5C 67.7914,175.255 68.2914,173.922 68.5,172.5C 71.5595,170.102 73.8929,167.102 75.5,163.5C 90.3183,144.532 104.652,125.198 118.5,105.5C 130.06,90.0936 141.893,74.7603 154,59.5C 162.379,47.9588 170.546,36.2921 178.5,24.5C 183.564,17.9295 189.231,11.7628 195.5,6C 200.76,3.31074 206.094,1.14407 211.5,-0.5 Z"/></g>
<g><path style="opacity:0.004" fill="#000000" d="M 178.5,24.5 C 177.833,23.1667 177.833,23.1667 178.5,24.5 Z"/></g>
<g><path style="opacity:0.004" fill="#000000" d="M 273.5,37.5 C 274.833,38.1667 274.833,38.1667 273.5,37.5 Z"/></g>
<g><path style="opacity:0.004" fill="#000000" d="M 280.5,46.5 C 281.833,47.1667 281.833,47.1667 280.5,46.5 Z"/></g>
<g><path style="opacity:0.004" fill="#000000" d="M 118.5,105.5 C 117.833,104.167 117.833,104.167 118.5,105.5 Z"/></g>
<g><path style="opacity:0.004" fill="#000000" d="M 227.5,121.5 C 226.833,122.167 226.833,122.167 227.5,121.5 Z"/></g>
<g><path style="opacity:0.004" fill="#000000" d="M 208.5,129.5 C 209.833,130.167 209.833,130.167 208.5,129.5 Z"/></g>
<g><path style="opacity:0.004" fill="#000000" d="M 75.5,163.5 C 74.8333,162.167 74.8333,162.167 75.5,163.5 Z"/></g>
<g><path style="opacity:0.004" fill="#000000" d="M 68.5,172.5 C 67.8333,171.167 67.8333,171.167 68.5,172.5 Z"/></g>
<g><path style="opacity:0.004" fill="#000000" d="M 171.5,179.5 C 172.833,180.167 172.833,180.167 171.5,179.5 Z"/></g>
<g><path style="opacity:0.004" fill="#000000" d="M 383.5,185.5 C 384.833,186.167 384.833,186.167 383.5,185.5 Z"/></g>
<g><path style="opacity:0.004" fill="#000000" d="M 287.5,202.5 C 286.833,203.167 286.833,203.167 287.5,202.5 Z"/></g>
<g><path style="opacity:0.004" fill="#000000" d="M 148.5,210.5 C 149.833,211.167 149.833,211.167 148.5,210.5 Z"/></g>
<g><path style="opacity:0.004" fill="#000000" d="M 314.5,238.5 C 313.833,239.167 313.833,239.167 314.5,238.5 Z"/></g>
<g><path style="opacity:0.004" fill="#000000" d="M 381.5,252.5 C 382.833,253.167 382.833,253.167 381.5,252.5 Z"/></g>
<g><path style="opacity:0.004" fill="#000000" d="M 329.5,254.5 C 328.833,255.167 328.833,255.167 329.5,254.5 Z"/></g>
<g><path style="opacity:0.993" fill="#009ee2" d="M 83.5,287.5 C 86.1954,290.526 88.8621,293.526 91.5,296.5C 92.4461,300.392 93.9461,304.059 96,307.5C 98.0292,315.913 97.6959,324.246 95,332.5C 76.9961,377.575 81.6627,420.242 109,460.5C 112.381,465.282 116.214,469.615 120.5,473.5C 123.257,477.763 126.591,481.596 130.5,485C 175.137,520.804 224.137,527.971 277.5,506.5C 285.486,502.508 293.153,498.008 300.5,493C 302.729,490.6 305.063,488.433 307.5,486.5C 313.5,482.5 318.5,477.5 322.5,471.5C 351.894,437.888 362.06,398.554 353,353.5C 351.673,346.85 349.673,340.85 347,335.5C 338.769,307.807 347.936,288.641 374.5,278C 394.521,274.117 410.687,280.284 423,296.5C 439.025,330.647 445.025,366.647 441,404.5C 434.166,460.935 409.999,508.268 368.5,546.5C 367.833,546.5 367.5,546.833 367.5,547.5C 364.553,548.781 362.219,550.781 360.5,553.5C 353.286,558.267 346.286,563.267 339.5,568.5C 318.98,580.583 297.647,589.749 275.5,596C 264.747,598.175 254.08,600.008 243.5,601.5C 228.167,601.5 212.833,601.5 197.5,601.5C 117.653,590.592 58.4865,549.259 20,477.5C 9.29353,453.798 2.46019,429.131 -0.5,403.5C -0.5,389.833 -0.5,376.167 -0.5,362.5C 1.5048,342.99 6.0048,323.99 13,305.5C 22.7641,284.204 39.2641,274.704 62.5,277C 70.0741,279.454 77.0741,282.954 83.5,287.5 Z"/></g>
<g><path style="opacity:0.004" fill="#000000" d="M 83.5,286.5 C 84.8333,287.167 84.8333,287.167 83.5,286.5 Z"/></g>
<g><path style="opacity:0.004" fill="#000000" d="M 91.5,295.5 C 92.8333,296.167 92.8333,296.167 91.5,295.5 Z"/></g>
<g><path style="opacity:0.004" fill="#0000ff" d="M 322.5,471.5 C 321.833,470.167 321.833,470.167 322.5,471.5 Z"/></g>
<g><path style="opacity:0.004" fill="#000000" d="M 120.5,472.5 C 121.833,473.167 121.833,473.167 120.5,472.5 Z"/></g>
<g><path style="opacity:0.004" fill="#0000ff" d="M 307.5,486.5 C 306.833,485.167 306.833,485.167 307.5,486.5 Z"/></g>
<g><path style="opacity:0.004" fill="#0000ff" d="M 368.5,546.5 C 369.833,547.167 369.833,547.167 368.5,546.5 Z"/></g>
<g><path style="opacity:0.004" fill="#0000ff" d="M 367.5,547.5 C 367.833,547.5 368.167,547.5 368.5,547.5C 368.315,548.17 367.981,548.17 367.5,547.5 Z"/></g>
<g><path style="opacity:0.004" fill="#0000ff" d="M 360.5,553.5 C 361.833,554.167 361.833,554.167 360.5,553.5 Z"/></g>
<g><path style="opacity:0.004" fill="#0000ff" d="M 339.5,568.5 C 340.833,569.167 340.833,569.167 339.5,568.5 Z"/></g>
</svg>
