<?xml version="1.0" encoding="UTF-8"?>
<svg version="1.1" xmlns="http://www.w3.org/2000/svg" width="470" height="381">
<path d="M0 0 C6.26688653 4.93711425 11.71613855 10.49104946 15.24169922 17.71777344 C15.69158203 18.58273438 16.14146484 19.44769531 16.60498047 20.33886719 C19.49900866 26.21659769 21.06240806 31.1894661 21.24169922 37.71777344 C21.31517578 38.67039063 21.38865234 39.62300781 21.46435547 40.60449219 C22.12614521 54.40026288 17.91058895 66.51605995 8.92138672 76.94042969 C3.16999682 82.90141834 -3.46115813 86.84926333 -10.94580078 90.28417969 C-13.5869215 92.37316956 -13.88375925 94.49738955 -14.75830078 97.71777344 C-15.05410488 100.9201312 -15.05410488 100.9201312 -15.00985718 104.32128906 C-15.01524002 105.63347412 -15.02062286 106.94565918 -15.02616882 108.29760742 C-15.0221552 109.73974652 -15.0179843 111.1818852 -15.01367188 112.62402344 C-15.01642371 114.15210151 -15.02010478 115.68017814 -15.02464294 117.20825195 C-15.03273876 120.49196304 -15.03492751 123.77560609 -15.03269577 127.05932617 C-15.02985779 132.25347435 -15.04423208 137.44748705 -15.06167603 142.64160156 C-15.10865876 157.40915913 -15.13264761 172.17670693 -15.13916016 186.94433594 C-15.14291119 195.10567171 -15.16094144 203.26685364 -15.19425452 211.42812347 C-15.21446258 216.58983092 -15.21684215 221.75114145 -15.20597434 226.91287231 C-15.20336581 230.12543259 -15.21737762 233.33776204 -15.23605537 236.55026245 C-15.24137393 238.03774168 -15.23988625 239.52526351 -15.23101997 241.01272583 C-15.21987633 243.04655223 -15.23569309 245.08047264 -15.2527771 247.11425781 C-15.25386663 248.25133179 -15.25495617 249.38840576 -15.25607872 250.55993652 C-15.87737368 254.46647175 -17.32297875 256.63486219 -19.75830078 259.71777344 C-24.47933857 263.01152073 -29.16011526 263.63073918 -34.75830078 262.71777344 C-38.66382771 260.6926854 -41.54982223 258.55355197 -43.75830078 254.71777344 C-44.75655368 250.81350292 -44.88174847 247.13841857 -44.8785553 243.11820984 C-44.87940972 242.46873644 -44.88026415 241.81926304 -44.88114446 241.15010864 C-44.88278659 238.9821241 -44.87729873 236.8142176 -44.87182617 234.64624023 C-44.871544 233.08887229 -44.87170262 231.53150422 -44.87226868 229.97413635 C-44.87255548 225.75141494 -44.86667759 221.52872196 -44.85969472 217.30600715 C-44.85344178 212.89108407 -44.85285584 208.47616034 -44.85166931 204.06123352 C-44.84856173 195.70322547 -44.84035604 187.3452305 -44.83031982 178.98722821 C-44.81914092 169.47097105 -44.81364375 159.95471326 -44.80862439 150.43845117 C-44.79817296 130.86488462 -44.78058459 111.29132986 -44.75830078 91.71777344 C-46.14807129 91.27099243 -46.14807129 91.27099243 -47.56591797 90.81518555 C-58.44324308 87.07600106 -69.19163377 79.08022882 -74.74755859 68.90625 C-81.46778508 55.10388409 -83.32553763 39.70240282 -79.38330078 24.65527344 C-74.09805828 10.59799651 -62.90531987 0.78470255 -49.74658203 -5.78613281 C-33.52706112 -11.8711034 -14.04140309 -10.23957915 0 0 Z M-44.75830078 27.71777344 C-47.13196001 30.73879427 -47.75830078 31.88949898 -47.75830078 35.71777344 C-48.41830078 35.71777344 -49.07830078 35.71777344 -49.75830078 35.71777344 C-50.29761137 42.80071918 -50.38721864 48.70140839 -46.42626953 54.80371094 C-42.71633418 59.0610138 -38.59227617 61.22366534 -33.04736328 62.19042969 C-26.30063779 62.55894831 -20.93491518 61.14746151 -15.75830078 56.71777344 C-11.32548952 51.53750923 -9.93832094 46.18422058 -10.27001953 39.43652344 C-11.29885788 33.70795151 -13.81436983 29.24514775 -18.38330078 25.65527344 C-20.79782218 24.53419017 -20.79782218 24.53419017 -23.75830078 24.71777344 C-23.75830078 24.05777344 -23.75830078 23.39777344 -23.75830078 22.71777344 C-31.96229426 22.09310388 -38.17494095 22.41932375 -44.75830078 27.71777344 Z " fill="#009ee2" transform="translate(264.75830078125,118.2822265625)"/>
<path d="M0 0 C2.96810968 1.63844696 5.81676844 3.50414518 7.90234375 6.203125 C7.90234375 6.863125 7.90234375 7.523125 7.90234375 8.203125 C8.56234375 8.203125 9.22234375 8.203125 9.90234375 8.203125 C12.48447134 10.61840742 14.64544034 13.48796709 16.90234375 16.203125 C17.37140137 16.75597168 17.84045898 17.30881836 18.32373047 17.87841797 C43.11237968 47.12133885 60.46415669 81.46095751 68.43537903 119.01390076 C68.85296363 120.97162111 69.28558735 122.92611958 69.72021484 124.88012695 C72.05427002 136.46211532 72.39553842 147.78991745 72.34838867 159.58447266 C72.33990976 162.80306754 72.36870263 166.01986153 72.40039062 169.23828125 C72.5887851 224.80165001 47.85327099 279.86116574 9.02734375 319.265625 C2.95196752 325.17826794 -1.15416407 328.59700376 -9.8125 328.484375 C-14.36724143 327.92379144 -17.03957295 325.40228608 -19.97265625 322.078125 C-21.68879648 317.69243331 -21.94063562 313.83951155 -21.09765625 309.203125 C-18.54403441 303.6340561 -14.52646106 299.51010631 -10.1484375 295.3359375 C10.39402503 273.97177647 24.96902031 246.24109921 33.90234375 218.203125 C34.28132813 217.03523437 34.6603125 215.86734375 35.05078125 214.6640625 C45.15540258 181.61511302 44.23975485 145.29985187 34.90234375 112.203125 C34.71365723 111.52072754 34.5249707 110.83833008 34.33056641 110.13525391 C25.97971234 80.71918236 9.83821212 53.30020414 -11.33935547 31.33911133 C-15.09765625 27.40593401 -15.09765625 27.40593401 -15.09765625 25.203125 C-15.75765625 25.203125 -16.41765625 25.203125 -17.09765625 25.203125 C-20.43457215 19.4678008 -22.32299639 14.88679847 -21.09765625 8.203125 C-16.83823156 -0.31572439 -9.03784135 -3.4333699 0 0 Z " fill="#009ee2" transform="translate(398.09765625,0.796875)"/>
<path d="M0 0 C4.09304344 3.79355246 5.38484105 6.77606941 6 12.3125 C6.17236739 17.72483591 2.59371855 22.1802326 -0.77734375 26.0859375 C-2.06318359 27.40464844 -2.06318359 27.40464844 -3.375 28.75 C-37.47074083 64.87801421 -56.93731591 112.71897923 -56.8125 162.3125 C-56.81162384 163.16739014 -56.81074768 164.02228027 -56.80984497 164.90307617 C-56.714904 193.08970404 -50.95031974 219.99319541 -38.4375 245.375 C-37.97972168 246.30916748 -37.97972168 246.30916748 -37.51269531 247.26220703 C-29.23902549 263.92529232 -18.57846941 279.87249237 -5.75 293.375 C-1.07481695 298.46686603 5.74716878 306.6031587 5.46484375 313.8984375 C3.56858922 319.10287635 0.41397475 323.4294229 -3.4375 327.375 C-6.40757492 328.72072257 -8.38132313 328.34307076 -11.4375 327.375 C-12.20964844 327.13265625 -12.98179688 326.8903125 -13.77734375 326.640625 C-21.87048163 323.31642935 -27.01263886 316.94173481 -32.4375 310.375 C-32.87674805 309.85292969 -33.31599609 309.33085937 -33.76855469 308.79296875 C-56.82359325 281.24313764 -72.93508125 249.91018786 -81.8125 215.1875 C-81.98221313 214.53411652 -82.15192627 213.88073303 -82.32678223 213.20755005 C-86.63114498 196.45579881 -87.82765098 179.81235997 -87.75 162.5625 C-87.74850952 161.73560669 -87.74701904 160.90871338 -87.7454834 160.0567627 C-87.70418997 147.27120858 -87.01263598 134.92878791 -84.4375 122.375 C-84.15601472 120.86983565 -83.8747651 119.3646272 -83.59375 117.859375 C-77.92092563 88.96528779 -65.55576538 60.32662589 -48.4375 36.375 C-47.81488281 35.47910156 -47.19226562 34.58320312 -46.55078125 33.66015625 C-39.48069791 23.66452119 -31.60401271 14.39091212 -23 5.6875 C-22.5040332 5.18226807 -22.00806641 4.67703613 -21.49707031 4.15649414 C-15.18911766 -2.09655995 -8.29125979 -3.91950463 0 0 Z " fill="#009ee2" transform="translate(87.4375,1.625)"/>
<path d="M0 0 C2.74529314 2.38218824 4.81757375 5.11035714 7 8 C7.54914063 8.49628906 8.09828125 8.99257813 8.6640625 9.50390625 C10.89375243 12.00089819 10.5967166 14.33548356 10.45703125 17.55859375 C9.22973869 24.11464374 4.13254232 28.87551275 -0.15649414 33.70556641 C-16.54589542 52.24589692 -25.47077014 73.1015039 -31 97 C-31.23589844 97.97066406 -31.47179687 98.94132812 -31.71484375 99.94140625 C-39.33888927 135.50173536 -29.42279057 171.90632137 -10.3125 202 C-6.47704847 207.63857216 -2.06527785 212.71540974 2.52026367 217.75 C7.8260165 223.6451037 10.62662409 228.52362423 10.34765625 236.6015625 C9.63102912 241.54548451 6.95020858 244.14028748 3.375 247.375 C-1.40224044 249.6751528 -4.84154897 250.66310716 -10 249 C-14.32217784 246.02432703 -17.92598207 242.18886175 -21.55249023 238.42431641 C-23.10468006 236.83434253 -23.10468006 236.83434253 -25.5234375 235.1015625 C-28.94046998 232.20193557 -31.27738152 228.79797589 -33.8125 225.125 C-34.33875977 224.36759521 -34.86501953 223.61019043 -35.40722656 222.82983398 C-60.68889434 186.00132498 -71.90749273 140.52958833 -64.48046875 96.14208984 C-58.29032465 63.19874553 -44.78520746 34.73979678 -21.91015625 10.12109375 C-19.98171395 8.06726902 -19.98171395 8.06726902 -18.5078125 5.86328125 C-14.22818014 0.57472002 -6.40257524 -1.23920811 0 0 Z M5 227 C6 229 6 229 6 229 Z M6 229 C7 231 7 231 7 231 Z " fill="#009ee2" transform="translate(125,40)"/>
<path d="M0 0 C3.9512549 2.82452987 7.25655897 6.06091031 10.60546875 9.56445312 C11.81730748 10.81193417 13.09155202 11.9981956 14.375 13.171875 C35.40150425 32.54629677 46.95357136 62.70874884 53 90 C53.2477417 91.09803955 53.2477417 91.09803955 53.50048828 92.21826172 C62.51574866 133.9196678 52.96200973 179.80401502 30.24609375 215.609375 C23.99605207 225.16475325 16.84848429 233.74067448 9 242 C8.48695313 242.55171875 7.97390625 243.1034375 7.4453125 243.671875 C5.81210821 245.17265732 4.21558548 246.16146438 2.25 247.1875 C1.61578125 247.53167969 0.9815625 247.87585938 0.328125 248.23046875 C-3.0139789 249.33515746 -5.49668797 249.4061261 -9 249 C-11.38744446 247.4123947 -13.00511107 246.14517909 -14.9375 244.125 C-15.41823975 243.62830811 -15.89897949 243.13161621 -16.39428711 242.61987305 C-19.20138045 239.4897826 -20.81298659 237.03452953 -21.0625 232.8125 C-20.35234405 227.28714027 -17.65855307 224.0251133 -14 220 C12.19800802 190.35812238 25.65751899 154.48193705 23.8125 114.6875 C21.92353122 85.00712071 9.71701298 56.71503779 -9.6875 34.3125 C-21.03985044 21.15484141 -21.03985044 21.15484141 -20.48828125 12.140625 C-19.38971037 7.32449027 -16.41719398 4.25522895 -12.8125 1.0625 C-8.27933401 -0.65002937 -4.74232581 -1.35024554 0 0 Z " fill="#009ee2" transform="translate(355,40)"/>
<path d="M0 0 C4.36934608 2.91289739 7.25876848 5.1896103 8.33203125 10.39453125 C8.85584838 19.10451371 5.29054847 23.75755272 -0.12109375 30.1640625 C-15.45570862 48.51777308 -20.01527125 70.49510089 -18.1875 93.875 C-15.82601488 109.59619363 -7.83207047 123.58108584 2.61328125 135.2890625 C6.70432545 140.09949102 8.69798484 143.82343069 8.57421875 150.1640625 C7.01015317 155.7305318 2.17204433 159.33733698 -2.1875 162.875 C-5.33174302 164.44712151 -8.76541292 164.3929375 -12.1875 163.875 C-29.24818887 155.27706171 -40.29904821 133.37398164 -46.16308594 115.98144531 C-54.98439187 87.25852641 -53.35635158 56.71693749 -39.25 29.9375 C-36.19751767 24.69450574 -32.82276143 19.72944931 -29.1875 14.875 C-28.48496094 13.91980469 -27.78242188 12.96460937 -27.05859375 11.98046875 C-19.89832128 2.67834087 -12.19827723 -4.30527431 0 0 Z " fill="#009ee2" transform="translate(169.1875,83.125)"/>
<path d="M0 0 C4.6880502 1.18296594 7.30308659 4.16610329 10.5078125 7.6328125 C11.28898437 8.39722656 12.07015625 9.16164063 12.875 9.94921875 C31.25161711 28.69794804 40.97152009 55.77875404 40.8203125 81.8203125 C40.81511597 83.30470825 40.81511597 83.30470825 40.80981445 84.8190918 C40.41990111 111.50769084 30.62945159 135.30589665 13.8828125 155.8203125 C13.45202393 156.36115479 13.02123535 156.90199707 12.57739258 157.45922852 C8.26028893 162.55209349 2.99559911 164.7927988 -3.5546875 165.5703125 C-7.17985251 165.83436094 -8.45107511 165.65184602 -11.8671875 164.0703125 C-16.22739082 160.02155228 -18.70606177 156.84704195 -19.1171875 150.8203125 C-18.80514325 143.86172576 -14.96626973 139.52942318 -10.59375 134.41015625 C4.91788 116.04757449 9.02081062 94.18218325 7.5078125 70.6328125 C5.60111772 54.27071081 -3.88474352 39.83344518 -14.20703125 27.48828125 C-17.92339817 22.84441079 -19.01576404 19.70723553 -18.87109375 13.8046875 C-18.25114546 10.25116945 -16.23356767 8.83783568 -13.4921875 6.6328125 C-13.05777344 6.09398438 -12.62335938 5.55515625 -12.17578125 5 C-8.64236747 0.67131645 -5.57862338 -0.38300996 0 0 Z " fill="#009ee2" transform="translate(311.4921875,81.3671875)"/>
<path d="M0 0 C3.9512549 2.82452987 7.25655897 6.06091031 10.60546875 9.56445312 C11.81730748 10.81193417 13.09155202 11.9981956 14.375 13.171875 C35.40150425 32.54629677 46.95357136 62.70874884 53 90 C53.2477417 91.09803955 53.2477417 91.09803955 53.50048828 92.21826172 C62.51574866 133.9196678 52.96200973 179.80401502 30.24609375 215.609375 C23.99605207 225.16475325 16.84848429 233.74067448 9 242 C8.48695313 242.55171875 7.97390625 243.1034375 7.4453125 243.671875 C5.81210821 245.17265732 4.21558548 246.16146438 2.25 247.1875 C1.61578125 247.53167969 0.9815625 247.87585938 0.328125 248.23046875 C-3.0139789 249.33515746 -5.49668797 249.4061261 -9 249 C-11.38744446 247.4123947 -13.00511107 246.14517909 -14.9375 244.125 C-15.41823975 243.62830811 -15.89897949 243.13161621 -16.39428711 242.61987305 C-19.20138045 239.4897826 -20.81298659 237.03452953 -21.0625 232.8125 C-20.35234405 227.28714027 -17.65855307 224.0251133 -14 220 C12.19800802 190.35812238 25.65751899 154.48193705 23.8125 114.6875 C21.92353122 85.00712071 9.71701298 56.71503779 -9.6875 34.3125 C-21.03985044 21.15484141 -21.03985044 21.15484141 -20.48828125 12.140625 C-19.38971037 7.32449027 -16.41719398 4.25522895 -12.8125 1.0625 C-8.27933401 -0.65002937 -4.74232581 -1.35024554 0 0 Z M-16 8 C-17.91435876 11.82871751 -17.69039937 15.84590208 -17 20 C-14.64958188 24.77665618 -11.15948413 28.65971495 -7.6953125 32.6640625 C15.71893492 59.81860504 26.9394027 92.21729707 26 128 C25.95746094 129.92972656 25.95746094 129.92972656 25.9140625 131.8984375 C24.8112922 165.01649331 11.22411101 195.69637074 -11.0859375 219.8984375 C-14.92178847 224.1100453 -17.8444123 228.07183633 -18.37109375 233.91015625 C-17.59994488 238.252942 -14.08654845 241.07556018 -11 244 C-10.53078125 244.57105469 -10.0615625 245.14210938 -9.578125 245.73046875 C-8.02077824 247.2052242 -8.02077824 247.2052242 -5.609375 247.3359375 C4.5931468 246.02243918 11.63482182 236.64275694 17.51318359 229.04394531 C40.27626879 199.18151596 52.78499475 165.62719397 54 128 C54.04125 126.73285156 54.0825 125.46570313 54.125 124.16015625 C54.26669592 115.57869734 53.46615478 107.4465269 52 99 C51.80535156 97.75734375 51.61070312 96.5146875 51.41015625 95.234375 C46.5735185 66.50074006 33.52629895 31.299227 9.91796875 12.55859375 C6.93743848 10.13653351 4.33388884 7.3564829 1.6640625 4.6015625 C-0.69428713 2.33178939 -1.88363708 2.01597138 -5.1875 1.5625 C-10.21790545 2.13975964 -12.64433481 4.34099784 -16 8 Z " fill="#009ee2" transform="translate(355,40)"/>
<path d="M0 0 C2.74529314 2.38218824 4.81757375 5.11035714 7 8 C7.54914063 8.49628906 8.09828125 8.99257813 8.6640625 9.50390625 C10.89375243 12.00089819 10.5967166 14.33548356 10.45703125 17.55859375 C9.22973869 24.11464374 4.13254232 28.87551275 -0.15649414 33.70556641 C-16.54589542 52.24589692 -25.47077014 73.1015039 -31 97 C-31.23589844 97.97066406 -31.47179687 98.94132812 -31.71484375 99.94140625 C-39.33888927 135.50173536 -29.42279057 171.90632137 -10.3125 202 C-6.47704847 207.63857216 -2.06527785 212.71540974 2.52026367 217.75 C7.8260165 223.6451037 10.62662409 228.52362423 10.34765625 236.6015625 C9.63102912 241.54548451 6.95020858 244.14028748 3.375 247.375 C-1.40224044 249.6751528 -4.84154897 250.66310716 -10 249 C-14.32217784 246.02432703 -17.92598207 242.18886175 -21.55249023 238.42431641 C-23.10468006 236.83434253 -23.10468006 236.83434253 -25.5234375 235.1015625 C-28.94046998 232.20193557 -31.27738152 228.79797589 -33.8125 225.125 C-34.33875977 224.36759521 -34.86501953 223.61019043 -35.40722656 222.82983398 C-60.68889434 186.00132498 -71.90749273 140.52958833 -64.48046875 96.14208984 C-58.29032465 63.19874553 -44.78520746 34.73979678 -21.91015625 10.12109375 C-19.98171395 8.06726902 -19.98171395 8.06726902 -18.5078125 5.86328125 C-14.22818014 0.57472002 -6.40257524 -1.23920811 0 0 Z M-35 30 C-49.47442267 51.68422033 -59.41807243 76.09350058 -63 102 C-63.16628906 103.17175781 -63.16628906 103.17175781 -63.3359375 104.3671875 C-65.0780996 119.48162082 -64.52104427 135.02471616 -62 150 C-61.88172852 150.75039551 -61.76345703 151.50079102 -61.64160156 152.27392578 C-55.83744391 188.36160826 -38.48691564 221.15462495 -10.89453125 245.1640625 C-7.55240627 247.28389886 -5.8836162 247.51424435 -2 247 C2.73568207 244.53744532 5.67875306 241.82819365 8 237 C7.89789344 230.06404693 5.74328253 226.46813983 1.4375 221.1875 C0.33677507 219.77900873 -0.76348453 218.37015367 -1.86328125 216.9609375 C-2.40162598 216.28256836 -2.9399707 215.60419922 -3.49462891 214.90527344 C-29.74680947 181.67919217 -39.25696299 145.23021318 -34.6953125 103.19921875 C-33.80083059 95.9298844 -32.06988527 89.01289487 -30 82 C-29.60554688 80.52273437 -29.60554688 80.52273437 -29.203125 79.015625 C-24.08456404 61.53525644 -13.37678675 44.58238496 -1.1171875 31.3046875 C5.64875377 24.2498118 5.64875377 24.2498118 8.6328125 15.23046875 C7.11826096 9.89214202 2.2475419 5.32948529 -2 2 C-15.95349075 -0.53309524 -28.37876448 20.55291575 -35 30 Z " fill="#009ee2" transform="translate(125,40)"/>
<path d="M0 0 C4.36934608 2.91289739 7.25876848 5.1896103 8.33203125 10.39453125 C8.85584838 19.10451371 5.29054847 23.75755272 -0.12109375 30.1640625 C-15.45570862 48.51777308 -20.01527125 70.49510089 -18.1875 93.875 C-15.82601488 109.59619363 -7.83207047 123.58108584 2.61328125 135.2890625 C6.70432545 140.09949102 8.69798484 143.82343069 8.57421875 150.1640625 C7.01015317 155.7305318 2.17204433 159.33733698 -2.1875 162.875 C-5.33174302 164.44712151 -8.76541292 164.3929375 -12.1875 163.875 C-29.24818887 155.27706171 -40.29904821 133.37398164 -46.16308594 115.98144531 C-54.98439187 87.25852641 -53.35635158 56.71693749 -39.25 29.9375 C-36.19751767 24.69450574 -32.82276143 19.72944931 -29.1875 14.875 C-28.48496094 13.91980469 -27.78242188 12.96460937 -27.05859375 11.98046875 C-19.89832128 2.67834087 -12.19827723 -4.30527431 0 0 Z M-29.75 19.75 C-41.47690783 36.9599587 -48.45045609 54.93066889 -49.1875 75.875 C-49.2390625 76.63039063 -49.290625 77.38578125 -49.34375 78.1640625 C-50.44832826 104.9500852 -39.94436597 133.05651751 -22.1875 152.875 C-16.12754601 159.19976418 -16.12754601 159.19976418 -8.234375 162.41015625 C-4.17452776 161.69708052 -2.07147008 159.6801795 0.6875 156.8125 C1.43386719 156.11350586 1.43386719 156.11350586 2.1953125 155.40039062 C4.69505239 152.87661478 5.78395757 151.00635656 6.5390625 147.53125 C5.50239186 142.3144558 2.72855267 139.40010379 -0.6875 135.4375 C-12.42847179 121.060649 -20.38691253 104.75552124 -21.1875 85.875 C-21.2390625 85.00101562 -21.290625 84.12703125 -21.34375 83.2265625 C-22.0944443 59.89248145 -12.38125428 41.50016671 1.67578125 23.625 C4.85711295 19.53056213 6.28081583 17.23523811 6.125 11.9375 C5.59879909 8.46457399 4.10658118 6.47093397 1.8125 3.875 C-12.00662687 -5.13747405 -22.28137548 9.32334258 -29.75 19.75 Z " fill="#009ee2" transform="translate(169.1875,83.125)"/>
<path d="M0 0 C4.6880502 1.18296594 7.30308659 4.16610329 10.5078125 7.6328125 C11.28898437 8.39722656 12.07015625 9.16164063 12.875 9.94921875 C31.25161711 28.69794804 40.97152009 55.77875404 40.8203125 81.8203125 C40.81511597 83.30470825 40.81511597 83.30470825 40.80981445 84.8190918 C40.41990111 111.50769084 30.62945159 135.30589665 13.8828125 155.8203125 C13.45202393 156.36115479 13.02123535 156.90199707 12.57739258 157.45922852 C8.26028893 162.55209349 2.99559911 164.7927988 -3.5546875 165.5703125 C-7.17985251 165.83436094 -8.45107511 165.65184602 -11.8671875 164.0703125 C-16.22739082 160.02155228 -18.70606177 156.84704195 -19.1171875 150.8203125 C-18.80514325 143.86172576 -14.96626973 139.52942318 -10.59375 134.41015625 C4.91788 116.04757449 9.02081062 94.18218325 7.5078125 70.6328125 C5.60111772 54.27071081 -3.88474352 39.83344518 -14.20703125 27.48828125 C-17.92339817 22.84441079 -19.01576404 19.70723553 -18.87109375 13.8046875 C-18.25114546 10.25116945 -16.23356767 8.83783568 -13.4921875 6.6328125 C-13.05777344 6.09398438 -12.62335938 5.55515625 -12.17578125 5 C-8.64236747 0.67131645 -5.57862338 -0.38300996 0 0 Z M-8.6796875 5.8203125 C-9.34226562 6.47515625 -10.00484375 7.13 -10.6875 7.8046875 C-11.28304688 8.40796875 -11.87859375 9.01125 -12.4921875 9.6328125 C-13.3378125 10.2721875 -14.1834375 10.9115625 -15.0546875 11.5703125 C-16.96813196 14.31568933 -16.53015291 16.30773028 -16.0559082 19.5222168 C-15.13863152 22.95654201 -13.07283761 25.4297489 -10.8046875 28.0703125 C-9.88742662 29.20159007 -8.97205923 30.33440557 -8.05859375 31.46875 C-7.61531738 32.01112305 -7.17204102 32.55349609 -6.71533203 33.11230469 C4.66878606 47.26405867 10.08904722 62.53084181 9.8203125 80.6328125 C9.82514648 82.26089844 9.82514648 82.26089844 9.83007812 83.921875 C9.76299257 94.14327479 8.59397001 104.05995498 4.8828125 113.6328125 C4.62411377 114.30723389 4.36541504 114.98165527 4.09887695 115.67651367 C0.01380284 125.83207768 -6.63946304 134.09987021 -13.70703125 142.35546875 C-16.7963652 146.29656655 -16.98084406 149.74624692 -16.4921875 154.6328125 C-15.31174066 157.54650081 -13.91189257 159.6145071 -11.4921875 161.6328125 C-6.78979566 163.53043125 -2.29262742 162.8801803 2.4453125 161.3828125 C17.62134853 154.45257933 26.3421397 134.5904721 32.00390625 119.84765625 C35.46050742 110.40772409 38.1656962 100.72524321 38.5078125 90.6328125 C38.559375 89.36953125 38.6109375 88.10625 38.6640625 86.8046875 C39.44293922 59.23755892 29.98223827 31.76366151 11.08642578 11.52954102 C10.4829834 10.90362061 9.87954102 10.2777002 9.2578125 9.6328125 C8.69175293 9.03847412 8.12569336 8.44413574 7.54248047 7.83178711 C4.64126909 4.99779995 2.82164183 3.72491823 -1.15234375 2.55859375 C-4.99390856 2.64396186 -6.00924352 3.14986852 -8.6796875 5.8203125 Z " fill="#009ee2" transform="translate(311.4921875,81.3671875)"/>
<path d="M0 0 C6.33547899 3.46014622 11.30600841 8.30059692 14.1015625 15.01171875 C15.14536724 22.04972569 15.32988128 28.07600283 11.1015625 34.01171875 C6.61308761 39.87665928 2.4959373 44.26395743 -4.8984375 46.01171875 C-11.65407182 46.80896752 -16.99171002 46.36953869 -22.8203125 42.7109375 C-27.29007858 39.05614757 -31.06479369 34.51265017 -32.8984375 29.01171875 C-32.99443269 26.47913976 -33.03780785 23.98079483 -33.0234375 21.44921875 C-33.02730469 20.76408203 -33.03117188 20.07894531 -33.03515625 19.37304688 C-33.02513085 14.26510545 -33.02513085 14.26510545 -31.8984375 12.01171875 C-31.2384375 12.01171875 -30.5784375 12.01171875 -29.8984375 12.01171875 C-29.8984375 11.02171875 -29.8984375 10.03171875 -29.8984375 9.01171875 C-29.2384375 9.01171875 -28.5784375 9.01171875 -27.8984375 9.01171875 C-27.6303125 8.37234375 -27.3621875 7.73296875 -27.0859375 7.07421875 C-25.8984375 5.01171875 -25.8984375 5.01171875 -22.8984375 4.01171875 C-22.8984375 3.35171875 -22.8984375 2.69171875 -22.8984375 2.01171875 C-21.9084375 2.01171875 -20.9184375 2.01171875 -19.8984375 2.01171875 C-19.8984375 1.35171875 -19.8984375 0.69171875 -19.8984375 0.01171875 C-13.62686194 -2.07880644 -6.26270107 -2.13539538 0 0 Z M-23.8984375 8.01171875 C-26.27209673 11.03273958 -26.8984375 12.1834443 -26.8984375 16.01171875 C-27.5584375 16.01171875 -28.2184375 16.01171875 -28.8984375 16.01171875 C-29.43774809 23.0946645 -29.52735536 28.9953537 -25.56640625 35.09765625 C-21.8564709 39.35495911 -17.73241289 41.51761065 -12.1875 42.484375 C-5.44077451 42.85289362 -0.0750519 41.44140682 5.1015625 37.01171875 C9.53437376 31.83145454 10.92154235 26.4781659 10.58984375 19.73046875 C9.5610054 14.00189682 7.04549345 9.53909307 2.4765625 5.94921875 C0.0620411 4.82813548 0.0620411 4.82813548 -2.8984375 5.01171875 C-2.8984375 4.35171875 -2.8984375 3.69171875 -2.8984375 3.01171875 C-11.10243098 2.3870492 -17.31507767 2.71326906 -23.8984375 8.01171875 Z " fill="#009ee2" transform="translate(243.8984375,137.98828125)"/>
<path d="M0 0 C4.76500607 3.13244346 10.44175968 7.88351937 13 13 C12.01 13.33 11.02 13.66 10 14 C9.30132812 13.28972656 8.60265625 12.57945313 7.8828125 11.84765625 C6.97273438 10.92855469 6.06265625 10.00945313 5.125 9.0625 C3.76761719 7.68771484 3.76761719 7.68771484 2.3828125 6.28515625 C-0.48356189 3.53625622 -1.30401942 3.08030545 -5.25 2.625 C-10.19272958 3.11927296 -11.53828301 4.53828301 -15 8 C-16.91435876 11.82871751 -16.69039937 15.84590208 -16 20 C-13.64958188 24.77665618 -10.15948413 28.65971495 -6.6953125 32.6640625 C20.13478759 63.78012107 29.17235159 100.14977808 26.421875 140.640625 C25.87339283 147.20471807 24.48343613 153.59043634 23 160 C20.71788698 156.57683046 20.83713021 155.91977966 21.3046875 152.0078125 C21.41393555 151.0271582 21.52318359 150.04650391 21.63574219 149.03613281 C21.75594727 148.03420898 21.87615234 147.03228516 22 146 C22.19419623 144.16449083 22.38437651 142.32855182 22.5703125 140.4921875 C22.66296387 139.57727539 22.75561523 138.66236328 22.85107422 137.71972656 C26.22437221 102.68793676 17.40016932 66.97532408 -5.33837891 39.37548828 C-6.77923792 37.6799841 -8.23072783 35.99434554 -9.6875 34.3125 C-21.03985044 21.15484141 -21.03985044 21.15484141 -20.48828125 12.140625 C-19.38971037 7.32449027 -16.41719398 4.25522895 -12.8125 1.0625 C-8.2851978 -0.64781416 -4.73023863 -1.37748707 0 0 Z " fill="#009ee2" transform="translate(355,40)"/>
<path d="M0 0 C1.32210958 2.99374237 0.92654741 4.2234397 -0.1171875 7.3984375 C-0.6868344 8.73104046 -1.2739327 10.05627094 -1.875 11.375 C-2.35211426 12.43521362 -2.35211426 12.43521362 -2.83886719 13.5168457 C-7.52291027 23.61102629 -13.60398912 32.57840333 -20.625 41.1875 C-21.05586914 41.72850342 -21.48673828 42.26950684 -21.93066406 42.8269043 C-26.24796941 47.91934002 -31.51235809 50.16000348 -38.0625 50.9375 C-41.68766501 51.20154844 -42.95888761 51.01903352 -46.375 49.4375 C-50.84087958 45.29061182 -53.22202799 42.17097865 -53.5 36 C-53.25288032 30.5057057 -51.47221098 27.27322815 -47.3984375 23.52734375 C-45.96697115 22.30957972 -44.48712015 21.1491383 -43 20 C-44.37737573 24.01734589 -46.33026125 26.72741701 -49 30 C-50.63835482 34.91506446 -50.60192597 38.58678251 -48.5625 43.375 C-45.48764624 46.52485019 -43.800947 47.05238233 -39.4921875 47.21484375 C-32.37913965 46.60164997 -27.34671824 43.81016251 -22.4375 38.6875 C-14.36398308 28.94801927 -8.68179213 18.15635318 -4.20654297 6.37084961 C-2.1878597 1.09392985 -2.1878597 1.09392985 0 0 Z " fill="#009ee2" transform="translate(346,196)"/>
<path d="M0 0 C4.94937447 2.14084292 7.05363973 5.62638607 10 10 C10.82177734 11.18142578 10.82177734 11.18142578 11.66015625 12.38671875 C15.94359429 19.07044325 18.68007968 26.03586891 21.3125 33.5 C21.81885986 34.92324585 21.81885986 34.92324585 22.33544922 36.37524414 C25.89348401 46.85587926 27.37477068 57.13876528 27.3125 68.1875 C27.31048584 69.17274658 27.30847168 70.15799316 27.30639648 71.1730957 C27.1868877 80.00887376 25.96397459 88.40125116 24 97 C23.86464844 97.79019531 23.72929687 98.58039063 23.58984375 99.39453125 C23.39519531 99.92433594 23.20054687 100.45414062 23 101 C21.515 101.495 21.515 101.495 20 102 C20.46571468 98.27428259 21.04467383 94.82968103 22 91.1875 C28.01251582 67.58613194 23.03071438 39.6195569 11.58691406 18.37695312 C8.94692828 13.95788422 6.06558206 9.73504459 3.06738281 5.55322266 C1.85028757 3.78214308 0.86622678 1.96643435 0 0 Z " fill="#009ee2" transform="translate(325,95)"/>
<path d="M0 0 C0 4.00528995 -1.42567592 5.04027832 -4 8.0625 C-4.825 9.04863281 -5.65 10.03476563 -6.5 11.05078125 C-8.01834607 12.84195513 -9.53864482 14.63147944 -11.0625 16.41796875 C-27.6292328 36.35816932 -36.1717848 60.57379455 -40 86 C-41.485 86.495 -41.485 86.495 -43 87 C-42.60470648 77.67107291 -40.48630564 68.94511833 -38 60 C-37.60361328 58.50339844 -37.60361328 58.50339844 -37.19921875 56.9765625 C-32.04603904 39.5387885 -21.37657124 22.40049696 -9.046875 9.19921875 C-7.30513174 7.32784193 -5.66774472 5.42517066 -4.0625 3.4375 C-2 1 -2 1 0 0 Z " fill="#009ee2" transform="translate(132,62)"/>
<path d="M0 0 C4.36934608 2.91289739 7.25876848 5.1896103 8.33203125 10.39453125 C8.78474712 17.92224867 6.45429045 22.16589982 1.8125 27.875 C1.16667969 28.71933594 0.52085937 29.56367187 -0.14453125 30.43359375 C-1.80351415 32.59939424 -3.48451447 34.74374888 -5.1875 36.875 C-5.8475 36.545 -6.5075 36.215 -7.1875 35.875 C-6.12928531 32.11245888 -4.3135361 29.73058452 -1.75 26.875 C2.65870303 21.95194829 5.4007725 18.59365411 5.09375 11.80078125 C4.66092917 8.83716082 3.75777891 7.14449206 1.8125 4.875 C-2.23874669 2.26419658 -5.39122611 1.09193487 -10.1875 1.875 C-12.14314556 3.05576713 -13.89789229 4.34288564 -15.671875 5.78125 C-17.1875 6.875 -17.1875 6.875 -19.1875 6.875 C-19.414375 7.4525 -19.64125 8.03 -19.875 8.625 C-21.51788023 11.4413661 -23.58283227 12.95577114 -26.1875 14.875 C-26.1875 10.03611487 -25.21121021 9.03279773 -22.08984375 5.625 C-15.44254617 -0.4899678 -8.75567093 -3.0902368 0 0 Z " fill="#009ee2" transform="translate(169.1875,83.125)"/>
<path d="M0 0 C0.33 0.66 0.66 1.32 1 2 C0.57847656 2.54269531 0.15695312 3.08539063 -0.27734375 3.64453125 C-0.82519531 4.35996094 -1.37304688 5.07539063 -1.9375 5.8125 C-2.48277344 6.52019531 -3.02804687 7.22789062 -3.58984375 7.95703125 C-6.29489413 11.87598236 -6.39401401 15.35063471 -6 20 C-4.75 23.5 -4.75 23.5 -2 26 C2.64868161 27.39633907 7.33758477 27.35360442 12 26 C12.33 26.99 12.66 27.98 13 29 C7.89690047 30.7704631 4.38493774 31.39609497 -1 30 C-4.78303764 27.59261241 -7.28286738 25.15726844 -9 21 C-9.68504616 16.01252976 -9.61821798 12.21353899 -7.3125 7.6875 C-4.98737048 4.98532245 -2.59162749 2.44764818 0 0 Z " fill="#009ee2" transform="translate(302,216)"/>
<path d="M0 0 C0.33 0 0.66 0 1 0 C0.97679688 1.1653125 0.95359375 2.330625 0.9296875 3.53125 C0.78631758 14.54797671 1.29390176 25.3425722 2.46435547 36.30273438 C2.56119629 37.27791016 2.65803711 38.25308594 2.7578125 39.2578125 C2.8520752 40.1255127 2.94633789 40.99321289 3.04345703 41.88720703 C3 44 3 44 1 46 C-2.58363839 31.66544643 -3.57837939 15.61081654 -1 1 C-0.67 0.67 -0.34 0.34 0 0 Z " fill="#009ee2" transform="translate(90,148)"/>
<path d="M0 0 C6.74741253 1.88499144 11.0653554 7.88671392 14.4609375 13.6875 C11.4609375 13.6875 11.4609375 13.6875 9.4453125 11.75390625 C8.33929688 10.51447266 8.33929688 10.51447266 7.2109375 9.25 C4.37686564 6.36098652 2.66791471 4.7746483 -1.1015625 3.1875 C-5.63039703 3.84623957 -7.53335268 5.88318693 -10.64453125 9.12109375 C-12.5390625 10.6875 -12.5390625 10.6875 -16.5390625 10.6875 C-14.09916028 3.36779335 -7.54464636 -0.55714312 0 0 Z " fill="#009ee2" transform="translate(311.5390625,81.3125)"/>
<path d="M0 0 C0.66 0.33 1.32 0.66 2 1 C0.45401888 4.94262171 -1.23178051 8.81165394 -2.9375 12.6875 C-5.16363459 17.76861696 -6.96686524 22.80740403 -8.26171875 28.20703125 C-8.50535156 28.79871094 -8.74898437 29.39039063 -9 30 C-9.99 30.33 -10.98 30.66 -12 31 C-11.32722934 19.56289874 -6.20393022 9.44447109 0 0 Z " fill="#009ee2" transform="translate(161,118)"/>
<path d="M0 0 C1 3 1 3 0.125 6.6875 C-0.3269355 9.63324824 -0.20608009 10.67583546 1.41796875 13.23046875 C3.2043765 15.25260865 5.0390298 17.14773103 7 19 C7.66 19.66 8.32 20.32 9 21 C12.08347826 21.16681109 12.08347826 21.16681109 15 21 C15 21.99 15 22.98 15 24 C10.67775681 24.4208926 8.58113159 24.38644148 4.91015625 21.9453125 C3.9357134 21.03137967 2.98661335 20.08979355 2.0625 19.125 C1.57958496 18.63193359 1.09666992 18.13886719 0.59912109 17.63085938 C-2.35721623 14.36481052 -3.7643454 11.91316595 -3.875 7.5 C-3.64180006 4.62697678 -3.35023334 3.40127237 -1.4453125 1.21875 C-0.96835937 0.8165625 -0.49140625 0.414375 0 0 Z " fill="#009ee2" transform="translate(338,265)"/>
<path d="M0 0 C0.66 0.33 1.32 0.66 2 1 C0.35 9.58 -1.3 18.16 -3 27 C-3.99 27.33 -4.98 27.66 -6 28 C-5.71441643 21.26022781 -4.64129994 14.89924041 -3 8.375 C-2.82178711 7.66408203 -2.64357422 6.95316406 -2.45996094 6.22070312 C-1.13888604 1.13888604 -1.13888604 1.13888604 0 0 Z " fill="#009ee2" transform="translate(95,121)"/>
<path d="M0 0 C7.04253612 -1.29113162 7.04253612 -1.29113162 10.58789062 1.04736328 C19.71384895 8.42769791 19.71384895 8.42769791 22 13 C21.01 13.33 20.02 13.66 19 14 C18.30132812 13.28972656 17.60265625 12.57945313 16.8828125 11.84765625 C15.97273438 10.92855469 15.06265625 10.00945313 14.125 9.0625 C13.22007812 8.14597656 12.31515625 7.22945312 11.3828125 6.28515625 C8.35318967 3.37969829 7.73541265 3.02626474 3.5 2.875 C0.14964129 2.75226053 0.14964129 2.75226053 -2 4 C-1.34 2.68 -0.68 1.36 0 0 Z " fill="#009ee2" transform="translate(346,40)"/>
<path d="M0 0 C1.28379559 2.98801547 0.93336652 4.20983488 -0.07421875 7.3828125 C-0.59986549 8.63536116 -1.13807034 9.88269984 -1.6875 11.125 C-1.94466797 11.75792969 -2.20183594 12.39085937 -2.46679688 13.04296875 C-3.69655073 15.88922952 -4.56884235 17.72070142 -7.20703125 19.4296875 C-7.79871094 19.61789063 -8.39039063 19.80609375 -9 20 C-7.44302683 15.11676597 -5.77808514 10.28414264 -3.9375 5.5 C-3.45603516 4.24703125 -3.45603516 4.24703125 -2.96484375 2.96875 C-2 1 -2 1 0 0 Z " fill="#009ee2" transform="translate(346,196)"/>
<path d="M0 0 C0.33 0 0.66 0 1 0 C0.5003731 7.49440349 -1.43764478 13.95650263 -4 21 C-4.66 20.67 -5.32 20.34 -6 20 C-4.85210257 12.90116066 -2.88549626 6.58341381 0 0 Z " fill="#009ee2" transform="translate(376,197)"/>
<path d="M0 0 C0.99 0.33 1.98 0.66 3 1 C2.67 1.99 2.34 2.98 2 4 C1.01 4 0.02 4 -1 4 C-1 10.27 -1 16.54 -1 23 C-3.43044139 19.35433792 -3.26310692 16.64363257 -3.1875 12.4375 C-3.1865332 11.40979492 -3.1865332 11.40979492 -3.18554688 10.36132812 C-3.14067963 5.28135927 -3.14067963 5.28135927 -2 3 C-1.34 3 -0.68 3 0 3 C0 2.01 0 1.02 0 0 Z " fill="#009ee2" transform="translate(214,147)"/>
<path d="M0 0 C1.32830615 3.98491845 0.23204404 5.40048548 -1.4375 9.1875 C-1.91058594 10.27417969 -2.38367188 11.36085938 -2.87109375 12.48046875 C-3.42990234 13.72763672 -3.42990234 13.72763672 -4 15 C-4.66 14.67 -5.32 14.34 -6 14 C-5.57316761 12.41375765 -5.13303842 10.8310902 -4.6875 9.25 C-4.32205078 7.92742187 -4.32205078 7.92742187 -3.94921875 6.578125 C-2.97874669 3.94227495 -1.78994356 2.14592674 0 0 Z " fill="#009ee2" transform="translate(130,115)"/>
<path d="M0 0 C0.66 0.33 1.32 0.66 2 1 C0.90630138 2.81883578 -0.20031392 4.62990978 -1.3125 6.4375 C-1.92738281 7.44683594 -2.54226562 8.45617187 -3.17578125 9.49609375 C-5 12 -5 12 -8 13 C-6.68203796 8.38713287 -4.86611786 4.85134588 -2 1 C-1.34 0.67 -0.68 0.34 0 0 Z " fill="#009ee2" transform="translate(112,87)"/>
<path d="M0 0 C0.66 0.33 1.32 0.66 2 1 C-1.95464602 11.34292035 -1.95464602 11.34292035 -5.1875 13.375 C-5.785625 13.58125 -6.38375 13.7875 -7 14 C-5.23570801 9.02790438 -2.6060834 4.56561939 0 0 Z " fill="#009ee2" transform="translate(161,118)"/>
<path d="M0 0 C-1.375 2 -1.375 2 -3 4 C-3.66 4 -4.32 4 -5 4 C-5 4.66 -5 5.32 -5 6 C-5.99 6.33 -6.98 6.66 -8 7 C-8.6875 5.1875 -8.6875 5.1875 -9 3 C-6.45499263 -0.43575995 -4.12762351 -1.3758745 0 0 Z " fill="#009ee2" transform="translate(225,142)"/>
<path d="M0 0 C7.50769231 -0.36923077 7.50769231 -0.36923077 10 1.5 C10.495 2.2425 10.495 2.2425 11 3 C10.67 3.66 10.34 4.32 10 5 C9.46375 4.67 8.9275 4.34 8.375 4 C5.4608939 2.77300796 3.13132292 2.85766714 0 3 C0 2.01 0 1.02 0 0 Z " fill="#009ee2" transform="translate(117,40)"/>
<path d="M0 0 C2.31 0 4.62 0 7 0 C3.98112756 3.48331435 1.43090471 4.79157144 -3 6 C-2.01 4.02 -1.02 2.04 0 0 Z " fill="#009ee2" transform="translate(225,139)"/>
<path d="M0 0 C0.99 0.33 1.98 0.66 3 1 C2.23883449 2.15227823 1.46567307 3.2966386 0.6875 4.4375 C0.25824219 5.07558594 -0.17101562 5.71367188 -0.61328125 6.37109375 C-2 8 -2 8 -5 9 C-3.7508258 5.54074837 -2.32472205 2.85306797 0 0 Z " fill="#009ee2" transform="translate(116,79)"/>
<path d="M0 0 C0 3 0 3 -1 6 C-1.66 6 -2.32 6 -3 6 C-3.33 7.32 -3.66 8.64 -4 10 C-4.33 10 -4.66 10 -5 10 C-5.3125 6.6875 -5.3125 6.6875 -5 3 C-2.5 1.0625 -2.5 1.0625 0 0 Z " fill="#009ee2" transform="translate(218,148)"/>
<path d="M0 0 C3.00617269 3.00617269 2.59585316 5.82381598 3 10 C2.01 9.67 1.02 9.34 0 9 C-1.125 2.25 -1.125 2.25 0 0 Z " fill="#009ee2" transform="translate(92,192)"/>
<path d="M0 0 C0.33 0 0.66 0 1 0 C0.67 2.64 0.34 5.28 0 8 C-0.99 8.33 -1.98 8.66 -3 9 C-2.69181644 7.68647977 -2.37832335 6.37420428 -2.0625 5.0625 C-1.88847656 4.33160156 -1.71445312 3.60070312 -1.53515625 2.84765625 C-1 1 -1 1 0 0 Z " fill="#009ee2" transform="translate(406,199)"/>
<path d="M0 0 C0.75 1.75 0.75 1.75 1 4 C-0.9375 6.25 -0.9375 6.25 -3 8 C-4 6 -4 6 -3.1875 3.4375 C-2 1 -2 1 0 0 Z " fill="#009ee2" transform="translate(346,196)"/>
<path d="M0 0 C0.99 0.33 1.98 0.66 3 1 C2.67 1.99 2.34 2.98 2 4 C1.01 4 0.02 4 -1 4 C-1.33 5.65 -1.66 7.3 -2 9 C-3.125 5.25 -3.125 5.25 -2 3 C-1.34 3 -0.68 3 0 3 C0 2.01 0 1.02 0 0 Z " fill="#009ee2" transform="translate(214,147)"/>
<path d="M0 0 C0 4.38968456 -2.12805101 5.76905739 -5 9 C-5.99 8.67 -6.98 8.34 -8 8 C-5.33333333 5.33333333 -2.66666667 2.66666667 0 0 Z " fill="#009ee2" transform="translate(125,71)"/>
<path d="M0 0 C0.33 0.66 0.66 1.32 1 2 C-0.65 3.65 -2.3 5.3 -4 7 C-4 4 -4 4 -2 1.8125 C-1.34 1.214375 -0.68 0.61625 0 0 Z " fill="#009ee2" transform="translate(302,216)"/>
<path d="M0 0 C0 1.98 0 3.96 0 6 C-0.99 6.33 -1.98 6.66 -3 7 C-3 5.02 -3 3.04 -3 1 C-1 0 -1 0 0 0 Z " fill="#009ee2" transform="translate(408,193)"/>
</svg>
