<?xml version="1.0" encoding="UTF-8"?>
<svg version="1.1" xmlns="http://www.w3.org/2000/svg" width="443" height="453">
<path d="M0 0 C8.91011626 7.65089478 16.15976888 15.52920896 22.43408203 25.51220703 C24.59450374 29.1938123 24.59450374 29.1938123 28.06298828 31.39941406 C30.85347587 31.7860276 33.19744576 31.2693873 35.9609375 30.7421875 C57.01269687 27.2767803 76.66610479 31.31375688 94.0859375 43.6796875 C106.54629608 53.15022814 114.61246851 65.40774018 119.57910156 80.13305664 C120.81843734 83.58123493 121.72445972 85.43277359 124.78515625 87.5234375 C128.54051206 88.83892309 132.30249286 89.91844672 136.1484375 90.9296875 C158.77431721 97.30327781 176.67851968 112.64731371 188.11328125 132.984375 C198.75068824 152.60009744 201.88825872 176.650805 196.19140625 198.421875 C187.64917813 223.59579109 172.74335688 242.00360654 149.2734375 254.4921875 C142.5425519 257.72760183 135.60913094 259.80028456 128.41015625 261.734375 C125.26651926 262.33686297 125.26651926 262.33686297 124.0859375 263.6796875 C123.98355233 265.65893919 123.95238796 267.64188629 123.94790649 269.6237793 C123.93972649 271.56262245 123.93972649 271.56262245 123.93138123 273.54063416 C123.93026128 274.9867248 123.92921078 276.43281551 123.92822266 277.87890625 C123.92355676 279.39152678 123.91841358 280.9041459 123.91282654 282.41676331 C123.90152352 285.68307362 123.89309977 288.94937469 123.88670731 292.21569824 C123.87604227 297.38504448 123.85579897 302.55432489 123.83358765 307.72363281 C123.7716211 322.4265642 123.71771999 337.12949292 123.68457031 351.83251953 C123.6661964 359.94622724 123.63722055 368.05982586 123.5965656 376.17345333 C123.57553188 380.46676799 123.5600436 384.75994532 123.55775833 389.05331421 C123.55560302 393.09826291 123.5396441 397.14292632 123.51336861 401.18778801 C123.50620607 402.66754518 123.50405978 404.14733704 123.50747108 405.62710762 C123.54176505 423.34143786 123.54176505 423.34143786 118.82417971 429.26362658 C116.5476121 431.11823487 115.25562046 431.05740908 112.33948612 431.06279755 C110.86597536 431.07638251 110.86597536 431.07638251 109.36269671 431.09024191 C107.73986251 431.08225002 107.73986251 431.08225002 106.08424377 431.07409668 C104.93702455 431.08018778 103.78980533 431.08627889 102.60782188 431.09255457 C99.41837665 431.10635324 96.2292569 431.1066269 93.03979671 431.1011796 C89.60208192 431.09851509 86.16443367 431.11303025 82.72674561 431.12527466 C75.99002981 431.14635528 69.25340003 431.15086802 62.51665515 431.14908677 C57.0423981 431.14778049 51.56816793 431.1515764 46.09391594 431.15901184 C44.51864161 431.16111097 42.94336728 431.16320858 41.36809295 431.16530466 C40.58410001 431.16634819 39.80010707 431.16739172 38.99235677 431.16846687 C24.15654373 431.18737976 9.32078011 431.18631579 -5.51503999 431.17949754 C-19.09516338 431.17392095 -32.67509818 431.19475049 -46.25517749 431.22785801 C-60.19062099 431.26156889 -74.12597407 431.27676662 -88.06145912 431.27214098 C-95.88863702 431.26989369 -103.7156406 431.27517723 -111.54278374 431.30003357 C-118.20604478 431.32101318 -124.86903592 431.32467218 -131.53230792 431.30573398 C-134.93342763 431.29655527 -138.33404367 431.29549705 -141.73512459 431.31608963 C-145.41901102 431.33414287 -149.10154143 431.32163479 -152.78538513 431.30114746 C-153.86504388 431.31366531 -154.94470262 431.32618316 -156.0570783 431.33908033 C-163.21234671 431.25331911 -163.21234671 431.25331911 -166.48460484 428.57834625 C-169.20862247 423.05457471 -170.16271284 418.08204275 -170.1925354 411.95350647 C-170.20369888 410.63968994 -170.21486237 409.32587341 -170.22636414 407.97224426 C-170.22872859 406.53366118 -170.23090433 405.09507777 -170.23291016 403.65649414 C-170.24221702 402.1283821 -170.25238681 400.60027511 -170.26335144 399.07217407 C-170.29058012 394.93843358 -170.30577963 390.80472704 -170.31877947 386.67092061 C-170.3344413 382.34538853 -170.36122176 378.01992544 -170.3868103 373.69444275 C-170.43354412 365.51007184 -170.47031432 357.32568788 -170.50348318 349.14125198 C-170.54174274 339.82078897 -170.59114284 330.50039535 -170.64146733 321.17999089 C-170.74470689 302.01327392 -170.83399318 282.84651456 -170.9140625 263.6796875 C-172.17396477 263.20063065 -173.43450804 262.72325942 -174.6953125 262.24658203 C-175.39720703 261.98056183 -176.09910156 261.71454163 -176.82226562 261.44046021 C-179.81471217 260.35212717 -182.86576521 259.47325923 -185.9140625 258.5546875 C-208.6191674 251.16139332 -226.0532948 235.32819117 -236.88867188 214.17407227 C-246.47660384 194.26767447 -248.72331375 169.87622769 -241.9140625 148.6796875 C-241.57375 147.60203125 -241.2334375 146.524375 -240.8828125 145.4140625 C-233.35771484 123.95736511 -217.59792358 106.60210688 -197.32299805 96.54882812 C-191.46221059 93.7713215 -185.42403438 91.59548087 -179.23413086 89.66943359 C-177.43198562 89.0889482 -175.66773137 88.39336547 -173.9140625 87.6796875 C-173.03052874 85.02908622 -172.72566644 83.16822454 -172.5546875 80.42578125 C-171.26578037 62.48877528 -167.57987644 47.16187545 -158.85009766 31.37646484 C-158.03773177 29.90386627 -157.25979302 28.41237649 -156.48828125 26.91796875 C-152.22808479 19.11389205 -146.10901846 12.96203624 -139.9140625 6.6796875 C-139.05941406 5.78894531 -138.20476562 4.89820312 -137.32421875 3.98046875 C-101.53387418 -31.1481129 -37.96610192 -31.44851888 0 0 Z M-126.93359375 25.53515625 C-141.02136683 40.48073284 -149.43487203 61.18859034 -149.9140625 81.6796875 C-149.8394308 83.4019061 -149.74602377 85.12338399 -149.63671875 86.84375 C-148.85818572 100.05708502 -148.85818572 100.05708502 -151.828125 104.62109375 C-158.86277375 110.25503811 -167.24239636 111.30538327 -175.9140625 112.6796875 C-190.63347795 115.9455578 -204.00928226 126.69802059 -212.30078125 139.10546875 C-218.95514292 149.79454096 -222.42854763 161.1145627 -222.9140625 173.6796875 C-222.97722656 174.37964844 -223.04039062 175.07960937 -223.10546875 175.80078125 C-224.08733853 192.55591391 -215.37153139 208.68909712 -204.69921875 220.890625 C-195.99000052 229.61205812 -185.59756629 235.05964684 -173.9140625 238.6796875 C-172.5940625 238.6796875 -171.2740625 238.6796875 -169.9140625 238.6796875 C-169.90375504 237.52362503 -169.89344757 236.36756256 -169.88282776 235.1764679 C-169.78434105 224.19000557 -169.68154852 213.2035905 -169.57472324 202.217206 C-169.51995949 196.57133463 -169.46662346 190.92545786 -169.41674805 185.27954102 C-169.36840596 179.81351703 -169.31605547 174.34754382 -169.26112175 168.88158226 C-169.24100909 166.81401043 -169.22225229 164.74642487 -169.20498848 162.67882729 C-169.16442456 157.86990486 -169.10331787 153.06383176 -168.9914856 148.25601196 C-168.90861206 144.43185196 -168.97607626 140.64357514 -169.12838745 136.8218689 C-169.15527313 134.94009442 -169.18143446 133.05830943 -169.20678711 131.17651367 C-169.26930192 130.32228223 -169.33181673 129.46805079 -169.39622593 128.58793354 C-169.38792954 124.54189434 -168.70259597 122.4859938 -165.84597874 119.564991 C-154.85976758 112.23960018 -141.58170575 113.72845053 -128.93188477 113.83740234 C-126.29928695 113.83446234 -123.66682636 113.82876467 -121.03425598 113.81970215 C-114.65227905 113.8040674 -108.27095063 113.82545497 -101.88906742 113.85969071 C-94.45057019 113.89816699 -87.01220356 113.89927668 -79.57362389 113.89896114 C-66.30260707 113.89964643 -53.03188783 113.9336775 -39.76098633 113.98681641 C-26.8921298 114.03831362 -14.02350201 114.06658589 -1.15454102 114.06884766 C0.03601947 114.06906194 0.03601947 114.06906194 1.25063168 114.06928055 C2.04298909 114.06941917 2.8353465 114.06955778 3.65171474 114.0697006 C5.24718472 114.069991 6.84265469 114.07029348 8.43812466 114.07060814 C9.2250127 114.07076318 10.01190075 114.07091822 10.82263389 114.07107797 C23.10468211 114.0745177 35.38669602 114.10005416 47.66871045 114.12746423 C52.11513629 114.13706568 56.56155146 114.14319836 61.00798606 114.1467648 C68.71527909 114.15296193 76.42231499 114.17419773 84.12951851 114.21231079 C86.68934709 114.22267977 89.24920193 114.22797382 91.80905151 114.22786331 C95.29878233 114.22862927 98.78793551 114.24780927 102.27757263 114.27182007 C103.29400217 114.26785638 104.31043171 114.2638927 105.35766214 114.2598089 C110.65783762 114.31798512 114.55477403 114.60522277 119.0859375 117.6796875 C123.0429673 123.6152322 122.25251484 130.73715508 122.29125977 137.64208984 C122.30115936 138.73536591 122.31105896 139.82864197 122.32125854 140.95504761 C122.35277483 144.55855159 122.37759196 148.16206874 122.40234375 151.765625 C122.4229218 154.2681207 122.44391849 156.77061299 122.46531677 159.27310181 C122.51481836 165.18026165 122.56010635 171.08744422 122.60333914 176.99465239 C122.6576726 184.38318927 122.71857298 191.7716696 122.77929688 199.16015625 C122.88677087 212.33329482 122.98842221 225.50647164 123.0859375 238.6796875 C124.36116776 238.52824783 125.63639801 238.37680817 126.95027161 238.22077942 C127.66758862 238.13559461 128.38490564 238.05040979 129.12395954 237.96264362 C141.71565292 236.14667177 153.80739521 225.58642113 161.43408203 215.98193359 C172.00689895 201.71689392 178.21509032 183.88944282 175.5546875 165.9921875 C175.4 165.2290625 175.2453125 164.4659375 175.0859375 163.6796875 C174.910625 162.8134375 174.7353125 161.9471875 174.5546875 161.0546875 C170.3496315 143.43350046 158.94384324 128.07439239 143.6328125 118.4140625 C133.20878041 112.38946442 122.22196525 110.64033186 110.39746094 109.14697266 C107.94846541 108.65189688 106.19185854 108.02346569 104.0859375 106.6796875 C102.894283 104.32009302 101.95835823 102.15335624 101.0859375 99.6796875 C100.85036133 99.02419922 100.61478516 98.36871094 100.37207031 97.69335938 C99.88926148 96.32463257 99.41407735 94.95319543 98.94604492 93.5793457 C98.18106312 91.34232653 97.3843351 89.11841498 96.58203125 86.89453125 C95.71001946 84.47704626 94.91148797 82.08837155 94.18359375 79.62109375 C91.79420788 72.71956288 87.30313946 68.76165065 81.8359375 64.1796875 C81.12074951 63.57938721 80.40556152 62.97908691 79.66870117 62.3605957 C74.73483557 58.45129738 70.15147949 56.27864318 64.0859375 54.6796875 C62.99667969 54.35484375 61.90742188 54.03 60.78515625 53.6953125 C48.5407245 50.58259055 39.18866717 52.24746502 27.62890625 56.62109375 C23.20307501 57.94347552 19.23801497 58.31949432 14.7734375 56.9921875 C12.49250683 55.21813031 12.14205834 53.36352147 11.0859375 50.6796875 C-1.20235808 27.49798395 -18.23964774 10.74040412 -43.515625 2.8359375 C-74.01290145 -5.7409947 -104.09730776 4.55404243 -126.93359375 25.53515625 Z M-146.9140625 136.6796875 C-146.9140625 226.4396875 -146.9140625 316.1996875 -146.9140625 408.6796875 C-65.7340625 408.6796875 15.4459375 408.6796875 99.0859375 408.6796875 C99.13782355 376.37062346 99.13782355 376.37062346 98.64282227 344.08105469 C98.59477671 342.04015034 98.54715506 339.99923598 98.49990845 337.95831299 C98.37408552 332.57509256 98.24238654 327.19203275 98.1092236 321.80898952 C97.96892343 316.09891458 97.83396582 310.38871269 97.69822693 304.67852783 C97.4703667 295.12512064 97.23878202 285.57180985 97.00463867 276.01855469 C96.73550156 265.03635718 96.47158988 254.0540438 96.21058232 243.07165027 C95.92963611 231.25267817 95.64487855 219.43380004 95.35903811 207.61494541 C95.2780528 204.25597147 95.19776655 200.89698145 95.11764717 197.53798676 C94.99113024 192.24167325 94.8620287 186.94542837 94.7310524 181.64922333 C94.68386345 179.72618632 94.63747469 177.80312945 94.59202003 175.88005066 C94.5707826 174.98373428 94.54954517 174.08741791 94.52766418 173.16394043 C94.50963934 172.39248814 94.49161449 171.62103584 94.47304344 170.82620621 C94.17268411 159.42254691 93.62908197 148.08572134 93.0859375 136.6796875 C13.8859375 136.6796875 -65.3140625 136.6796875 -146.9140625 136.6796875 Z " fill="#39a935" transform="translate(244.9140625,22.3203125)"/>
<path d="M0 0 C5.96620218 -0.38756825 10.27493978 1.57887614 15.546875 4.21484375 C19.58066332 8.07575543 18.78501997 14.65240742 18.93969727 19.99023438 C18.98106709 22.14835864 19.01787499 24.30657385 19.05078125 26.46484375 C19.07156235 27.60771851 19.09234344 28.75059326 19.11375427 29.92810059 C19.17878841 33.55487442 19.23791899 37.18171653 19.296875 40.80859375 C19.34010415 43.27735062 19.3837198 45.74610076 19.42773438 48.21484375 C19.53442212 54.24602298 19.63627156 60.27726911 19.734375 66.30859375 C20.3747319 66.30415253 21.01508881 66.2997113 21.67485046 66.2951355 C28.34204883 66.25087495 35.00920542 66.22071592 41.67651367 66.19873047 C44.16448665 66.18867543 46.65244782 66.17502959 49.14038086 66.15771484 C52.71731481 66.13344509 56.29409245 66.12210556 59.87109375 66.11328125 C60.98272385 66.10295868 62.09435394 66.09263611 63.2396698 66.08200073 C64.28037125 66.08184967 65.32107269 66.08169861 66.39331055 66.08154297 C67.76231758 66.07488113 67.76231758 66.07488113 69.15898132 66.06808472 C75.52693808 66.66277093 79.11120503 69.90890814 83.12109375 74.62109375 C86.00393018 79.42349438 85.43636563 83.91508156 84.734375 89.30859375 C84.63511719 90.20578125 84.53585937 91.10296875 84.43359375 92.02734375 C82.34461232 106.37590306 76.24342436 119.39943896 66.734375 130.30859375 C66.074375 130.30859375 65.414375 130.30859375 64.734375 130.30859375 C64.734375 130.96859375 64.734375 131.62859375 64.734375 132.30859375 C60.47920953 137.27295347 55.12713337 140.68271739 49.734375 144.30859375 C48.82945312 144.97568359 48.82945312 144.97568359 47.90625 145.65625 C32.5802893 156.39132608 11.82084912 158.91795144 -6.265625 156.30859375 C-28.0260975 152.41086326 -46.01535412 140.10621821 -58.75390625 122.21875 C-66.49751807 110.49544914 -70.55559809 97.29397237 -71.265625 83.30859375 C-71.31847656 82.40882813 -71.37132812 81.5090625 -71.42578125 80.58203125 C-71.99792793 62.1240819 -66.28901668 42.52325332 -54.265625 28.30859375 C-50.46062598 24.53766233 -46.36075378 21.10582941 -42.1484375 17.80078125 C-40.81467641 16.74373408 -39.50411322 15.65711028 -38.2109375 14.55078125 C-32.57896031 9.86248652 -27.05351006 7.26941127 -20.140625 4.93359375 C-19.19058594 4.59199219 -18.24054688 4.25039063 -17.26171875 3.8984375 C-11.49057138 1.87333308 -6.04840703 0.82383475 0 0 Z M-26.14453125 33.6015625 C-28.28703563 35.76581819 -30.28775802 37.99444513 -32.265625 40.30859375 C-33.131875 41.07171875 -33.998125 41.83484375 -34.890625 42.62109375 C-45.11518445 54.19098997 -49.40301606 68.83774219 -48.703125 84.06640625 C-47.37966668 100.19054012 -38.30720104 112.71492192 -26.328125 123.046875 C-14.70457776 131.63110185 -1.10932349 135.70847048 13.3203125 133.8046875 C28.84093617 131.1562684 43.48876154 123.35005064 52.734375 110.30859375 C58.74895914 100.79723506 58.74895914 100.79723506 61.734375 90.30859375 C61.07784439 90.3005069 60.42131378 90.29242004 59.74488831 90.28408813 C52.88222613 90.19771218 46.01984187 90.0981957 39.1574707 89.99121094 C36.59990118 89.95304067 34.04228015 89.91816742 31.48461914 89.88671875 C27.79815323 89.8408083 24.1120382 89.78285652 20.42578125 89.72265625 C19.29104874 89.71110504 18.15631622 89.69955383 16.98719788 89.68765259 C2.32623998 89.41803237 2.32623998 89.41803237 -1.265625 87.30859375 C-3.05949781 83.31545645 -3.52656185 79.73832983 -3.58447266 75.39501953 C-3.60434235 74.25428986 -3.62421204 73.11356018 -3.64468384 71.93826294 C-3.65623505 70.72242523 -3.66778625 69.50658752 -3.6796875 68.25390625 C-3.69905365 66.99722137 -3.7184198 65.7405365 -3.7383728 64.44577026 C-3.78790224 61.12171687 -3.82922398 57.79777038 -3.86651611 54.47357178 C-3.90668434 51.07472944 -3.95771787 47.67605171 -4.0078125 44.27734375 C-4.10372415 37.62119993 -4.1888113 30.96498389 -4.265625 24.30859375 C-11.59169943 24.30859375 -20.482943 29.09226494 -26.14453125 33.6015625 Z " fill="#39a935" transform="translate(203.265625,264.69140625)"/>
<path d="M0 0 C0.77794922 -0.00386719 1.55589844 -0.00773438 2.35742188 -0.01171875 C10.60438286 0.00203765 17.6470223 0.9766788 25.3125 4.125 C25.3125 4.785 25.3125 5.445 25.3125 6.125 C26.6325 6.125 27.9525 6.125 29.3125 6.125 C29.3125 6.785 29.3125 7.445 29.3125 8.125 C31.2925 8.455 33.2725 8.785 35.3125 9.125 C35.3125 9.785 35.3125 10.445 35.3125 11.125 C36.055 11.393125 36.7975 11.66125 37.5625 11.9375 C40.20311949 13.07776751 42.16802844 14.21880306 44.3125 16.125 C44.3125 16.785 44.3125 17.445 44.3125 18.125 C45.01375 18.29 45.715 18.455 46.4375 18.625 C51.35391463 21.19008589 54.57356083 25.90818249 56.3125 31.125 C56.9725 31.125 57.6325 31.125 58.3125 31.125 C61.3125 36.75 61.3125 36.75 61.3125 40.125 C61.9725 40.125 62.6325 40.125 63.3125 40.125 C63.3125 41.445 63.3125 42.765 63.3125 44.125 C63.9725 44.125 64.6325 44.125 65.3125 44.125 C68.99421817 52.92910867 69.38999474 61.08278071 69.4375 70.5 C69.44225342 71.29776855 69.44700684 72.09553711 69.4519043 72.91748047 C69.44236258 76.23729151 69.36935195 78.95444416 68.3125 82.125 C67.6525 82.125 66.9925 82.125 66.3125 82.125 C66.3125 82.785 66.3125 83.445 66.3125 84.125 C62.82274627 85.28825124 60.09316733 85.25207518 56.41015625 85.25439453 C55.71227997 85.25614685 55.01440369 85.25789917 54.29537964 85.25970459 C51.98856113 85.26410577 49.68181929 85.26119121 47.375 85.2578125 C45.77221665 85.25848604 44.16943339 85.25945648 42.56665039 85.26071167 C39.20750964 85.26218629 35.84839548 85.26004163 32.48925781 85.25537109 C28.18160384 85.24967395 23.87401216 85.25295421 19.56636047 85.25894356 C16.25670908 85.26255551 12.94707249 85.26140766 9.63742065 85.25881577 C8.04898064 85.25814826 6.46053928 85.25896879 4.87210083 85.26129532 C2.6529789 85.26383221 0.43395814 85.25996657 -1.78515625 85.25439453 C-3.04851807 85.25359894 -4.31187988 85.25280334 -5.61352539 85.25198364 C-8.6875 85.125 -8.6875 85.125 -11.6875 84.125 C-14.84993541 80.11565133 -15.05827131 76.92071638 -15.04394531 71.90380859 C-15.04598969 71.19588669 -15.04803406 70.48796478 -15.05014038 69.7585907 C-15.05313673 67.42993934 -15.03470848 65.10200413 -15.015625 62.7734375 C-15.01256559 61.15109431 -15.01069085 59.52874849 -15.00994873 57.90640259 C-15.0053531 54.51204319 -14.99095395 51.11792202 -14.96875 47.72363281 C-14.94042316 43.37118318 -14.92953302 39.01892062 -14.9250679 34.66638756 C-14.92091343 31.3189812 -14.91109644 27.97161267 -14.89919281 24.62422562 C-14.89349399 23.01904223 -14.888734 21.41385522 -14.88492584 19.80866623 C-14.87805783 17.5681798 -14.86442397 15.32784144 -14.84863281 13.08740234 C-14.84180481 11.81230804 -14.83497681 10.53721375 -14.82794189 9.22348022 C-14.6875 6.125 -14.6875 6.125 -13.6875 3.125 C-13.0275 3.125 -12.3675 3.125 -11.6875 3.125 C-11.6875 2.465 -11.6875 1.805 -11.6875 1.125 C-7.78211576 -0.17679475 -4.06832789 -0.0197332 0 0 Z M8.3125 25.125 C8.3125 37.335 8.3125 49.545 8.3125 62.125 C9.9625 62.125 11.6125 62.125 13.3125 62.125 C13.3125 61.465 13.3125 60.805 13.3125 60.125 C22.5525 60.125 31.7925 60.125 41.3125 60.125 C41.3125 60.785 41.3125 61.445 41.3125 62.125 C42.3025 62.125 43.2925 62.125 44.3125 62.125 C44.3125 60.805 44.3125 59.485 44.3125 58.125 C43.6525 58.125 42.9925 58.125 42.3125 58.125 C41.8175 54.66 41.8175 54.66 41.3125 51.125 C40.6525 51.125 39.9925 51.125 39.3125 51.125 C39.3125 49.805 39.3125 48.485 39.3125 47.125 C38.6525 47.125 37.9925 47.125 37.3125 47.125 C36.9825 45.805 36.6525 44.485 36.3125 43.125 C35.6525 43.125 34.9925 43.125 34.3125 43.125 C34.065 42.361875 33.8175 41.59875 33.5625 40.8125 C32.19119328 37.86419055 31.0773921 36.76665468 28.3125 35.125 C27.6525 35.125 26.9925 35.125 26.3125 35.125 C26.3125 34.465 26.3125 33.805 26.3125 33.125 C22.94566085 30.69339395 21.57899636 30.125 17.3125 30.125 C17.3125 29.465 17.3125 28.805 17.3125 28.125 C14.3425 27.135 11.3725 26.145 8.3125 25.125 Z " fill="#39a935" transform="translate(240.6875,241.875)"/>
<path d="M0 0 C1.79982798 -0.01634249 3.59963504 -0.03514315 5.39941406 -0.05619812 C10.25886347 -0.10466056 15.11765524 -0.11487756 19.97732019 -0.11489797 C24.04308492 -0.11763901 28.10870591 -0.13726953 32.17442214 -0.15619177 C41.76708446 -0.19975112 51.35940372 -0.21008238 60.95214844 -0.20117188 C70.83391059 -0.1927188 80.71395553 -0.24734366 90.59532273 -0.3317166 C99.09761646 -0.40169441 107.59935317 -0.42909141 116.10193145 -0.42328256 C121.17253347 -0.42045462 126.2416958 -0.43435178 131.31201553 -0.4907093 C136.07855837 -0.54212103 140.84220473 -0.54031903 145.60881042 -0.49823189 C147.35308542 -0.49169901 149.09754939 -0.50378853 150.84153366 -0.53629684 C163.79736732 -0.76163176 163.79736732 -0.76163176 169.13051987 3.14831734 C172.83632593 7.3055264 175.08287923 9.85189168 174.85600471 15.57311916 C173.80289017 19.6277766 172.54404291 20.7148699 169.00341797 22.85571289 C165.28068402 24.15025125 161.48447674 24.0009825 157.59088135 23.99615479 C156.46716114 24.00061147 156.46716114 24.00061147 155.32073951 24.00515819 C152.80902987 24.01383369 150.29736796 24.01535246 147.78564453 24.0168457 C145.9852488 24.0214747 144.18485406 24.02649948 142.38446045 24.03189087 C137.49175459 24.04500931 132.59906244 24.0514588 127.70634174 24.05590153 C124.64886859 24.05883326 121.59139918 24.06293828 118.53392792 24.0674057 C108.96579259 24.08107942 99.39766583 24.09074659 89.82952142 24.09460759 C78.78832862 24.0990876 67.74725966 24.1166334 56.70610452 24.14560819 C48.16923655 24.16723261 39.6324034 24.17731229 31.09550834 24.17864871 C25.99797285 24.17969623 20.9005538 24.18559273 15.80304718 24.20346832 C11.00629344 24.21996201 6.20974351 24.22209817 1.4129715 24.21332932 C-0.3445897 24.21255963 -2.10216192 24.21689265 -3.85969543 24.22678757 C-6.26540828 24.23953411 -8.67040224 24.23361596 -11.07611084 24.22320557 C-12.11096575 24.23529017 -12.11096575 24.23529017 -13.16672683 24.24761891 C-18.41000727 24.1948193 -22.26230104 22.95198067 -26.99658203 20.85571289 C-30.17719153 16.89244032 -29.12340906 11.67513992 -28.99658203 6.85571289 C-19.71084359 0.14142161 -10.96596375 -0.03226888 0 0 Z " fill="#39a935" transform="translate(147.99658203125,167.144287109375)"/>
<path d="M0 0 C1.62852402 -0.01073296 1.62852402 -0.01073296 3.28994751 -0.02168274 C6.85356608 -0.03849627 10.41591406 -0.01921384 13.97949219 0.00219727 C16.46571964 0.00136814 18.95194704 -0.00109288 21.43817139 -0.00511169 C26.63635856 -0.00796437 31.83411358 0.0066849 37.03222656 0.03417969 C42.36904 0.0615308 47.70514093 0.06971451 53.04199219 0.0546875 C59.49746293 0.03657424 65.95257491 0.03798934 72.40804291 0.05690193 C74.86564349 0.06208469 77.32326278 0.06160082 79.7808609 0.05535698 C83.21108877 0.04991102 86.64021065 0.07025937 90.0703125 0.09765625 C91.08547943 0.09113037 92.10064636 0.08460449 93.14657593 0.07788086 C97.53224179 0.13748576 100.04998457 0.17537312 103.82855225 2.54603577 C104.47133118 3.23410812 105.11411011 3.92218048 105.77636719 4.63110352 C106.70255859 5.56889648 106.70255859 5.56889648 107.64746094 6.52563477 C111.85575621 11.67843521 111.85575621 11.67843521 111.46386719 16.38110352 C109.50014033 20.16309597 108.45899173 21.47361994 104.77636719 23.63110352 C100.88891752 24.23468645 97.03228588 24.18757126 93.10473633 24.16455078 C91.92370834 24.17316635 90.74268036 24.18178192 89.52586365 24.19065857 C86.29424741 24.20945024 83.06327843 24.21022031 79.83163762 24.2013371 C77.13036683 24.19621924 74.42918756 24.20352625 71.72792619 24.21080917 C65.35344786 24.22779876 58.97920896 24.22425232 52.60473633 24.20751953 C46.03629112 24.19060012 39.46851057 24.20643154 32.90013796 24.23874241 C27.25323107 24.26546441 21.60653076 24.27270734 15.95956701 24.26422733 C12.59016921 24.25930542 9.2211712 24.26147288 5.85182381 24.28201485 C2.09318666 24.2994244 -1.66402765 24.2849448 -5.42260742 24.26220703 C-6.53397064 24.27389923 -7.64533386 24.28559143 -8.79037476 24.29763794 C-17.20346749 24.1940332 -17.20346749 24.1940332 -20.90211487 21.23643494 C-23.87322176 17.90210011 -24.27088439 16.02851157 -24.44238281 11.70532227 C-24.22363281 9.63110352 -24.22363281 9.63110352 -22.84863281 7.38110352 C-21.98238281 6.80360352 -21.11613281 6.22610352 -20.22363281 5.63110352 C-19.61956226 5.22109132 -19.01549171 4.81107912 -18.393116 4.38864231 C-12.18754834 0.52492813 -7.21589157 -0.08377734 0 0 Z " fill="#39a935" transform="translate(177.2236328125,201.368896484375)"/>
<path d="M0 0 C0.66 0 1.32 0 2 0 C2 0.99 2 1.98 2 3 C2.66 3 3.32 3 4 3 C5.4606285 5.64738916 6 6.89448334 6 10 C-7.2 10 -20.4 10 -34 10 C-34.33 8.68 -34.66 7.36 -35 6 C-34.34 5.67 -33.68 5.34 -33 5 C-33 6.32 -33 7.64 -33 9 C-31.35 9 -29.7 9 -28 9 C-28 8.34 -28 7.68 -28 7 C-18.76 7 -9.52 7 0 7 C0 7.66 0 8.32 0 9 C0.99 9 1.98 9 3 9 C3 7.68 3 6.36 3 5 C2.34 5 1.68 5 1 5 C0.505 2.525 0.505 2.525 0 0 Z " fill="#39a935" transform="translate(282,295)"/>
<path d="M0 0 C0.66 0 1.32 0 2 0 C5 5.625 5 5.625 5 9 C5.66 9 6.32 9 7 9 C7 10.32 7 11.64 7 13 C7.66 13 8.32 13 9 13 C12.49760135 20.45141157 12.69465822 27.91370736 13 36 C12.34 35.67 11.68 35.34 11 35 C11 33.02 11 31.04 11 29 C10.34 29 9.68 29 9 29 C8.86722656 28.18015625 8.73445313 27.3603125 8.59765625 26.515625 C8.42105469 25.43796875 8.24445313 24.3603125 8.0625 23.25 C7.88847656 22.18265625 7.71445312 21.1153125 7.53515625 20.015625 C7.11295829 17.63652407 6.62797116 15.33084789 6 13 C5.34 13 4.68 13 4 13 C3.67 10.36 3.34 7.72 3 5 C2.34 5 1.68 5 1 5 C0.67 3.35 0.34 1.7 0 0 Z " fill="#39a935" transform="translate(297,273)"/>
<path d="M0 0 C2.475 0.495 2.475 0.495 5 1 C5 1.66 5 2.32 5 3 C5.7425 3.268125 6.485 3.53625 7.25 3.8125 C9.89061949 4.95276751 11.85552844 6.09380306 14 8 C14 8.66 14 9.32 14 10 C16.475 10.99 16.475 10.99 19 12 C19 12.66 19 13.32 19 14 C18.01 14 17.02 14 16 14 C16 13.34 16 12.68 16 12 C14.68 11.67 13.36 11.34 12 11 C12 10.34 12 9.68 12 9 C11.34 9 10.68 9 10 9 C10 8.34 10 7.68 10 7 C8.35 6.67 6.7 6.34 5 6 C5 5.34 5 4.68 5 4 C4.34 4 3.68 4 3 4 C3 3.34 3 2.68 3 2 C2.01 2 1.02 2 0 2 C0 1.34 0 0.68 0 0 Z " fill="#39a935" transform="translate(271,250)"/>
<path d="M0 0 C7 0 7 0 10 1 C10 1.99 10 2.98 10 4 C4.25 2.125 4.25 2.125 2 1 C2 7.27 2 13.54 2 20 C1.67 20 1.34 20 1 20 C0.67 13.4 0.34 6.8 0 0 Z " fill="#39a935" transform="translate(247,266)"/>
<path d="M0 0 C1.98 0.66 3.96 1.32 6 2 C6 2.66 6 3.32 6 4 C6.66 4 7.32 4 8 4 C8.33 5.65 8.66 7.3 9 9 C9.66 9 10.32 9 11 9 C11.33 10.98 11.66 12.96 12 15 C11.34 15 10.68 15 10 15 C10 13.68 10 12.36 10 11 C9.34 11 8.68 11 8 11 C7.67 9.68 7.34 8.36 7 7 C6.34 7 5.68 7 5 7 C4.731875 6.195625 4.46375 5.39125 4.1875 4.5625 C3.795625 3.716875 3.40375 2.87125 3 2 C2.01 1.67 1.02 1.34 0 1 C0 0.67 0 0.34 0 0 Z " fill="#39a935" transform="translate(270,278)"/>
<path d="M0 0 C0.99 0.33 1.98 0.66 3 1 C3.33 5.95 3.66 10.9 4 16 C3.34 15.67 2.68 15.34 2 15 C2 13.02 2 11.04 2 9 C1.34 9 0.68 9 0 9 C0 6.03 0 3.06 0 0 Z " fill="#39a935" transform="translate(306,293)"/>
<path d="M0 0 C2.475 0.495 2.475 0.495 5 1 C5 1.66 5 2.32 5 3 C6.32 3.66 7.64 4.32 9 5 C9 5.66 9 6.32 9 7 C7.68 6.67 6.36 6.34 5 6 C5 5.34 5 4.68 5 4 C4.34 4 3.68 4 3 4 C3 3.34 3 2.68 3 2 C2.01 2 1.02 2 0 2 C0 1.34 0 0.68 0 0 Z " fill="#39a935" transform="translate(271,250)"/>
<path d="M0 0 C2.475 0.495 2.475 0.495 5 1 C5 1.66 5 2.32 5 3 C6.32 3 7.64 3 9 3 C9 3.66 9 4.32 9 5 C6.69 4.67 4.38 4.34 2 4 C2 3.34 2 2.68 2 2 C1.34 2 0.68 2 0 2 C0 1.34 0 0.68 0 0 Z " fill="#39a935" transform="translate(261,245)"/>
<path d="M0 0 C0.66 0 1.32 0 2 0 C5 5.75 5 5.75 5 8 C4.34 8 3.68 8 3 8 C3 7.01 3 6.02 3 5 C2.34 5 1.68 5 1 5 C0.67 3.35 0.34 1.7 0 0 Z " fill="#39a935" transform="translate(297,273)"/>
<path d="" fill="#39a935" transform="translate(0,0)"/>
</svg>
