<?xml version="1.0" encoding="UTF-8"?>
<svg version="1.1" xmlns="http://www.w3.org/2000/svg" width="175" height="111">
<path d="M0 0 C0.94294922 -0.020625 1.88589844 -0.04125 2.85742188 -0.0625 C17.31322787 -0.14198209 29.51323385 5.83406609 39.94921875 15.6875 C45.66099814 21.88076823 50.78310573 28.83833149 52.3125 37.25 C53.9625 37.25 55.6125 37.25 57.3125 37.25 C57.498125 36.0434375 57.498125 36.0434375 57.6875 34.8125 C57.89375 33.966875 58.1 33.12125 58.3125 32.25 C61.15010526 30.83119737 63.58932975 31.1179528 66.75 31.125 C67.90371094 31.12242188 69.05742187 31.11984375 70.24609375 31.1171875 C73.3125 31.25 73.3125 31.25 76.3125 32.25 C76.6425 33.9 76.9725 35.55 77.3125 37.25 C79.230625 37.2190625 79.230625 37.2190625 81.1875 37.1875 C85.0625 37.125 85.0625 37.125 87.3125 38.25 C87.3125 49.8 87.3125 61.35 87.3125 73.25 C84.09798731 74.85725635 80.87637464 74.30748185 77.3125 74.25 C76.9825 75.9 76.6525 77.55 76.3125 79.25 C73.06934218 80.21604701 70.12741334 80.38419024 66.75 80.375 C65.79996094 80.37757812 64.84992188 80.38015625 63.87109375 80.3828125 C61.3125 80.25 61.3125 80.25 58.3125 79.25 C57.9825 77.6 57.6525 75.95 57.3125 74.25 C54.07382188 75.17069445 52.64060896 75.6934837 50.8984375 78.6484375 C50.49882812 79.63070312 50.09921875 80.61296875 49.6875 81.625 C43.09804688 95.6825 31.86771296 103.91349509 17.63671875 109.48828125 C3.63047981 114.07856124 -13.36241351 112.45101227 -26.30859375 105.9296875 C-38.68371922 99.03578199 -47.04190273 89.20166432 -52.6875 76.25 C-52.6875 75.59 -52.6875 74.93 -52.6875 74.25 C-54.3375 74.25 -55.9875 74.25 -57.6875 74.25 C-57.81125 75.054375 -57.935 75.85875 -58.0625 76.6875 C-58.371875 77.9559375 -58.371875 77.9559375 -58.6875 79.25 C-61.52510526 80.66880263 -63.96432975 80.3820472 -67.125 80.375 C-68.27871094 80.37757812 -69.43242188 80.38015625 -70.62109375 80.3828125 C-73.6875 80.25 -73.6875 80.25 -76.6875 79.25 C-77.1825 76.775 -77.1825 76.775 -77.6875 74.25 C-78.96625 74.270625 -80.245 74.29125 -81.5625 74.3125 C-85.4375 74.375 -85.4375 74.375 -87.6875 73.25 C-87.6875 61.7 -87.6875 50.15 -87.6875 38.25 C-84.47298731 36.64274365 -81.25137464 37.19251815 -77.6875 37.25 C-77.3575 35.6 -77.0275 33.95 -76.6875 32.25 C-73.4740962 31.30265218 -70.53277553 31.08547579 -67.1875 31.0625 C-66.2490625 31.04832031 -65.310625 31.03414062 -64.34375 31.01953125 C-61.62755663 31.25520097 -60.00834954 31.86515346 -57.6875 33.25 C-57.6875 34.57 -57.6875 35.89 -57.6875 37.25 C-56.0375 37.25 -54.3875 37.25 -52.6875 37.25 C-52.48125 36.46625 -52.275 35.6825 -52.0625 34.875 C-46.68390022 20.69505513 -36.72297972 10.25296529 -23.0078125 4.03515625 C-15.20356208 0.78145541 -8.40101094 0.04501546 0 0 Z M-37.6875 24.25 C-42.1702662 30.51952914 -44.87480564 36.77661099 -46.6875 44.25 C-47.39777344 44.23839844 -48.10804687 44.22679687 -48.83984375 44.21484375 C-49.75894531 44.20582031 -50.67804687 44.19679687 -51.625 44.1875 C-52.99978516 44.17009766 -52.99978516 44.17009766 -54.40234375 44.15234375 C-56.65343327 43.99050951 -56.65343327 43.99050951 -57.6875 45.25 C-57.75955511 46.93608966 -57.77136068 48.62500659 -57.75 50.3125 C-57.74097656 51.23160156 -57.73195313 52.15070312 -57.72265625 53.09765625 C-57.71105469 53.80792969 -57.69945313 54.51820312 -57.6875 55.25 C-55.7075 55.25 -53.7275 55.25 -51.6875 55.25 C-52.0175 57.23 -52.3475 59.21 -52.6875 61.25 C-55.1625 61.745 -55.1625 61.745 -57.6875 62.25 C-57.6875 63.9 -57.6875 65.55 -57.6875 67.25 C-54.0575 67.25 -50.4275 67.25 -46.6875 67.25 C-46.336875 68.673125 -45.98625 70.09625 -45.625 71.5625 C-42.15610813 82.96950723 -34.95647248 91.99476057 -24.69140625 98.00390625 C-12.63926731 104.24814803 -0.32154067 106.52160538 13.0234375 103.375 C27.80815091 98.03705122 37.31318999 89.02666721 44.1484375 75.08203125 C45.53550183 71.96438509 45.53550183 71.96438509 46.3125 67.25 C49.9425 67.25 53.5725 67.25 57.3125 67.25 C57.3125 59.66 57.3125 52.07 57.3125 44.25 C54.0125 43.92 50.7125 43.59 47.3125 43.25 C45.30299413 40.54351803 44.37137159 38.86073544 43.25 35.8125 C42.61237645 34.34234186 41.96252087 32.87743078 41.30078125 31.41796875 C40.97674316 30.70302246 40.65270508 29.98807617 40.31884766 29.25146484 C36.09308633 20.84710013 28.58179025 15.27153933 20.3125 11.25 C19.50554687 10.8375 18.69859375 10.425 17.8671875 10 C-0.90068926 1.73524693 -24.97151474 8.51085158 -37.6875 24.25 Z M-69.6875 39.25 C-69.6875 50.14 -69.6875 61.03 -69.6875 72.25 C-68.3675 72.25 -67.0475 72.25 -65.6875 72.25 C-65.6875 61.36 -65.6875 50.47 -65.6875 39.25 C-67.0075 39.25 -68.3275 39.25 -69.6875 39.25 Z M65.3125 39.25 C65.3125 50.14 65.3125 61.03 65.3125 72.25 C66.6325 72.25 67.9525 72.25 69.3125 72.25 C69.3125 61.36 69.3125 50.47 69.3125 39.25 C67.9925 39.25 66.6725 39.25 65.3125 39.25 Z M-79.6875 44.25 C-80.91534809 45.25559794 -80.91534809 45.25559794 -80.80102539 47.29125977 C-80.79578857 48.16580811 -80.79055176 49.04035645 -80.78515625 49.94140625 C-80.78193359 50.88564453 -80.77871094 51.82988281 -80.77539062 52.80273438 C-80.76701172 53.79595703 -80.75863281 54.78917969 -80.75 55.8125 C-80.74548828 56.80958984 -80.74097656 57.80667969 -80.73632812 58.83398438 C-80.72450007 61.30604849 -80.70801849 63.77799518 -80.6875 66.25 C-79.6975 66.58 -78.7075 66.91 -77.6875 67.25 C-77.6875 59.99 -77.6875 52.73 -77.6875 45.25 C-78.3475 44.92 -79.0075 44.59 -79.6875 44.25 Z M77.3125 44.25 C77.3125 51.51 77.3125 58.77 77.3125 66.25 C78.6325 66.25 79.9525 66.25 81.3125 66.25 C81.3125 59.32 81.3125 52.39 81.3125 45.25 C79.9925 44.92 78.6725 44.59 77.3125 44.25 Z " fill="#39a935" transform="translate(87.6875,-0.25)"/>
<path d="M0 0 C9.41315977 7.79453631 14.75474746 17.95159432 16.46484375 30 C17.40613999 43.2190733 13.34093373 54.82639233 5.02734375 65.0625 C-4.16392152 74.69061248 -16.16666166 79.13586816 -29.28515625 79.6875 C-41.2545206 79.32716573 -51.11129983 74.74393304 -59.97265625 66.9375 C-60.75640625 66.050625 -61.54015625 65.16375 -62.34765625 64.25 C-62.91355469 63.62609375 -63.47945312 63.0021875 -64.0625 62.359375 C-72.64919185 52.26592749 -74.51419239 41.11723774 -73.56640625 28.24511719 C-72.28785779 16.58407032 -65.85509593 6.6242386 -56.84765625 -0.6875 C-39.26944617 -13.26916406 -17.40997386 -12.97781746 0 0 Z M-57.22265625 10.0625 C-65.18090773 19.8413892 -66.44616832 31.05897083 -65.34765625 43.25 C-63.33709502 52.41864369 -57.54186166 60.28280621 -49.91015625 65.625 C-40.57201389 71.30977132 -31.14039846 73.54248836 -20.28515625 71.1875 C-9.81164431 68.17568698 -1.6831769 62.51992791 3.93359375 53.1015625 C8.65213069 44.03523082 9.19156298 33.1369066 6.96875 23.19140625 C2.89349224 12.35223519 -4.56995493 4.81540533 -14.97265625 -0.0625 C-29.91064352 -6.21644006 -46.31129948 -1.61660682 -57.22265625 10.0625 Z " fill="#39a935" transform="translate(116.34765625,20.75)"/>
<path d="M0 0 C1.58669495 -0.00472824 1.58669495 -0.00472824 3.20544434 -0.009552 C4.93196228 -0.00651566 4.93196228 -0.00651566 6.69335938 -0.00341797 C8.45226501 -0.00485306 8.45226501 -0.00485306 10.2467041 -0.00631714 C12.73169 -0.00699917 15.21667766 -0.00514331 17.70166016 -0.00097656 C21.52054825 0.00437134 25.33931872 -0.00092083 29.15820312 -0.00732422 C31.56575547 -0.00666344 33.97330774 -0.00538229 36.38085938 -0.00341797 C38.10737732 -0.00645432 38.10737732 -0.00645432 39.86877441 -0.009552 C40.92657104 -0.00639984 41.98436768 -0.00324768 43.07421875 0 C44.47867249 0.00119339 44.47867249 0.00119339 45.91149902 0.00241089 C48.03710938 0.12939453 48.03710938 0.12939453 49.03710938 1.12939453 C49.13697912 3.97274501 49.17588819 6.78636616 49.16210938 9.62939453 C49.16791016 10.82628906 49.16791016 10.82628906 49.17382812 12.04736328 C49.16371705 18.00278686 49.16371705 18.00278686 48.03710938 19.12939453 C46.34908952 19.22292616 44.6571573 19.24684244 42.96655273 19.24291992 C41.88550766 19.24284439 40.80446259 19.24276886 39.69065857 19.24269104 C37.92662437 19.23494911 37.92662437 19.23494911 36.12695312 19.22705078 C34.92978165 19.22563583 33.73261017 19.22422089 32.49916077 19.22276306 C28.65761872 19.21714432 24.81613395 19.20458864 20.97460938 19.19189453 C18.37760501 19.18688195 15.78059973 19.18231862 13.18359375 19.17822266 C6.80141259 19.16716881 0.41926507 19.15041245 -5.96289062 19.12939453 C-5.9897305 16.1501686 -6.009651 13.17118158 -6.02539062 10.19189453 C-6.03376953 9.34175781 -6.04214844 8.49162109 -6.05078125 7.61572266 C-6.05400391 6.80683594 -6.05722656 5.99794922 -6.06054688 5.16455078 C-6.06578369 4.41568604 -6.07102051 3.66682129 -6.07641602 2.89526367 C-5.83464207 -0.86549113 -3.14884524 0.00267563 0 0 Z M3.03710938 7.12939453 C2.70710938 8.77939453 2.37710938 10.42939453 2.03710938 12.12939453 C6.98710938 12.12939453 11.93710938 12.12939453 17.03710938 12.12939453 C17.36710937 10.80939453 17.69710937 9.48939453 18.03710938 8.12939453 C16.9000934 6.76406904 16.9000934 6.76406904 13.87695312 7.03173828 C12.58917969 7.04333984 11.30140625 7.05494141 9.97460938 7.06689453 C8.68425781 7.07591797 7.39390625 7.08494141 6.06445312 7.09423828 C5.06542969 7.10583984 4.06640625 7.11744141 3.03710938 7.12939453 Z M26.03710938 7.12939453 C26.03710938 8.77939453 26.03710938 10.42939453 26.03710938 12.12939453 C27.02710938 12.12939453 28.01710937 12.12939453 29.03710938 12.12939453 C29.03710938 10.47939453 29.03710938 8.82939453 29.03710938 7.12939453 C28.04710937 7.12939453 27.05710938 7.12939453 26.03710938 7.12939453 Z M38.03710938 7.12939453 C37.70710938 8.77939453 37.37710938 10.42939453 37.03710938 12.12939453 C38.35710937 12.12939453 39.67710938 12.12939453 41.03710938 12.12939453 C41.03710938 10.47939453 41.03710938 8.82939453 41.03710938 7.12939453 C40.04710937 7.12939453 39.05710938 7.12939453 38.03710938 7.12939453 Z " fill="#39a935" transform="translate(65.962890625,36.87060546875)"/>
<path d="M0 0 C3.40066339 2.12541462 3.88251741 3.5692305 4.9375 7.4375 C5.00735492 11.41923028 4.39706001 12.89269999 2 16 C-0.37040308 18.37040308 -1.06302753 18.34465793 -4.3125 18.4375 C-8.00390404 18.35427994 -8.87330142 18.09238438 -12 15.8125 C-14.05851476 12.91771362 -15 11.53247158 -15 8 C-11.98264924 0.30575556 -7.77682803 -1.11097543 0 0 Z M-6 7 C-6 8.32 -6 9.64 -6 11 C-5.01 10.67 -4.02 10.34 -3 10 C-3.33 9.01 -3.66 8.02 -4 7 C-4.66 7 -5.32 7 -6 7 Z " fill="#39a935" transform="translate(110,61)"/>
<path d="M0 0 C1.12591553 0.00523682 2.25183105 0.01047363 3.41186523 0.01586914 C4.62680664 0.0190918 5.84174805 0.02231445 7.09350586 0.02563477 C8.37290039 0.03401367 9.65229492 0.04239258 10.97045898 0.05102539 C12.2537207 0.05553711 13.53698242 0.06004883 14.85913086 0.06469727 C18.04211921 0.07652994 21.22501661 0.09301471 24.40795898 0.11352539 C25.03295898 2.98852539 25.03295898 2.98852539 25.40795898 6.11352539 C23.40795898 8.11352539 23.40795898 8.11352539 20.91772461 8.35644531 C19.38148437 8.35028198 19.38148437 8.35028198 17.81420898 8.34399414 C16.70174805 8.34206055 15.58928711 8.34012695 14.44311523 8.33813477 C12.69321289 8.31976563 12.69321289 8.31976563 10.90795898 8.30102539 C9.15805664 8.30005859 9.15805664 8.30005859 7.37280273 8.29907227 C-1.31151372 8.25378904 -1.31151372 8.25378904 -3.59204102 7.11352539 C-3.63458458 5.11397793 -3.63284884 3.11310903 -3.59204102 1.11352539 C-2.59204102 0.11352539 -2.59204102 0.11352539 0 0 Z " fill="#39a935" transform="translate(66.592041015625,71.886474609375)"/>
<path d="M0 0 C10.23 0 20.46 0 31 0 C32 5 32 5 31 7 C26.74585377 7.02465622 22.49174502 7.04283899 18.23754883 7.05493164 C16.78929927 7.05997101 15.34105483 7.06680253 13.89282227 7.07543945 C11.81525412 7.08752247 9.73775303 7.09323211 7.66015625 7.09765625 C6.40855713 7.10289307 5.15695801 7.10812988 3.86743164 7.11352539 C1 7 1 7 0 6 C0 4.02 0 2.04 0 0 Z " fill="#39a935" transform="translate(57,61)"/>
<path d="M0 0 C1.50433594 0.01353516 1.50433594 0.01353516 3.0390625 0.02734375 C3.80992188 0.03894531 4.58078125 0.05054687 5.375 0.0625 C5.375 2.7025 5.375 5.3425 5.375 8.0625 C1.085 8.0625 -3.205 8.0625 -7.625 8.0625 C-7.625 5.7525 -7.625 3.4425 -7.625 1.0625 C-4.98041621 -0.25979189 -2.94738699 -0.03427194 0 0 Z " fill="#39a935" transform="translate(88.625,24.9375)"/>
<path d="M0 0 C0.04254356 1.99954746 0.04080783 4.00041636 0 6 C-1 7 -1 7 -4 7.125 C-7 7 -7 7 -8 6 C-8.04080783 4.00041636 -8.04254356 1.99954746 -8 0 C-4.94736336 -0.98120464 -3.05263664 -0.98120464 0 0 Z " fill="#39a935" transform="translate(77,26)"/>
<path d="M0 0 C0.763125 0.20625 1.52625 0.4125 2.3125 0.625 C2.35504356 2.62454746 2.35330783 4.62541636 2.3125 6.625 C1.3125 7.625 1.3125 7.625 -1.6875 7.75 C-4.6875 7.625 -4.6875 7.625 -5.6875 6.625 C-5.9375 4.1875 -5.9375 4.1875 -5.6875 1.625 C-2.6875 -0.375 -2.6875 -0.375 0 0 Z " fill="#39a935" transform="translate(103.6875,25.375)"/>
<path d="M0 0 C0.66 0.33 1.32 0.66 2 1 C-6.27906977 10.58139535 -6.27906977 10.58139535 -9 13 C-9.66 13 -10.32 13 -11 13 C-11.33 13.99 -11.66 14.98 -12 16 C-12.33 15.34 -12.66 14.68 -13 14 C-9.06969212 8.66268841 -5.30101923 4.00808771 0 0 Z " fill="#39a935" transform="translate(62,18)"/>
</svg>
