<?xml version="1.0" encoding="UTF-8"?>
<svg xmlns="http://www.w3.org/2000/svg" xmlns:xlink="http://www.w3.org/1999/xlink" width="100px" height="100px" viewBox="0 0 100 100" version="1.1">
<g id="surface1">
<path style=" stroke:none;fill-rule:nonzero;fill:rgb(0%,0%,0%);fill-opacity:1;" d="M 71.09375 0.78125 C 73.359375 2.28125 74.0625 4.816406 74.789062 7.300781 C 74.875 7.59375 74.964844 7.890625 75.054688 8.183594 C 75.242188 8.808594 75.425781 9.4375 75.613281 10.066406 C 75.90625 11.0625 76.207031 12.0625 76.503906 13.058594 C 76.863281 14.257812 77.222656 15.453125 77.578125 16.652344 C 78.164062 18.617188 78.753906 20.574219 79.347656 22.535156 L 79.46875 22.9375 C 79.667969 23.601562 79.871094 24.261719 80.070312 24.921875 C 80.433594 26.109375 80.792969 27.296875 81.152344 28.488281 L 81.511719 29.671875 C 82.03125 31.382812 82.546875 33.09375 83.066406 34.808594 L 84.15625 38.402344 L 84.277344 38.804688 C 85.519531 42.902344 86.765625 47.003906 88.019531 51.101562 C 89.449219 55.761719 90.871094 60.425781 92.28125 65.09375 C 92.445312 65.628906 92.609375 66.167969 92.769531 66.703125 C 92.996094 67.441406 93.21875 68.179688 93.441406 68.921875 L 93.640625 69.574219 C 94.386719 72.050781 94.976562 74.15625 93.824219 76.625 C 92.578125 78.890625 90.875 79.738281 88.472656 80.460938 L 87.96875 80.613281 C 87.433594 80.777344 86.898438 80.941406 86.363281 81.101562 L 85.257812 81.441406 C 82.429688 82.308594 79.597656 83.15625 76.757812 83.984375 L 76.746094 84.402344 C 76.726562 85.027344 76.707031 85.652344 76.683594 86.28125 C 76.679688 86.496094 76.671875 86.714844 76.667969 86.9375 L 76.644531 87.570312 L 76.625 88.152344 C 76.5625 88.679688 76.449219 89.003906 76.171875 89.453125 C 75.644531 89.863281 75.371094 89.84375 74.695312 89.808594 C 74.015625 89.648438 73.835938 89.601562 73.4375 89.0625 C 73.371094 88.621094 73.371094 88.621094 73.378906 88.109375 L 73.382812 87.609375 L 73.402344 86.976562 C 73.40625 86.617188 73.414062 86.257812 73.421875 85.898438 L 73.4375 84.960938 C 69.546875 86.171875 65.652344 87.371094 61.753906 88.5625 C 56.390625 90.203125 51.023438 91.832031 45.65625 93.457031 L 45.175781 93.601562 C 43.984375 93.960938 42.792969 94.324219 41.601562 94.683594 C 39.386719 95.351562 37.175781 96.015625 34.960938 96.679688 C 39.625 96.699219 44.285156 96.710938 48.945312 96.71875 C 51.113281 96.722656 53.277344 96.730469 55.441406 96.738281 C 57.328125 96.746094 59.214844 96.75 61.101562 96.753906 C 62.101562 96.753906 63.097656 96.757812 64.097656 96.761719 C 65.039062 96.769531 65.980469 96.769531 66.921875 96.769531 C 67.265625 96.769531 67.609375 96.769531 67.953125 96.773438 C 68.425781 96.777344 68.898438 96.777344 69.371094 96.773438 L 69.78125 96.78125 C 70.832031 96.769531 71.417969 96.472656 72.265625 95.898438 C 72.925781 95.109375 73.203125 94.328125 73.457031 93.351562 C 73.632812 92.96875 73.632812 92.96875 74 92.71875 C 74.640625 92.5 75.132812 92.621094 75.78125 92.773438 C 76.1875 93.082031 76.34375 93.265625 76.464844 93.761719 C 76.507812 95.457031 75.894531 96.839844 74.792969 98.125 C 73.074219 99.769531 71.273438 100.117188 68.949219 100.097656 L 68.195312 100.101562 C 67.507812 100.105469 66.820312 100.105469 66.132812 100.101562 C 65.390625 100.101562 64.648438 100.101562 63.90625 100.105469 C 62.453125 100.109375 61.003906 100.109375 59.550781 100.105469 C 58.371094 100.105469 57.1875 100.105469 56.007812 100.105469 L 54.472656 100.105469 C 51.269531 100.109375 48.066406 100.105469 44.863281 100.101562 C 42.117188 100.097656 39.367188 100.097656 36.621094 100.101562 C 33.089844 100.105469 29.554688 100.109375 26.023438 100.105469 L 25.515625 100.105469 C 24.335938 100.101562 23.15625 100.105469 21.980469 100.105469 C 20.542969 100.109375 19.105469 100.109375 17.667969 100.105469 C 16.933594 100.101562 16.203125 100.101562 15.46875 100.105469 C 14.671875 100.105469 13.878906 100.101562 13.082031 100.097656 L 12.386719 100.105469 C 10.328125 100.085938 8.738281 99.550781 7.234375 98.125 C 5.867188 96.515625 5.445312 94.773438 5.445312 92.699219 L 5.441406 91.960938 L 5.445312 91.160156 L 5.441406 90.300781 C 5.441406 89.515625 5.441406 88.734375 5.441406 87.949219 C 5.445312 87.101562 5.441406 86.253906 5.441406 85.410156 C 5.441406 83.75 5.441406 82.089844 5.441406 80.433594 C 5.441406 78.5 5.441406 76.566406 5.441406 74.636719 C 5.441406 70.976562 5.441406 67.316406 5.445312 63.660156 C 5.445312 60.523438 5.445312 57.386719 5.445312 54.253906 C 5.441406 50.21875 5.441406 46.1875 5.441406 42.15625 L 5.441406 41.574219 C 5.441406 40.230469 5.441406 38.882812 5.441406 37.539062 C 5.441406 35.894531 5.441406 34.253906 5.441406 32.613281 C 5.445312 31.777344 5.445312 30.9375 5.441406 30.101562 C 5.441406 29.332031 5.441406 28.566406 5.445312 27.796875 C 5.445312 27.523438 5.445312 27.246094 5.441406 26.96875 C 5.433594 20.597656 5.433594 20.597656 7.5625 18.355469 C 8.710938 17.359375 10.054688 16.898438 11.523438 16.601562 L 11.503906 16.121094 C 11.433594 13.246094 12.203125 10.734375 14.199219 8.613281 C 16.289062 6.699219 18.875 5.785156 21.679688 5.816406 C 24.445312 6.015625 26.613281 7.210938 28.515625 9.179688 C 29.492188 10.339844 29.492188 10.339844 29.492188 10.9375 C 32.789062 10.035156 36.0625 9.070312 39.328125 8.058594 C 40.109375 7.820312 40.886719 7.578125 41.667969 7.339844 C 43.914062 6.652344 46.164062 5.960938 48.410156 5.261719 C 49.488281 4.925781 50.570312 4.59375 51.652344 4.261719 C 52.101562 4.125 52.550781 3.984375 53 3.84375 C 53.621094 3.648438 54.242188 3.457031 54.863281 3.269531 L 55.410156 3.09375 C 56.433594 2.785156 57.160156 2.667969 58.203125 2.929688 C 58.71875 3.257812 58.78125 3.488281 58.960938 4.078125 C 58.992188 4.859375 58.90625 5.066406 58.398438 5.664062 C 57.746094 5.988281 57.058594 6.191406 56.359375 6.402344 C 56.152344 6.46875 55.945312 6.535156 55.730469 6.601562 C 55.058594 6.8125 54.382812 7.023438 53.710938 7.226562 L 53.0625 7.425781 C 51.453125 7.921875 49.84375 8.40625 48.230469 8.886719 C 47.011719 9.25 45.792969 9.617188 44.578125 9.984375 C 42.296875 10.667969 40.015625 11.359375 37.738281 12.058594 C 36.847656 12.328125 35.960938 12.601562 35.070312 12.871094 L 34.542969 13.03125 C 33.671875 13.300781 32.800781 13.566406 31.925781 13.832031 C 31.105469 14.085938 30.28125 14.339844 29.457031 14.589844 C 29.152344 14.683594 28.847656 14.777344 28.542969 14.871094 C 28.125 15 27.703125 15.125 27.285156 15.253906 L 26.574219 15.472656 C 25.976562 15.625 25.976562 15.625 25.195312 15.625 L 25.199219 16.316406 C 25.214844 18.472656 25.226562 20.625 25.234375 22.78125 C 25.238281 23.890625 25.246094 24.996094 25.253906 26.105469 C 25.261719 27.175781 25.265625 28.246094 25.269531 29.316406 C 25.269531 29.722656 25.273438 30.128906 25.277344 30.535156 C 25.285156 31.109375 25.285156 31.683594 25.285156 32.253906 L 25.292969 32.757812 C 25.28125 34.628906 24.546875 36.347656 23.242188 37.695312 C 21.542969 39.109375 19.867188 39.578125 17.675781 39.519531 C 16.066406 39.363281 14.984375 38.859375 13.804688 37.761719 L 13.28125 37.28125 L 12.890625 36.914062 C 14 40.632812 15.121094 44.351562 16.246094 48.066406 L 16.378906 48.503906 C 17.105469 50.902344 17.832031 53.300781 18.5625 55.695312 C 19.652344 59.300781 19.652344 59.300781 19.53125 60.546875 C 19.238281 61.035156 19.238281 61.035156 18.75 61.328125 C 18.183594 61.429688 17.777344 61.394531 17.1875 61.328125 C 13.851562 58.773438 12.4375 47.207031 11.160156 42.964844 C 10.914062 42.144531 10.664062 41.324219 10.417969 40.507812 L 8.984375 35.742188 C 8.964844 44.089844 8.949219 52.4375 8.941406 60.785156 L 8.941406 61.316406 C 8.9375 64.15625 8.929688 67 8.925781 69.839844 C 8.917969 72.757812 8.914062 75.671875 8.910156 78.585938 C 8.910156 80.386719 8.90625 82.183594 8.898438 83.984375 C 8.894531 85.21875 8.894531 86.449219 8.894531 87.683594 C 8.894531 88.394531 8.894531 89.109375 8.890625 89.820312 C 8.886719 90.589844 8.886719 91.363281 8.890625 92.136719 L 8.882812 92.816406 C 8.894531 94.082031 8.996094 94.875 9.765625 95.898438 C 10.839844 96.722656 11.703125 96.789062 13.027344 96.769531 L 13.585938 96.769531 C 14.195312 96.769531 14.804688 96.761719 15.410156 96.757812 C 15.832031 96.753906 16.257812 96.753906 16.679688 96.753906 C 17.789062 96.75 18.898438 96.742188 20.007812 96.734375 C 21.144531 96.726562 22.277344 96.722656 23.410156 96.71875 C 25.632812 96.710938 27.855469 96.695312 30.078125 96.679688 L 29.671875 96.445312 L 29.140625 96.132812 C 28.96875 96.03125 28.792969 95.929688 28.617188 95.824219 C 26.257812 94.304688 25.722656 91.085938 24.964844 88.554688 C 24.617188 87.40625 24.269531 86.253906 23.921875 85.101562 C 23.660156 84.234375 23.398438 83.363281 23.136719 82.496094 C 22.820312 81.449219 22.507812 80.40625 22.191406 79.359375 C 21.601562 77.390625 21.003906 75.429688 20.402344 73.464844 C 20.144531 72.632812 19.890625 71.796875 19.636719 70.960938 C 19.5 70.523438 19.367188 70.085938 19.230469 69.648438 C 19.046875 69.050781 18.863281 68.449219 18.683594 67.851562 L 18.519531 67.332031 C 17.933594 65.378906 17.933594 65.378906 18.359375 64.390625 C 18.859375 63.96875 19.261719 63.898438 19.894531 63.785156 C 20.574219 63.917969 20.847656 64.332031 21.289062 64.84375 C 21.5 65.332031 21.660156 65.773438 21.800781 66.28125 L 21.9375 66.722656 C 22.085938 67.214844 22.230469 67.707031 22.375 68.199219 C 22.480469 68.554688 22.589844 68.910156 22.695312 69.265625 C 22.9375 70.066406 23.179688 70.871094 23.417969 71.671875 C 23.875 73.203125 24.335938 74.730469 24.800781 76.257812 L 25.316406 77.957031 L 25.445312 78.382812 C 25.777344 79.476562 26.109375 80.574219 26.441406 81.671875 C 26.753906 82.707031 27.066406 83.746094 27.382812 84.78125 C 27.621094 85.570312 27.859375 86.359375 28.097656 87.148438 C 28.253906 87.671875 28.410156 88.191406 28.570312 88.714844 C 28.679688 89.078125 28.789062 89.441406 28.894531 89.804688 C 29.324219 91.203125 29.667969 92.277344 30.824219 93.226562 C 31.921875 93.808594 32.84375 93.816406 34.019531 93.460938 L 34.722656 93.253906 C 34.976562 93.175781 35.226562 93.097656 35.480469 93.019531 C 36.464844 92.722656 37.449219 92.425781 38.433594 92.125 C 39.140625 91.910156 39.851562 91.695312 40.558594 91.484375 C 42.210938 90.984375 43.863281 90.484375 45.511719 89.980469 C 46.347656 89.722656 47.1875 89.46875 48.023438 89.214844 C 49.246094 88.84375 50.46875 88.46875 51.691406 88.097656 C 54.65625 87.195312 57.617188 86.292969 60.582031 85.394531 L 63.914062 84.382812 C 66.910156 83.472656 69.90625 82.5625 72.90625 81.652344 L 76.605469 80.53125 C 77.445312 80.277344 78.28125 80.023438 79.121094 79.769531 C 80.753906 79.273438 82.382812 78.777344 84.011719 78.277344 C 84.84375 78.023438 85.671875 77.777344 86.503906 77.527344 C 86.894531 77.410156 87.28125 77.292969 87.671875 77.171875 L 88.179688 77.027344 C 89.328125 76.671875 90.230469 76.210938 90.894531 75.160156 C 91.289062 73.371094 90.839844 71.804688 90.296875 70.097656 C 90.222656 69.847656 90.144531 69.597656 90.066406 69.347656 C 89.902344 68.8125 89.738281 68.273438 89.570312 67.738281 C 89.300781 66.878906 89.035156 66.015625 88.769531 65.152344 C 88.449219 64.101562 88.125 63.046875 87.796875 61.996094 C 87.242188 60.195312 86.691406 58.394531 86.144531 56.589844 L 86.027344 56.203125 L 85.558594 54.648438 C 85.117188 53.1875 84.675781 51.726562 84.230469 50.265625 L 84.105469 49.855469 C 83.027344 46.289062 81.941406 42.726562 80.859375 39.160156 C 79.289062 34 77.722656 28.835938 76.160156 23.671875 C 75.367188 21.066406 74.578125 18.457031 73.796875 15.847656 C 73.476562 14.792969 73.160156 13.738281 72.84375 12.6875 C 72.582031 11.824219 72.324219 10.964844 72.066406 10.105469 C 71.910156 9.574219 71.75 9.046875 71.589844 8.515625 C 71.480469 8.15625 71.371094 7.792969 71.265625 7.433594 C 70.753906 5.742188 70.382812 4.585938 68.945312 3.515625 C 67.789062 2.9375 66.386719 3.355469 65.222656 3.710938 C 64.121094 4.046875 63.257812 4.234375 62.109375 4.101562 C 61.679688 3.789062 61.542969 3.617188 61.445312 3.09375 L 61.449219 2.636719 L 61.445312 2.179688 C 61.542969 1.652344 61.707031 1.515625 62.109375 1.171875 C 64.746094 -0.125 68.460938 -0.835938 71.09375 0.78125 Z M 16.425781 11.0625 C 14.996094 12.675781 14.589844 14.203125 14.589844 16.324219 L 14.585938 16.875 C 14.585938 17.476562 14.582031 18.074219 14.582031 18.675781 L 14.578125 19.933594 C 14.578125 20.808594 14.574219 21.6875 14.574219 22.566406 C 14.574219 23.6875 14.570312 24.808594 14.5625 25.929688 C 14.558594 26.796875 14.558594 27.660156 14.558594 28.527344 C 14.558594 28.9375 14.558594 29.351562 14.554688 29.765625 C 14.550781 30.34375 14.550781 30.925781 14.554688 31.503906 L 14.546875 32.015625 C 14.558594 33.265625 14.839844 34.320312 15.707031 35.257812 C 16.636719 36.082031 17.480469 36.429688 18.726562 36.386719 C 20.011719 36.199219 20.855469 35.484375 21.65625 34.507812 C 22.207031 33.6875 22.101562 32.78125 22.101562 31.832031 L 22.105469 31.289062 C 22.109375 30.691406 22.109375 30.09375 22.109375 29.5 L 22.113281 28.257812 C 22.117188 27.390625 22.117188 26.523438 22.117188 25.65625 C 22.117188 24.542969 22.125 23.429688 22.128906 22.316406 C 22.132812 21.460938 22.132812 20.605469 22.132812 19.75 C 22.132812 19.339844 22.136719 18.929688 22.136719 18.519531 C 22.140625 17.945312 22.140625 17.371094 22.140625 16.800781 L 22.144531 16.28125 C 22.164062 15.433594 22.164062 15.433594 21.808594 14.695312 C 21.472656 14.390625 21.472656 14.390625 20.886719 14.476562 C 20.253906 14.597656 20.253906 14.597656 19.921875 15.234375 C 19.882812 15.730469 19.863281 16.226562 19.867188 16.726562 L 19.863281 17.183594 C 19.859375 17.515625 19.855469 17.84375 19.855469 18.171875 C 19.855469 18.691406 19.851562 19.210938 19.847656 19.734375 C 19.835938 20.835938 19.832031 21.941406 19.824219 23.046875 C 19.816406 24.328125 19.808594 25.605469 19.796875 26.886719 C 19.792969 27.398438 19.792969 27.914062 19.789062 28.425781 L 19.78125 29.367188 L 19.78125 29.800781 C 19.773438 30.523438 19.746094 30.828125 19.335938 31.445312 C 18.570312 31.617188 17.933594 31.714844 17.1875 31.445312 C 16.945312 30.691406 16.960938 29.9375 16.957031 29.152344 L 16.953125 28.695312 C 16.949219 28.195312 16.949219 27.695312 16.945312 27.195312 L 16.941406 26.675781 C 16.9375 25.769531 16.9375 24.859375 16.933594 23.953125 C 16.933594 23.019531 16.925781 22.085938 16.917969 21.152344 C 16.914062 20.429688 16.910156 19.710938 16.910156 18.988281 C 16.910156 18.644531 16.90625 18.300781 16.902344 17.957031 C 16.863281 13.851562 16.863281 13.851562 18.226562 12.414062 C 19.53125 11.65625 20.546875 11.304688 22.070312 11.523438 C 22.835938 11.792969 23.449219 12.121094 24.023438 12.695312 C 24.484375 12.671875 24.484375 12.671875 24.988281 12.546875 L 25.507812 12.441406 C 26.019531 12.316406 26.019531 12.316406 26.5625 11.914062 C 25.398438 10.382812 24.019531 9.398438 22.109375 9.027344 C 19.878906 8.800781 18.011719 9.492188 16.425781 11.0625 Z M 9.765625 20.703125 C 9.0625 21.429688 8.734375 22.15625 8.730469 23.167969 C 8.753906 24.257812 9.015625 25.214844 9.34375 26.246094 L 9.515625 26.804688 C 9.695312 27.382812 9.875 27.960938 10.058594 28.539062 C 10.179688 28.9375 10.304688 29.332031 10.425781 29.726562 C 10.722656 30.691406 11.023438 31.65625 11.328125 32.617188 L 11.523438 32.617188 L 11.523438 19.921875 C 10.90625 19.921875 10.261719 20.375 9.765625 20.703125 Z M 9.765625 20.703125 "/>
<path style=" stroke:none;fill-rule:nonzero;fill:rgb(0%,0%,0%);fill-opacity:1;" d="M 41.601562 22.265625 C 42.03125 22.625 42.261719 22.957031 42.578125 23.4375 L 42.578125 24.023438 C 42.703125 24.003906 42.824219 23.984375 42.949219 23.96875 C 44.308594 23.792969 45.382812 23.773438 46.582031 24.523438 C 47.019531 25.234375 47.0625 25.949219 46.875 26.757812 C 46.59375 27.292969 46.59375 27.292969 46.09375 27.734375 C 45.484375 27.867188 44.886719 27.863281 44.261719 27.855469 C 43.074219 27.855469 42.265625 27.898438 41.210938 28.515625 L 40.820312 28.515625 C 40.609375 29.476562 40.609375 29.476562 40.851562 30.402344 C 41.171875 30.890625 41.171875 30.890625 41.679688 31.027344 L 42.234375 31.089844 L 42.867188 31.175781 L 43.554688 31.25 C 47.765625 31.710938 47.765625 31.710938 49.21875 33.203125 C 50.59375 35.164062 50.953125 36.875 50.78125 39.257812 C 50.527344 40.59375 49.71875 41.601562 48.691406 42.464844 C 48.398438 42.757812 48.398438 42.757812 48.414062 43.179688 L 48.460938 43.628906 C 48.480469 44.335938 48.457031 44.5 48.058594 45.128906 C 47.363281 45.570312 46.9375 45.648438 46.125 45.605469 C 45.4375 45.445312 45.132812 45.085938 44.726562 44.53125 C 44.605469 44.105469 44.605469 44.105469 44.53125 43.75 L 43.785156 43.796875 C 42.382812 43.796875 41.128906 43.351562 40.015625 42.503906 C 39.582031 41.898438 39.453125 41.566406 39.453125 40.820312 C 39.734375 39.96875 39.871094 39.5625 40.625 39.0625 C 41.433594 38.945312 41.929688 39.109375 42.640625 39.464844 C 43.589844 39.917969 44.304688 39.914062 45.3125 39.648438 C 45.9375 39.410156 46.339844 39.238281 46.765625 38.71875 C 46.976562 37.875 46.785156 37.148438 46.4375 36.363281 C 45.9375 35.742188 45.382812 35.589844 44.605469 35.464844 L 44.066406 35.414062 L 43.460938 35.351562 C 43.046875 35.3125 42.632812 35.273438 42.21875 35.234375 C 40.546875 35.058594 39.160156 34.625 37.914062 33.460938 C 36.8125 31.738281 36.476562 30.175781 36.71875 28.125 C 37.03125 27.058594 37.625 26.300781 38.476562 25.585938 L 38.867188 25.585938 L 38.769531 25.28125 C 38.59375 24.421875 38.558594 23.703125 38.902344 22.886719 C 39.664062 21.972656 40.492188 21.949219 41.601562 22.265625 Z M 79.6875 66.796875 C 80.273438 67.199219 80.4375 67.476562 80.652344 68.152344 C 80.667969 68.894531 80.535156 69.144531 80.078125 69.726562 C 79.601562 69.953125 79.1875 70.105469 78.6875 70.25 L 78.230469 70.394531 C 77.675781 70.566406 77.117188 70.734375 76.5625 70.898438 C 76.097656 71.039062 75.628906 71.183594 75.164062 71.324219 C 73.628906 71.792969 72.089844 72.253906 70.554688 72.714844 C 69.117188 73.144531 67.683594 73.574219 66.25 74.007812 L 65.753906 74.15625 C 62.472656 75.144531 59.191406 76.140625 55.914062 77.144531 C 55.035156 77.414062 54.152344 77.683594 53.273438 77.953125 L 51.550781 78.480469 C 51.414062 78.523438 51.273438 78.5625 51.128906 78.609375 C 49.507812 79.105469 47.882812 79.601562 46.261719 80.105469 C 45.167969 80.441406 44.070312 80.78125 42.972656 81.117188 C 42.527344 81.253906 42.085938 81.390625 41.640625 81.527344 C 41.039062 81.714844 40.4375 81.902344 39.832031 82.085938 C 39.660156 82.140625 39.488281 82.195312 39.308594 82.25 C 38.261719 82.566406 37.226562 82.789062 36.132812 82.617188 C 35.621094 82.214844 35.621094 82.214844 35.351562 81.640625 C 35.363281 80.980469 35.375 80.5 35.78125 79.964844 C 36.242188 79.601562 36.671875 79.472656 37.230469 79.304688 L 37.914062 79.097656 L 38.652344 78.878906 C 38.90625 78.800781 39.164062 78.722656 39.421875 78.648438 C 39.949219 78.484375 40.480469 78.324219 41.011719 78.164062 C 41.964844 77.878906 42.917969 77.585938 43.867188 77.292969 C 45.042969 76.929688 46.222656 76.570312 47.398438 76.207031 L 48.175781 75.972656 C 51.167969 75.054688 54.160156 74.140625 57.152344 73.234375 L 57.558594 73.109375 C 58.902344 72.703125 60.246094 72.296875 61.589844 71.890625 C 62.257812 71.6875 62.925781 71.488281 63.59375 71.285156 L 63.992188 71.164062 C 65.898438 70.585938 67.804688 70.003906 69.710938 69.414062 C 70.515625 69.164062 71.320312 68.914062 72.125 68.667969 C 72.761719 68.472656 73.394531 68.273438 74.03125 68.074219 C 74.726562 67.859375 75.421875 67.644531 76.117188 67.429688 L 76.738281 67.234375 C 77.753906 66.921875 78.625 66.6875 79.6875 66.796875 Z M 77.84375 59.09375 C 78.234375 59.757812 78.234375 60.179688 78.125 60.9375 C 77.460938 61.902344 76.371094 62.09375 75.304688 62.410156 L 74.660156 62.613281 C 74.054688 62.796875 73.453125 62.980469 72.851562 63.164062 C 72.316406 63.324219 71.78125 63.488281 71.242188 63.65625 C 69.410156 64.214844 67.578125 64.773438 65.742188 65.328125 C 64.894531 65.585938 64.046875 65.84375 63.199219 66.101562 C 61.304688 66.675781 59.414062 67.246094 57.519531 67.820312 L 55.203125 68.523438 L 54.761719 68.65625 L 52.628906 69.304688 C 50.773438 69.867188 48.917969 70.425781 47.058594 70.988281 L 46.683594 71.101562 C 44.917969 71.636719 43.152344 72.179688 41.386719 72.726562 L 39.503906 73.304688 C 38.933594 73.480469 38.367188 73.660156 37.796875 73.835938 L 36.78125 74.148438 L 36.328125 74.292969 C 35.277344 74.613281 34.425781 74.839844 33.421875 74.316406 C 32.917969 73.722656 32.898438 73.410156 32.898438 72.65625 C 33.058594 72.089844 33.339844 71.867188 33.789062 71.484375 C 34.382812 71.238281 34.382812 71.238281 35.089844 71.027344 L 35.484375 70.90625 C 35.917969 70.777344 36.351562 70.648438 36.789062 70.519531 C 37.097656 70.425781 37.40625 70.332031 37.714844 70.242188 C 38.378906 70.039062 39.039062 69.84375 39.703125 69.644531 C 40.757812 69.332031 41.808594 69.015625 42.863281 68.699219 C 44.296875 68.269531 45.730469 67.839844 47.164062 67.410156 C 49.652344 66.667969 52.136719 65.917969 54.621094 65.160156 C 55.527344 64.886719 56.429688 64.613281 57.335938 64.339844 C 60.015625 63.53125 62.695312 62.710938 65.367188 61.882812 C 66.304688 61.59375 67.242188 61.304688 68.179688 61.015625 C 69.074219 60.742188 69.972656 60.460938 70.867188 60.183594 C 71.421875 60.011719 71.976562 59.839844 72.527344 59.667969 C 72.90625 59.550781 73.285156 59.433594 73.660156 59.316406 C 76.691406 58.390625 76.691406 58.390625 77.84375 59.09375 Z M 72.460938 42.578125 C 73.066406 43.078125 73.214844 43.382812 73.339844 44.152344 C 73.214844 44.878906 73.027344 45.042969 72.460938 45.507812 C 72.003906 45.703125 71.535156 45.875 71.0625 46.019531 L 70.605469 46.164062 C 70.050781 46.339844 69.5 46.511719 68.945312 46.679688 L 68.269531 46.886719 C 66.480469 47.433594 64.691406 47.972656 62.902344 48.507812 C 61.628906 48.886719 60.355469 49.269531 59.082031 49.65625 L 58.097656 49.949219 C 54.921875 50.90625 51.75 51.867188 48.582031 52.832031 C 47.882812 53.046875 47.1875 53.257812 46.488281 53.46875 C 43.917969 54.25 41.347656 55.035156 38.777344 55.828125 C 37.753906 56.144531 36.730469 56.457031 35.707031 56.773438 C 35.230469 56.917969 34.753906 57.066406 34.277344 57.214844 C 33.628906 57.417969 32.976562 57.617188 32.324219 57.816406 L 31.75 57.996094 C 30.769531 58.292969 29.933594 58.5 28.90625 58.398438 C 28.382812 58.027344 28.175781 57.75 27.941406 57.152344 C 27.925781 56.398438 28.074219 56.089844 28.515625 55.46875 C 29.1875 55.121094 29.894531 54.929688 30.621094 54.726562 L 31.277344 54.53125 C 31.742188 54.390625 32.210938 54.253906 32.675781 54.117188 C 33.386719 53.910156 34.09375 53.695312 34.800781 53.480469 C 36.179688 53.054688 37.558594 52.636719 38.9375 52.222656 C 39.636719 52.011719 40.335938 51.800781 41.035156 51.585938 C 42.203125 51.234375 43.375 50.882812 44.542969 50.527344 C 46.902344 49.816406 49.257812 49.101562 51.617188 48.386719 C 52.417969 48.144531 53.214844 47.902344 54.015625 47.660156 C 56.707031 46.847656 59.394531 46.027344 62.078125 45.195312 C 62.878906 44.945312 63.683594 44.695312 64.484375 44.449219 C 65.117188 44.253906 65.75 44.054688 66.382812 43.855469 C 67.078125 43.640625 67.769531 43.421875 68.464844 43.210938 L 69.074219 43.015625 C 70.246094 42.65625 71.234375 42.472656 72.460938 42.578125 Z M 75.160156 50.914062 C 75.644531 51.429688 75.78125 51.640625 75.78125 52.34375 C 75.503906 53.132812 75.335938 53.445312 74.574219 53.824219 C 74.308594 53.90625 74.039062 53.988281 73.765625 54.0625 L 73.304688 54.203125 C 72.957031 54.3125 72.609375 54.414062 72.261719 54.515625 C 71.636719 54.699219 71.015625 54.890625 70.390625 55.082031 C 69.007812 55.507812 67.621094 55.929688 66.234375 56.34375 C 65.523438 56.558594 64.816406 56.773438 64.105469 56.988281 C 63.070312 57.300781 62.035156 57.613281 61 57.925781 C 58.640625 58.636719 56.285156 59.351562 53.933594 60.066406 L 53.535156 60.1875 C 52.609375 60.464844 51.683594 60.746094 50.757812 61.027344 C 50.226562 61.1875 49.695312 61.347656 49.164062 61.507812 L 48.765625 61.628906 C 46.90625 62.191406 45.050781 62.757812 43.195312 63.332031 C 42.148438 63.65625 41.101562 63.976562 40.054688 64.296875 C 39.203125 64.558594 38.347656 64.824219 37.496094 65.089844 C 36.972656 65.253906 36.445312 65.414062 35.917969 65.574219 C 35.558594 65.6875 35.199219 65.796875 34.84375 65.910156 C 33.601562 66.285156 32.546875 66.527344 31.25 66.40625 C 30.644531 65.90625 30.496094 65.601562 30.371094 64.832031 C 30.492188 64.113281 30.699219 63.9375 31.25 63.476562 C 31.753906 63.257812 31.753906 63.257812 32.335938 63.085938 L 32.996094 62.886719 L 33.71875 62.675781 C 33.972656 62.597656 34.226562 62.523438 34.480469 62.445312 C 35.015625 62.285156 35.554688 62.125 36.09375 61.964844 C 36.890625 61.726562 37.691406 61.480469 38.488281 61.238281 L 38.886719 61.113281 L 39.683594 60.867188 C 40.375 60.65625 41.066406 60.445312 41.757812 60.234375 L 42.183594 60.105469 C 42.925781 59.878906 43.664062 59.652344 44.40625 59.425781 C 47.742188 58.40625 51.082031 57.390625 54.421875 56.375 L 54.839844 56.25 C 56.195312 55.839844 57.546875 55.429688 58.902344 55.019531 L 60.859375 54.429688 L 61.246094 54.3125 C 63.085938 53.757812 64.921875 53.191406 66.757812 52.621094 L 68.109375 52.203125 C 68.9375 51.945312 69.761719 51.6875 70.589844 51.429688 L 71.683594 51.089844 L 72.175781 50.933594 C 74.167969 50.320312 74.167969 50.320312 75.160156 50.914062 Z M 75.160156 50.914062 "/>
</g>
</svg>
