<?xml version="1.0" encoding="UTF-8"?>
<svg version="1.1" xmlns="http://www.w3.org/2000/svg" width="512" height="512">
<path d="M0 0 C1.30324219 -0.04898438 2.60648437 -0.09796875 3.94921875 -0.1484375 C7.3125 0.375 7.3125 0.375 8.84320068 2.31777954 C10.79158384 6.37184584 11.99013824 10.48574018 13.18457031 14.81396484 C13.44398029 15.73972006 13.70339027 16.66547527 13.97066116 17.61928368 C16.77373886 27.7872782 19.08988138 38.05399305 21.359375 48.3515625 C21.81948694 50.41585484 22.28021645 52.48000962 22.74151611 54.54403687 C23.94636661 59.94138292 25.1441596 65.34026789 26.33996582 70.73962402 C28.22965313 79.26668238 30.13001914 87.79136813 32.0304718 96.31603241 C32.73189414 99.46542344 33.43113133 102.61529443 34.13024902 105.76519775 C36.43435277 116.12399402 38.78849639 126.46799333 41.24414062 136.79199219 C41.47936558 137.78490202 41.71459053 138.77781185 41.95694351 139.80080986 C43.06831184 144.4897705 44.1892388 149.1759915 45.32928467 153.85806274 C45.72676177 155.52555917 46.12385799 157.19314644 46.52050781 158.86083984 C46.70349678 159.59487911 46.88648575 160.32891838 47.07501984 161.08520126 C48.24800424 166.07873595 49.10130227 171.25715107 48.3125 176.375 C46.06217395 178.74376426 44.19555222 179.93347389 41.3125 181.375 C40.69297345 195.59280476 40.23700681 209.78078055 40.30307007 224.01300049 C40.37409871 239.45035174 40.28302869 254.88633729 40.07678032 270.32246876 C40.03241218 273.64314156 39.9944367 276.96366124 39.96606445 280.28451538 C39.93291477 284.03245751 39.88087949 287.77969289 39.82421875 291.52734375 C39.81782883 292.66431702 39.8114389 293.80129028 39.80485535 294.97271729 C39.77516411 296.54651154 39.77516411 296.54651154 39.74487305 298.15209961 C39.73376999 299.06801376 39.72266693 299.98392792 39.71122742 300.92759705 C39.23269369 303.86485396 38.35816106 305.23621164 36.3125 307.375 C32.33037702 308.70237433 28.51615696 308.51406559 24.36474609 308.50439453 C23.44459213 308.50614685 22.52443817 308.50789917 21.57640076 308.50970459 C18.49622763 308.51414056 15.41611136 308.51116433 12.3359375 308.5078125 C10.14181508 308.50848853 7.94769273 308.50946104 5.75357056 308.51071167 C1.10100609 308.51219371 -3.55153931 308.51003065 -8.20410156 308.50537109 C-13.95001467 308.49987702 -19.69587943 308.50292999 -25.44179058 308.50879383 C-86.61934808 308.56212763 -147.75949014 307.20703908 -208.91256809 305.6345284 C-214.93537201 305.47996556 -220.95825906 305.32900588 -226.98120117 305.17993164 C-292.06736505 303.56781028 -292.06736505 303.56781028 -320.78534126 302.4913311 C-322.89482988 302.412526 -325.00441212 302.33617979 -327.11408806 302.26255989 C-329.94830217 302.16217471 -332.7818405 302.05068728 -335.61547852 301.93530273 C-336.81406211 301.89499467 -336.81406211 301.89499467 -338.03685951 301.8538723 C-351.41531852 301.26091888 -351.41531852 301.26091888 -355.70385742 297.70141602 C-357.06818663 294.4746369 -357.23422817 291.65383093 -357.42578125 288.15234375 C-357.47180984 287.40746704 -357.51783844 286.66259033 -357.56526184 285.8951416 C-357.66672379 284.24624646 -357.76246457 282.59699213 -357.85333252 280.94747925 C-358.11223299 276.2961593 -358.42129349 271.6482097 -358.73046875 267 C-358.79878906 265.96524033 -358.86710937 264.93048065 -358.9375 263.86436462 C-359.93062091 249.25051734 -361.28439246 234.66581883 -362.60720444 220.0788765 C-362.81196272 217.81843133 -363.01571303 215.55789749 -363.21914673 213.29733276 C-363.605167 209.0092495 -363.99345505 204.72137517 -364.3828125 200.43359375 C-364.55765923 198.50465271 -364.55765923 198.50465271 -364.73603821 196.53674316 C-365.26429829 190.76732154 -365.82839052 185.00731307 -366.48614502 179.251297 C-366.76499814 176.65284488 -366.93404798 174.05421933 -367.08203125 171.4453125 C-367.14849854 170.34195557 -367.21496582 169.23859863 -367.28344727 168.10180664 C-367.35490967 166.91321045 -367.42637207 165.72461426 -367.5 164.5 C-368.25863166 152.3917487 -369.31378671 140.32643055 -370.47961426 128.25094604 C-373.07857041 101.20801524 -373.07857041 101.20801524 -373.75 90.4375 C-373.82420166 89.53974854 -373.89840332 88.64199707 -373.97485352 87.71704102 C-374.09765625 85.28515625 -374.09765625 85.28515625 -373.6875 81.375 C-364.82685285 72.70792298 -349.57183797 70.94437752 -337.8125 68.4375 C-336.54797501 68.1629599 -336.54797501 68.1629599 -335.25790405 67.88287354 C-315.95765256 63.69596396 -296.55362942 60.02815564 -277.16094971 56.30037308 C-254.32083962 51.90858766 -231.54201366 47.30730861 -208.8125 42.375 C-203.06803183 41.12871093 -197.32342189 39.88308913 -191.578125 38.640625 C-190.82731722 38.47823208 -190.07650944 38.31583916 -189.30294991 38.14852524 C-162.11999906 32.27613871 -134.87304249 26.7026074 -107.63889885 21.07367706 C-102.25654948 19.96111887 -96.87435294 18.84782259 -91.4921875 17.734375 C-90.44303791 17.51743484 -89.39388832 17.30049469 -88.31294632 17.07698059 C-68.88317065 13.05773092 -49.47031681 8.96003481 -30.06442261 4.8270874 C-28.48141924 4.49066853 -28.48141924 4.49066853 -26.866436 4.14745331 C-24.90114225 3.72975774 -22.93607101 3.31101321 -20.97127151 2.89099884 C-13.95518053 1.40095903 -7.19574598 0.1861586 0 0 Z " fill="#2D8C5A" transform="translate(418.6875,101.625)"/>
<path d="M0 0 C0.32871094 0.70125 0.65742188 1.4025 0.99609375 2.125 C5.53226551 11.17275721 11.59700147 18.4312734 21.18359375 22.32421875 C27.64157167 23.87377517 34.38634273 23.84813646 41 24 C44.01530256 34.42939945 46.32869605 44.97022175 48.57006836 55.58911133 C50.53646616 64.8891102 52.58631063 74.16714003 54.6875 83.4375 C54.97278564 84.69755859 55.25807129 85.95761719 55.55200195 87.25585938 C56.64746188 92.08241927 57.74413112 96.90830233 58.87353516 101.72705078 C59.14858887 102.90122559 59.42364258 104.07540039 59.70703125 105.28515625 C59.95557861 106.33711182 60.20412598 107.38906738 60.46020508 108.47290039 C61 111 61 111 61 113 C59.64068359 113.31130859 59.64068359 113.31130859 58.25390625 113.62890625 C48.43561564 116.11205065 40.83359154 119.33914486 35.0625 128.0625 C31.91611082 133.39670101 30.75107547 138.73243393 30.375 144.875 C30.26285156 146.60363281 30.26285156 146.60363281 30.1484375 148.3671875 C30.09945313 149.23601562 30.05046875 150.10484375 30 151 C8.96846091 155.93273654 -12.12806061 160.51157714 -33.26953125 164.9453125 C-35.70961677 165.45722899 -38.14969219 165.96919359 -40.5897522 166.48123169 C-42.24268514 166.82800754 -43.89565983 167.17458445 -45.54867554 167.52096558 C-55.40406663 169.58714659 -65.24241574 171.70849181 -75.0625 173.9375 C-88.04758543 176.87607996 -101.10341724 179.44048395 -114.16226196 182.02661133 C-126.05225844 184.38322903 -137.9187297 186.80092884 -149.75 189.4375 C-168.65258276 193.64653166 -187.63513446 197.46477631 -206.61633301 201.30070496 C-211.59570471 202.30751222 -216.57348062 203.32094947 -221.5473175 204.35476685 C-223.35606006 204.73064074 -225.16544051 205.10344114 -226.97485352 205.47607422 C-228.9803202 205.88919756 -230.9848363 206.30698292 -232.98803711 206.73095703 C-237.765421 207.70567523 -242.12305299 208.19824988 -247 208 C-247.20753906 207.3709375 -247.41507813 206.741875 -247.62890625 206.09375 C-250.3904532 198.42150242 -253.99225508 192.45372138 -261.0625 188.125 C-262.5165625 187.568125 -262.5165625 187.568125 -264 187 C-264.88816406 186.6596875 -265.77632812 186.319375 -266.69140625 185.96875 C-270.4288899 184.87442185 -274.01074949 184.55473258 -277.875 184.375 C-278.90753906 184.31699219 -278.90753906 184.31699219 -279.9609375 184.2578125 C-281.64023246 184.16451834 -283.32007767 184.08121762 -285 184 C-289.35735246 164.63214117 -293.62364283 145.24575477 -297.7666626 125.83084106 C-298.21244725 123.74202908 -298.65901609 121.65338429 -299.10638428 119.56491089 C-299.73884022 116.61021751 -300.36799008 113.65484001 -300.99609375 110.69921875 C-301.18430191 109.82142761 -301.37251007 108.94363647 -301.56642151 108.03924561 C-302.55369602 103.37119779 -303.38716718 98.73218727 -304 94 C-303.34773438 93.82984375 -302.69546875 93.6596875 -302.0234375 93.484375 C-294.11052389 91.29023376 -287.39075173 88.33756497 -283 81 C-279.52603333 73.14277336 -278.37841932 65.51959488 -278 57 C-262.27302626 53.3072884 -246.48685632 50.05586636 -230.625 47 C-209.94639404 43.00292727 -189.28421751 38.9417838 -168.75 34.25 C-151.07086292 30.27153152 -133.29952813 26.73146992 -115.54150391 23.12597656 C-93.99501792 18.75012904 -72.45906141 14.32189594 -50.93533325 9.83544922 C-49.09895532 9.45289458 -47.26243369 9.07102888 -45.42575073 8.68994141 C-35.79530722 6.69062343 -26.18677917 4.64387476 -16.63479614 2.29376221 C-11.07392402 0.94503049 -5.72990638 0 0 0 Z " fill="#339966" transform="translate(377,127)"/>
<path d="M0 0 C1.30324219 -0.04898438 2.60648437 -0.09796875 3.94921875 -0.1484375 C7.3125 0.375 7.3125 0.375 8.84320068 2.31777954 C10.79158384 6.37184584 11.99013824 10.48574018 13.18457031 14.81396484 C13.44398029 15.73972006 13.70339027 16.66547527 13.97066116 17.61928368 C16.77373886 27.7872782 19.08988138 38.05399305 21.359375 48.3515625 C21.81948694 50.41585484 22.28021645 52.48000962 22.74151611 54.54403687 C23.94636661 59.94138292 25.1441596 65.34026789 26.33996582 70.73962402 C28.22965313 79.26668238 30.13001914 87.79136813 32.0304718 96.31603241 C32.73189414 99.46542344 33.43113133 102.61529443 34.13024902 105.76519775 C36.43435277 116.12399402 38.78849639 126.46799333 41.24414062 136.79199219 C41.47936558 137.78490202 41.71459053 138.77781185 41.95694351 139.80080986 C43.06831184 144.4897705 44.1892388 149.1759915 45.32928467 153.85806274 C45.72676177 155.52555917 46.12385799 157.19314644 46.52050781 158.86083984 C46.70349678 159.59487911 46.88648575 160.32891838 47.07501984 161.08520126 C48.25343948 166.10187442 49.03174996 171.22858623 48.3125 176.375 C45.06434178 180.17320351 41.42759521 181.19426484 36.66796875 182.37109375 C36.02087448 182.53330917 35.37378021 182.6955246 34.70707703 182.86265564 C26.39084497 184.91217664 18.00472865 186.67043885 9.625 188.4375 C6.43301833 189.11320312 3.24158611 189.79141736 0.05078125 190.47265625 C-0.71603973 190.63633698 -1.48286072 190.8000177 -2.2729187 190.96865845 C-7.4751839 192.08894352 -12.63359975 193.33826325 -17.78881836 194.65917969 C-22.18857469 195.74568567 -26.61978706 196.67139632 -31.05371094 197.60693359 C-34.72976013 198.38393244 -38.40044017 199.18264086 -42.0703125 199.98828125 C-43.95157837 200.40110352 -43.95157837 200.40110352 -45.87084961 200.82226562 C-46.51263153 200.96317627 -47.15441345 201.10408691 -47.81564331 201.24926758 C-63.42870835 204.67572845 -79.05347067 208.0454132 -94.6875 211.375 C-95.91887695 211.63748535 -97.15025391 211.8999707 -98.41894531 212.17041016 C-114.67312282 215.63336454 -130.93387014 219.06494684 -147.19918823 222.47518921 C-149.02893979 222.85887541 -150.85863391 223.24283564 -152.68826294 223.62710571 C-163.80294663 225.96071568 -174.92772047 228.2350122 -186.06616211 230.45239258 C-192.48743055 231.73168198 -198.90031568 233.05102332 -205.3125 234.375 C-206.6988032 234.66060515 -208.08511548 234.94616619 -209.47143555 235.23168945 C-218.06628984 237.00302189 -226.6592163 238.78356942 -235.25134277 240.56808472 C-240.38189294 241.63351504 -245.51269585 242.69772586 -250.64349365 243.76196289 C-253.18077909 244.28865492 -255.71793298 244.81598115 -258.25494385 245.34399414 C-272.67124987 248.34433846 -287.09436522 251.27228313 -301.56918335 253.97720337 C-304.45984422 254.52003777 -307.34702072 255.08050406 -310.234375 255.640625 C-311.96865008 255.96927771 -313.70301906 256.29743549 -315.4375 256.625 C-316.31664062 256.79773438 -317.19578125 256.97046875 -318.1015625 257.1484375 C-330.15120271 259.40104086 -330.15120271 259.40104086 -334.6875 258.375 C-337.98554508 255.75455395 -339.24451929 253.62732458 -340.13671875 249.5546875 C-340.37567871 248.48959961 -340.61463867 247.42451172 -340.86083984 246.32714844 C-341.13725002 245.00994513 -341.41271317 243.69254292 -341.6875 242.375 C-342.04465379 240.71117048 -342.40227315 239.04744086 -342.76025391 237.38378906 C-344.03242407 231.42779174 -345.26684398 225.46417452 -346.5 219.5 C-346.95089634 217.32907814 -347.4019064 215.15817989 -347.85302734 212.98730469 C-350.22718019 201.54352788 -352.55503259 190.09232648 -354.8125 178.625 C-358.57770235 159.55215537 -362.90267465 140.59938729 -367.21800232 121.64485168 C-367.70979705 119.48463841 -368.20076256 117.32423787 -368.69165039 115.16381836 C-369.29648936 112.50228431 -369.90567869 109.84187406 -370.51733398 107.18188477 C-372.14306105 100.05117273 -373.72043089 93.01567291 -374.0625 85.6875 C-374.11148438 84.96175781 -374.16046875 84.23601562 -374.2109375 83.48828125 C-373.40601942 80.23857469 -371.37400245 79.27767153 -368.6875 77.375 C-358.87970191 72.91153699 -348.29910989 70.67305498 -337.8125 68.4375 C-336.54797501 68.1629599 -336.54797501 68.1629599 -335.25790405 67.88287354 C-315.95765256 63.69596396 -296.55362942 60.02815564 -277.16094971 56.30037308 C-254.32083962 51.90858766 -231.54201366 47.30730861 -208.8125 42.375 C-203.06803183 41.12871093 -197.32342189 39.88308913 -191.578125 38.640625 C-190.82731722 38.47823208 -190.07650944 38.31583916 -189.30294991 38.14852524 C-162.11999906 32.27613871 -134.87304249 26.7026074 -107.63889885 21.07367706 C-102.25654948 19.96111887 -96.87435294 18.84782259 -91.4921875 17.734375 C-90.44303791 17.51743484 -89.39388832 17.30049469 -88.31294632 17.07698059 C-68.88317065 13.05773092 -49.47031681 8.96003481 -30.06442261 4.8270874 C-28.48141924 4.49066853 -28.48141924 4.49066853 -26.866436 4.14745331 C-24.90114225 3.72975774 -22.93607101 3.31101321 -20.97127151 2.89099884 C-13.95518053 1.40095903 -7.19574598 0.1861586 0 0 Z M-55.0625 27.0625 C-55.86171875 27.21138672 -56.6609375 27.36027344 -57.484375 27.51367188 C-64.03039313 28.76685102 -70.51797165 30.24276943 -77.01171875 31.73828125 C-87.39163068 34.12290863 -97.8095554 36.25901469 -108.259552 38.31176758 C-113.20320696 39.28349233 -118.14465863 40.26627387 -123.0859375 41.25 C-124.03737137 41.43937134 -124.98880524 41.62874268 -125.96907043 41.82385254 C-133.22467832 43.27251156 -140.45784304 44.80461673 -147.67871094 46.41748047 C-154.24330743 47.87147559 -160.82551714 49.22995583 -167.4140625 50.5703125 C-168.38832687 50.76860657 -169.36259125 50.96690063 -170.36637878 51.17120361 C-175.29687882 52.17367951 -180.22817349 53.17207256 -185.16040039 54.16601562 C-194.39649991 56.03470465 -203.56413049 58.00673691 -212.6875 60.375 C-220.23714631 62.10373538 -227.83471879 63.61402522 -235.4296875 65.12890625 C-236.28388275 65.2995459 -237.138078 65.47018555 -238.01815796 65.64599609 C-244.20152197 66.88062581 -250.38572162 68.11104594 -256.57000732 69.34104919 C-261.28222709 70.27858916 -265.99416026 71.21756477 -270.70605469 72.15673828 C-273.11379578 72.63626538 -275.52167397 73.1151046 -277.9296875 73.59326172 C-291.88586162 76.36519706 -305.81751325 79.19717274 -319.6875 82.375 C-319.79964844 83.5108252 -319.91179687 84.64665039 -320.02734375 85.81689453 C-321.06890879 96.11576523 -322.63330706 104.94328531 -329.84375 112.87109375 C-334.36062005 116.55540513 -340.1179424 118.00794012 -345.6875 119.375 C-344.14741483 128.18180682 -342.36419803 136.93328485 -340.53515625 145.68359375 C-340.23126332 147.1412697 -339.92742634 148.59895731 -339.62364197 150.05665588 C-338.99006603 153.09502389 -338.3553807 156.13315762 -337.7199707 159.17114258 C-336.91282806 163.03095702 -336.1091461 166.89148282 -335.30638981 170.75221157 C-334.68086487 173.7580249 -334.05313226 176.76337417 -333.42480278 179.76860237 C-333.12787787 181.19035357 -332.83168768 182.61225846 -332.53630257 184.03433037 C-330.77036636 192.53045488 -328.86917182 200.97464931 -326.6875 209.375 C-325.72070312 209.40078125 -324.75390625 209.4265625 -323.7578125 209.453125 C-312.98226379 209.92255484 -303.54017131 211.16538908 -295.6875 219.375 C-292.65115889 223.7687642 -289.72856706 228.07168189 -288.6875 233.375 C-282.60808185 233.64220423 -277.12795371 232.62882313 -271.19140625 231.375 C-269.58610802 231.04495972 -269.58610802 231.04495972 -267.94837952 230.70825195 C-265.5341251 230.2114371 -263.12047877 229.71166129 -260.70733643 229.20947266 C-256.38245959 228.30977267 -252.05442654 227.42577381 -247.72607422 226.54296875 C-238.55325563 224.67107677 -229.38245894 222.78942001 -220.2119751 220.90612793 C-216.76490567 220.19841534 -213.31768559 219.49143811 -209.87046623 218.78445625 C-192.38178544 215.19751455 -174.89617059 211.59713935 -157.42092896 207.94519043 C-152.60451903 206.94049234 -147.78652347 205.9434473 -142.96875 204.9453125 C-122.78339335 200.75960203 -102.61013678 196.53624517 -82.48046875 192.08984375 C-76.79927834 190.83525059 -71.11404551 189.60100506 -65.42578125 188.37890625 C-47.47751634 184.52152959 -29.55742204 180.5836806 -11.6875 176.375 C-11.63489014 175.4989209 -11.58228027 174.6228418 -11.52807617 173.72021484 C-11.411698 171.98312256 -11.411698 171.98312256 -11.29296875 170.2109375 C-11.21973389 169.0667334 -11.14649902 167.9225293 -11.07104492 166.74365234 C-10.16000143 158.74201132 -6.78262315 151.69462757 -0.6875 146.375 C5.43961844 141.98310065 12.0554324 140.09868962 19.3125 138.375 C18.1177521 130.62096785 16.59976247 123.04388278 14.6875 115.4375 C11.59318251 102.87453188 8.86966516 90.24213543 6.20458984 77.58227539 C4.19356521 68.09042446 1.91584477 58.72329621 -0.6875 49.375 C-2.46036377 49.35276367 -2.46036377 49.35276367 -4.26904297 49.33007812 C-15.75840989 49.13819163 -24.81085063 47.0898202 -33.625 39.125 C-37.30894624 35.1069704 -39.52250777 30.33353059 -41.6875 25.375 C-46.33291941 25.375 -50.5163206 26.18226793 -55.0625 27.0625 Z " fill="#65CB98" transform="translate(418.6875,101.625)"/>
<path d="M0 0 C10.1295762 9.22349025 18.24809193 23.7914508 19.30761719 37.44580078 C20.22508932 58.99338217 17.22298892 76.2104484 2.8984375 93.05078125 C-8.51902528 105.32923302 -24.22120175 112.92789226 -40.96875 113.96484375 C-61.01454056 114.66621162 -75.48224787 110.41748465 -91.046875 97.36328125 C-99.98191015 88.99645184 -105.86139006 78.984835 -109.921875 67.48828125 C-110.27378906 66.52792969 -110.62570313 65.56757813 -110.98828125 64.578125 C-115.40440984 49.96240234 -114.15521692 32.38438114 -107.234375 18.86328125 C-98.07918955 3.28379696 -84.35548186 -7.95523846 -66.93554688 -13.09814453 C-43.34495281 -19.1341543 -19.26788656 -15.1558376 0 0 Z " fill="#66CC99" transform="translate(301.921875,181.51171875)"/>
<path d="M0 0 C0.33 0 0.66 0 1 0 C1.12528076 1.03592285 1.25056152 2.0718457 1.37963867 3.13916016 C1.86217124 7.10319049 2.35993189 11.0652019 2.86157227 15.02685547 C3.07385478 16.71907307 3.28237993 18.41176761 3.48657227 20.10498047 C4.72987701 30.38910617 6.4130315 40.42752348 8.79981995 50.5085907 C10.80075165 58.98644906 12.5987016 67.49934933 14.36515617 76.02844238 C14.88341727 78.53026317 15.40364721 81.03166694 15.92445374 83.53295898 C17.35878276 90.42417895 18.79128967 97.3157576 20.21240234 104.2097168 C21.0936384 108.48337246 21.98206261 112.75547999 22.87514877 117.02667427 C23.21031087 118.63636579 23.5428163 120.24661303 23.87250137 121.85743523 C24.33154892 124.09905734 24.79975807 126.33858842 25.27001953 128.57788086 C25.53251495 129.84611191 25.79501038 131.11434296 26.06546021 132.42100525 C27.05255451 136.20126733 28.37532888 139.45608394 30 143 C35.50558834 143.16500265 40.38431109 142.87980133 45.75646973 141.69810486 C55.35413964 139.64647892 64.84447243 138.60990698 74.63747025 138.1390934 C78.38929993 137.95686091 82.13955424 137.74656478 85.88989258 137.53613281 C86.65558689 137.49337377 87.4212812 137.45061472 88.21017838 137.40655994 C99.7815713 136.74490093 111.32319586 135.7012493 122.86795044 134.68609619 C130.53723191 134.01181957 138.20807299 133.35556445 145.87890625 132.69921875 C146.68749273 132.62990646 147.49607922 132.56059418 148.32916832 132.48918152 C161.26605867 131.38179285 174.20730585 130.33941242 187.15234375 129.33203125 C188.96077017 129.19109749 190.76919607 129.05015712 192.57762146 128.90921021 C195.31551599 128.69592345 198.05341389 128.48268017 200.79131603 128.2694912 C203.54838641 128.05477677 206.3054468 127.83993482 209.0625 127.625 C210.42528894 127.51876564 210.42528894 127.51876564 211.81560898 127.41038513 C244.70017987 124.84333735 277.54392056 121.91444123 310.37641907 118.75123119 C313.8935696 118.41276333 317.4109813 118.07705501 320.92840958 117.7414875 C323.32427198 117.51140378 325.71961351 117.27638742 328.11495972 117.04100037 C335.09884601 116.36642805 341.9796008 115.80943004 349 116 C348.93039062 115.34515625 348.86078125 114.6903125 348.7890625 114.015625 C348.26049431 105.10547551 350.81663762 97.8659623 356.67578125 91.05078125 C358.37190766 89.50282221 360.07003388 88.24128163 362 87 C362.87398438 86.40251953 362.87398438 86.40251953 363.765625 85.79296875 C369.74998492 82.23504048 376.18040821 82.20791438 383 82 C383 78.7 383 75.4 383 72 C385.22667765 71.32506659 387.45645977 70.66036956 389.6875 70 C390.92886719 69.62875 392.17023438 69.2575 393.44921875 68.875 C396.5010019 68.12296543 398.88898362 67.80965101 402 68 C406.20693644 82.81573268 407.22952676 99.2037591 407.375 114.5625 C407.38869629 115.28679199 407.40239258 116.01108398 407.41650391 116.75732422 C407.39193151 119.47290636 407.30935358 121.50440294 405.8515625 123.83984375 C400.27226703 127.33573142 393.68023988 127.71278259 387.29541016 128.46069336 C385.71483794 128.65154841 385.71483794 128.65154841 384.10233498 128.84625912 C371.84511712 130.29908047 359.56137675 131.47149353 347.2734375 132.62890625 C344.78208662 132.86615565 342.29076438 133.10370598 339.79946899 133.34153748 C333.30819774 133.96036926 326.81652946 134.57493303 320.32476807 135.18859863 C315.06492048 135.68651754 309.8053598 136.18742752 304.54581261 136.68850803 C239.4695266 142.88818612 239.4695266 142.88818612 223.98046875 143.9765625 C209.4179016 145.02973425 194.86531766 146.19565974 180.3125 147.375 C178.95415629 147.48474838 177.59580866 147.59444819 176.23745728 147.70410156 C159.82171277 149.02936417 143.40823351 150.3791259 126.99734497 151.7633667 C107.92317422 153.36971297 88.84398084 154.91242113 69.76065063 156.40576172 C66.86883287 156.632202 63.9772278 156.86110837 61.08578491 157.09228516 C57.02381695 157.41683748 52.96118595 157.73224237 48.8984375 158.046875 C47.10287666 158.19186432 47.10287666 158.19186432 45.27104187 158.33978271 C22.11285447 160.10305056 22.11285447 160.10305056 16 157 C12.67108548 152.99276692 12.37302743 148.7341903 12.0078125 143.71484375 C11.93685364 142.88683762 11.86589478 142.05883148 11.79278564 141.20573425 C11.55881455 138.45047859 11.34217372 135.69412619 11.125 132.9375 C10.87758385 129.97593557 10.6254912 127.01479222 10.37307739 124.0536499 C10.19530389 121.96608167 10.01896333 119.87839097 9.84396362 117.79058838 C9.19080067 110.04551218 8.46611976 102.3092044 7.703125 94.57421875 C7.59336838 93.46136505 7.48361176 92.34851135 7.37052917 91.20193481 C7.14905865 88.95988476 6.92743535 86.7178498 6.70565796 84.47583008 C5.09270102 68.13040584 3.58106275 51.80292024 2.6015625 35.40649414 C2.14848447 27.85463839 1.50800554 20.34992391 0.60864258 12.83764648 C0.09981478 8.51235296 -0.07930689 4.34488488 0 0 Z " fill="#64CA97" transform="translate(48,223)"/>
<path d="M0 0 C0.33 0 0.66 0 1 0 C1.0760007 7.75953912 1.12857918 15.51898242 1.16479492 23.27880859 C1.1798909 25.91914456 1.20036954 28.55945542 1.22631836 31.19970703 C1.26266491 34.99257603 1.27971845 38.78511377 1.29296875 42.578125 C1.30845261 43.76053772 1.32393646 44.94295044 1.33988953 46.16119385 C1.34011612 47.26203308 1.34034271 48.36287231 1.34057617 49.49707031 C1.35056892 50.94935028 1.35056892 50.94935028 1.36076355 52.43096924 C0.93408531 55.46938464 0.12261943 56.81068728 -2 59 C-5.98212298 60.32737433 -9.79634304 60.13906559 -13.94775391 60.12939453 C-14.86790787 60.13114685 -15.78806183 60.13289917 -16.73609924 60.13470459 C-19.81627237 60.13914056 -22.89638864 60.13616433 -25.9765625 60.1328125 C-28.17068492 60.13348853 -30.36480727 60.13446104 -32.55892944 60.13571167 C-37.21149391 60.13719371 -41.86403931 60.13503065 -46.51660156 60.13037109 C-52.26251467 60.12487702 -58.00837943 60.12792999 -63.75429058 60.13379383 C-124.93184808 60.18712763 -186.07199014 58.83203908 -247.22506809 57.2595284 C-253.24787201 57.10496556 -259.27075906 56.95400588 -265.29370117 56.80493164 C-330.37986505 55.19281028 -330.37986505 55.19281028 -359.09784126 54.1163311 C-361.20732988 54.037526 -363.31691212 53.96117979 -365.42658806 53.88755989 C-368.26080217 53.78717471 -371.0943405 53.67568728 -373.92797852 53.56030273 C-375.12656211 53.51999467 -375.12656211 53.51999467 -376.34935951 53.4788723 C-389.72918433 52.88585835 -389.72918433 52.88585835 -394.05078125 49.296875 C-395.34110942 46.17459943 -395.28848859 43.61628636 -395.1875 40.25 C-395.16042969 39.07953125 -395.13335937 37.9090625 -395.10546875 36.703125 C-395.07066406 35.81109375 -395.03585937 34.9190625 -395 34 C-394.484375 34.48984375 -393.96875 34.9796875 -393.4375 35.484375 C-390.13752265 37.536284 -387.87162503 37.32933658 -384 37.25 C-383.30793457 37.23904297 -382.61586914 37.22808594 -381.90283203 37.21679688 C-375.37287707 37.08391569 -368.84968562 36.72068882 -362.32910156 36.35864258 C-355.21099258 35.97281281 -348.12927119 35.89376914 -341 36 C-341 36.66 -341 37.32 -341 38 C-340.43083862 37.99509048 -339.86167725 37.99018097 -339.27526855 37.98512268 C-316.06982208 37.81806038 -292.87983683 38.36290457 -269.68145752 38.86883545 C-265.44604603 38.96024721 -261.21056065 39.04793293 -256.97507191 39.13567924 C-219.51576783 39.91429641 -219.51576783 39.91429641 -200.83879089 40.66221619 C-189.99915222 41.09414469 -179.15876376 41.31258038 -168.3125 41.5 C-167.23031189 41.51956757 -166.14812378 41.53913513 -165.03314209 41.55929565 C-129.35808957 42.20278782 -93.67826979 42.58320444 -58 43 C-57.78065796 41.10423218 -57.78065796 41.10423218 -57.55688477 39.17016602 C-56.60035912 30.90293855 -52.55858369 24.62847728 -46.12109375 19.46875 C-39.50845395 14.88983183 -33.80210798 12.84997709 -25.75 12.9375 C-24.13351562 12.95103516 -24.13351562 12.95103516 -22.484375 12.96484375 C-21.66453125 12.97644531 -20.8446875 12.98804688 -20 13 C-20 11.02 -20 9.04 -20 7 C-18.87980469 6.87882812 -17.75960938 6.75765625 -16.60546875 6.6328125 C-15.13276364 6.46396733 -13.66010996 6.29467303 -12.1875 6.125 C-11.08051758 6.00705078 -11.08051758 6.00705078 -9.95117188 5.88671875 C-6.28493819 5.45539714 -4.12048255 5.0803217 -1 3 C-0.67 2.01 -0.34 1.02 0 0 Z " fill="#65CB98" transform="translate(457,350)"/>
<path d="M0 0 C0 3.3 0 6.6 0 10 C-1.03898437 10.13535156 -2.07796875 10.27070313 -3.1484375 10.41015625 C-12.0563781 11.72014751 -19.45994747 13.31102786 -26 20 C-30.40037587 25.95451272 -32.95321749 31.28906951 -33.5625 38.6875 C-33.64628906 39.68136719 -33.73007812 40.67523438 -33.81640625 41.69921875 C-33.87699219 42.45847656 -33.93757813 43.21773438 -34 44 C-99.85681651 50.5184024 -165.76479428 56.13668325 -231.73852539 61.31207275 C-243.49043921 62.23535563 -255.23969269 63.18120978 -266.98535156 64.18115234 C-269.22697167 64.37038886 -271.46859953 64.55953353 -273.7102356 64.74858093 C-277.83893449 65.09688911 -281.96673603 65.4539593 -286.09420776 65.81648254 C-297.09464566 66.75818861 -307.95978825 67.22459604 -319 67 C-319 66.67 -319 66.34 -319 66 C-318.12633789 65.83927002 -317.25267578 65.67854004 -316.35253906 65.51293945 C-303.79610252 63.18237663 -291.27241854 60.69366484 -278.75 58.1875 C-277.64294708 57.96623444 -276.53589417 57.74496887 -275.39529419 57.51699829 C-261.63602828 54.76494631 -247.89287331 51.96091851 -234.18139648 48.97949219 C-221.82063343 46.29433225 -209.41307673 43.84675309 -197.00097656 41.41162109 C-184.78251316 39.01377257 -172.59972299 36.49580304 -160.44140625 33.80859375 C-148.80678125 31.24793172 -137.1602298 28.74993637 -125.5 26.30859375 C-124.38813828 26.07570145 -124.38813828 26.07570145 -123.2538147 25.83810425 C-119.4198257 25.03520896 -115.58566827 24.23312109 -111.75143433 23.43139648 C-90.46235815 18.97916426 -69.17868898 14.50589387 -47.93359375 9.84765625 C-47.18208668 9.68290739 -46.43057961 9.51815853 -45.65629959 9.34841728 C-38.49554291 7.77768722 -31.33626891 6.2003641 -24.17921352 4.61285305 C-22.21556019 4.1776186 -20.25159079 3.74381097 -18.28761292 3.31004333 C-15.91015703 2.78479249 -13.53327669 2.25692703 -11.15708923 1.72596741 C-10.11839188 1.49671066 -9.07969452 1.26745392 -8.00952148 1.03125 C-7.10846176 0.83080078 -6.20740204 0.63035156 -5.27903748 0.42382812 C-3 0 -3 0 0 0 Z " fill="#339966" transform="translate(431,295)"/>
<path d="M0 0 C0 1.65 0 3.3 0 5 C-1.0621875 5.09796875 -2.124375 5.1959375 -3.21875 5.296875 C-14.20040758 6.29365452 -14.20040758 6.29365452 -24 11 C-24.61101562 11.40992188 -25.22203125 11.81984375 -25.8515625 12.2421875 C-32.16211723 16.99524361 -35.22279066 23.62860066 -37.06518555 31.17236328 C-37.37367432 32.4354834 -37.68216309 33.69860352 -38 35 C-115.93495123 35.19614277 -115.93495123 35.19614277 -148.3125 34.5625 C-149.3469928 34.54285187 -150.3814856 34.52320374 -151.44732666 34.50296021 C-161.24851087 34.31118805 -171.04358292 34.04837381 -180.83879089 33.65452576 C-194.38002146 33.11174604 -207.91985024 32.77666052 -221.46875 32.5 C-222.47580175 32.47941465 -223.48285351 32.45882931 -224.52042198 32.43762016 C-231.84688788 32.28868637 -239.17343436 32.143931 -246.5 32 C-254.84380674 31.83608522 -263.18757486 31.67049581 -271.53125 31.5 C-272.52632568 31.47970734 -273.52140137 31.45941467 -274.54663086 31.43850708 C-290.03841745 31.11902158 -305.51931966 30.68150493 -321 30 C-321 29.34 -321 28.68 -321 28 C-323.64 28 -326.28 28 -329 28 C-329 27.67 -329 27.34 -329 27 C-328.11747559 26.94577881 -327.23495117 26.89155762 -326.32568359 26.83569336 C-298.3590828 25.08495564 -270.42858212 22.89262219 -242.5 20.625 C-241.56205345 20.54887985 -240.6241069 20.4727597 -239.65773773 20.39433289 C-214.33642345 18.33676512 -189.02815358 16.19983324 -163.75585938 13.59814453 C-153.87185523 12.58994869 -144.00293253 11.78936743 -134.0859375 11.18359375 C-119.53421257 10.27607602 -105.02483164 8.96322224 -90.5078125 7.6171875 C-89.32403267 7.50751207 -88.14025284 7.39783665 -86.92060089 7.28483772 C-78.32157083 6.48684802 -69.72323217 5.68153434 -61.125 4.875 C-52.44324422 4.06091527 -43.76125971 3.24942256 -35.07870102 2.44394302 C-31.63739185 2.12343497 -28.19651883 1.79850946 -24.75564575 1.47335815 C-22.64977977 1.27743549 -20.54389496 1.08171521 -18.43798828 0.88623047 C-17.49465134 0.79586517 -16.55131439 0.70549988 -15.57939148 0.61239624 C-10.35943573 0.13303953 -5.24204317 -0.0867342 0 0 Z " fill="#339966" transform="translate(437,358)"/>
<path d="M0 0 C0.4640625 1.918125 0.4640625 1.918125 0.9375 3.875 C1.6719957 6.12543815 1.6719957 6.12543815 3 8 C5.25255763 8.94519085 7.31285603 9.25005127 9.7265625 9.59765625 C15.44628106 10.60990885 19.26530219 14.95734391 22.80859375 19.25 C24.3012045 21.44242497 24.84001754 23.36028934 25 26 C21.41541284 28.38972477 18.28849523 29.61483803 14 29 C11.76986208 27.37191452 9.9134368 25.53886145 7.9453125 23.60546875 C5.93370146 21.67347374 5.93370146 21.67347374 2.3125 21.375 C-1.11132247 22.02100424 -3.15119492 23.04653366 -6 25 C-6.66 25 -7.32 25 -8 25 C-8.185625 26.258125 -8.37125 27.51625 -8.5625 28.8125 C-8.66691406 29.52019531 -8.77132812 30.22789062 -8.87890625 30.95703125 C-9.13904799 33.2025342 -9.13904799 33.2025342 -8 36 C-3.32394942 37.07997237 1.31104035 37.97630814 6.09765625 38.3671875 C15.76546042 39.17779819 23.72807953 40.31025833 30.67578125 47.80859375 C35.21999176 53.76086948 35.7570022 59.72619622 35 67 C33.11857443 73.69883373 28.54114034 78.0389076 23 82 C20 83.4375 20 83.4375 18 84 C18.495 85.36125 18.495 85.36125 19 86.75 C20 90 20 90 20 94 C11.57142857 96.28571429 11.57142857 96.28571429 7 96 C6.505 91.545 6.505 91.545 6 87 C4.68 87.0825 3.36 87.165 2 87.25 C-4.03602836 87.22157286 -8.31329526 85.4121936 -12.796875 81.38671875 C-16.13728561 77.79975402 -17.75385451 75.04598261 -18 70 C-10.29496403 67.02877698 -10.29496403 67.02877698 -6.1875 66.9375 C-2.97151509 68.49954981 -1.81482773 70.99614721 0 74 C3.20178039 75.60089019 6.51768987 75.3573266 10 75 C14.63804466 73.30532984 17.47370437 71.27526953 20 67 C20.56541461 63.04209775 20.41512754 60.83025509 18.625 57.25 C13.38182281 52.75584812 6.74248741 52.10486376 0.08813477 50.98168945 C-8.61112082 49.49570648 -16.9940176 47.78347007 -23.0625 40.875 C-26.08518815 36.38972081 -26.66453404 32.30677895 -26 27 C-24.10825768 20.90311963 -20.37743519 16.40806747 -15 13 C-13.68 12.67 -12.36 12.34 -11 12 C-11.33 8.7 -11.66 5.4 -12 2 C-7.8803623 0.70756464 -4.33168317 -0.26252625 0 0 Z " fill="#FCFEFD" transform="translate(251,183)"/>
<path d="M0 0 C3.8582705 2.23779689 6.2051081 4.51277026 7.875 8.6875 C8.60332574 14.8782688 8.19230088 19.29135842 5.125 24.8125 C1.32483532 28.84108988 -2.45347822 30.92197989 -8 31.25 C-13.78931414 31.18378235 -17.65467243 28.6046784 -21.875 24.8125 C-25.08395581 20.53389225 -25.40662687 16.42452068 -25.21875 11.2109375 C-24.4712126 5.99516519 -21.80223249 3.5171967 -17.75 0.4375 C-12.20503611 -2.40637633 -5.76342144 -2.15200715 0 0 Z " fill="#65CB98" transform="translate(146.875,240.1875)"/>
<path d="M0 0 C6.3014093 5.4923676 6.3014093 5.4923676 6.67578125 9.8984375 C6.79087715 16.91928754 6.20051217 21.35372909 1.47265625 26.8203125 C-2.66750853 30.31357654 -7.41685506 29.84348104 -12.58203125 29.78125 C-18.08088009 29.27074679 -21.00559963 26.3662958 -24.40234375 22.3203125 C-27.14842137 18.17009164 -27.45864244 14.34373048 -26.52734375 9.5078125 C-24.90310654 5.23697558 -22.56673985 1.7799728 -18.52734375 -0.4921875 C-12.62449957 -2.29438329 -5.4573124 -3.22209171 0 0 Z " fill="#65CB98" transform="translate(382.52734375,192.4921875)"/>
<path d="M0 0 C-10.89753217 10.14597823 -25.82791244 12.2454801 -40.0625 12.3125 C-41.59922363 12.32083862 -41.59922363 12.32083862 -43.16699219 12.3293457 C-50.61487037 12.25675309 -50.61487037 12.25675309 -54 10 C-47.11461802 8.56893662 -40.22767665 7.14557327 -33.33959961 5.72753906 C-30.99678569 5.24428403 -28.65433372 4.75927073 -26.31225586 4.27246094 C-22.94478587 3.57283817 -19.5760627 2.87955919 -16.20703125 2.1875 C-14.63801811 1.85939331 -14.63801811 1.85939331 -13.03730774 1.5246582 C-12.05666855 1.32445068 -11.07602936 1.12424316 -10.06567383 0.91796875 C-9.20629715 0.74031982 -8.34692047 0.5626709 -7.46150208 0.37963867 C-4.93500925 -0.01002356 -2.55215869 -0.06706303 0 0 Z " fill="#63C996" transform="translate(290,326)"/>
<path d="M0 0 C-2.46536502 2.46536502 -4.50528648 2.99000042 -7.8125 4.0625 C-9.36904297 4.57490234 -9.36904297 4.57490234 -10.95703125 5.09765625 C-17.48940378 7.03472692 -23.53915795 7.18321579 -30.3125 7.1875 C-31.82360352 7.20586914 -31.82360352 7.20586914 -33.36523438 7.22460938 C-39.2730255 7.23615555 -44.34021783 6.71078242 -50 5 C-50 4.67 -50 4.34 -50 4 C-40.36953157 2.78488049 -30.73093567 1.74087697 -21.0625 0.875 C-20.11689209 0.78750488 -19.17128418 0.70000977 -18.19702148 0.60986328 C-12.1152425 0.08027166 -6.10373759 -0.10439405 0 0 Z " fill="#60C693" transform="translate(292,371)"/>
<path d="M0 0 C1.69057475 3.38114949 2.45815467 5.6299825 3.125 9.25 C3.29257812 10.14203125 3.46015625 11.0340625 3.6328125 11.953125 C3.75398438 12.62859375 3.87515625 13.3040625 4 14 C3.34 14 2.68 14 2 14 C2 15.98 2 17.96 2 20 C1.67 20 1.34 20 1 20 C0.67 13.4 0.34 6.8 0 0 Z " fill="#369661" transform="translate(46,199)"/>
<path d="M0 0 C2.52480693 2.52480693 2.55738633 4.13823034 3.125 7.625 C3.29257812 8.62789063 3.46015625 9.63078125 3.6328125 10.6640625 C3.75398438 11.43492187 3.87515625 12.20578125 4 13 C3.01 13 2.02 13 1 13 C0.67 8.71 0.34 4.42 0 0 Z " fill="#5CC08D" transform="translate(51,253)"/>
</svg>
