<?xml version="1.0" encoding="UTF-8"?>
<svg version="1.1" xmlns="http://www.w3.org/2000/svg" width="512" height="512">
<path d="M0 0 C1.38952912 -0.00269796 2.7790564 -0.0065829 4.1685791 -0.01159668 C7.07367008 -0.01747762 9.97826742 -0.00897511 12.88330078 0.00976562 C16.59569851 0.03255543 20.30693939 0.01942463 24.01929474 -0.00452423 C26.88650126 -0.01902092 29.75343627 -0.01435876 32.62065125 -0.00401306 C33.98890828 -0.00135641 35.35719045 -0.00457803 36.72541809 -0.01393127 C50.04850831 -0.08503441 50.04850831 -0.08503441 54.84375 4.53125 C57.80114148 7.79330084 58.27817715 10.08985815 58.49546814 14.45455933 C58.59223752 16.33351206 58.59223752 16.33351206 58.69096184 18.25042343 C58.74475765 19.67726043 58.79554138 21.1042133 58.84375 22.53125 C58.87028066 23.28836226 58.89681132 24.04547452 58.92414594 24.82552958 C59.13466688 31.13543403 59.2768073 37.44649822 59.41625977 43.75830078 C59.46538206 45.86895401 59.51479826 47.97960043 59.56448364 50.09024048 C59.69766024 55.78418274 59.82665484 61.47821263 59.9547894 67.1722703 C60.08997805 73.1511033 60.22881114 79.12985179 60.36717224 85.10861206 C60.59887044 95.14348307 60.82800215 105.17841002 61.05541992 115.21337891 C61.31787024 126.79350574 61.58361738 138.37355306 61.85130268 149.95355999 C62.13708219 162.31691034 62.42074179 174.68030862 62.70362735 187.04372549 C62.78493371 190.59185098 62.86660043 194.13996802 62.94833565 197.68808365 C63.0768994 203.27447717 63.20401458 208.86090193 63.33003616 214.44735336 C63.37632785 216.4902833 63.42307677 218.53320294 63.47033119 220.57611084 C63.70100951 230.56213929 63.92618329 240.541668 63.84375 250.53125 C64.51917595 250.18628699 65.1946019 249.84132399 65.8904953 249.48590755 C72.17485961 246.27704225 78.46842585 243.08669393 84.76660156 239.9050293 C87.14003006 238.70495388 89.50959473 237.49802235 91.87792969 236.2878418 C95.28794892 234.54632694 98.70556206 232.82058888 102.125 231.09765625 C103.17739868 230.55597305 104.22979736 230.01428986 105.31408691 229.45619202 C110.92789242 226.64801777 115.52817706 224.68007646 121.84375 224.53125 C126.58767337 226.17337732 129.17052168 228.31097756 131.84375 232.53125 C132.41770594 235.48204198 132.37964534 238.37642315 132.34495544 241.375 C132.35048984 242.26595871 132.35602424 243.15691742 132.36172634 244.07487488 C132.37534062 247.06061691 132.36035928 250.04552416 132.34545898 253.03125 C132.34924187 255.17163447 132.35474166 257.3120165 132.36183167 259.45239258 C132.37580741 265.26640025 132.36460146 271.08011269 132.34812045 276.894104 C132.33428279 282.97497802 132.34072857 289.05583468 132.34425354 295.13671875 C132.34695667 305.3490068 132.33347111 315.56117739 132.31030273 325.7734375 C132.28369242 337.58469941 132.28194556 349.3957649 132.2936911 361.20704651 C132.3044657 372.56334957 132.29828428 383.91958149 132.28413582 395.27587891 C132.27837328 400.11150796 132.27846082 404.94708501 132.28320122 409.78271484 C132.2879692 415.47578331 132.27787654 421.16863634 132.25624657 426.86166382 C132.25067612 428.95265985 132.25021575 431.04367656 132.25519943 433.13467407 C132.26114333 435.9858561 132.2486641 438.83637753 132.23143005 441.6875 C132.24044512 442.93287788 132.24044512 442.93287788 132.24964231 444.20341492 C132.19945192 448.76013998 131.95412881 451.94359201 128.84375 455.53125 C124.05074967 458.51221513 119.91877652 458.95871766 114.40724182 458.90877342 C113.14846869 458.91531391 113.14846869 458.91531391 111.8642658 458.92198652 C109.0454959 458.93295584 106.2272138 458.92251289 103.40844727 458.91220093 C101.36989116 458.91565682 99.33133692 458.92042092 97.2927866 458.92638266 C91.68549823 458.93893165 86.07836261 458.93270452 80.47107363 458.92342401 C74.42600743 458.91664982 68.38096792 458.92710664 62.33590698 458.93536377 C51.17633517 458.94794839 40.0168124 458.94683585 28.8572416 458.93862936 C18.5482246 458.93108549 8.23922549 458.92911129 -2.0697937 458.9326973 C-3.09515189 458.93304103 -3.09515189 458.93304103 -4.14122438 458.93339171 C-6.91600103 458.93432571 -9.69077766 458.93528091 -12.46555429 458.936271 C-38.50007502 458.94544994 -64.53456465 458.93712454 -90.56908058 458.92098031 C-113.70394798 458.90674327 -136.83876584 458.90801715 -159.97363281 458.92236328 C-185.96025001 458.93842391 -211.94683972 458.944799 -237.93346119 458.93552649 C-240.70320955 458.93456432 -243.47295792 458.9336258 -246.2427063 458.9326973 C-246.9246991 458.93246006 -247.60669189 458.93222283 -248.30935114 458.93197841 C-258.61240007 458.92856464 -268.91542916 458.93255933 -279.21847534 458.94013596 C-290.93239981 458.9487071 -302.64627697 458.94629412 -314.36019778 458.93029372 C-320.33960336 458.92239613 -326.31890826 458.91934479 -332.29831314 458.92924118 C-337.76830847 458.9381577 -343.23810947 458.93330547 -348.70808709 458.91730852 C-350.69050279 458.9139478 -352.67293479 458.91568361 -354.65534008 458.92293589 C-357.34370954 458.93201901 -360.03140776 458.92274179 -362.71974182 458.90877342 C-363.88234604 458.91930867 -363.88234604 458.91930867 -365.06843722 458.93005675 C-369.83689994 458.88031912 -373.1084085 458.06289098 -377.15625 455.53125 C-380.21747316 451.76174777 -380.53248772 448.78147296 -380.53720093 444.0032959 C-380.54422089 443.04050287 -380.54422089 443.04050287 -380.55138266 442.05825949 C-380.56331278 439.91558024 -380.5538838 437.77354294 -380.54443359 435.63085938 C-380.5485002 434.09145231 -380.55384258 432.55204816 -380.56036377 431.01264954 C-380.57403268 426.83705034 -380.56874052 422.66167368 -380.55922651 418.48607063 C-380.55162771 414.11485319 -380.55867614 409.74365472 -380.56338501 405.37243652 C-380.56884192 398.03194765 -380.56165266 390.69154934 -380.54736328 383.35107422 C-380.53103687 374.86622341 -380.53632543 366.38158887 -380.5528425 357.8967433 C-380.56645922 350.60998163 -380.56837612 343.32328504 -380.56052649 336.03651476 C-380.55585099 331.68525174 -380.55522173 327.33409034 -380.56513596 322.98283386 C-380.57380606 318.89190237 -380.56778303 314.80124954 -380.55045319 310.71034813 C-380.54648856 309.20954539 -380.547622 307.70871918 -380.55424118 306.2079258 C-380.56244813 304.158036 -380.55214676 302.10903724 -380.53720093 300.0592041 C-380.53550431 298.33920071 -380.53550431 298.33920071 -380.53377342 296.58444977 C-380.10283154 293.09923118 -379.30431199 291.29534214 -377.15625 288.53125 C-375.08377934 287.05311012 -375.08377934 287.05311012 -372.67262268 285.84121704 C-371.76821662 285.37812826 -370.86381056 284.91503948 -369.93199825 284.43791771 C-368.9522733 283.95389803 -367.97254835 283.46987835 -366.96313477 282.97119141 C-365.93831025 282.4512945 -364.91348574 281.93139759 -363.85760593 281.39574623 C-360.62994185 279.76176848 -357.39336666 278.1464032 -354.15625 276.53125 C-352.19390098 275.53930438 -350.23227949 274.54591794 -348.27145386 273.55096436 C-342.27267565 270.51196432 -336.26036466 267.50038351 -330.24609375 264.4921875 C-328.05128792 263.39317196 -325.85651006 262.29410056 -323.66175842 261.19497681 C-319.11724583 258.9197625 -314.57193925 256.64614368 -310.02612305 254.37353516 C-304.2061692 251.46360963 -298.38901595 248.54813044 -292.57250118 245.63133812 C-288.06575473 243.37241487 -283.55720251 241.11711486 -279.04812813 238.86284256 C-276.90050522 237.7884425 -274.75352818 236.71275038 -272.6072216 235.63572311 C-269.62406462 234.13925133 -266.63842168 232.64785813 -263.65209961 231.15771484 C-262.77473145 230.71622101 -261.89736328 230.27472717 -260.9934082 229.81985474 C-247.662129 223.18846073 -247.662129 223.18846073 -240.15625 225.53125 C-236.69437885 227.60239105 -234.46111611 229.61665167 -233.15625 233.53125 C-233.04302175 234.9576814 -232.98029524 236.3884749 -232.95092773 237.8190918 C-232.93074585 238.69174683 -232.91056396 239.56440186 -232.88977051 240.46350098 C-232.87329468 241.37660034 -232.85681885 242.28969971 -232.83984375 243.23046875 C-232.82119263 244.07275024 -232.8025415 244.91503174 -232.7833252 245.78283691 C-232.71504659 248.92803496 -232.65488568 252.073405 -232.59375 255.21875 C-232.3771875 265.7684375 -232.3771875 265.7684375 -232.15625 276.53125 C-208.39625 264.65125 -184.63625 252.77125 -160.15625 240.53125 C-160.11886719 231.50523437 -160.08148438 222.47921875 -160.04296875 213.1796875 C-160.00884685 206.73812593 -159.97285856 200.29659601 -159.93417263 193.85506248 C-159.88429765 185.50902294 -159.83883761 177.16303543 -159.80981445 168.81689453 C-159.78682239 162.2091521 -159.75341098 155.60155805 -159.70754844 148.99393332 C-159.68363233 145.49603878 -159.66489307 141.99829103 -159.65863609 138.50031662 C-159.65145148 134.59298357 -159.62100235 130.68601806 -159.58862305 126.77880859 C-159.59005814 125.62218719 -159.59149323 124.4655658 -159.5929718 123.27389526 C-159.52699379 117.65161511 -159.44702145 113.32935442 -156.15625 108.53125 C-150.69815986 103.99134886 -143.73102225 105.01003013 -137.00952148 105.03027344 C-134.728371 105.0312459 -132.45058734 104.98959249 -130.16992188 104.9453125 C-128.70834029 104.94010462 -127.24674711 104.93741732 -125.78515625 104.9375 C-124.46588135 104.93041016 -123.14660645 104.92332031 -121.78735352 104.91601562 C-117.02039166 105.72370364 -115.51022601 107.09533394 -112.15625 110.53125 C-109.86262393 114.03027671 -109.90935245 117.03543475 -109.91574097 121.16241455 C-109.91317769 122.15984432 -109.91317769 122.15984432 -109.91056263 123.17742419 C-109.90727035 125.40387446 -109.9182669 127.63002284 -109.92919922 129.85644531 C-109.92976339 131.45307406 -109.92944666 133.04970334 -109.92831421 134.64633179 C-109.92773993 138.98071283 -109.93950647 143.31498338 -109.95346212 147.64933872 C-109.96595688 152.17904158 -109.96713899 156.70874692 -109.96951294 161.23846436 C-109.9757314 169.81610288 -109.99214717 178.39369047 -110.01221192 186.97130656 C-110.03455953 196.73662355 -110.04556149 206.50194296 -110.05560279 216.26727915 C-110.07651307 236.35529787 -110.11169618 256.44327073 -110.15625 276.53125 C-109.15844513 276.03012695 -108.16064026 275.52900391 -107.13259888 275.01269531 C-97.74640617 270.29936067 -88.35812419 265.59021163 -78.96776009 260.88519287 C-74.13971349 258.4659425 -69.31242508 256.04520381 -64.48681641 253.62109375 C-59.83314048 251.2834207 -55.1775428 248.94961824 -50.52056503 246.61853027 C-48.74079714 245.72679321 -46.961736 244.83364417 -45.18338394 243.93908691 C-42.69977443 242.69006351 -40.21373942 241.44600412 -37.72705078 240.203125 C-36.98618225 239.82909546 -36.24531372 239.45506592 -35.48199463 239.06970215 C-30.38435432 236.53125 -30.38435432 236.53125 -28.15625 236.53125 C-28.16032584 235.43356544 -28.16440168 234.33588089 -28.16860104 233.20493317 C-28.19600077 222.51316432 -28.0606115 211.83486428 -27.80493164 201.14648438 C-27.76697113 199.49458713 -27.72919099 197.84268574 -27.6915741 196.19078064 C-27.59009935 191.75784142 -27.48606286 187.32496587 -27.3814652 182.89209938 C-27.27110503 178.19824002 -27.16298459 173.50432897 -27.05455017 168.8104248 C-26.87185382 160.91606341 -26.68755434 153.02174075 -26.50219727 145.12744141 C-26.29017849 136.0971291 -26.08031797 127.06676877 -25.87173563 118.03637648 C-25.64703361 108.30916521 -25.42068743 98.58199267 -25.19390178 88.85482979 C-25.12996895 86.10815554 -25.0663292 83.36147464 -25.00276375 80.61479187 C-24.96167203 78.8425999 -24.92055434 77.07040852 -24.87940979 75.29821777 C-24.84931107 74.00126425 -24.84931107 74.00126425 -24.81860429 72.67810965 C-24.66337152 66.02800122 -24.49697516 59.37820347 -24.32805938 52.72843027 C-24.20681264 47.86374176 -24.10689635 42.99910957 -24.02248365 38.13364649 C-23.96579685 34.97936375 -23.89807753 31.82537372 -23.82834899 28.67135525 C-23.79854354 27.20320659 -23.77367676 25.73494771 -23.75422299 24.2666254 C-23.53576806 8.05982229 -23.53576806 8.05982229 -17.85351562 2.12695312 C-12.57901963 -0.90238916 -5.8857444 -0.04023514 0 0 Z M-325.15625 356.53125 C-325.15625 372.04125 -325.15625 387.55125 -325.15625 403.53125 C-314.26625 403.53125 -303.37625 403.53125 -292.15625 403.53125 C-292.15625 388.02125 -292.15625 372.51125 -292.15625 356.53125 C-303.04625 356.53125 -313.93625 356.53125 -325.15625 356.53125 Z M-233.15625 356.53125 C-233.15625 372.04125 -233.15625 387.55125 -233.15625 403.53125 C-222.26625 403.53125 -211.37625 403.53125 -200.15625 403.53125 C-200.15625 388.02125 -200.15625 372.51125 -200.15625 356.53125 C-211.04625 356.53125 -221.93625 356.53125 -233.15625 356.53125 Z M-141.15625 356.53125 C-141.15625 372.04125 -141.15625 387.55125 -141.15625 403.53125 C-130.26625 403.53125 -119.37625 403.53125 -108.15625 403.53125 C-108.15625 388.02125 -108.15625 372.51125 -108.15625 356.53125 C-119.04625 356.53125 -129.93625 356.53125 -141.15625 356.53125 Z M-49.15625 356.53125 C-49.15625 372.04125 -49.15625 387.55125 -49.15625 403.53125 C-37.93625 403.53125 -26.71625 403.53125 -15.15625 403.53125 C-15.15625 388.02125 -15.15625 372.51125 -15.15625 356.53125 C-26.37625 356.53125 -37.59625 356.53125 -49.15625 356.53125 Z " fill="#1d3764" transform="translate(380.15625,26.46875)"/>
</svg>
