<svg xmlns="http://www.w3.org/2000/svg" width="512" height="512"><path d="M37.333 422.175A32.058 32.058 0 0 1 16 392V88h16v304a16.033 16.033 0 0 0 10.667 15.091zM272 16H48a32.036 32.036 0 0 0-32 32v24h16V48a16.019 16.019 0 0 1 16-16h224a16.033 16.033 0 0 1 15.091 10.667l15.084-5.334A32.058 32.058 0 0 0 272 16zm56 128V88a16.019 16.019 0 0 0-16-16H144v40a32.036 32.036 0 0 1-32 32H72v288a16.019 16.019 0 0 0 16 16h128v16H88a32.036 32.036 0 0 1-32-32V136a8 8 0 0 1 2.343-5.657l72-72A8 8 0 0 1 136 56h176a32.036 32.036 0 0 1 32 32v56zM128 83.313 83.313 128H112a16.019 16.019 0 0 0 16-16zM160 176v24h104v16H160v24h72v16h-72v24h72v16h-72v24h72v16h-72v24h72v16h-72v24h40v16h-80a24.028 24.028 0 0 1-24-24V184a24.028 24.028 0 0 1 24-24h160v16zm-16 200h-32v16a8.009 8.009 0 0 0 8 8h24zm0-40h-32v24h32zm0-40h-32v24h32zm0-40h-32v24h32zm0-40h-32v24h32zm0-40h-24a8.009 8.009 0 0 0-8 8v16h32zm16-48v16h72v-16zm144-32H160v16h144zm58.053 176H360v-8h-16v8h-2.053a21.948 21.948 0 0 0-6.94 42.769l28.926 9.642a5.947 5.947 0 0 1-1.88 11.589h-20.106a5.954 5.954 0 0 1-5.947-5.947V328h-16v2.053A21.973 21.973 0 0 0 341.947 352H344v8h16v-8h2.053a21.948 21.948 0 0 0 6.94-42.769l-28.926-9.642a5.947 5.947 0 0 1 1.88-11.589h20.106a5.954 5.954 0 0 1 5.947 5.947V296h16v-2.053A21.973 21.973 0 0 0 362.053 272zm-76.679-12.012 13.842 8.024a24.229 24.229 0 0 1 8.8-8.8l-8.024-13.842a40.249 40.249 0 0 0-14.618 14.618zM280 320h16v-40h-16zm184.577-69.016 14.846-5.968c-9.039-22.479-24.554-40.421-43.689-50.522l-7.468 14.151c15.789 8.334 28.684 23.371 36.311 42.339zM496 400v88a8 8 0 0 1-8 8h-72v-16h32v-75.72l-6.68-4.455c-18.166-12.111-44.176-9.644-59.663 5.832A8 8 0 0 1 376 408h-68a12.168 12.168 0 0 0-12 12 11.806 11.806 0 0 0 1.019 4.836A12.226 12.226 0 0 0 308 432h60v16h-60a25.179 25.179 0 0 1-8.292-1.257 27.833 27.833 0 0 1-16.408-13.584l-26.438-22.033c-3.54-3.54-10.265-3.861-14.8-2.791-10.787 2.548-13.468 17.122-4.846 23.822 14.486 11.258 44.1 34.279 57.208 44.48A16.023 16.023 0 0 0 304.23 480H400v16h-95.77a32.1 32.1 0 0 1-19.637-6.739c-13.105-10.2-42.713-33.214-57.2-44.475A29.424 29.424 0 0 1 216 421.4v-.36a28.907 28.907 0 0 1 17.187-26.517 36.078 36.078 0 0 1 9.436-16.461A18.389 18.389 0 0 0 248 365.09V280a72.113 72.113 0 0 1 61.172-71.185L296.41 170.53A8 8 0 0 1 304 160h96a8 8 0 0 1 7.59 10.53l-12.759 38.277A72 72 0 0 1 456 280v85.09a18.471 18.471 0 0 0 5.377 12.972 36.137 36.137 0 0 1 7.863 11.764c.3.716.568 1.442.818 2.174H488a8 8 0 0 1 8 8zM315.1 176l10.666 32h52.468l10.666-32zm130.39 207.675A34.583 34.583 0 0 1 440 365.09V280a55.983 55.983 0 0 0-56-56h-64a56.063 56.063 0 0 0-56 56v85.09a34.4 34.4 0 0 1-10.062 24.287 20.216 20.216 0 0 0-2.338 2.823 28.876 28.876 0 0 1 2.911.487c.05.009.1.02.148.031a29.472 29.472 0 0 1 12.446 6.115l14.449 12.042A27.966 27.966 0 0 1 308 392h64.82a63.115 63.115 0 0 1 41.81-16h.83a62.4 62.4 0 0 1 30.03 7.675zM480 408h-16v72h16z"/></svg>