<?xml version="1.0" encoding="UTF-8"?>
<svg version="1.1" xmlns="http://www.w3.org/2000/svg" width="512" height="512">
<path d="M0 0 C168.96 0 337.92 0 512 0 C512.12375 67.9078125 512.12375 67.9078125 512.25 137.1875 C512.28641602 151.47828857 512.32283203 165.76907715 512.36035156 180.49291992 C512.37841797 197.95373535 512.37841797 197.95373535 512.3817749 206.12983704 C512.38549907 211.83599973 512.40014626 217.54200505 512.42230225 223.24812317 C512.44784333 229.83584036 512.45932525 236.42340708 512.4537798 243.0111741 C512.45137985 246.37804717 512.45732769 249.74431617 512.47686052 253.11117208 C512.59508448 274.48711558 510.7498432 291.51389201 495.33984375 307.71875 C484.47359087 318.31289304 470.97152336 325.23989451 455.586339 325.25726891 C454.88201629 325.26077498 454.17769359 325.26428105 453.45202777 325.26789337 C451.10407211 325.27715913 448.75636713 325.27229665 446.40840149 325.26742554 C444.70309266 325.27116424 442.99778554 325.27576664 441.29248112 325.28115618 C436.61538262 325.29337451 431.93835571 325.29312709 427.26124489 325.29076743 C422.21336208 325.29035897 417.16550214 325.30140127 412.11763 325.31088257 C402.23095941 325.32748736 392.34431267 325.33299189 382.4576293 325.33410732 C374.41969342 325.33505809 366.38176541 325.33916979 358.34383202 325.34550858 C335.54721007 325.36311989 312.75060695 325.37234767 289.95397816 325.37084763 C288.72530062 325.37076772 287.49662308 325.3706878 286.23071289 325.37060547 C285.00053242 325.37052371 283.77035196 325.37044195 282.50289329 325.37035771 C262.56938417 325.36954493 242.63595063 325.38868073 222.70246337 325.4168822 C202.22744725 325.44562087 181.75246798 325.45942194 161.27743119 325.45769465 C149.78528189 325.45703107 138.29321182 325.46250939 126.8010807 325.48405075 C117.01572489 325.50227549 107.23048422 325.50659924 97.44511876 325.4930319 C92.45514044 325.48650871 87.46538294 325.48636167 82.47542572 325.5037384 C77.90130111 325.51950283 73.32757179 325.51657113 68.75345661 325.49917014 C67.10475217 325.49610765 65.45601798 325.49970413 63.80734865 325.51089029 C45.7599886 325.62516431 30.57539527 320.98190278 17.28125 308.33984375 C5.18978484 295.93781013 -0.335727 281.72756673 -0.24050903 264.55993652 C-0.24222107 263.42876404 -0.24393311 262.29759155 -0.24569702 261.13214111 C-0.24900036 257.33998257 -0.23797165 253.54800171 -0.22705078 249.75585938 C-0.22532438 246.99148708 -0.22661657 244.22711806 -0.2277813 241.46274567 C-0.22884271 234.81276241 -0.21962669 228.16283337 -0.20677864 221.51286402 C-0.19235703 213.81748999 -0.19078796 206.12214834 -0.18920898 198.42675781 C-0.17871591 178.11782997 -0.15079359 157.80891417 -0.125 137.5 C-0.08375 92.125 -0.0425 46.75 0 0 Z M104 96 C100.7403343 100.47610072 98.8926656 104.87644101 98.82299805 110.42041016 C98.81016281 111.31208893 98.79732758 112.2037677 98.78410339 113.12246704 C98.77671646 114.08494354 98.76932953 115.04742004 98.76171875 116.0390625 C98.753647 117.03449066 98.74557526 118.02991882 98.73725891 119.05551147 C98.72342268 121.16540793 98.71269846 123.27532674 98.70483398 125.38525391 C98.68767704 128.59191171 98.64379279 131.79752334 98.59960938 135.00390625 C98.58947708 137.05728411 98.58096266 139.11067072 98.57421875 141.1640625 C98.55671066 142.11439362 98.53920258 143.06472473 98.52116394 144.04385376 C98.54617267 151.82789537 100.38250111 157.83144871 105.375 163.875 C111.73423041 169.02294843 117.2778132 170.09869961 125.25 170.24609375 C126.67708977 170.27901912 128.10417295 170.31223098 129.53125 170.34570312 C131.76948737 170.39315258 134.00769557 170.43763467 136.24609375 170.47680664 C138.41433221 170.51657991 140.58205017 170.56809167 142.75 170.62109375 C144.69132812 170.65867798 144.69132812 170.65867798 146.671875 170.69702148 C149.72087528 170.97458966 151.44681955 171.38854662 154 173 C154.02886537 177.31248609 154.04675255 181.62494762 154.0625 185.9375 C154.07087891 187.16919922 154.07925781 188.40089844 154.08789062 189.66992188 C154.09111328 190.83974609 154.09433594 192.00957031 154.09765625 193.21484375 C154.10289307 194.29886475 154.10812988 195.38288574 154.11352539 196.49975586 C154 199 154 199 153 200 C150.66839945 200.09909302 148.33370058 200.12970504 146 200.125 C144.72125 200.12757813 143.4425 200.13015625 142.125 200.1328125 C139 200 139 200 138 199 C137.505 191.575 137.505 191.575 137 184 C124.46 184 111.92 184 99 184 C98.938125 187.609375 98.87625 191.21875 98.8125 194.9375 C98.78518799 196.05632568 98.75787598 197.17515137 98.72973633 198.32788086 C98.66729296 205.92381394 99.34436575 212.66148837 104.1875 218.75 C113.68238474 226.34590779 122.03185177 228.3132768 134.1171875 228.30078125 C135.05499054 228.30506638 135.99279358 228.3093515 136.95901489 228.31376648 C138.93051349 228.31947452 140.90203313 228.32003627 142.87353516 228.31567383 C145.86007264 228.31251578 148.84561592 228.33601119 151.83203125 228.36132812 C165.42318632 228.40641753 177.40831839 228.41513088 187.6875 218.375 C194.17367769 209.89556603 193.43899186 199.05619643 193.33618164 188.93188477 C193.31251697 186.43928764 193.31564724 183.94775986 193.32226562 181.45507812 C193.31668903 179.84374374 193.30957927 178.23241377 193.30078125 176.62109375 C193.30169266 175.88958603 193.30260406 175.15807831 193.30354309 174.40440369 C193.17956514 165.19827132 191.56440748 157.71671392 185 151 C175.63272644 143.88087209 162.51256092 144.65715184 151.25 144.375 C149.96867187 144.33632813 148.68734375 144.29765625 147.3671875 144.2578125 C144.2449253 144.16461064 141.12265307 144.0788031 138 144 C136.68001175 141.36002351 136.87043968 139.35922683 136.8671875 136.40625 C136.86525391 134.73755859 136.86525391 134.73755859 136.86328125 133.03515625 C136.86714844 131.86855469 136.87101562 130.70195312 136.875 129.5 C136.86919922 127.75009766 136.86919922 127.75009766 136.86328125 125.96484375 C136.86457031 124.85238281 136.86585938 123.73992187 136.8671875 122.59375 C136.86831543 121.56958984 136.86944336 120.54542969 136.87060547 119.49023438 C137 117 137 117 138 115 C142.95 115 147.9 115 153 115 C155.40370085 119.8074017 154.61705861 125.63882058 155 131 C167.21 131 179.42 131 192 131 C192.0825 127.24625 192.165 123.4925 192.25 119.625 C192.28641602 118.46307129 192.32283203 117.30114258 192.36035156 116.10400391 C192.44108627 108.43029984 191.54021548 101.10148834 186.35229492 95.09106445 C178.36149607 87.46796654 167.93113785 86.8480584 157.4296875 86.796875 C156.51220734 86.79117493 155.59472717 86.78547485 154.64944458 86.77960205 C152.71129497 86.77018288 150.77312958 86.76363037 148.83496094 86.75976562 C145.90530572 86.75009999 142.97636472 86.71906353 140.046875 86.6875 C120.39709582 86.33823387 120.39709582 86.33823387 104 96 Z M237 87 C234.62735124 94.01978768 234.62735124 94.01978768 232.6098938 101.09249878 C232.37739929 101.99455551 232.14490479 102.89661224 231.90536499 103.82600403 C231.54059555 105.26153877 231.54059555 105.26153877 231.16845703 106.72607422 C230.90295044 107.76000809 230.63744385 108.79394196 230.3638916 109.85920715 C229.49216347 113.25693095 228.62499042 116.65579981 227.7578125 120.0546875 C227.14661182 122.44019132 226.53510559 124.82561687 225.92330933 127.21096802 C224.31462427 133.48617853 222.7097141 139.76234817 221.10571289 146.03875732 C219.17026484 153.60962589 217.23087736 161.17948598 215.29154778 168.74936104 C213.77925088 174.65238846 212.26767505 180.55559644 210.75857544 186.45944214 C210.20250891 188.63295865 209.64642815 190.80647153 209.09033203 192.97998047 C208.69520762 194.52721707 208.69520762 194.52721707 208.29210091 196.10571098 C207.04828472 200.96400045 205.7876658 205.8165552 204.48431396 210.65924072 C204.24886305 211.53719866 204.01341213 212.41515659 203.77082634 213.31971931 C203.33377747 214.94306813 202.89255278 216.56530124 202.44622993 218.1861248 C201.52250979 221.61765908 201 224.41598557 201 228 C212.88 228 224.76 228 237 228 C239.27547309 221.17358073 240.5888115 214.05594252 242 207 C253.55 207 265.1 207 277 207 C277.99 212.94 277.99 212.94 279 219 C279.99 223.455 279.99 223.455 281 228 C293.54 228 306.08 228 319 228 C315.66219939 213.78899188 315.66219939 213.78899188 312.14672852 199.62524414 C311.89082947 198.61779648 311.63493042 197.61034882 311.37127686 196.57237244 C310.54204015 193.30956957 309.71058253 190.04733805 308.87890625 186.78515625 C308.29117664 184.4760483 307.70352664 182.16692009 307.11595154 179.85777283 C305.89074856 175.04432344 304.66440126 170.23116743 303.43725586 165.41821289 C301.87725748 159.29929053 300.32042565 153.17956766 298.7644968 147.05960941 C297.55358626 142.29842375 296.34082466 137.537711 295.12754631 132.77712822 C294.55332036 130.52300561 293.97968044 128.26873362 293.40667915 126.01429939 C292.60057063 122.84376319 291.79190823 119.673888 290.98266602 116.50415039 C290.75445663 115.60439484 290.52624725 114.70463928 290.29112244 113.77761841 C287.99616193 104.80912903 285.47971279 95.92696603 283 87 C267.82 87 252.64 87 237 87 Z M321 87 C321 95.91 321 104.82 321 114 C329.91 114 338.82 114 348 114 C348 151.62 348 189.24 348 228 C360.54 228 373.08 228 386 228 C386 190.38 386 152.76 386 114 C394.91 114 403.82 114 413 114 C413 105.09 413 96.18 413 87 C382.64 87 352.28 87 321 87 Z " fill="#1d3764" transform="translate(0,187)"/>
<path d="M0 0 C1.00969849 0.0028299 2.01939697 0.00565979 3.05969238 0.00857544 C6.25866967 0.0196972 9.4573585 0.04478687 12.65625 0.0703125 C14.83593343 0.08035265 17.01562129 0.08947668 19.1953125 0.09765625 C24.51572205 0.11961025 29.83596541 0.15300732 35.15625 0.1953125 C35.21435547 1.87068685 35.27246094 3.5460612 35.33056641 5.22143555 C35.36514954 6.21106293 35.39973267 7.20069031 35.43536377 8.2203064 C35.50556346 10.26107986 35.57122889 12.30201067 35.63427734 14.34301758 C36.16093628 27.74898984 38.01339489 39.65730655 48.15625 49.1953125 C57.48253577 56.24598454 66.83242092 57.07235416 78.15625 56.1953125 C87.12176863 54.23557217 94.04429035 48.73683553 99.03125 41.1328125 C106.11963636 28.74002964 104.55369528 14.05407116 105.15625 0.1953125 C165.21625 0.1953125 225.27625 0.1953125 287.15625 0.1953125 C287.48625 7.7853125 287.81625 15.3753125 288.15625 23.1953125 C290.23596541 34.63374726 292.68155655 43.54444425 302.109375 50.671875 C311.06657436 56.51798603 319.76765369 56.99991947 330.15625 56.1953125 C339.12176863 54.23557217 346.04429035 48.73683553 351.03125 41.1328125 C356.36562654 31.80660385 356.31860986 21.66626956 356.71875 11.1953125 C356.79656375 9.23306379 356.87462335 7.27082481 356.95288086 5.30859375 C356.99126572 4.34348877 357.02965057 3.37838379 357.06919861 2.3840332 C357.09792557 1.66175537 357.12665253 0.93947754 357.15625 0.1953125 C363.46917668 0.09287951 369.78188476 0.02341967 376.09545898 -0.02441406 C378.23779305 -0.0443802 380.38007368 -0.07156288 382.5222168 -0.10644531 C405.23518366 -0.46671631 405.23518366 -0.46671631 416.15625 4.1953125 C417.05206787 4.55310791 417.94788574 4.91090332 418.87084961 5.27954102 C433.07671433 11.19852822 442.65043248 24.36547231 448.859375 37.8515625 C459.39485535 65.01533112 452.15625 96.05999592 452.15625 125.1953125 C283.19625 125.1953125 114.23625 125.1953125 -59.84375 125.1953125 C-59.84375 34.99606125 -59.84375 34.99606125 -43.18359375 17.4765625 C-31.01908005 5.61666935 -16.90119988 -0.18080961 0 0 Z " fill="#1d3764" transform="translate(59.84375,51.8046875)"/>
<path d="M0 0 C6.35881994 3.68142207 10.14464271 9.12499844 12.5 16 C12.77415466 18.96366882 12.77415466 18.96366882 12.80639648 22.28393555 C12.82238388 23.5326091 12.83837128 24.78128265 12.85484314 26.0677948 C12.86122243 27.4240986 12.86661435 28.78040735 12.87109375 30.13671875 C12.88007171 31.540513 12.88919375 32.94430633 12.89845276 34.34809875 C12.91491752 37.28929968 12.92263769 40.23038717 12.92553711 43.17163086 C12.93090463 46.91623675 12.96852565 50.65975551 13.01428127 54.4040556 C13.04422875 57.30483249 13.05126453 60.20535381 13.05226326 63.10627174 C13.05643416 64.48522712 13.06874087 65.86418551 13.08978081 67.24298668 C13.2101939 75.81966166 12.67909736 82.89661977 7.5 90 C0.35037352 96.75097237 -6.15517834 98.54488164 -15.91796875 98.37109375 C-22.18658942 97.72167285 -26.97494865 95.60921973 -31.375 91.0625 C-35.70112935 85.57164352 -37.73788919 80.77095385 -37.80639648 73.71606445 C-37.82238388 72.4673909 -37.83837128 71.21871735 -37.85484314 69.9322052 C-37.86122243 68.5759014 -37.86661435 67.21959265 -37.87109375 65.86328125 C-37.88007171 64.459487 -37.88919375 63.05569367 -37.89845276 61.65190125 C-37.91491752 58.71070032 -37.92263769 55.76961283 -37.92553711 52.82836914 C-37.93090463 49.08376325 -37.96852565 45.34024449 -38.01428127 41.5959444 C-38.04422875 38.69516751 -38.05126453 35.79464619 -38.05226326 32.89372826 C-38.05643416 31.51477288 -38.06874087 30.13581449 -38.08978081 28.75701332 C-38.2101939 20.18033834 -37.67909736 13.10338023 -32.5 6 C-23.54823399 -2.45262689 -11.57157865 -5.21511208 0 0 Z " fill="#1d3764" transform="translate(394.5,2)"/>
<path d="M0 0 C6.35881994 3.68142207 10.14464271 9.12499844 12.5 16 C12.77415466 18.96366882 12.77415466 18.96366882 12.80639648 22.28393555 C12.82238388 23.5326091 12.83837128 24.78128265 12.85484314 26.0677948 C12.86122243 27.4240986 12.86661435 28.78040735 12.87109375 30.13671875 C12.88007171 31.540513 12.88919375 32.94430633 12.89845276 34.34809875 C12.91491752 37.28929968 12.92263769 40.23038717 12.92553711 43.17163086 C12.93090463 46.91623675 12.96852565 50.65975551 13.01428127 54.4040556 C13.04422875 57.30483249 13.05126453 60.20535381 13.05226326 63.10627174 C13.05643416 64.48522712 13.06874087 65.86418551 13.08978081 67.24298668 C13.2101939 75.81966166 12.67909736 82.89661977 7.5 90 C0.35037352 96.75097237 -6.15517834 98.54488164 -15.91796875 98.37109375 C-22.18658942 97.72167285 -26.97494865 95.60921973 -31.375 91.0625 C-35.70112935 85.57164352 -37.73788919 80.77095385 -37.80639648 73.71606445 C-37.82238388 72.4673909 -37.83837128 71.21871735 -37.85484314 69.9322052 C-37.86122243 68.5759014 -37.86661435 67.21959265 -37.87109375 65.86328125 C-37.88007171 64.459487 -37.88919375 63.05569367 -37.89845276 61.65190125 C-37.91491752 58.71070032 -37.92263769 55.76961283 -37.92553711 52.82836914 C-37.93090463 49.08376325 -37.96852565 45.34024449 -38.01428127 41.5959444 C-38.04422875 38.69516751 -38.05126453 35.79464619 -38.05226326 32.89372826 C-38.05643416 31.51477288 -38.06874087 30.13581449 -38.08978081 28.75701332 C-38.2101939 20.18033834 -37.67909736 13.10338023 -32.5 6 C-23.54823399 -2.45262689 -11.57157865 -5.21511208 0 0 Z " fill="#1d3764" transform="translate(142.5,2)"/>
<path d="M0 0 C2.30540707 2.30540707 2.4845146 3.36136571 3.14501953 6.49389648 C3.34507599 7.42503769 3.54513245 8.35617889 3.75125122 9.3155365 C3.95966644 10.32387039 4.16808167 11.33220428 4.3828125 12.37109375 C4.60194305 13.40436295 4.82107361 14.43763214 5.04684448 15.50221252 C5.50921519 17.68961341 5.9679482 19.8777859 6.42333984 22.06665039 C7.121743 25.42185302 7.83136336 28.77452844 8.54296875 32.12695312 C8.99024551 34.24986059 9.43688159 36.37290317 9.8828125 38.49609375 C10.09527618 39.50240341 10.30773987 40.50871307 10.52664185 41.54551697 C10.81727005 42.94695702 10.81727005 42.94695702 11.11376953 44.37670898 C11.28538605 45.19896469 11.45700256 46.0212204 11.63381958 46.86839294 C12 49 12 49 12 52 C4.41 52 -3.18 52 -11 52 C-9.51038433 42.39938801 -7.55753099 32.93910879 -5.48608398 23.45141602 C-4.93187405 20.91171876 -4.382625 18.37098372 -3.83398438 15.83007812 C-3.48205821 14.20827095 -3.12985499 12.58652386 -2.77734375 10.96484375 C-2.61378891 10.20864243 -2.45023407 9.4524411 -2.28172302 8.67332458 C-1.63604947 5.7238719 -0.95563984 2.86691953 0 0 Z " fill="#1d3764" transform="translate(259,315)"/>
</svg>
