<?xml version="1.0" encoding="UTF-8"?>
<svg version="1.1" xmlns="http://www.w3.org/2000/svg" width="512" height="512">
<path d="M0 0 C24.60008284 21.98290143 42.32062968 49.82622584 50.45703125 81.953125 C50.45703125 82.943125 50.45703125 83.933125 50.45703125 84.953125 C60.02703125 84.953125 69.59703125 84.953125 79.45703125 84.953125 C79.33868773 78.55088061 79.33868773 78.55088061 79.18676758 72.14941406 C79.17552856 70.94623535 79.17552856 70.94623535 79.1640625 69.71875 C79.14835205 68.90180664 79.1326416 68.08486328 79.11645508 67.24316406 C79.54274521 64.37678311 80.47857966 63.04472192 82.45703125 60.953125 C85.40625041 59.97005195 87.34061133 59.82107232 90.41577148 59.80786133 C91.42369247 59.80148148 92.43161346 59.79510162 93.47007751 59.78852844 C95.10137352 59.78685921 95.10137352 59.78685921 96.765625 59.78515625 C97.88389175 59.78182785 99.00215851 59.77849945 100.15431213 59.77507019 C102.52059518 59.77000493 104.88688537 59.76766174 107.25317383 59.76782227 C110.87658428 59.76563583 114.49969031 59.74747576 118.12304688 59.72851562 C120.42057187 59.72558165 122.71809832 59.72359688 125.015625 59.72265625 C126.10113144 59.71547073 127.18663788 59.70828522 128.30503845 59.70088196 C129.3161116 59.70395859 130.32718475 59.70703522 131.36889648 59.71020508 C132.25697495 59.70878006 133.14505341 59.70735504 134.06004333 59.70588684 C136.65578528 59.97362555 138.26289639 60.55725166 140.45703125 61.953125 C141.68103197 64.40112645 141.5882111 65.99165273 141.59747314 68.72911072 C141.60318329 69.73722305 141.60889343 70.74533539 141.61477661 71.78399658 C141.61589447 72.89418152 141.61701233 74.00436646 141.61816406 75.14819336 C141.62312897 76.314095 141.62809387 77.47999664 141.63320923 78.68122864 C141.64785742 82.55181459 141.65463671 86.42235959 141.66015625 90.29296875 C141.66445293 92.29639443 141.66875011 94.29982011 141.67313075 96.3032456 C141.68494577 101.88545632 141.69248068 107.46765707 141.69592595 113.04987901 C141.70040931 120.27472598 141.71796992 127.49938399 141.74692655 134.72417349 C141.76852182 140.30553481 141.77862904 145.88684289 141.77996707 151.46824557 C141.7810165 154.80343298 141.78839072 158.1384019 141.80478668 161.47355461 C141.82176464 165.19207111 141.81998712 168.91012302 141.81347656 172.62866211 C141.82269135 173.73682281 141.83190613 174.84498352 141.84140015 175.98672485 C141.83304642 177.50312309 141.83304642 177.50312309 141.82452393 179.05015564 C141.82599049 179.92971389 141.82745705 180.80927214 141.82896805 181.71548367 C141.37686334 184.43543014 140.644505 185.32002813 138.45703125 186.953125 C135.99047852 187.34080505 135.99047852 187.34080505 133.0234375 187.35717773 C131.35655884 187.37620399 131.35655884 187.37620399 129.65600586 187.39561462 C128.45596924 187.39267899 127.25593262 187.38974335 126.01953125 187.38671875 C124.17210327 187.39458153 124.17210327 187.39458153 122.28735352 187.40260315 C119.01356485 187.41067874 115.74019366 187.4035439 112.46643066 187.39227295 C110.45885162 187.39062649 108.45183781 187.40261317 106.44433594 187.41967773 C102.59412954 187.45026881 98.74483933 187.45376812 94.89453125 187.44921875 C93.69449463 187.46045273 92.49445801 187.47168671 91.25805664 187.48326111 C90.1468042 187.47388016 89.03555176 187.46449921 87.890625 187.45483398 C86.91150146 187.45466782 85.93237793 187.45450165 84.92358398 187.45433044 C82.45703125 186.953125 82.45703125 186.953125 80.63871765 185.07063293 C79.20710701 182.50527643 79.11055432 180.89386379 79.1640625 177.96875 C79.17155518 177.12602539 79.17904785 176.28330078 79.18676758 175.41503906 C79.21407959 174.35510742 79.2413916 173.29517578 79.26953125 172.203125 C79.33140625 168.820625 79.39328125 165.438125 79.45703125 161.953125 C69.88703125 161.953125 60.31703125 161.953125 50.45703125 161.953125 C50.12703125 164.593125 49.79703125 167.233125 49.45703125 169.953125 C48.82788086 172.3515625 48.82788086 172.3515625 48.109375 174.328125 C47.83826904 175.07731201 47.56716309 175.82649902 47.2878418 176.59838867 C46.99304932 177.37545166 46.69825684 178.15251465 46.39453125 178.953125 C46.08362549 179.77981689 45.77271973 180.60650879 45.45239258 181.45825195 C37.93215979 200.99811422 27.38150421 218.35255807 13.45703125 233.953125 C12.80734375 234.72398437 12.15765625 235.49484375 11.48828125 236.2890625 C7.51582025 241.00184578 3.20395601 245.02911603 -1.54296875 248.953125 C-2.27 249.56800781 -2.99703125 250.18289063 -3.74609375 250.81640625 C-30.34833636 272.79408682 -64.54840212 287.80088513 -99.42578125 288.19140625 C-100.15427277 288.20115479 -100.88276428 288.21090332 -101.6333313 288.22094727 C-117.97137031 288.39457379 -133.6365679 288.16233015 -149.54296875 283.953125 C-150.26242676 283.76588867 -150.98188477 283.57865234 -151.72314453 283.38574219 C-156.41338781 282.12587169 -160.98653871 280.6308493 -165.54296875 278.953125 C-166.22665527 278.70191895 -166.9103418 278.45071289 -167.61474609 278.19189453 C-183.30979549 272.30940298 -197.50010317 264.53310905 -210.54296875 253.953125 C-211.08050781 253.51709961 -211.61804688 253.08107422 -212.171875 252.63183594 C-229.2416046 238.70079791 -242.5623067 223.0560207 -253.54296875 203.953125 C-253.89987793 203.33276367 -254.25678711 202.71240234 -254.62451172 202.07324219 C-260.8711953 190.9765032 -269.54296875 174.77424521 -269.54296875 161.953125 C-279.11296875 161.953125 -288.68296875 161.953125 -298.54296875 161.953125 C-298.42444938 169.0585739 -298.42444938 169.0585739 -298.27270508 176.16333008 C-298.2652124 177.04915771 -298.25771973 177.93498535 -298.25 178.84765625 C-298.23428955 179.75362549 -298.2185791 180.65959473 -298.20239258 181.59301758 C-298.62363557 184.51212581 -299.21394995 185.18714379 -301.54296875 186.953125 C-304.00952148 187.34753418 -304.00952148 187.34753418 -306.9765625 187.37304688 C-308.08781494 187.38895874 -309.19906738 187.40487061 -310.34399414 187.42126465 C-311.54403076 187.42146606 -312.74406738 187.42166748 -313.98046875 187.421875 C-315.2120874 187.42948853 -316.44370605 187.43710205 -317.71264648 187.44494629 C-320.98642145 187.45853085 -324.25978905 187.45634664 -327.53356934 187.45056152 C-329.54123906 187.45312279 -331.5481414 187.47126325 -333.55566406 187.49511719 C-337.40596896 187.53780349 -341.25495352 187.54700094 -345.10546875 187.546875 C-346.30550537 187.56327026 -347.50554199 187.57966553 -348.74194336 187.59655762 C-349.8531958 187.5872522 -350.96444824 187.57794678 -352.109375 187.56835938 C-353.5780603 187.57144104 -353.5780603 187.57144104 -355.07641602 187.57458496 C-357.54296875 186.953125 -357.54296875 186.953125 -359.35830688 185.11071777 C-361.13968043 180.3626522 -360.96001044 175.84819542 -360.93115234 170.81640625 C-360.9364093 169.6922934 -360.94166626 168.56818054 -360.94708252 167.41000366 C-360.96028377 163.69506934 -360.95154359 159.98056367 -360.94140625 156.265625 C-360.94342694 153.68399981 -360.94633833 151.10237518 -360.95010376 148.52075195 C-360.9545273 143.11045368 -360.9483813 137.70031645 -360.93408203 132.29003906 C-360.91775623 126.04095637 -360.92304505 119.79216735 -360.93956125 113.54309177 C-360.95483101 107.52399714 -360.95319523 101.50504584 -360.94441605 95.4859314 C-360.94241378 92.92784585 -360.94487421 90.36975283 -360.95185471 87.81167603 C-360.95946727 84.23752953 -360.94786678 80.66394813 -360.93115234 77.08984375 C-360.93722504 76.03098969 -360.94329773 74.97213562 -360.94955444 73.88119507 C-360.86983387 64.68647064 -360.86983387 64.68647064 -357.54296875 60.953125 C-354.60435632 59.97358752 -352.66410002 59.81565136 -349.60009766 59.79199219 C-348.09305771 59.77758087 -348.09305771 59.77758087 -346.55557251 59.76287842 C-345.47117889 59.75862854 -344.38678528 59.75437866 -343.26953125 59.75 C-341.59568863 59.74144989 -341.59568863 59.74144989 -339.88803101 59.73272705 C-337.52594959 59.72327666 -335.16385499 59.71674292 -332.80175781 59.71289062 C-329.18921924 59.70318211 -325.57724884 59.67215718 -321.96484375 59.640625 C-319.6705763 59.63409519 -317.37630477 59.62884463 -315.08203125 59.625 C-314.0016861 59.6126532 -312.92134094 59.6003064 -311.80825806 59.58758545 C-301.89901846 59.61700056 -301.89901846 59.61700056 -298.54296875 62.953125 C-297.9753418 65.31323242 -297.9753418 65.31323242 -298.0546875 68.05859375 C-298.06717529 68.94442139 -298.07966309 69.83024902 -298.0925293 70.74291992 C-298.13804932 71.8641626 -298.18356934 72.98540527 -298.23046875 74.140625 C-298.33359375 77.70875 -298.43671875 81.276875 -298.54296875 84.953125 C-284.18796875 84.458125 -284.18796875 84.458125 -269.54296875 83.953125 C-268.58390625 80.364375 -268.58390625 80.364375 -267.60546875 76.703125 C-260.05499507 50.26737644 -245.37666264 27.7015983 -226.54296875 7.953125 C-225.764375 7.11007813 -224.98578125 6.26703125 -224.18359375 5.3984375 C-212.80732814 -6.55045893 -199.16939855 -15.57673982 -184.54296875 -23.046875 C-183.59357422 -23.53196533 -183.59357422 -23.53196533 -182.625 -24.02685547 C-123.00828135 -54.03496153 -50.03215532 -43.61849614 0 0 Z M-225.54296875 24.953125 C-251.93614509 55.63001059 -263.41317092 94.8946011 -261.54296875 134.953125 C-260.5187479 148.02282465 -257.8642127 160.58828624 -253.54296875 172.953125 C-253.3227002 173.58379883 -253.10243164 174.21447266 -252.87548828 174.86425781 C-238.51181432 214.98240601 -208.60553985 245.38115818 -170.46386719 263.62255859 C-134.61871997 279.95121559 -93.33095311 280.12792759 -56.54296875 266.953125 C-32.15173153 257.77804286 -8.99712998 242.33344183 7.45703125 221.953125 C8.22660156 221.02113281 8.99617188 220.08914063 9.7890625 219.12890625 C15.98219795 211.47049516 20.92871845 203.39334721 25.52880859 194.6953125 C26.2892331 193.2680665 27.08164789 191.85790678 27.8828125 190.453125 C45.88902673 157.60791337 47.35460597 115.63007761 37.140625 80.2265625 C29.84379975 56.48328786 17.2252875 36.17429468 0.45703125 17.953125 C-0.21585937 17.20933594 -0.88875 16.46554688 -1.58203125 15.69921875 C-26.51918681 -10.56438125 -64.48267939 -27.22200437 -100.5 -28.42578125 C-149.74549827 -29.68073681 -192.33789358 -11.65622787 -225.54296875 24.953125 Z M-347.54296875 72.953125 C-347.54296875 106.613125 -347.54296875 140.273125 -347.54296875 174.953125 C-335.33296875 174.953125 -323.12296875 174.953125 -310.54296875 174.953125 C-310.54296875 141.293125 -310.54296875 107.633125 -310.54296875 72.953125 C-322.75296875 72.953125 -334.96296875 72.953125 -347.54296875 72.953125 Z M92.45703125 72.953125 C92.45703125 106.613125 92.45703125 140.273125 92.45703125 174.953125 C104.66703125 174.953125 116.87703125 174.953125 129.45703125 174.953125 C129.45703125 141.293125 129.45703125 107.633125 129.45703125 72.953125 C117.24703125 72.953125 105.03703125 72.953125 92.45703125 72.953125 Z M-298.54296875 97.953125 C-298.54296875 115.113125 -298.54296875 132.273125 -298.54296875 149.953125 C-289.63296875 149.953125 -280.72296875 149.953125 -271.54296875 149.953125 C-271.87296875 146.983125 -272.20296875 144.013125 -272.54296875 140.953125 C-272.62954947 138.27663726 -272.68387455 135.62802223 -272.67578125 132.953125 C-272.67721634 131.87224609 -272.67721634 131.87224609 -272.67868042 130.76953125 C-272.67935472 129.26041577 -272.67755342 127.75129725 -272.67333984 126.2421875 C-272.66798081 123.95826581 -272.67331059 121.67454072 -272.6796875 119.390625 C-272.67902659 117.91145791 -272.67774515 116.43229094 -272.67578125 114.953125 C-272.67780548 114.28410156 -272.67982971 113.61507812 -272.68191528 112.92578125 C-272.65714737 107.81077096 -272.11638135 103.1138384 -271.54296875 97.953125 C-280.45296875 97.953125 -289.36296875 97.953125 -298.54296875 97.953125 Z M53.45703125 97.953125 C53.62203125 99.78875 53.78703125 101.624375 53.95703125 103.515625 C55.05541407 118.98713157 54.73103965 134.50577319 53.45703125 149.953125 C62.03703125 149.953125 70.61703125 149.953125 79.45703125 149.953125 C79.45703125 132.793125 79.45703125 115.633125 79.45703125 97.953125 C70.87703125 97.953125 62.29703125 97.953125 53.45703125 97.953125 Z " fill="#000000" transform="translate(365.54296875,133.046875)"/>
<path d="M0 0 C8.14619498 7.9835615 14.85844962 16.50245476 20.74194336 26.26342773 C21.11786621 26.88572266 21.49378906 27.50801758 21.88110352 28.14916992 C32.28918671 45.72870449 39.00192594 66.76816263 39.74194336 87.26342773 C39.7819043 88.36299805 39.82186523 89.46256836 39.86303711 90.59545898 C40.50972659 126.92419167 27.61740102 160.51457466 3.05444336 187.23217773 C-13.5472007 204.41294891 -34.00146988 216.09497053 -56.82055664 223.01342773 C-57.79206665 223.31168457 -57.79206665 223.31168457 -58.78320312 223.6159668 C-69.86098239 226.80330563 -81.02747828 227.6287842 -92.50805664 227.57592773 C-93.77931396 227.57101318 -95.05057129 227.56609863 -96.36035156 227.56103516 C-132.91417208 227.10682022 -164.53805824 211.3842171 -190.12158203 185.77294922 C-195.93433685 179.77410925 -200.7491623 173.27887723 -205.25805664 166.26342773 C-205.90387695 165.26698242 -206.54969727 164.27053711 -207.21508789 163.24389648 C-224.60018188 134.95050822 -230.16996609 98.61146055 -222.75854492 66.29858398 C-214.21806093 31.57005982 -194.14277044 1.08024014 -163.25805664 -17.73657227 C-110.39807076 -49.00433232 -44.7257947 -42.4141126 0 0 Z M-169.25805664 2.26342773 C-170.24161133 3.08327148 -171.22516602 3.90311523 -172.23852539 4.74780273 C-195.69344614 24.95120827 -209.35030765 52.94867589 -213.00805664 83.51342773 C-213.11871874 85.09508597 -213.20021094 86.6789585 -213.25805664 88.26342773 C-213.29801758 89.30241211 -213.33797852 90.34139648 -213.37915039 91.41186523 C-214.01051584 124.46570334 -202.09932608 154.4310184 -179.25805664 178.26342773 C-178.45368164 179.10905273 -177.64930664 179.95467773 -176.82055664 180.82592773 C-175.97493164 181.63030273 -175.12930664 182.43467773 -174.25805664 183.26342773 C-173.57614258 183.92858398 -172.89422852 184.59374023 -172.19165039 185.27905273 C-150.13033404 206.10096929 -118.98258155 216.19762566 -88.97290039 215.51342773 C-56.18176977 214.14741521 -26.48610221 199.47551022 -3.72290039 176.02905273 C9.09292468 161.64933142 18.80840195 143.87451079 23.74194336 125.26342773 C24.05905273 124.10842773 24.37616211 122.95342773 24.70288086 121.76342773 C31.80882673 90.99272633 25.70994247 58.03313294 9.16015625 31.35644531 C-9.14726667 3.04122393 -36.70960007 -15.80885166 -69.57055664 -23.04907227 C-104.78638205 -30.09768819 -141.74823331 -20.71849936 -169.25805664 2.26342773 Z " fill="#000000" transform="translate(349.258056640625,161.736572265625)"/>
<path d="M0 0 C1.21747925 0.00071251 2.4349585 0.00142502 3.68933105 0.00215912 C4.36764732 -0.0042297 5.04596359 -0.01061852 5.7448349 -0.01720095 C8.02315361 -0.03249072 10.29974417 -0.01196632 12.57800293 0.0083847 C14.20903094 0.00488466 15.84005555 -0.00077261 17.47106934 -0.00843048 C21.90506176 -0.02270507 26.33843602 -0.00559114 30.77236938 0.01785469 C35.4074483 0.03792677 40.04250063 0.03208604 44.6776123 0.02974701 C52.46222154 0.02980062 60.24658837 0.04958113 68.03112793 0.08162689 C77.03744513 0.11852146 86.04344467 0.12730289 95.04982758 0.12032938 C103.70550334 0.11402909 112.3610699 0.12476986 121.01672363 0.14429474 C124.70407667 0.15248 128.39137398 0.15517622 132.07873535 0.1536026 C136.41917466 0.15272511 140.75931101 0.16690295 145.09967041 0.19282913 C146.69482963 0.20000525 148.29002104 0.20206762 149.88519287 0.1987114 C152.05851801 0.19501026 154.2309523 0.20969493 156.4041748 0.2292099 C157.62165405 0.23293861 158.8391333 0.23666733 160.09350586 0.24050903 C163.04675293 0.62361908 163.04675293 0.62361908 164.93810463 2.0107193 C166.45564268 4.21848599 166.42748602 5.74640982 166.43493652 8.4146347 C166.44439301 9.38574188 166.45384949 10.35684906 166.46359253 11.35738373 C166.45448349 12.92776398 166.45448349 12.92776398 166.44519043 14.52986908 C166.4494957 16.14423859 166.4494957 16.14423859 166.45388794 17.79122162 C166.45593018 20.06755346 166.45038922 22.3439028 166.43786621 24.62020111 C166.42181548 28.11001981 166.43771021 31.59868027 166.45690918 35.08846283 C166.45492678 37.29810081 166.45108317 39.50773807 166.44519043 41.71736908 C166.45126312 42.76428925 166.45733582 43.81120941 166.46359253 44.88985443 C166.44940781 46.3465152 166.44940781 46.3465152 166.43493652 47.83260345 C166.43254974 48.68737274 166.43016296 49.54214203 166.42770386 50.42281342 C165.94015107 53.23947262 165.34783879 53.93544072 163.04675293 55.62361908 C160.10912323 55.99834919 160.10912323 55.99834919 156.44213867 55.99784088 C155.76790596 56.00181529 155.09367324 56.00578969 154.39900923 56.00988454 C152.13489297 56.01952564 149.87139875 56.00767905 147.6072998 55.99593353 C145.98612738 55.99836091 144.36495646 56.0020797 142.74378967 56.00699615 C138.33680199 56.01641623 133.93003597 56.0069704 129.52306557 55.99366403 C124.91601139 55.98236393 120.30896835 55.98645592 115.7019043 55.98841095 C107.96444061 55.98929438 100.22706446 55.97820325 92.48962402 55.95980072 C83.53788628 55.93863234 74.5862768 55.93512293 65.6345191 55.94136268 C57.03119554 55.94705305 48.42791725 55.94141454 39.82460022 55.93018913 C36.15958318 55.92553881 32.49459378 55.92467117 28.82957458 55.92677498 C24.51547412 55.92865561 20.20150461 55.92057139 15.88743401 55.90471458 C14.30194071 55.90046413 12.71643414 55.89962627 11.13093758 55.90240479 C8.97093602 55.9056164 6.81132824 55.89657095 4.65136719 55.88431549 C2.83620983 55.88123619 2.83620983 55.88123619 0.98438263 55.87809467 C-1.95324707 55.62361908 -1.95324707 55.62361908 -4.95324707 53.62361908 C-5.88204613 50.83722191 -6.08907741 49.11336177 -6.11437988 46.23152924 C-6.12398743 45.34696045 -6.13359497 44.46239166 -6.14349365 43.55101776 C-6.14774353 42.59786682 -6.15199341 41.64471588 -6.15637207 40.66268158 C-6.16207214 39.67996277 -6.16777222 38.69724396 -6.17364502 37.68474579 C-6.18309226 35.60513637 -6.1896279 33.52551201 -6.19348145 31.4458847 C-6.20318823 28.26788427 -6.23421493 25.09053026 -6.26574707 21.91268158 C-6.27227718 19.89185209 -6.27752762 17.87101797 -6.28137207 15.85018158 C-6.29371887 14.9010791 -6.30606567 13.95197662 -6.31878662 12.97411346 C-6.31428497 11.6378038 -6.31428497 11.6378038 -6.30969238 10.27449799 C-6.31333801 9.49522949 -6.31698364 8.715961 -6.32073975 7.91307831 C-5.6273225 3.59312688 -4.44697649 0.93904076 0 0 Z M7.04675293 12.62361908 C7.04675293 22.85361908 7.04675293 33.08361908 7.04675293 43.62361908 C15.95675293 43.62361908 24.86675293 43.62361908 34.04675293 43.62361908 C34.04675293 33.39361908 34.04675293 23.16361908 34.04675293 12.62361908 C25.13675293 12.62361908 16.22675293 12.62361908 7.04675293 12.62361908 Z M47.04675293 12.62361908 C47.04675293 22.85361908 47.04675293 33.08361908 47.04675293 43.62361908 C55.95675293 43.62361908 64.86675293 43.62361908 74.04675293 43.62361908 C74.04675293 33.39361908 74.04675293 23.16361908 74.04675293 12.62361908 C65.13675293 12.62361908 56.22675293 12.62361908 47.04675293 12.62361908 Z M86.04675293 12.62361908 C86.04675293 22.85361908 86.04675293 33.08361908 86.04675293 43.62361908 C95.28675293 43.62361908 104.52675293 43.62361908 114.04675293 43.62361908 C114.04675293 33.39361908 114.04675293 23.16361908 114.04675293 12.62361908 C104.80675293 12.62361908 95.56675293 12.62361908 86.04675293 12.62361908 Z M126.04675293 12.62361908 C126.04675293 22.85361908 126.04675293 33.08361908 126.04675293 43.62361908 C135.28675293 43.62361908 144.52675293 43.62361908 154.04675293 43.62361908 C154.04675293 33.39361908 154.04675293 23.16361908 154.04675293 12.62361908 C144.80675293 12.62361908 135.56675293 12.62361908 126.04675293 12.62361908 Z " fill="#000000" transform="translate(175.9532470703125,200.37638092041016)"/>
<path d="M0 0 C8.61826555 2.43559678 15.05622276 14.53456181 19.3515625 22.0234375 C27.03560635 35.90972386 31.99200494 49.67529273 28.18359375 65.7265625 C27.26395518 67.96601709 26.2495887 69.82318841 24.875 71.8125 C24.43929687 72.45445312 24.00359375 73.09640625 23.5546875 73.7578125 C19.3831075 79.20594157 14.27332798 81.67972401 7.875 83.8125 C-1.97642486 84.54090838 -11.00049096 84.48273373 -19.1484375 78.26953125 C-25.37531009 72.52872255 -28.63657941 65.75808145 -29.328125 57.33984375 C-29.65868718 39.07628343 -20.69015196 23.18280729 -10.125 8.8125 C-9.21041016 7.56726563 -9.21041016 7.56726563 -8.27734375 6.296875 C-4.12070201 1.07138252 -4.12070201 1.07138252 0 0 Z M-1.125 17.8125 C-2.66654696 19.88707695 -4.06499146 21.94171979 -5.4375 24.125 C-6.03981445 25.07318604 -6.03981445 25.07318604 -6.65429688 26.04052734 C-13.80389602 37.51280416 -17.26718765 47.16970307 -16.125 60.8125 C-14.01369839 65.34788865 -11.21947668 67.9778623 -7.125 70.8125 C-1.72769529 72.61160157 2.97548284 72.50718904 8.125 70.1875 C12.88482924 67.55977502 15.17116381 63.92400856 16.875 58.8125 C18.58014623 44.08115473 10.68320058 30.59285508 2.171875 19.17578125 C1.74390625 18.72589844 1.3159375 18.27601563 0.875 17.8125 C0.215 17.8125 -0.445 17.8125 -1.125 17.8125 Z " fill="#000000" transform="translate(256.125,270.1875)"/>
<path d="M0 0 C5.80184008 3.68193698 8.83441777 8.48474405 11 15 C12.19815766 23.1384294 10.6781114 29.93665857 6.1875 36.75 C0.84088544 42.24937498 -4.78487689 44.60971082 -12.375 45.3125 C-20.29853288 44.62943682 -26.71390615 42.08244046 -32 36 C-36.38755663 29.55869346 -37.7308805 23.00358701 -36.3125 15.375 C-34.52569894 8.48812439 -30.75715077 4.0964342 -25 0 C-16.56663207 -4.37415349 -8.50318377 -3.88807288 0 0 Z M-23 15 C-24.05285085 18.07930572 -24.35315106 20.76468059 -24 24 C-22.04164766 27.84676353 -20.58550738 29.60966175 -17 32 C-12.80458195 32.33834017 -10.08479877 32.43391951 -6.1875 30.875 C-3.35792651 28.4496513 -2.22067375 26.52639082 -1 23 C-1 18.42364516 -1.47591641 16.60269613 -4.5 13.125 C-5.7375 12.073125 -5.7375 12.073125 -7 11 C-7.33 10.67 -7.66 10.34 -8 10 C-14.64084088 9.02134977 -18.69835853 9.7304892 -23 15 Z " fill="#000000" transform="translate(207,270)"/>
<path d="M0 0 C5.80719471 3.6853351 8.85634676 8.46912424 11 15 C12.18947688 22.28074963 11.27083882 28.38499506 7.6171875 34.8046875 C3.39224411 40.53999712 -1.99795844 43.72690153 -9 45 C-16.35310866 45.68084339 -22.99381412 43.8852146 -28.8125 39.3125 C-34.53187335 33.84584315 -36.23814242 28.90640941 -36.5 21 C-36.23716496 13.06407762 -34.53694418 8.13014086 -28.75 2.6875 C-19.87474958 -4.25752538 -10.08312341 -4.61049881 0 0 Z M-22 14 C-24.28853994 17.26934278 -24.47162218 20.0698152 -24 24 C-21.96006092 27.6578218 -20.49580738 29.66946174 -17 32 C-12.80458195 32.33834017 -10.08479877 32.43391951 -6.1875 30.875 C-3.35792651 28.4496513 -2.22067375 26.52639082 -1 23 C-1 18.42364516 -1.47591641 16.60269613 -4.5 13.125 C-5.7375 12.073125 -5.7375 12.073125 -7 11 C-7.33 10.67 -7.66 10.34 -8 10 C-13.83440367 9.26467226 -17.84012652 9.46195621 -22 14 Z " fill="#000000" transform="translate(331,270)"/>
</svg>
