<svg xmlns="http://www.w3.org/2000/svg" xml:space="preserve" width="198.007" height="79.907" version="1.0" style="shape-rendering:geometricPrecision;text-rendering:geometricPrecision;image-rendering:optimizeQuality;fill-rule:evenodd;clip-rule:evenodd" viewBox="0 0 261774 105640"><defs><style>.fil0{fill:#ee3024}</style></defs><g id="Layer_x0020_1"><g id="_2355342498672"><path class="fil0" d="M231118 61971c403-2546 2294-7334 2098-9497l-23116 1c-1019 1599-12804 46718-14014 52056l23781-106c981-5381 3099-12049 4587-17600 1379-5146 2201-14179 7335-14881 6700-915 2436 9449 904 15284-1382 5263-3659 12218-4475 17309l23948-126c1522-2990 4466-16282 5546-20481 1815-7050 4397-13798 4025-21657-388-8211-6492-11863-15160-10805-9326 1138-12045 8377-15460 10503zM164825 68806c6289-1567 11192 2759 9646 9451-1129 4888-5346 8786-10057 9937-13292 3250-14441-15686 411-19389zm15598-16601-663 109-8740 10282c-1843 2051-1108 2225-3122 3276l3657-14545c-31502-26-45501 29627-37194 43827 7735 13224 29254 12377 42595 6035 13811-6566 23841-22474 19051-36306-2454-7086-7519-10488-15583-12678zM80540 35716l-23844 55-4433 17110-5994 26c-905 1982-4061 13808-4412 16417l6144 116-9307 35096 23127-8c1242-652 569 114 1164-1879 222-742 334-1362 519-2084l3596-13399c1609-5976 3133-11877 4832-17805l8295-25c665-3590 4110-13565 4010-16412l-8216-102 4519-17106zM43296 30708l-23958 59L0 104540l24034-114zM129335 71971c1048-1719 5298-17823 5734-20675-9592 244-17467 5321-20917 10374l2961-9178-23494 111c-1734 3116-5762 21066-7127 26085l-6734 25841 23826-86 6167-22976c1486-3998 3370-6230 6879-7920 4151-2000 7870-1369 12704-1575z"/><path style="fill:#fec62c" d="m171554 51328 8206 987 663-110L224535 191 185072 0z"/></g></g></svg>