<svg xmlns="http://www.w3.org/2000/svg" xml:space="preserve" width="155.46" height="96.444" version="1.0" style="shape-rendering:geometricPrecision;text-rendering:geometricPrecision;image-rendering:optimizeQuality;fill-rule:evenodd;clip-rule:evenodd" viewBox="0 0 42034 26077"><defs><style>.fil0{fill:#0c3978}</style></defs><g id="Layer_x0020_1"><g id="_2355082833632"><path class="fil0" d="m15870 7463 570-534 137 654c998 1076 5061 8923 6455 9440 2582 958 4053-1499 2617-3832l-2996-4723c-1168-1768-2015-3240-3086-4871-974-1482-1923-4104-4297-3513-2023 504-3894 7412-5885 9911-123-135-178-187-360-438L6369 4962C5582 3587 4348 800 3258 336 908-666-707 1799 310 3768l5653 9779c909 1565 1812 4143 4114 3641 1620-353 2373-2915 3238-4578 753-1449 2152-3769 2555-5147zM23197 201c-2417 1096-1413 3009-324 4665l6477 10162c488 792 1167 2868 3605 2043 859-291 1406-1093 1309-2334-68-862-7350-12579-8398-13810-509-597-1601-1210-2669-726zM31101 149c-2486 863-1586 3044-592 4567 1062 1627 1912 3059 2898 4578 1018 1569 2023 3112 2901 4569 885 1468 1830 4017 4164 3278 3061-969 742-4084 378-4667l-5792-9157c-706-1162-1848-3900-3957-3168z"/><path d="m15870 7463 228-276c28 51 149 35 172 136 159 695-45-76 308 260l-137-654-570 534z" style="fill:#859bb9"/><path d="M2845 25972v-3614h1096l648 2465 640-2465h1099v3614h-676l-3-2845-712 2845h-703l-709-2845-2 2845h-676zm4189 0v-3614h732v3614h-732zm1448 0v-3583h732v2973h1812v611H8482zm3083 0v-3583h732v2973h1812v611h-2544zm3063 0v-3614h2675v611h-1943v802h1807v611h-1807v979h2014v611h-2746zm3366 0v-3614h1537c386 0 667 33 842 98 176 65 315 180 421 346 105 167 158 356 158 570 0 272-79 496-238 672-159 177-396 288-712 334 157 92 287 193 389 303 103 110 241 306 414 587l441 705h-872l-523-789c-188-280-316-457-386-530-69-72-142-123-220-150s-201-40-369-40h-148v1509h-732zm732-2085h540c350 0 568-15 655-45 87-29 156-81 204-153 50-72 74-163 74-272 0-122-33-220-97-295-65-75-157-122-274-141-60-8-237-13-532-13h-570v918zm5240 2085-1293-3614h791l918 2675 881-2675h777l-1285 3614h-788zm5323 0h-788l-312-823h-1449l-300 823h-774l1403-3614h773l1448 3614zm-1337-1433-502-1338-488 1338h990zm1747 1433v-3583h732v2973h1812v611h-2544zm3613 0-1293-3614h791l918 2675 881-2675h777l-1285 3614h-788zm2442 0v-3614h2675v611h-1943v802h1807v611h-1807v979h2014v611h-2746zm3175-1171 712-71c43 238 129 412 259 524s306 167 527 167c234 0 411-50 529-149 119-99 178-215 178-348 0-86-25-158-75-219-50-60-137-112-262-156-85-30-278-82-581-158-389-98-663-217-820-359-221-199-331-442-331-729 0-184 52-358 156-518 104-161 254-283 450-367s432-126 709-126c452 0 792 100 1020 301 229 201 348 469 360 804l-732 25c-31-187-97-321-199-402-102-82-255-123-459-123-210 0-375 44-494 131-77 56-115 131-115 225 0 86 36 159 109 220 92 78 315 159 669 243 354 83 616 171 785 260 170 90 303 212 399 368s144 347 144 575c0 207-57 401-172 582s-278 315-488 403-473 132-786 132c-457 0-808-105-1052-316-245-210-390-517-438-920z" style="fill:#0c3978;fill-rule:nonzero;stroke:#3e4095;stroke-width:78;stroke-miterlimit:2.61313"/></g></g></svg>