<?xml version="1.0" encoding="UTF-8"?>
<svg version="1.1" xmlns="http://www.w3.org/2000/svg" width="512" height="512">
<path d="M0 0 C168.96 0 337.92 0 512 0 C512 168.96 512 337.92 512 512 C343.04 512 174.08 512 0 512 C0 343.04 0 174.08 0 0 Z " fill="#12274b" transform="translate(0,0)"/>
<path d="M0 0 C0.33 0 0.66 0 1 0 C1 78.54 1 157.08 1 238 C-78.53 238 -158.06 238 -240 238 C-240 237.67 -240 237.34 -240 237 C-238.82308594 236.90203125 -237.64617187 236.8040625 -236.43359375 236.703125 C-189.45585788 232.55675144 -145.551798 217.38574527 -107 190 C-106.31599121 189.51950195 -105.63198242 189.03900391 -104.92724609 188.54394531 C-94.09918461 180.8899387 -84.48110156 172.25050166 -75 163 C-74.03039299 162.06984832 -73.06038533 161.14011398 -72.08984375 160.2109375 C-66.23235765 154.50735752 -61.04980409 148.42307268 -56 142 C-55.22011719 141.03707031 -54.44023437 140.07414063 -53.63671875 139.08203125 C-36.78421658 117.87529407 -23.80024113 93.76577281 -14.80664062 68.25683594 C-14.09852504 66.2756554 -13.34210285 64.31187928 -12.578125 62.3515625 C-5.06384934 42.82372267 -1.35866792 20.84852495 0 0 Z " fill="#FEFEFE" transform="translate(511,274)"/>
<path d="M0 0 C0.33 0 0.66 0 1 0 C1.10489746 0.97888184 1.10489746 0.97888184 1.21191406 1.97753906 C3.32852561 21.40816921 5.95518484 40.37860792 12.29931641 58.92333984 C13.03478949 61.10310779 13.72708233 63.29400353 14.41796875 65.48828125 C23.04636587 92.20555547 36.62633867 116.99555181 54 139 C54.63035156 139.82242188 55.26070312 140.64484375 55.91015625 141.4921875 C61.52510946 148.70976595 67.69578976 155.38624413 74 162 C74.47373047 162.49709473 74.94746094 162.99418945 75.43554688 163.50634766 C81.88728194 170.22728204 88.67133424 176.25753861 96 182 C96.96164063 182.77859375 97.92328125 183.5571875 98.9140625 184.359375 C138.96013711 216.19346976 191.59279321 237.10948146 243 238 C243 238.33 243 238.66 243 239 C162.81 239 82.62 239 0 239 C0 160.13 0 81.26 0 0 Z " fill="#FEFEFE" transform="translate(0,273)"/>
<path d="M0 0 C78.21 0 156.42 0 237 0 C237 78.87 237 157.74 237 239 C236.67 239 236.34 239 236 239 C235.94054199 238.31824707 235.88108398 237.63649414 235.81982422 236.93408203 C231.28059034 186.83531842 214.31481968 139.66149185 183 100 C182.36964844 99.17757812 181.73929688 98.35515625 181.08984375 97.5078125 C175.47336809 90.28827705 169.2999914 83.62032995 163 77 C162.26475098 76.22172852 162.26475098 76.22172852 161.51464844 75.42773438 C153.93356227 67.44604231 145.80675125 60.58865043 137 54 C136.38189453 53.53174805 135.76378906 53.06349609 135.12695312 52.58105469 C94.8538671 22.0957001 49.55771416 7.29143754 0 1 C0 0.67 0 0.34 0 0 Z " fill="#FEFEFE" transform="translate(275,0)"/>
<path d="M0 0 C80.19 0 160.38 0 243 0 C243 0.33 243 0.66 243 1 C242.18144531 1.01417969 241.36289063 1.02835937 240.51953125 1.04296875 C218.97910561 1.88279567 197.44172475 6.2502949 177 13 C176.23139648 13.24943359 175.46279297 13.49886719 174.67089844 13.75585938 C137.54733094 25.99924026 105.16405874 47.2122844 77 74 C76.48260254 74.48871582 75.96520508 74.97743164 75.43212891 75.48095703 C67.96961047 82.56904615 61.45417878 90.09977386 55.26855469 98.32128906 C54.08287259 99.89033257 52.87427324 101.44198444 51.6640625 102.9921875 C22.06380267 141.31673443 6.30910092 187.27759597 1 235 C0.67 235 0.34 235 0 235 C0 157.45 0 79.9 0 0 Z " fill="#FEFEFE" transform="translate(0,0)"/>
<path d="M0 0 C2.97390747 -0.36076355 2.97390747 -0.36076355 6.83642578 -0.34057617 C7.53897491 -0.34101425 8.24152405 -0.34145233 8.96536255 -0.34190369 C11.29229326 -0.33981021 13.61850736 -0.31645395 15.9453125 -0.29296875 C17.55670783 -0.28737476 19.16810825 -0.28310373 20.7795105 -0.28010559 C25.0244145 -0.26864126 29.26901142 -0.23916068 33.51379395 -0.20599365 C37.84378912 -0.17532682 42.17383382 -0.16160752 46.50390625 -0.14648438 C55.00274521 -0.11429227 63.50133443 -0.06307704 72 0 C71.36145765 5.36305975 70.49919627 10.50511501 69.1875 15.75 C62.05048012 45.46953521 59.81415827 74.15930948 58 105 C27.97 105 -2.06 105 -33 105 C-33 68.63866355 -20.1641473 30.24622095 0 0 Z " fill="#FDFDFD" transform="translate(64,136)"/>
<path d="M0 0 C23.76 0 47.52 0 72 0 C90.37609088 32.668606 105 66.90925517 105 105 C75.3 105 45.6 105 15 105 C13.68 91.14 12.36 77.28 11 63 C9.31154263 46.95965496 6.33617886 31.64876872 2.69238281 15.97900391 C2.51613876 15.21699173 2.33989471 14.45497955 2.15830994 13.6698761 C1.82413011 12.23056354 1.48593399 10.79217558 1.14308167 9.35490417 C0.38591217 6.10080972 0 3.37031963 0 0 Z " fill="#FDFDFD" transform="translate(376,136)"/>
<path d="M0 0 C30.03 0 60.06 0 91 0 C91 10.56066756 90.22873812 20.17976124 87.8125 30.4375 C87.59110352 31.38488037 87.36970703 32.33226074 87.14160156 33.30834961 C81.16996486 58.32967395 72.37167763 83.44248355 58 105 C55.02609253 105.36076355 55.02609253 105.36076355 51.16357422 105.34057617 C50.10975052 105.34123329 50.10975052 105.34123329 49.03463745 105.34190369 C46.70770674 105.33981021 44.38149264 105.31645395 42.0546875 105.29296875 C40.44329217 105.28737476 38.83189175 105.28310373 37.2204895 105.28010559 C32.9755855 105.26864126 28.73098858 105.23916068 24.48620605 105.20599365 C20.15621088 105.17532682 15.82616618 105.16160752 11.49609375 105.14648438 C2.99725479 105.11429227 -5.50133443 105.06307704 -14 105 C-13.38044993 99.77450873 -12.55883342 94.90992661 -11.1875 89.8125 C-7.47411353 75.35171615 -4.95526805 60.75805396 -3.07641602 45.95187378 C-2.82595461 43.9808804 -2.56655038 42.01102948 -2.30664062 40.04125977 C-0.68389482 26.62439074 -0.5061426 13.66585031 0 0 Z " fill="#FEFEFE" transform="translate(390,271)"/>
<path d="M0 0 C29.7 0 59.4 0 90 0 C90 34.65 90 69.3 90 105 C65.58 105 41.16 105 16 105 C12.57592664 92.67333592 9.35019497 80.53829015 7 68 C6.83113281 67.10555176 6.66226563 66.21110352 6.48828125 65.28955078 C3.98832517 51.7348077 2.41759353 38.16105004 1.25 24.4375 C1.18497284 23.67711426 1.11994568 22.91672852 1.052948 22.13330078 C0.42918243 14.72870334 0 7.44490109 0 0 Z " fill="#FEFEFE" transform="translate(151,271)"/>
<path d="M0 0 C29.7 0 59.4 0 90 0 C88.81457154 24.89399765 86.99392469 48.86469972 81.61865234 73.17382812 C81.01784162 75.91849463 80.44990794 78.66769086 79.89453125 81.421875 C79.55482928 83.09377881 79.21499362 84.76565547 78.875 86.4375 C78.65565796 87.52744263 78.65565796 87.52744263 78.43188477 88.6394043 C77.26078277 94.25041993 75.66538603 99.44871322 74 105 C49.58 105 25.16 105 0 105 C0 70.35 0 35.7 0 0 Z " fill="#FEFEFE" transform="translate(271,271)"/>
<path d="M0 0 C24.42 0 48.84 0 74 0 C74 34.65 74 69.3 74 105 C44.63 105 15.26 105 -15 105 C-15 77.86189638 -15 77.86189638 -13.4375 65.125 C-13.35274414 64.40228912 -13.26798828 63.67957825 -13.18066406 62.93496704 C-11.83420749 51.57069478 -9.89455895 40.37610698 -7.5 29.1875 C-7.35674286 28.51793274 -7.21348572 27.84836548 -7.06588745 27.1585083 C-5.07215423 17.95861161 -2.59541706 9.08395971 0 0 Z " fill="#FEFEFE" transform="translate(167,136)"/>
<path d="M0 0 C24.42 0 48.84 0 74 0 C79.84610163 21.04596587 79.84610163 21.04596587 81.625 30.25 C81.93401245 31.82297852 81.93401245 31.82297852 82.24926758 33.42773438 C84.10053365 43.08600827 85.50283802 52.77971811 86.69140625 62.53955078 C86.97629868 64.811027 87.29370153 67.0747477 87.625 69.33984375 C89.29567267 81.51023007 89 92.35231477 89 105 C59.63 105 30.26 105 0 105 C0 70.35 0 35.7 0 0 Z " fill="#FEFEFE" transform="translate(271,136)"/>
<path d="M0 0 C29.7 0 59.4 0 90 0 C90.99 11.55 91.98 23.1 93 35 C95.19468979 56.42435274 98.30563247 77.99660892 104.44921875 98.69970703 C105 101 105 101 105 105 C81.24 105 57.48 105 33 105 C19.19101426 80.14382567 8.86151192 56.75689509 3 29 C2.60506473 27.37478151 2.20940453 25.74973869 1.8125 24.125 C0.0666231 16.12177668 0 8.17308972 0 0 Z " fill="#FEFEFE" transform="translate(31,271)"/>
<path d="M0 0 C0 24.09 0 48.18 0 73 C-20.46 73 -40.92 73 -62 73 C-60.91542487 67.57712434 -59.02732488 63.51860621 -56.5625 58.625 C-56.11729004 57.7395752 -55.67208008 56.85415039 -55.21337891 55.94189453 C-51.06576407 47.85805473 -46.34895169 40.33622789 -41 33 C-40.35675781 32.113125 -39.71351563 31.22625 -39.05078125 30.3125 C-30.08796488 18.58755783 -20.02774494 8.98111227 -7 2 C-6.27941406 1.60167969 -5.55882812 1.20335937 -4.81640625 0.79296875 C-3 0 -3 0 0 0 Z " fill="#FDFDFD" transform="translate(241,33)"/>
<path d="M0 0 C27.11154581 9.03718194 43.09771199 33.06287059 55.75 57.375 C56.06494415 57.97920776 56.37988831 58.58341553 56.70437622 59.20593262 C62 69.43069259 62 69.43069259 62 73 C41.54 73 21.08 73 0 73 C0 48.91 0 24.82 0 0 Z " fill="#FDFDFD" transform="translate(271,33)"/>
<path d="M0 0 C20.46 0 40.92 0 62 0 C62 24.09 62 48.18 62 73 C50.12557391 70.62511478 41.30460242 62.3504842 33 54 C32.13375 53.13375 31.2675 52.2675 30.375 51.375 C20.29741242 40.79353304 13.21089145 28.7434343 6.4375 15.875 C5.91236816 14.87887695 5.38723633 13.88275391 4.84619141 12.85644531 C4.35940918 11.91124023 3.87262695 10.96603516 3.37109375 9.9921875 C2.7203186 8.72930908 2.7203186 8.72930908 2.05639648 7.44091797 C1 5 1 5 0 0 Z " fill="#FEFEFE" transform="translate(179,406)"/>
<path d="M0 0 C20.46 0 40.92 0 62 0 C58.61923722 10.14228835 58.61923722 10.14228835 56.80078125 13.61328125 C56.40044678 14.38027344 56.0001123 15.14726562 55.58764648 15.9375 C55.16684814 16.72125 54.7460498 17.505 54.3125 18.3125 C53.87043213 19.14136719 53.42836426 19.97023438 52.97290039 20.82421875 C42.2941536 40.57788109 27.65001246 60.86980521 7 71 C3.535 71.99 3.535 71.99 0 73 C0 48.91 0 24.82 0 0 Z " fill="#FEFEFE" transform="translate(271,406)"/>
<path d="M0 0 C19.14 0 38.28 0 58 0 C59.32 2.97 60.64 5.94 62 9 C70.41358552 27.25802641 79.21909348 44.64338111 91 61 C86.6874393 62.43752023 83.92282931 60.50248455 80 58.6875 C79.2054541 58.32503174 78.4109082 57.96256348 77.59228516 57.58911133 C62.52387052 50.62207429 48.35587841 42.8872741 35 33 C34.10571289 32.34112793 34.10571289 32.34112793 33.19335938 31.66894531 C23.50018697 24.46051666 14.67167658 16.39626494 6 8 C5.12408203 7.16782959 5.12408203 7.16782959 4.23046875 6.31884766 C2.78132252 4.91848708 1.38535774 3.4634953 0 2 C0 1.34 0 0.68 0 0 Z " fill="#FBFBFB" transform="translate(88,406)"/>
<path d="M0 0 C1.02814316 0.00222061 2.05628632 0.00444122 3.11558533 0.00672913 C4.85727745 0.00684242 4.85727745 0.00684242 6.63415527 0.00695801 C8.52943214 0.01469994 8.52943214 0.01469994 10.46299744 0.02259827 C12.39193092 0.02472069 12.39193092 0.02472069 14.35983276 0.02688599 C17.78427561 0.03071034 21.20867628 0.0405399 24.63310242 0.05158997 C28.12522308 0.06180587 31.61735053 0.06638399 35.10948181 0.07142639 C41.96561897 0.08216225 48.82172806 0.09923767 55.67784119 0.12025452 C53.9417509 3.06338584 52.34234457 5.70950708 49.92784119 8.13587952 C49.4076239 8.66020569 48.88740662 9.18453186 48.35142517 9.7247467 C47.79914246 10.26776428 47.24685974 10.81078186 46.67784119 11.37025452 C46.10042175 11.94163147 45.52300232 12.51300842 44.92808533 13.10169983 C39.78256192 18.13061682 34.37174071 22.72079546 28.67784119 27.12025452 C27.79225525 27.82279358 26.90666931 28.52533264 25.99424744 29.24916077 C13.04319325 39.29026935 -0.7593104 47.62174656 -15.50965881 54.74525452 C-16.56048645 55.2541925 -17.61131409 55.76313049 -18.69398499 56.28749084 C-24.19221206 58.8764212 -29.36262241 60.90693573 -35.32215881 62.12025452 C-32.81847057 57.64938266 -30.1863288 53.37311298 -27.32215881 49.12025452 C-18.11088464 35.04083566 -10.61185638 19.79631133 -4.52919006 4.12806702 C-2.93356608 0.15191664 -2.93356608 0.15191664 0 0 Z " fill="#FCFCFC" transform="translate(368.32215881347656,405.87974548339844)"/>
<path d="M0 0 C-0.31114746 0.45101074 -0.62229492 0.90202148 -0.94287109 1.36669922 C-13.37324426 19.4717088 -23.04589905 37.52303066 -31.12719727 57.96899414 C-32 60 -32 60 -33 61 C-34.81055025 61.09376053 -36.62477201 61.1174411 -38.43774414 61.11352539 C-40.17943626 61.11341209 -40.17943626 61.11341209 -41.95631409 61.11329651 C-43.85159096 61.10555458 -43.85159096 61.10555458 -45.78515625 61.09765625 C-47.07111191 61.0962413 -48.35706757 61.09482635 -49.68199158 61.09336853 C-53.10643443 61.08954418 -56.53083509 61.07971462 -59.95526123 61.06866455 C-63.44738189 61.05844864 -66.93950934 61.05387053 -70.43164062 61.04882812 C-77.28777778 61.03809227 -84.14388687 61.02101684 -91 61 C-89.09474895 56.84881649 -86.28621413 53.98294874 -83.0625 50.8125 C-82.47984375 50.23588623 -81.8971875 49.65927246 -81.296875 49.06518555 C-76.13485188 44.01913925 -70.69840628 39.43120824 -65 35 C-63.50919922 33.80117187 -63.50919922 33.80117187 -61.98828125 32.578125 C-50.18128486 23.15937032 -37.48161874 15.64113937 -24.125 8.625 C-23.17447754 8.12500488 -22.22395508 7.62500977 -21.24462891 7.10986328 C-4.54525862 -1.51508621 -4.54525862 -1.51508621 0 0 Z " fill="#FCFCFC" transform="translate(179,45)"/>
<path d="M0 0 C7.84813296 2.04819257 14.96674804 5.08333149 22.25 8.625 C23.354646 9.16060547 24.45929199 9.69621094 25.59741211 10.24804688 C33.84988043 14.31087519 41.52728694 18.63151661 49 24 C49.62632324 24.44811035 50.25264648 24.8962207 50.89794922 25.35791016 C63.28457136 34.27446763 75.01137594 43.89773942 85.875 54.625 C86.65278809 55.38876953 86.65278809 55.38876953 87.44628906 56.16796875 C91 59.75343106 91 59.75343106 91 62 C71.86 62 52.72 62 33 62 C28 51 28 51 26.33203125 47.3125 C19.35131145 32.09488975 11.82641658 17.55951598 2.0546875 3.9296875 C0 1 0 1 0 0 Z " fill="#FCFCFC" transform="translate(333,44)"/>
</svg>
