<svg xmlns="http://www.w3.org/2000/svg" xml:space="preserve" width="149.077" height="86.928" version="1.0" style="shape-rendering:geometricPrecision;text-rendering:geometricPrecision;image-rendering:optimizeQuality;fill-rule:evenodd;clip-rule:evenodd" viewBox="0 0 58679 34216"><defs><style>.fil2{fill:#16284c}.fil0{fill:#74c391}.fil1{fill:#969fa8}</style></defs><g id="Layer_x0020_1"><g id="_2355344433120"><path class="fil0" d="m1717 29817-45-67c-584-681-591-535-1672-585l1717 652zM46772 6718l-56-286-490-80c-20-62-104 63-149 67l695 299z"/><path class="fil1" d="m18483 20858 61-20606 3139 29 17 20567c418-1208 364-18369 88-20625-1049-300-2329-292-3387-11-335 2339-408 19296 82 20646zM34603 9819c-47 48-560 533-588 546l-2956 21 158-948c-405 707-310 216-186 1135l3296 17 276-771zM6546 10395l-3345-30 157-1013c-410 803-313 269-206 1233 1128 20 2574 135 3394-190z"/><g><path class="fil2" d="M40494 13463c130 2275 176 3503-1308 4502-1209 814-3696 890-4783-61-1442-1262-30-3013 1251-3449 1571-535 3169-348 4839-991zm-9277-4025-158 948 2956-21c28-12 541-498 588-546 1265-2908 7611-1948 5896 1143-685 1235-6282 1176-8396 2386-2363 1352-2108 5868 312 7112 2856 1468 6401 732 8303-947 1067 1923 1905 2044 4444 1460 40-77 77-174 97-241 643-2206 132-1822-1322-2319-414-6117 1153-10562-2494-12242-2305-1062-9108-1595-10227 3268zM12669 13470c86 2308 142 3422-1323 4482-3487 2523-8106-2018-3521-3502 1414-458 3203-489 4844-980zM3358 9352l-157 1013 3345 30c720-3418 7003-2878 6280 132-439 1827-5897 1538-8191 2626-2670 1267-2651 5887-252 7225 2747 1532 6009 962 8524-841 800 1910 2183 2005 4403 1421 426-759 328-762 312-2106-75-35-176-63-233-83l-1211-468c-1021-4633 1638-9917-2591-12111-1733-899-4659-867-6605-325-2186 609-3012 1352-3624 3486zM28361 5792c-2-2924 64-3198 3201-2810l-6-2610c-5158-587-6549 287-6504 5474l-2474 35 31 2471 2434 161-17 12348 3342 3-8-12443 2810-128V5950l-2809-158zM18483 20858l3217-10-17-20567-3139-29z"/></g><path d="m1672 29750 45 67c11819 5635 28889 5748 42566 963 5615-1964 12320-6765 13996-11368 2392-6569-6518-11589-11563-12979l56 286c2454 1415 4003 2782 5311 5359 4079 8037-6407 14069-13286 16788-8771 3467-18888 4024-28472 2651-2909-417-7063-1672-8652-1767z" style="fill:#02ae40"/></g></g></svg>