<?xml version="1.0" encoding="UTF-8"?>
<svg xmlns="http://www.w3.org/2000/svg" xmlns:xlink="http://www.w3.org/1999/xlink" width="25px" height="26px" viewBox="0 0 25 25" version="1.1">
<g id="surface1">
<path style=" stroke:none;fill-rule:evenodd;fill:rgb(89.803922%,49.019608%,50.588235%);fill-opacity:1;" d="M 14.96875 14.996094 L 15.429688 14.367188 C 15.667969 14.140625 15.8125 14.167969 16.113281 13.871094 C 15.617188 14.089844 15.316406 14.472656 15.023438 14.589844 Z M 6.382812 8.195312 C 6.660156 8.078125 6.640625 8.019531 6.515625 8.292969 C 6.789062 8.191406 6.765625 8.136719 6.640625 8.394531 C 6.917969 8.507812 6.851562 8.507812 7.125 8.636719 C 7.070312 8.5625 7.132812 8.621094 6.984375 8.457031 L 6.140625 7.816406 Z M 9.40625 20 L 9.285156 19.867188 C 9.125 19.53125 9.175781 19.609375 9.34375 19.320312 C 9.136719 19.480469 9.300781 19.230469 9.15625 19.488281 C 8.996094 19.769531 9.078125 19.664062 9.007812 19.925781 C 9.21875 19.949219 9.160156 19.921875 9.40625 20 Z M 9.40625 20 "/>
<path style=" stroke:none;fill-rule:evenodd;fill:rgb(57.647059%,72.54902%,77.254902%);fill-opacity:1;" d="M 17.671875 11.019531 C 17.707031 11.003906 17.734375 10.9375 17.746094 10.960938 C 17.757812 10.984375 17.796875 10.910156 17.8125 10.902344 C 18.300781 10.625 18.226562 10.804688 18.367188 10.886719 C 18.257812 10.554688 18.289062 10.609375 17.921875 10.496094 Z M 6.648438 17.789062 C 6.777344 18.402344 6.742188 17.976562 6.511719 18.113281 L 6.308594 17.902344 L 6.359375 17.933594 L 6.621094 18.246094 C 6.640625 18.21875 6.6875 18.152344 6.6875 18.164062 C 6.691406 18.179688 6.734375 18.101562 6.738281 18.074219 C 6.75 17.863281 6.765625 17.964844 6.6875 17.667969 L 6.929688 17.765625 L 6.78125 17.652344 Z M 6.648438 17.789062 "/>
<path style=" stroke:none;fill-rule:evenodd;fill:rgb(67.058824%,47.45098%,52.941176%);fill-opacity:1;" d="M 7.988281 5.226562 L 8.042969 5.390625 C 8.019531 5.574219 7.960938 5.558594 8.132812 5.519531 L 7.957031 5.644531 L 8.179688 5.8125 C 8.394531 5.398438 8.328125 5.59375 8.777344 5.292969 L 8.132812 5.519531 L 8.042969 5.390625 L 7.988281 5.226562 C 8.015625 4.976562 8.058594 5.0625 7.753906 5.0625 L 7.730469 5.199219 Z M 19.539062 16.550781 L 19.398438 16.746094 L 19.304688 16.929688 C 19.523438 16.929688 19.460938 16.972656 19.398438 16.746094 L 19.539062 16.550781 L 19.734375 16.265625 L 19.53125 16.191406 Z M 19.539062 16.550781 "/>
<path style=" stroke:none;fill-rule:evenodd;fill:rgb(41.176471%,20%,29.411765%);fill-opacity:1;" d="M 19.347656 8.222656 L 19.789062 8.277344 L 20.222656 8.242188 C 20.320312 8.398438 20.316406 8.871094 21.273438 8.980469 L 21.34375 8.976562 C 21.421875 8.761719 21.457031 8.820312 21.390625 8.628906 L 21.25 8.808594 L 20.984375 8.652344 C 20.433594 8.546875 20.628906 8.644531 20.503906 8.097656 L 19.316406 8.070312 Z M 14.527344 21.507812 L 14.582031 21.851562 L 14.765625 21.796875 C 14.757812 21.335938 14.695312 21.214844 14.851562 20.867188 C 15.011719 20.503906 14.984375 20.722656 15.320312 20.40625 L 15.359375 20.035156 L 15.167969 20.039062 L 15.125 20.28125 C 15.03125 20.515625 15.199219 20.320312 14.957031 20.441406 C 14.835938 20.503906 14.84375 20.46875 14.726562 20.507812 Z M 19.734375 16.265625 C 20.191406 16.257812 20.140625 16.4375 20.332031 16.871094 C 20.449219 17.132812 20.546875 17.367188 20.65625 17.648438 L 20.789062 17.648438 L 20.808594 17.460938 L 20.21875 16.222656 L 20.160156 16.074219 L 19.535156 16.113281 L 19.53125 16.191406 Z M 2.800781 11.558594 L 3.679688 12.039062 C 4.257812 11.863281 3.789062 12.011719 4.257812 11.78125 L 4.257812 11.660156 L 4.265625 11.398438 C 4.152344 11.609375 4.203125 11.488281 4.015625 11.570312 C 4.117188 11.808594 4.160156 11.777344 3.90625 11.6875 C 3.894531 11.714844 3.855469 11.746094 3.839844 11.75 C 3.839844 11.75 3.671875 11.871094 3.570312 11.667969 C 3.078125 11.628906 3.183594 11.554688 2.714844 11.328125 L 2.644531 11.320312 L 2.640625 11.476562 C 2.835938 11.429688 2.800781 11.378906 2.800781 11.558594 Z M 6.066406 17.78125 C 6.234375 17.84375 6.15625 17.753906 6.359375 17.933594 C 6.28125 18.265625 6.445312 18.050781 6.203125 18.25 L 5.898438 18.34375 C 5.886719 18.320312 5.851562 18.375 5.824219 18.390625 C 5.359375 18.273438 5.65625 18.328125 5.515625 18.523438 C 6.09375 18.492188 5.789062 18.542969 5.824219 18.390625 L 6.238281 18.460938 L 6.621094 18.273438 L 6.621094 18.246094 L 6.359375 17.933594 L 6.308594 17.902344 L 6.007812 17.554688 L 5.953125 17.664062 C 6.15625 17.628906 6.121094 17.589844 6.066406 17.78125 Z M 20.804688 16.082031 L 21.035156 16.609375 C 21.058594 16.632812 21.097656 16.621094 21.113281 16.660156 C 21.226562 16.960938 20.910156 16.507812 21.277344 16.753906 L 21.296875 16.566406 C 21.160156 16.339844 21.039062 16.214844 21.007812 15.871094 L 20.796875 15.847656 Z M 20.804688 16.082031 "/>
<path style=" stroke:none;fill-rule:evenodd;fill:rgb(57.254902%,15.294118%,21.960784%);fill-opacity:1;" d="M 13.148438 4.03125 C 13.140625 3.894531 13.109375 3.386719 13.152344 3.273438 L 13.246094 3.101562 C 13.503906 2.867188 14.25 3.058594 14.574219 3.160156 C 14.550781 3.3125 14.632812 3.324219 14.359375 3.628906 L 14.246094 3.738281 C 13.945312 3.984375 13.800781 3.863281 13.148438 4.03125 Z M 13.109375 4.496094 L 13.242188 4.484375 L 13.441406 4.457031 L 13.621094 4.078125 L 13.761719 4.1875 L 14.027344 4.1875 C 14.003906 4.023438 13.976562 4.070312 14.167969 4.101562 C 14.148438 3.941406 14.117188 3.988281 14.300781 4.011719 C 14.277344 3.835938 14.234375 3.871094 14.414062 3.894531 C 14.378906 3.722656 14.34375 3.761719 14.527344 3.789062 C 14.503906 3.609375 14.460938 3.644531 14.644531 3.675781 C 14.609375 3.5 14.578125 3.539062 14.765625 3.578125 C 14.742188 3.390625 14.691406 3.417969 14.875 3.460938 C 14.828125 3.25 14.765625 3.265625 14.972656 3.328125 L 14.941406 3.140625 L 13.097656 2.890625 Z M 12.902344 21.886719 C 12.980469 22.089844 12.785156 22 13.210938 22.066406 L 13.585938 21.988281 L 13.199219 21.984375 C 13.175781 21.980469 13.132812 21.960938 13.097656 21.949219 C 13.078125 21.898438 13.042969 21.9375 12.992188 21.628906 L 12.976562 20.949219 C 13.125 20.3125 12.988281 20.792969 13.214844 20.527344 L 13.890625 20.511719 C 13.847656 21.046875 13.664062 21.289062 13.761719 21.703125 C 13.601562 21.769531 13.660156 21.386719 13.601562 21.996094 C 13.875 21.882812 13.882812 22.148438 13.761719 21.703125 L 13.964844 21.757812 C 13.945312 21.386719 13.96875 21.363281 14.042969 20.988281 C 14.066406 20.867188 14.109375 20.738281 14.101562 20.617188 C 14.078125 20.101562 14.148438 20.480469 13.992188 20.351562 L 13.878906 20.351562 L 12.90625 20.554688 Z M 2.621094 12.542969 C 3.191406 12.472656 3.304688 12.753906 3.355469 13.207031 C 3.652344 13.253906 4.007812 13.335938 4.226562 13.421875 L 4.238281 13.128906 L 3.53125 13.042969 L 3.578125 12.898438 C 3.53125 12.410156 3.335938 12.492188 2.851562 12.238281 L 2.613281 12.253906 Z M 5.507812 19.320312 C 5.828125 19.621094 5.570312 19.460938 6.046875 19.597656 L 6.210938 19.1875 C 6.21875 19.171875 6.234375 19.136719 6.25 19.113281 L 5.929688 19.085938 L 5.765625 19.058594 Z M 5.507812 19.320312 "/>
<path style=" stroke:none;fill-rule:evenodd;fill:rgb(81.960784%,80.784314%,69.411765%);fill-opacity:1;" d="M 7.171875 19.351562 L 7.050781 19.425781 C 6.597656 19.175781 6.730469 19.726562 6.867188 19.363281 C 6.3125 20.046875 6.480469 19.640625 6.292969 20.09375 C 6.34375 20.121094 6.589844 20.242188 6.605469 20.25 C 7.015625 20.480469 6.699219 20.292969 7.015625 20.515625 C 7.148438 20.214844 7.015625 20.417969 7.25 20.089844 C 7.378906 19.902344 7.269531 20.074219 7.402344 19.894531 C 7.546875 19.695312 7.40625 19.898438 7.53125 19.703125 L 7.613281 19.5625 L 7.671875 19.410156 C 7.851562 19.394531 7.796875 19.433594 7.742188 19.242188 L 8.15625 19.292969 C 7.980469 19.023438 8.476562 19.082031 7.699219 19.082031 L 7.742188 19.242188 L 7.671875 19.410156 L 7.613281 19.5625 L 7.53125 19.703125 C 7.265625 19.734375 7.316406 19.695312 7.164062 19.546875 Z M 6.976562 18.980469 L 6.988281 19.191406 L 7.042969 19.222656 Z M 17.535156 18.941406 C 17.523438 18.976562 17.5 18.984375 17.492188 19.039062 C 17.457031 19.328125 17.480469 19.042969 17.417969 19.242188 C 17.34375 19.464844 17.378906 19.3125 17.320312 19.585938 C 17.652344 19.777344 17.816406 20.113281 18.007812 20.335938 C 18.0625 20.253906 18.28125 20.066406 18.425781 20.03125 C 18.078125 19.664062 17.765625 19.4375 17.644531 18.851562 L 18.109375 19.300781 C 17.929688 19.007812 17.902344 18.957031 17.777344 18.6875 C 17.863281 18.589844 17.894531 18.574219 17.976562 18.476562 C 17.988281 18.460938 18.015625 18.429688 18.03125 18.414062 C 18.046875 18.394531 18.074219 18.355469 18.085938 18.339844 L 18.199219 18.175781 C 17.59375 18.332031 17.71875 18.625 17.535156 18.941406 Z M 20.601562 15.039062 C 20.632812 15.058594 20.777344 15.175781 20.808594 15.199219 C 20.828125 15.214844 20.90625 15.28125 20.929688 15.292969 C 21.109375 15.410156 20.960938 15.328125 21.125 15.382812 L 21.722656 15.488281 C 21.929688 15.316406 21.886719 15.28125 21.90625 15.015625 C 21.785156 15.238281 21.84375 15.152344 21.546875 15.261719 C 21.445312 14.933594 21.089844 14.738281 20.703125 14.628906 L 21.019531 14.601562 C 20.996094 14.582031 20.960938 14.566406 20.945312 14.554688 L 20.511719 14.320312 L 20.109375 14.351562 C 20.265625 14.449219 19.789062 14.582031 20.574219 14.511719 Z M 13.210938 22.066406 C 12.785156 22 12.980469 22.089844 12.902344 21.886719 L 12.65625 21.84375 C 12.546875 21.117188 12.238281 21.136719 12.457031 20.800781 C 12.617188 20.550781 12.570312 20.746094 12.652344 20.714844 L 12.171875 20.957031 L 12.011719 22.058594 C 12.226562 22.136719 12.339844 22.167969 12.648438 22.171875 C 13.15625 22.183594 13.210938 22.382812 13.210938 22.066406 Z M 3.304688 16.097656 C 3.273438 15.589844 3.203125 15.847656 3.570312 15.671875 C 3.597656 15.65625 4.097656 15.566406 4.136719 15.558594 L 4.253906 15.445312 L 4.523438 15.320312 C 4.058594 15.335938 3.71875 15.1875 3.4375 15.011719 L 2.941406 15.042969 L 3.128906 15.714844 C 3.289062 16.28125 3.128906 15.84375 3.304688 16.097656 Z M 3.542969 16.652344 C 3.382812 16.292969 3.582031 16.359375 3.269531 16.144531 L 2.988281 15.953125 C 2.964844 15.980469 2.921875 16.03125 2.90625 16.046875 L 2.621094 16.414062 C 2.707031 16.410156 2.578125 16.207031 2.785156 16.515625 L 3.304688 17.523438 L 3.289062 16.421875 C 3.328125 16.449219 3.363281 16.457031 3.371094 16.496094 C 3.523438 17.089844 2.960938 16.019531 3.542969 16.652344 Z M 19.609375 13.433594 C 19.640625 13.449219 19.679688 13.445312 19.695312 13.484375 C 19.710938 13.523438 19.757812 13.523438 19.78125 13.53125 C 20.101562 13.660156 19.6875 13.519531 19.964844 13.601562 C 20.796875 13.851562 20.652344 13.476562 20.6875 13.128906 C 20.714844 12.832031 20.714844 12.53125 20.707031 12.234375 C 20.695312 11.875 20.714844 11.734375 20.546875 11.445312 L 20.535156 13.582031 C 20.515625 13.570312 20.480469 13.523438 20.472656 13.542969 C 20.445312 13.59375 20.300781 13.285156 19.761719 13.28125 C 19.6875 13.378906 19.828125 13.230469 19.609375 13.433594 Z M 2.828125 10.144531 C 2.90625 10.0625 3.015625 10.070312 3.101562 10 L 4.09375 10.257812 L 4.3125 10.386719 L 4.390625 10.800781 C 4.652344 10.46875 4.570312 10.597656 4.59375 10.25 L 4.09375 10.257812 C 3.867188 9.890625 3.980469 10.230469 3.296875 9.515625 C 3.28125 9.496094 3.253906 9.46875 3.234375 9.449219 Z M 16.441406 5.507812 L 17.246094 5.707031 C 17.492188 5.675781 17.492188 5.648438 17.578125 5.613281 C 17.382812 5.199219 17.179688 5.105469 17.117188 5.175781 C 17.269531 5.140625 17.105469 5.21875 17.191406 4.984375 C 17.03125 5.109375 17.171875 4.972656 16.992188 5.148438 C 16.972656 5.175781 16.917969 5.253906 16.894531 5.277344 C 16.609375 5.542969 16.945312 5.414062 16.441406 5.507812 Z M 16.441406 5.507812 "/>
<path style=" stroke:none;fill-rule:evenodd;fill:rgb(20.392157%,59.215686%,65.490196%);fill-opacity:1;" d="M 15.609375 2.507812 C 15.636719 2.675781 15.671875 2.640625 15.496094 2.617188 C 15.511719 2.789062 15.554688 2.753906 15.378906 2.730469 C 15.398438 2.894531 15.4375 2.859375 15.269531 2.839844 C 15.296875 3.015625 15.328125 2.96875 15.140625 2.949219 C 15.054688 3.121094 15.128906 3.070312 14.945312 3.140625 L 14.972656 3.328125 C 14.765625 3.265625 14.828125 3.25 14.878906 3.460938 C 14.691406 3.417969 14.742188 3.390625 14.765625 3.578125 C 14.578125 3.539062 14.609375 3.5 14.648438 3.675781 C 14.460938 3.644531 14.503906 3.609375 14.527344 3.789062 C 14.34375 3.761719 14.378906 3.722656 14.414062 3.894531 C 14.234375 3.871094 14.277344 3.835938 14.300781 4.011719 C 14.117188 3.988281 14.148438 3.941406 14.167969 4.101562 C 13.980469 4.070312 14.003906 4.023438 14.027344 4.1875 L 13.761719 4.1875 L 13.621094 4.078125 C 13.621094 4.265625 13.574219 4.226562 13.761719 4.1875 C 13.78125 4.210938 13.816406 4.238281 13.828125 4.242188 C 13.839844 4.246094 13.882812 4.265625 13.894531 4.265625 C 14.078125 4.308594 14.054688 4.46875 14.027344 4.1875 C 14.21875 4.234375 14.1875 4.277344 14.167969 4.101562 C 14.355469 4.132812 14.324219 4.179688 14.300781 4.007812 C 14.488281 4.035156 14.449219 4.074219 14.414062 3.894531 C 14.59375 3.921875 14.554688 3.957031 14.527344 3.789062 C 14.71875 3.820312 14.683594 3.859375 14.648438 3.675781 C 14.820312 3.707031 14.789062 3.746094 14.765625 3.578125 C 14.972656 3.621094 14.929688 3.660156 14.878906 3.460938 C 15.101562 3.503906 15.054688 3.535156 14.972656 3.324219 L 15.101562 3.234375 C 15.117188 3.222656 15.148438 3.199219 15.164062 3.183594 C 15.183594 3.171875 15.207031 3.148438 15.226562 3.132812 L 15.46875 2.921875 C 15.484375 2.90625 15.511719 2.886719 15.527344 2.867188 C 15.546875 2.851562 15.570312 2.828125 15.585938 2.8125 L 15.742188 2.542969 C 15.945312 2.757812 15.953125 2.683594 16.085938 2.910156 C 15.757812 3.347656 15.699219 3.144531 15.464844 3.585938 C 15.265625 3.535156 15.300781 3.5 15.351562 3.691406 C 15.140625 3.636719 15.179688 3.601562 15.234375 3.800781 C 15.023438 3.742188 15.050781 3.699219 15.113281 3.902344 C 14.882812 3.839844 14.917969 3.796875 14.992188 4.015625 C 14.773438 3.953125 14.804688 3.910156 14.871094 4.117188 C 14.652344 4.050781 14.691406 4.015625 14.757812 4.226562 C 14.539062 4.164062 14.574219 4.128906 14.644531 4.339844 C 14.414062 4.269531 14.457031 4.242188 14.542969 4.457031 C 14.328125 4.519531 14.398438 4.363281 14.296875 4.539062 L 14.476562 4.992188 C 14.148438 5.207031 13.78125 5.246094 13.257812 5.308594 L 13.441406 4.457031 L 13.242188 4.484375 L 13.019531 5.542969 L 14.382812 5.246094 L 14.4375 5.1875 L 14.765625 5.105469 L 14.691406 4.96875 C 14.578125 4.894531 14.527344 5.058594 14.539062 4.78125 L 14.542969 4.457031 C 14.765625 4.539062 14.710938 4.558594 14.644531 4.339844 C 14.863281 4.402344 14.824219 4.4375 14.757812 4.226562 C 14.976562 4.292969 14.9375 4.328125 14.871094 4.117188 C 15.09375 4.179688 15.066406 4.226562 14.992188 4.015625 C 15.210938 4.078125 15.171875 4.117188 15.113281 3.902344 C 15.328125 3.964844 15.292969 4.007812 15.234375 3.800781 C 15.441406 3.859375 15.398438 3.894531 15.351562 3.691406 C 15.558594 3.742188 15.527344 3.78125 15.464844 3.585938 C 15.496094 3.578125 15.535156 3.566406 15.554688 3.5625 C 15.578125 3.558594 15.628906 3.546875 15.652344 3.542969 C 15.976562 3.476562 15.472656 3.554688 15.863281 3.515625 C 15.988281 3.125 16.03125 3.246094 16.347656 2.964844 C 16.101562 2.5625 16.109375 2.511719 15.644531 2.429688 Z M 6.636719 5.621094 C 6.628906 5.757812 6.605469 5.707031 6.644531 5.839844 C 6.652344 5.863281 6.671875 5.910156 6.679688 5.929688 C 6.6875 5.953125 6.710938 5.984375 6.726562 6.011719 C 7.097656 5.453125 7.109375 5.921875 7.105469 4.730469 C 7.101562 4.15625 7.011719 3.488281 7.238281 3.183594 C 7.757812 3.238281 7.65625 2.90625 7.628906 4.730469 C 7.609375 5.886719 7.644531 5.417969 7.898438 5.867188 L 8 6.164062 L 8.179688 5.8125 L 7.957031 5.644531 C 7.679688 5.640625 7.78125 5.550781 7.730469 5.199219 L 7.753906 5.0625 L 7.734375 4.839844 C 7.734375 4.40625 7.664062 4.371094 7.859375 4.050781 C 7.742188 3.609375 7.859375 3.214844 7.667969 3.070312 C 6.933594 2.84375 6.933594 3.097656 6.933594 3.730469 C 6.9375 4.308594 6.953125 4.929688 6.910156 5.503906 Z M 7.683594 6.753906 L 7.902344 6.210938 C 7.902344 6.210938 7.835938 6.121094 7.703125 6.386719 C 7.6875 6.410156 7.652344 6.503906 7.648438 6.53125 C 7.609375 6.761719 7.589844 6.574219 7.683594 6.753906 Z M 6.859375 6.273438 L 6.855469 6.609375 L 6.996094 6.722656 C 7.289062 7.035156 7.113281 6.988281 7.398438 7.101562 L 7.585938 6.792969 C 7.570312 6.789062 7.542969 6.769531 7.539062 6.789062 C 7.53125 6.804688 7.492188 6.789062 7.484375 6.792969 C 7.464844 6.796875 7.296875 6.847656 7.253906 6.863281 C 7.078125 6.429688 7.230469 6.523438 6.859375 6.273438 Z M 18.757812 8.554688 L 18.980469 8.734375 L 19.046875 8.839844 C 19.070312 8.855469 19.105469 8.875 19.117188 8.882812 C 19.128906 8.890625 19.167969 8.921875 19.179688 8.929688 C 19.1875 8.9375 19.21875 9 19.226562 8.984375 C 19.230469 8.96875 19.25 9.019531 19.261719 9.035156 C 19.496094 9.503906 19.25 9.179688 19.535156 9.261719 C 19.570312 9.476562 19.570312 9.433594 19.601562 9.511719 C 19.683594 9.726562 19.609375 9.519531 19.734375 9.761719 C 20.257812 9.425781 19.992188 9.570312 20.074219 9.394531 C 20.5 9.554688 20.753906 9.75 21.234375 9.710938 C 21.253906 9.726562 21.289062 9.726562 21.300781 9.761719 L 21.882812 10.144531 L 21.953125 10.140625 L 22.515625 10.273438 L 22.675781 10.027344 L 22.738281 10 L 22.820312 9.605469 L 22.484375 9.457031 L 22.445312 9.386719 L 21.703125 9.101562 L 21.671875 9.050781 L 21.34375 8.976562 L 21.273438 8.980469 L 22.621094 9.65625 C 22.523438 10.070312 22.695312 9.761719 22.429688 10.0625 L 21.234375 9.710938 L 20.828125 9.421875 C 19.984375 9.015625 20.039062 9.242188 19.773438 9.449219 C 19.585938 8.980469 19.808594 9.339844 19.535156 9.261719 C 19.378906 8.773438 19.234375 8.921875 19.0625 8.417969 L 19.789062 8.277344 L 19.347656 8.222656 C 18.644531 8.308594 18.957031 8.132812 18.757812 8.554688 Z M 6.621094 18.246094 L 6.621094 18.273438 L 6.238281 18.460938 L 6.621094 18.273438 L 6.914062 18.308594 C 6.929688 17.609375 6.871094 18.101562 7.046875 17.898438 L 8.109375 18.265625 C 7.960938 18.609375 8.125 18.355469 7.960938 18.554688 L 7.214844 19.089844 L 7.027344 18.847656 C 6.824219 18.859375 6.648438 18.859375 6.46875 18.882812 C 6.367188 18.894531 6.304688 18.894531 6.191406 18.933594 C 5.773438 19.082031 6.105469 18.960938 5.929688 19.085938 L 6.25 19.113281 L 6.976562 18.980469 L 7.042969 19.222656 L 7.050781 19.425781 L 7.171875 19.351562 L 7.304688 19.261719 L 7.433594 19.175781 C 8.09375 18.445312 8.15625 18.777344 8.390625 18.199219 L 6.929688 17.765625 L 6.6875 17.667969 C 6.765625 17.964844 6.75 17.863281 6.738281 18.074219 C 6.734375 18.101562 6.691406 18.179688 6.6875 18.164062 C 6.6875 18.152344 6.640625 18.21875 6.621094 18.246094 Z M 19.535156 16.113281 L 20.160156 16.074219 L 20.21875 16.222656 L 20.160156 16.074219 L 19.699219 15.878906 C 19.78125 14.867188 19.667969 14.980469 20.03125 14.671875 L 19.789062 14.550781 C 19.664062 14.691406 19.679688 14.589844 19.621094 14.875 C 19.617188 14.882812 19.601562 15.207031 19.601562 15.242188 C 19.585938 15.535156 19.554688 15.824219 19.535156 16.113281 Z M 21 15.601562 L 21.125 15.382812 C 20.960938 15.328125 21.109375 15.410156 20.929688 15.292969 C 20.90625 15.28125 20.828125 15.21875 20.808594 15.199219 C 20.777344 15.175781 20.632812 15.058594 20.601562 15.039062 L 20.078125 14.761719 C 19.8125 15.015625 19.996094 14.851562 20.410156 15.152344 C 20.65625 15.328125 20.757812 15.429688 21 15.601562 Z M 20.804688 16.082031 L 20.796875 15.847656 C 20.796875 15.507812 20.730469 15.761719 20.992188 15.640625 C 20.53125 15.472656 20.570312 15.832031 20.804688 16.082031 Z M 13.964844 21.757812 L 13.761719 21.699219 C 13.886719 22.148438 13.875 21.882812 13.601562 21.996094 C 13.703125 22.371094 13.601562 22.5 13.585938 22.9375 L 14.390625 23.078125 L 14.582031 21.851562 L 14.527344 21.507812 C 14.515625 21.542969 14.492188 21.582031 14.484375 21.613281 L 14.359375 22.289062 C 14.304688 22.605469 14.328125 22.6875 14.132812 22.902344 L 13.902344 22.847656 C 13.679688 22.472656 13.894531 22.230469 13.964844 21.757812 Z M 5.507812 19.320312 L 5.765625 19.058594 C 4.972656 19.160156 4.878906 19.351562 4.4375 19.191406 L 4.390625 18.828125 C 4.53125 18.796875 4.757812 18.785156 4.902344 18.757812 C 5.191406 18.703125 4.90625 18.785156 5.199219 18.675781 L 5.398438 18.542969 L 4.773438 18.550781 L 4.1875 18.6875 C 4.375 19.953125 4.414062 19.316406 5.507812 19.320312 Z M 20.808594 17.460938 L 20.789062 17.648438 C 20.867188 17.789062 21.03125 18.136719 21.140625 18.394531 L 21.574219 18.296875 L 21.59375 18.242188 L 21.890625 18.160156 L 21.59375 17.351562 L 21.523438 17.316406 L 21.277344 16.753906 C 20.910156 16.507812 21.226562 16.960938 21.113281 16.660156 C 21.097656 16.621094 21.058594 16.628906 21.035156 16.609375 C 21.457031 17.8125 21.929688 17.933594 21.4375 18.144531 C 21.191406 18.253906 21.265625 18.164062 21.171875 18.070312 Z M 1.351562 11.15625 C 1.617188 11.203125 1.308594 11.230469 1.566406 11.113281 C 1.574219 11.109375 1.832031 10.972656 1.921875 10.929688 L 1.515625 10.824219 Z M 2.175781 11.015625 L 1.941406 10.980469 L 1.785156 11.128906 Z M 2.292969 11.257812 C 2.308594 11.277344 2.332031 11.285156 2.339844 11.320312 C 2.351562 11.351562 2.382812 11.367188 2.394531 11.375 C 2.566406 11.472656 2.445312 11.421875 2.640625 11.476562 L 2.800781 11.558594 C 2.800781 11.378906 2.835938 11.429688 2.640625 11.476562 L 2.644531 11.320312 C 2.453125 11.222656 2.625 11.28125 2.292969 11.257812 C 2.445312 11.113281 2.414062 11.1875 2.1875 11.070312 L 1.980469 11.265625 Z M 1.398438 11.601562 C 1.648438 11.382812 1.5 11.550781 1.414062 11.457031 L 1.285156 11.199219 C 1.097656 11.691406 1.257812 11.515625 1.398438 11.601562 Z M 2.546875 12.109375 C 2.484375 12.292969 2.429688 12.265625 2.613281 12.253906 L 2.851562 12.238281 C 2.722656 12.058594 3.085938 12.007812 2.546875 12.109375 C 2.492188 12.054688 2.53125 12.046875 2.363281 11.941406 C 2.125 11.789062 2.039062 11.835938 1.75 11.578125 L 1.441406 11.667969 C 1.933594 11.847656 2.042969 12.070312 2.546875 12.109375 Z M 3.679688 12.039062 L 4.246094 11.875 C 4.476562 12.347656 4.699219 12.554688 4.832031 12.980469 L 3.578125 12.898438 L 3.53125 13.042969 L 4.238281 13.128906 L 5.078125 13.101562 C 4.984375 12.699219 4.871094 12.683594 4.675781 12.320312 L 4.59375 12.292969 L 4.457031 11.953125 L 4.375 11.96875 L 4.371094 11.796875 L 4.257812 11.78125 C 3.789062 12.011719 4.257812 11.863281 3.679688 12.039062 Z M 14.355469 19.417969 L 14.269531 19.539062 C 13.652344 19.863281 14.0625 19.925781 13.613281 20.230469 L 13.878906 20.351562 L 13.992188 20.351562 C 13.867188 20.214844 13.964844 20.214844 13.90625 20.074219 L 14.269531 19.539062 C 14.476562 19.605469 14.421875 19.621094 14.355469 19.417969 C 14.578125 19.335938 14.429688 19.5 14.667969 19.238281 C 14.921875 19.621094 14.832031 19.707031 15.027344 20.109375 L 15.125 20.28125 L 15.167969 20.039062 C 15.03125 19.613281 14.984375 19.257812 14.660156 18.953125 Z M 14.355469 19.417969 "/>
<path style=" stroke:none;fill-rule:evenodd;fill:rgb(27.843137%,86.27451%,96.078431%);fill-opacity:1;" d="M 19.050781 8.839844 L 18.980469 8.734375 L 19.050781 8.839844 L 19.261719 9.035156 C 19.25 9.019531 19.230469 8.96875 19.226562 8.984375 C 19.21875 9 19.1875 8.9375 19.179688 8.929688 C 19.167969 8.921875 19.128906 8.890625 19.117188 8.882812 C 19.105469 8.875 19.070312 8.855469 19.050781 8.839844 Z M 19.535156 9.261719 C 19.808594 9.339844 19.585938 8.980469 19.773438 9.449219 C 20.039062 9.242188 19.984375 9.015625 20.828125 9.421875 L 21.234375 9.710938 L 22.429688 10.0625 C 22.695312 9.761719 22.523438 10.070312 22.621094 9.65625 L 21.273438 8.980469 C 20.316406 8.871094 20.320312 8.398438 20.222656 8.242188 L 19.789062 8.277344 L 19.0625 8.417969 C 19.234375 8.921875 19.378906 8.773438 19.535156 9.261719 Z M 21.675781 9.050781 L 21.703125 9.101562 Z M 22.445312 9.386719 L 22.484375 9.457031 Z M 22.738281 10 L 22.675781 10.027344 Z M 1.351562 11.15625 L 1.285156 11.199219 L 1.414062 11.460938 C 1.496094 11.550781 1.648438 11.382812 1.398438 11.601562 L 1.441406 11.671875 L 1.75 11.578125 C 2.039062 11.835938 2.125 11.789062 2.363281 11.941406 C 2.53125 12.046875 2.492188 12.054688 2.546875 12.113281 C 3.085938 12.007812 2.722656 12.058594 2.851562 12.238281 C 3.335938 12.492188 3.53125 12.410156 3.578125 12.898438 L 4.832031 12.980469 C 4.699219 12.554688 4.476562 12.347656 4.246094 11.875 L 3.679688 12.039062 L 2.800781 11.558594 L 2.640625 11.476562 C 2.445312 11.421875 2.566406 11.472656 2.394531 11.375 C 2.382812 11.367188 2.351562 11.351562 2.339844 11.320312 C 2.332031 11.285156 2.308594 11.277344 2.292969 11.257812 L 1.980469 11.265625 L 2.1875 11.070312 L 2.175781 11.015625 L 1.785156 11.128906 L 1.941406 10.980469 L 1.921875 10.929688 C 1.832031 10.972656 1.574219 11.109375 1.566406 11.113281 C 1.308594 11.230469 1.617188 11.203125 1.351562 11.15625 Z M 4.375 11.96875 L 4.457031 11.953125 Z M 4.59375 12.292969 L 4.675781 12.320312 Z M 6.726562 6.011719 L 6.859375 6.273438 C 7.230469 6.523438 7.078125 6.429688 7.253906 6.863281 C 7.296875 6.847656 7.464844 6.796875 7.484375 6.792969 C 7.492188 6.789062 7.53125 6.804688 7.539062 6.789062 C 7.542969 6.769531 7.570312 6.789062 7.585938 6.792969 L 7.683594 6.753906 C 7.589844 6.574219 7.609375 6.761719 7.648438 6.53125 C 7.652344 6.503906 7.691406 6.410156 7.703125 6.386719 C 7.835938 6.121094 7.902344 6.210938 7.902344 6.210938 L 8 6.164062 L 7.898438 5.867188 C 7.644531 5.417969 7.609375 5.886719 7.628906 4.730469 C 7.65625 2.90625 7.757812 3.238281 7.238281 3.183594 C 7.011719 3.488281 7.101562 4.15625 7.105469 4.730469 C 7.109375 5.921875 7.097656 5.453125 6.726562 6.011719 Z M 14.355469 19.417969 C 14.421875 19.621094 14.476562 19.605469 14.269531 19.539062 L 13.90625 20.074219 C 13.964844 20.214844 13.867188 20.214844 13.992188 20.351562 C 14.148438 20.480469 14.078125 20.101562 14.101562 20.617188 C 14.109375 20.738281 14.066406 20.867188 14.042969 20.988281 C 13.96875 21.363281 13.945312 21.386719 13.964844 21.757812 C 13.894531 22.230469 13.679688 22.472656 13.902344 22.847656 L 14.132812 22.902344 C 14.328125 22.6875 14.304688 22.605469 14.359375 22.289062 L 14.484375 21.613281 C 14.492188 21.582031 14.511719 21.542969 14.527344 21.507812 L 14.726562 20.507812 C 14.84375 20.46875 14.835938 20.503906 14.957031 20.441406 C 15.199219 20.320312 15.03125 20.515625 15.125 20.28125 L 15.027344 20.109375 C 14.832031 19.707031 14.921875 19.621094 14.667969 19.238281 C 14.429688 19.5 14.578125 19.335938 14.355469 19.417969 Z M 20.160156 16.074219 L 20.21875 16.222656 L 20.808594 17.460938 L 21.171875 18.070312 C 21.265625 18.164062 21.191406 18.253906 21.4375 18.144531 C 21.929688 17.933594 21.457031 17.8125 21.035156 16.609375 L 20.804688 16.082031 C 20.570312 15.832031 20.53125 15.472656 20.992188 15.640625 L 21 15.601562 C 20.757812 15.429688 20.65625 15.328125 20.410156 15.152344 C 19.996094 14.851562 19.8125 15.015625 20.078125 14.761719 L 20.03125 14.671875 C 19.667969 14.980469 19.78125 14.867188 19.699219 15.878906 Z M 21.523438 17.316406 L 21.59375 17.351562 Z M 21.59375 18.238281 L 21.574219 18.296875 Z M 6.621094 18.273438 L 6.238281 18.460938 L 5.824219 18.390625 C 5.789062 18.542969 6.09375 18.492188 5.515625 18.523438 L 5.398438 18.542969 L 5.199219 18.675781 C 4.90625 18.785156 5.191406 18.703125 4.902344 18.757812 C 4.757812 18.785156 4.53125 18.796875 4.390625 18.828125 L 4.4375 19.191406 C 4.878906 19.351562 4.972656 19.160156 5.765625 19.058594 L 5.929688 19.085938 C 6.105469 18.960938 5.773438 19.082031 6.191406 18.933594 C 6.304688 18.894531 6.367188 18.894531 6.46875 18.882812 C 6.648438 18.859375 6.824219 18.859375 7.027344 18.847656 L 7.214844 19.089844 L 7.960938 18.554688 C 8.125 18.355469 7.960938 18.609375 8.109375 18.265625 L 7.046875 17.898438 C 6.867188 18.101562 6.929688 17.609375 6.914062 18.308594 Z M 14.542969 4.457031 C 14.457031 4.242188 14.414062 4.269531 14.644531 4.339844 C 14.574219 4.128906 14.539062 4.164062 14.757812 4.226562 C 14.691406 4.015625 14.652344 4.054688 14.871094 4.117188 C 14.804688 3.910156 14.773438 3.953125 14.992188 4.015625 C 14.917969 3.796875 14.882812 3.839844 15.113281 3.902344 C 15.050781 3.699219 15.023438 3.742188 15.234375 3.800781 C 15.179688 3.601562 15.140625 3.636719 15.351562 3.691406 C 15.300781 3.5 15.265625 3.535156 15.464844 3.585938 C 15.699219 3.144531 15.757812 3.347656 16.085938 2.910156 C 15.953125 2.683594 15.945312 2.757812 15.742188 2.542969 L 15.585938 2.8125 C 15.570312 2.828125 15.546875 2.851562 15.527344 2.867188 C 15.511719 2.886719 15.484375 2.90625 15.46875 2.921875 L 15.226562 3.132812 C 15.207031 3.148438 15.183594 3.171875 15.164062 3.1875 C 15.148438 3.199219 15.117188 3.222656 15.101562 3.234375 L 14.972656 3.328125 C 15.054688 3.535156 15.101562 3.503906 14.878906 3.460938 C 14.929688 3.660156 14.972656 3.621094 14.765625 3.578125 C 14.789062 3.746094 14.820312 3.707031 14.648438 3.675781 C 14.683594 3.859375 14.71875 3.820312 14.527344 3.789062 C 14.554688 3.957031 14.589844 3.921875 14.414062 3.894531 C 14.449219 4.074219 14.488281 4.035156 14.300781 4.011719 C 14.324219 4.179688 14.355469 4.132812 14.167969 4.101562 C 14.1875 4.277344 14.21875 4.234375 14.027344 4.1875 C 14.054688 4.46875 14.078125 4.308594 13.894531 4.265625 C 13.882812 4.265625 13.839844 4.246094 13.828125 4.242188 C 13.816406 4.238281 13.78125 4.210938 13.761719 4.1875 C 13.574219 4.230469 13.621094 4.265625 13.621094 4.078125 L 13.441406 4.457031 L 13.257812 5.308594 C 13.78125 5.246094 14.152344 5.207031 14.476562 4.992188 L 14.296875 4.539062 C 14.398438 4.363281 14.332031 4.519531 14.542969 4.457031 Z M 14.765625 5.105469 L 14.691406 4.96875 L 14.539062 4.78125 C 14.527344 5.058594 14.578125 4.894531 14.691406 4.96875 Z M 14.4375 5.1875 L 14.382812 5.246094 Z M 15.140625 2.949219 C 15.328125 2.96875 15.296875 3.015625 15.269531 2.839844 C 15.4375 2.859375 15.398438 2.894531 15.378906 2.730469 C 15.554688 2.753906 15.511719 2.789062 15.496094 2.617188 C 15.671875 2.640625 15.636719 2.675781 15.609375 2.507812 L 15.644531 2.429688 L 15.609375 2.507812 L 15.496094 2.617188 L 15.378906 2.730469 L 15.269531 2.839844 L 15.140625 2.949219 L 14.945312 3.140625 C 15.128906 3.070312 15.054688 3.121094 15.140625 2.949219 Z M 15.140625 2.949219 "/>
<path style=" stroke:none;fill-rule:evenodd;fill:rgb(70.196078%,66.666667%,32.54902%);fill-opacity:1;" d="M 23.152344 17.332031 C 23.351562 17.53125 23.332031 17.613281 23.757812 16.378906 C 24.078125 15.453125 24.304688 14.421875 24.402344 13.457031 C 24.488281 12.589844 24.503906 12.105469 24.253906 11.738281 C 24.222656 14.179688 24 15.265625 23.152344 17.332031 Z M 23.046875 17.5625 C 23.265625 17.609375 23.332031 17.914062 23.105469 17.347656 Z M 22.816406 18.011719 C 23.09375 18.046875 22.855469 18.355469 23.023438 17.902344 C 23.140625 17.582031 23.121094 17.871094 22.996094 17.574219 Z M 21.804688 19.554688 C 21.59375 19.941406 21.761719 19.628906 21.871094 19.820312 L 22.863281 18.34375 L 22.761719 18.007812 C 22.445312 18.796875 22.203125 18.929688 21.804688 19.554688 Z M 21.449219 19.976562 C 20.910156 20.550781 20.671875 20.8125 20.050781 21.363281 C 20.429688 21.242188 20.050781 21.394531 20.304688 21.253906 C 20.660156 21.058594 21.539062 20.113281 21.601562 19.96875 C 21.707031 19.734375 21.773438 20.054688 21.617188 19.703125 C 21.5 19.933594 21.636719 19.8125 21.449219 19.976562 Z M 16.464844 23.304688 C 16.78125 23.414062 16.546875 23.53125 17.480469 23.082031 C 18.371094 22.65625 19.082031 22.242188 19.75 21.707031 C 20.0625 21.457031 20.019531 21.644531 20.007812 21.363281 C 19.65625 21.570312 19.578125 21.671875 19.242188 21.898438 L 17.976562 22.652344 C 17.808594 22.734375 17.691406 22.789062 17.523438 22.878906 C 17.03125 23.136719 17.0625 23.136719 16.464844 23.304688 Z M 7.351562 22.875 C 6.996094 23.261719 7.144531 22.90625 7.484375 23.148438 L 9.164062 23.75 C 10.660156 24.199219 12.800781 24.316406 14.335938 24.039062 L 16.109375 23.628906 C 16.8125 23.390625 16.546875 23.59375 16.460938 23.335938 C 14.222656 24.074219 11.738281 24.21875 9.398438 23.613281 C 8.878906 23.480469 7.839844 23.15625 7.351562 22.875 Z M 6.304688 22.335938 C 5.992188 22.703125 6.207031 22.367188 6.382812 22.566406 C 6.386719 22.574219 6.640625 22.75 6.640625 22.75 C 7.03125 22.953125 7.039062 22.949219 7.351562 22.828125 Z M 5.617188 21.90625 C 5.570312 22.164062 5.332031 21.949219 5.808594 22.230469 C 6.242188 22.488281 6 22.414062 6.320312 22.269531 C 5.878906 22.121094 5.976562 22.132812 5.617188 21.90625 Z M 3.316406 19.929688 L 5.195312 21.820312 C 5.519531 21.953125 5.191406 21.992188 5.625 21.820312 C 5.269531 21.675781 5.554688 21.832031 5.253906 21.644531 C 4.589844 21.226562 3.714844 20.164062 3.316406 19.929688 Z M 21.472656 4.949219 L 21.503906 5.070312 C 21.695312 4.882812 21.589844 5.003906 21.472656 4.949219 Z M 21.925781 5.691406 C 22.136719 5.417969 22.054688 5.570312 21.902344 5.324219 C 21.710938 5.019531 21.695312 5.105469 21.605469 5.125 L 21.882812 5.601562 C 21.894531 5.621094 21.914062 5.660156 21.925781 5.691406 Z M 22.515625 6.597656 L 22.664062 6.28125 C 22.441406 6.074219 22.464844 6.054688 22.339844 5.898438 C 22.074219 5.570312 22.238281 5.683594 22.035156 5.710938 L 22.511719 6.597656 Z M 24.132812 11.132812 L 24.351562 11.21875 C 24.152344 9.671875 23.777344 8.292969 23 6.9375 C 22.640625 6.308594 22.882812 6.511719 22.585938 6.585938 C 23.332031 8.21875 23.902344 9.023438 24.132812 11.132812 Z M 14.269531 24.597656 L 13.800781 24.539062 C 12.917969 24.59375 12.601562 24.65625 11.601562 24.582031 C 11.199219 24.550781 11.171875 24.492188 10.90625 24.597656 C 11.523438 24.898438 11.636719 24.824219 12.527344 24.820312 C 12.929688 24.820312 14.015625 24.707031 14.269531 24.597656 Z M 5.375 22.5 C 5.179688 22.339844 5.132812 22.273438 4.875 22.109375 C 3.421875 21.179688 2.578125 19.695312 1.953125 19.027344 C 2.015625 19.296875 1.949219 19.121094 2.042969 19.3125 C 2.265625 19.761719 3.191406 20.78125 3.570312 21.167969 C 3.960938 21.574219 4.84375 22.367188 5.375 22.5 Z M 5.1875 2.523438 C 5.277344 2.628906 5.796875 2.175781 5.90625 2.082031 C 5.421875 2.171875 5.390625 2.183594 5.1875 2.523438 Z M 5.1875 2.523438 "/>
<path style=" stroke:none;fill-rule:evenodd;fill:rgb(78.039216%,8.235294%,15.294118%);fill-opacity:1;" d="M 12.457031 3.78125 C 12.210938 3.695312 12.242188 3.652344 12.335938 3.890625 C 12.09375 3.804688 12.117188 3.757812 12.214844 3.984375 C 11.957031 3.902344 12.003906 3.871094 12.101562 4.113281 C 11.875 4.175781 11.96875 4.007812 11.945312 4.949219 C 11.898438 6.835938 12.4375 9.414062 10.101562 9.421875 C 10.046875 9.421875 9.679688 9.378906 9.648438 9.371094 C 8.933594 9.152344 9.484375 9.363281 9.320312 9.125 C 8.863281 9.21875 9.128906 9.183594 9.105469 9.007812 L 8.765625 9.015625 C 8.839844 8.785156 8.863281 8.839844 8.625 8.917969 C 8.574219 8.652344 8.785156 8.882812 8.476562 8.617188 C 8.304688 8.464844 8.265625 8.503906 8.058594 8.472656 C 8.15625 8.230469 8.179688 8.28125 7.929688 8.375 C 7.851562 8.128906 8.039062 8.316406 7.820312 8.144531 C 7.59375 7.960938 7.78125 8.070312 7.484375 8.03125 C 7.578125 7.796875 7.589844 7.863281 7.347656 7.945312 C 7.265625 7.652344 7.457031 7.898438 7.238281 7.710938 C 7.121094 7.609375 7.085938 7.621094 6.914062 7.578125 C 6.992188 7.359375 7.011719 7.414062 6.785156 7.492188 C 6.859375 7.257812 6.871094 7.332031 6.628906 7.417969 C 6.71875 7.1875 6.738281 7.246094 6.492188 7.320312 C 6.570312 7.101562 6.609375 7.140625 6.378906 7.195312 L 6.515625 6.925781 C 6.554688 6.691406 6.519531 6.941406 6.710938 6.859375 C 6.652344 6.675781 6.617188 6.71875 6.808594 6.726562 L 6.855469 6.609375 L 6.859375 6.273438 L 6.726562 6.011719 C 6.710938 5.984375 6.6875 5.953125 6.679688 5.929688 C 6.671875 5.910156 6.652344 5.859375 6.644531 5.839844 C 6.605469 5.707031 6.628906 5.757812 6.636719 5.621094 L 6.207031 5.175781 C 5.390625 5.515625 3.695312 7.757812 3.449219 8.714844 L 4.945312 9.195312 L 5.710938 7.765625 L 6.089844 7.691406 C 5.863281 7.546875 6.445312 7.488281 5.5625 7.554688 L 4.75 8.835938 L 3.851562 8.597656 C 4.054688 7.527344 5.5 6.046875 6.179688 5.503906 L 6.289062 5.9375 C 6.371094 6.117188 6.433594 6.242188 6.550781 6.386719 C 6.457031 6.605469 6.085938 6.804688 6.378906 7.195312 C 6.304688 7.429688 6.253906 7.402344 6.492188 7.320312 C 6.410156 7.558594 6.382812 7.503906 6.628906 7.417969 C 6.53125 7.671875 6.527344 7.59375 6.785156 7.492188 C 6.710938 7.699219 6.695312 7.640625 6.914062 7.578125 C 7.003906 7.894531 6.8125 7.609375 7.03125 7.804688 C 7.222656 7.96875 7.078125 7.886719 7.347656 7.945312 C 7.253906 8.175781 7.246094 8.109375 7.484375 8.03125 C 7.582031 8.300781 7.378906 8.050781 7.613281 8.238281 C 7.835938 8.417969 7.636719 8.308594 7.929688 8.375 C 7.832031 8.613281 7.8125 8.558594 8.058594 8.472656 C 8.148438 8.691406 8.03125 8.566406 8.238281 8.742188 C 8.441406 8.914062 8.417969 8.863281 8.625 8.917969 C 8.535156 9.152344 8.519531 9.089844 8.765625 9.015625 L 8.847656 9.15625 C 9.484375 9.828125 11.308594 9.816406 11.941406 8.472656 C 12.171875 7.980469 12.292969 4.710938 12.101562 4.113281 C 12.363281 4.203125 12.3125 4.234375 12.214844 3.984375 C 12.457031 4.078125 12.433594 4.125 12.335938 3.890625 C 12.582031 3.976562 12.546875 4.019531 12.457031 3.78125 L 12.519531 6.9375 C 12.511719 7.539062 12.425781 7.613281 12.746094 8.042969 L 12.730469 3.523438 C 12.46875 3.640625 12.636719 3.511719 12.457031 3.78125 Z M 10.59375 16.574219 C 10.210938 16.800781 10.03125 17.453125 9.839844 17.84375 L 9.644531 18.207031 C 9.347656 18.753906 8.929688 19.425781 8.964844 19.976562 C 9.421875 20.335938 10.527344 20.695312 11.238281 20.753906 L 11.226562 21.6875 C 9.886719 21.6875 8.164062 20.910156 7.378906 20.398438 C 7.445312 20.222656 7.675781 19.894531 7.761719 19.792969 C 8.054688 19.449219 8.214844 19.597656 8.246094 19.496094 C 8.257812 19.464844 8.296875 19.476562 8.3125 19.457031 L 8.15625 19.292969 L 7.742188 19.242188 C 7.796875 19.433594 7.851562 19.394531 7.671875 19.410156 L 7.613281 19.5625 L 7.53125 19.703125 C 7.402344 19.898438 7.546875 19.695312 7.402344 19.894531 C 7.269531 20.074219 7.378906 19.902344 7.25 20.089844 C 7.015625 20.417969 7.148438 20.214844 7.015625 20.515625 C 7.292969 20.636719 7.609375 20.878906 7.960938 21.050781 C 8.972656 21.542969 10.328125 21.949219 11.515625 22.035156 L 11.484375 20.515625 C 11.246094 20.429688 9.59375 20.027344 9.40625 20 C 9.160156 19.921875 9.21875 19.949219 9.007812 19.925781 C 9.078125 19.664062 8.996094 19.769531 9.15625 19.488281 C 9.300781 19.230469 9.136719 19.480469 9.34375 19.316406 L 9.992188 17.972656 C 10.148438 17.683594 10.121094 17.75 10.21875 17.425781 L 10.59375 16.574219 C 10.976562 16.390625 10.886719 16.269531 11.355469 15.976562 C 12.492188 15.269531 13.488281 15.972656 14.132812 16.808594 C 14.148438 16.789062 14.15625 16.75 14.160156 16.738281 C 14.316406 15.535156 11.039062 14.9375 10.59375 16.574219 Z M 17.816406 6.386719 L 17.820312 6.445312 L 18.144531 7.320312 L 18.484375 7.117188 C 18.683594 6.777344 18.359375 6.527344 18.128906 6.277344 L 18.722656 5.496094 L 20.089844 6.949219 C 20.273438 7.171875 21.179688 8.398438 20.984375 8.652344 L 20.667969 7.96875 C 18.882812 7.894531 19.878906 7.863281 19.257812 7.519531 C 19.15625 7.460938 19.148438 7.320312 18.757812 7.46875 L 18.554688 7.65625 C 18.328125 7.582031 18.367188 7.542969 18.433594 7.765625 C 18.21875 7.695312 18.253906 7.65625 18.316406 7.867188 C 18.101562 7.808594 18.140625 7.769531 18.195312 7.976562 C 17.988281 7.917969 18.027344 7.878906 18.074219 8.078125 C 17.875 8.03125 17.914062 7.996094 17.957031 8.1875 C 17.761719 8.140625 17.800781 8.105469 17.835938 8.292969 C 17.617188 8.246094 17.695312 8.222656 17.695312 8.464844 C 17.910156 8.417969 17.875 8.484375 17.835938 8.292969 C 18.035156 8.332031 18.003906 8.375 17.957031 8.1875 C 18.15625 8.230469 18.121094 8.269531 18.074219 8.078125 C 18.285156 8.128906 18.25 8.171875 18.195312 7.976562 C 18.414062 8.035156 18.378906 8.074219 18.316406 7.867188 C 18.53125 7.925781 18.503906 7.96875 18.433594 7.765625 C 18.664062 7.832031 18.632812 7.875 18.554688 7.65625 L 18.988281 7.570312 L 19.3125 8.070312 L 20.503906 8.097656 C 20.628906 8.644531 20.433594 8.546875 20.984375 8.652344 L 21.25 8.808594 L 21.390625 8.628906 C 21.191406 8.019531 20.621094 7.09375 20.265625 6.675781 C 19.773438 6.097656 19.308594 5.371094 18.589844 5.136719 C 18.355469 5.679688 18.042969 5.832031 17.816406 6.386719 Z M 20.546875 11.445312 C 20.714844 11.734375 20.695312 11.875 20.707031 12.234375 C 20.714844 12.53125 20.714844 12.832031 20.6875 13.128906 C 20.652344 13.476562 20.796875 13.851562 19.964844 13.601562 C 19.6875 13.519531 20.101562 13.660156 19.78125 13.53125 C 19.757812 13.523438 19.710938 13.523438 19.695312 13.484375 C 19.679688 13.445312 19.640625 13.449219 19.609375 13.433594 L 19.304688 13.472656 C 19.539062 13.746094 19.273438 13.550781 19.621094 13.707031 C 19.851562 13.808594 20.699219 14.015625 20.910156 13.421875 C 21.125 12.824219 20.867188 11.332031 20.785156 10.761719 C 21.132812 10.53125 21.390625 10.578125 21.664062 10.429688 C 22.085938 11.191406 22.082031 13.578125 21.699219 14.328125 L 20.511719 14.320312 L 20.945312 14.554688 C 20.960938 14.566406 20.996094 14.582031 21.019531 14.601562 C 21.492188 14.5625 21.527344 14.664062 22.011719 14.734375 C 22.289062 13.054688 22.34375 11.792969 21.953125 10.140625 L 21.882812 10.144531 L 20.507812 10.574219 Z M 20.546875 11.445312 "/>
<path style=" stroke:none;fill-rule:evenodd;fill:rgb(78.039216%,8.235294%,15.294118%);fill-opacity:1;" d="M 8.273438 5.21875 C 8.035156 4.941406 7.734375 4.28125 8.398438 4.007812 C 9.023438 3.75 10.820312 3.15625 11.40625 3.257812 L 11.414062 4.214844 C 11.035156 4.367188 10.277344 4.410156 9.046875 4.890625 C 8.648438 5.046875 8.628906 5.113281 8.273438 5.21875 Z M 7.859375 4.050781 C 7.664062 4.371094 7.734375 4.40625 7.734375 4.839844 L 7.753906 5.0625 C 8.058594 5.0625 8.015625 4.976562 7.988281 5.226562 L 8.042969 5.390625 L 8.132812 5.519531 L 8.777344 5.292969 C 9.515625 4.953125 10.742188 4.429688 11.695312 4.546875 L 11.722656 2.953125 C 10.808594 2.917969 9.007812 3.375 8.164062 3.851562 L 8.023438 3.929688 C 7.804688 4.066406 7.996094 3.925781 7.859375 4.050781 Z M 4.253906 15.445312 L 4.40625 15.601562 C 4.875 16.089844 5.085938 16.941406 5.46875 17.246094 C 5.746094 17.460938 5.316406 17.246094 5.71875 17.34375 C 5.609375 17.871094 5.6875 17.632812 5.953125 17.664062 C 5.839844 17.925781 5.792969 17.894531 6.066406 17.78125 C 5.984375 18.164062 6.164062 18.046875 5.054688 18.28125 C 4.46875 17.878906 3.941406 16.683594 3.613281 15.988281 C 3.914062 15.757812 3.882812 15.976562 4.136719 15.558594 C 4.097656 15.566406 3.597656 15.65625 3.570312 15.671875 C 3.203125 15.847656 3.277344 15.589844 3.304688 16.097656 L 3.269531 16.144531 C 3.582031 16.359375 3.382812 16.292969 3.542969 16.652344 C 3.734375 16.839844 3.898438 17.257812 4.101562 17.566406 C 4.339844 17.929688 4.601562 18.253906 4.773438 18.550781 L 5.398438 18.542969 L 5.515625 18.523438 C 5.65625 18.328125 5.359375 18.273438 5.824219 18.390625 C 5.851562 18.375 5.886719 18.320312 5.898438 18.34375 L 6.203125 18.25 C 6.445312 18.050781 6.28125 18.265625 6.359375 17.933594 C 6.15625 17.753906 6.234375 17.84375 6.066406 17.78125 C 6.121094 17.589844 6.15625 17.628906 5.953125 17.664062 L 6.007812 17.554688 L 5.917969 17.390625 C 5.890625 17.109375 5.925781 17.375 5.71875 17.34375 C 5.664062 16.964844 5.355469 16.644531 5.183594 16.308594 C 5.09375 16.132812 5.019531 15.980469 4.921875 15.789062 C 4.734375 15.40625 4.839844 15.460938 4.523438 15.320312 Z M 15.464844 3.585938 C 15.527344 3.78125 15.558594 3.742188 15.351562 3.691406 C 15.398438 3.894531 15.441406 3.859375 15.234375 3.800781 C 15.292969 4.007812 15.328125 3.964844 15.113281 3.902344 C 15.171875 4.117188 15.210938 4.078125 14.992188 4.015625 C 15.066406 4.226562 15.09375 4.179688 14.871094 4.117188 C 14.9375 4.328125 14.976562 4.292969 14.757812 4.226562 C 14.824219 4.4375 14.863281 4.40625 14.644531 4.339844 C 14.710938 4.558594 14.765625 4.539062 14.542969 4.457031 L 14.539062 4.78125 C 14.960938 4.835938 14.484375 4.691406 15.121094 4.886719 C 15.414062 4.976562 15.292969 4.9375 15.53125 5.082031 L 16.441406 5.507812 C 16.945312 5.414062 16.609375 5.542969 16.894531 5.277344 C 16.917969 5.253906 16.972656 5.175781 16.992188 5.148438 C 17.171875 4.972656 17.03125 5.109375 17.191406 4.984375 L 17.617188 4.355469 L 16.890625 3.984375 C 17.054688 4.582031 16.890625 4.035156 17.125 4.441406 L 16.539062 5.164062 L 15.019531 4.5625 C 15.324219 4.269531 15.511719 4.019531 15.96875 3.816406 C 16.265625 3.9375 15.898438 3.921875 16.355469 3.96875 C 16.78125 4.015625 16.550781 4.078125 16.703125 3.855469 L 15.863281 3.515625 C 15.46875 3.554688 15.976562 3.476562 15.652344 3.542969 C 15.628906 3.546875 15.578125 3.558594 15.554688 3.5625 C 15.535156 3.566406 15.492188 3.578125 15.464844 3.585938 Z M 11.769531 11.019531 C 13.765625 10.28125 14.734375 13.109375 12.933594 13.84375 C 11.003906 14.632812 9.5625 11.832031 11.769531 11.019531 Z M 14.023438 12.898438 C 14.667969 10.707031 11.175781 9.878906 10.546875 11.957031 C 9.882812 14.148438 13.390625 15.039062 14.023438 12.898438 Z M 18.132812 18.75 C 18.328125 18.453125 18.761719 18.0625 19.050781 17.726562 C 19.40625 17.308594 19.570312 16.972656 19.875 16.574219 C 20.136719 16.800781 20.300781 17.164062 20.332031 17.644531 C 20.089844 18.210938 19.15625 19.15625 18.726562 19.480469 C 18.417969 19.175781 18.375 19.066406 18.132812 18.75 Z M 19.539062 16.550781 L 19.398438 16.746094 C 19.460938 16.972656 19.523438 16.929688 19.304688 16.929688 C 19.09375 17.167969 19.011719 17.328125 18.789062 17.59375 C 18.667969 17.738281 18.59375 17.839844 18.480469 17.964844 C 18.292969 18.171875 18.402344 18.089844 18.199219 18.175781 L 18.085938 18.339844 C 18.074219 18.355469 18.046875 18.394531 18.03125 18.414062 C 18.015625 18.429688 17.988281 18.460938 17.976562 18.476562 C 17.894531 18.570312 17.863281 18.589844 17.777344 18.6875 C 17.902344 18.957031 17.929688 19.007812 18.109375 19.300781 C 18.390625 19.460938 18.359375 19.5625 18.613281 19.835938 L 20.65625 17.648438 C 20.546875 17.367188 20.449219 17.132812 20.332031 16.871094 C 20.140625 16.4375 20.191406 16.257812 19.734375 16.265625 Z M 15.71875 19.652344 C 15.578125 19.925781 15.6875 19.761719 15.5 19.945312 C 15.480469 19.964844 15.386719 20.011719 15.359375 20.035156 L 15.320312 20.40625 C 14.984375 20.722656 15.011719 20.503906 14.851562 20.867188 C 14.695312 21.214844 14.757812 21.335938 14.765625 21.796875 C 15.945312 21.617188 16.628906 21.054688 17.496094 20.769531 C 17.289062 20.277344 16.90625 19.785156 16.5 19.464844 C 16.3125 19.320312 16.523438 19.5 16.304688 19.308594 L 16.128906 19.140625 C 16.1875 19.515625 16.082031 19.277344 16.367188 19.597656 L 17.128906 20.550781 C 16.8125 20.839844 15.574219 21.40625 14.988281 21.453125 C 15.023438 20.71875 15.078125 20.988281 15.359375 20.710938 C 15.773438 20.308594 15.277344 20.441406 15.90625 19.972656 C 15.847656 19.410156 15.882812 19.839844 15.71875 19.652344 Z M 15.71875 19.652344 "/>
<path style=" stroke:none;fill-rule:evenodd;fill:rgb(78.039216%,8.235294%,15.294118%);fill-opacity:1;" d="M 11.78125 11.558594 C 14.347656 11.257812 13.085938 14.171875 11.707031 13.234375 C 11.132812 12.847656 11.199219 12.175781 11.78125 11.558594 Z M 11.808594 11.414062 C 10.429688 12.039062 11.320312 14.039062 12.789062 13.480469 C 14.09375 12.984375 13.265625 10.753906 11.808594 11.414062 Z M 4.015625 11.570312 C 3.769531 11.480469 3.8125 11.449219 3.90625 11.6875 L 3.570312 11.667969 C 3.476562 11.507812 3.609375 11.636719 3.433594 11.472656 C 3.410156 11.453125 3.324219 11.398438 3.296875 11.378906 C 3.253906 11.351562 3.089844 11.273438 3.027344 11.234375 C 3.078125 10.058594 3.203125 10.207031 4.09375 10.601562 Z M 2.828125 10.144531 L 2.714844 11.328125 C 3.183594 11.554688 3.078125 11.628906 3.570312 11.667969 C 3.671875 11.871094 3.839844 11.75 3.839844 11.75 C 3.855469 11.746094 3.894531 11.714844 3.90625 11.6875 C 4.160156 11.777344 4.117188 11.808594 4.015625 11.570312 C 4.203125 11.488281 4.152344 11.609375 4.265625 11.398438 L 4.390625 10.800781 L 4.3125 10.386719 L 4.09375 10.257812 L 3.101562 10 C 3.015625 10.070312 2.90625 10.0625 2.828125 10.144531 Z M 13.585938 21.988281 L 13.601562 21.996094 C 13.660156 21.386719 13.601562 21.769531 13.761719 21.699219 C 13.664062 21.289062 13.847656 21.046875 13.890625 20.511719 L 13.214844 20.527344 C 12.988281 20.792969 13.125 20.3125 12.976562 20.949219 L 12.992188 21.628906 C 13.042969 21.9375 13.078125 21.898438 13.097656 21.949219 C 13.132812 21.960938 13.175781 21.980469 13.199219 21.984375 Z M 3.769531 14.328125 C 3.445312 14.136719 3.484375 14.1875 3.082031 14.132812 L 2.871094 12.707031 C 3.285156 12.917969 3.023438 12.84375 3.183594 13.113281 C 3.199219 13.136719 3.210938 13.171875 3.226562 13.195312 C 3.417969 13.4375 3.59375 13.40625 3.90625 13.429688 C 4.070312 13.65625 3.894531 13.601562 4.09375 13.722656 C 4.625 14.042969 4.574219 13.710938 4.597656 13.699219 L 4.28125 13.671875 L 4.226562 13.421875 C 4.007812 13.335938 3.652344 13.253906 3.355469 13.207031 C 3.304688 12.753906 3.191406 12.472656 2.621094 12.542969 L 2.777344 14.351562 Z M 13.300781 3.164062 C 13.71875 3.25 14.050781 3.214844 14.28125 3.40625 C 14.007812 3.851562 14.101562 3.914062 14.039062 3.753906 C 14.03125 3.734375 14.007812 3.800781 13.992188 3.824219 C 13.839844 3.773438 13.601562 3.730469 13.390625 3.625 Z M 13.148438 4.03125 C 13.800781 3.863281 13.945312 3.984375 14.246094 3.738281 L 14.359375 3.628906 C 14.632812 3.324219 14.550781 3.3125 14.574219 3.160156 C 14.25 3.058594 13.503906 2.867188 13.246094 3.101562 L 13.152344 3.273438 C 13.109375 3.386719 13.140625 3.894531 13.148438 4.03125 Z M 21.296875 16.566406 L 21.53125 16.058594 L 21.007812 15.871094 C 21.039062 16.214844 21.160156 16.339844 21.296875 16.566406 Z M 21.296875 16.566406 "/>
<path style=" stroke:none;fill-rule:evenodd;fill:rgb(71.764706%,90.588235%,91.372549%);fill-opacity:1;" d="M 16.113281 13.871094 C 15.8125 14.167969 15.667969 14.140625 15.429688 14.367188 L 14.96875 14.996094 C 14.789062 15.511719 14.804688 15.882812 14.976562 16.390625 C 15.007812 16.476562 15.097656 16.707031 15.113281 16.742188 C 15.160156 16.871094 15.167969 16.898438 15.234375 17.070312 L 15.46875 17.507812 C 15.960938 17.914062 16.414062 18.84375 16.609375 19.101562 C 17.011719 19.144531 17.199219 19.023438 17.535156 18.941406 C 17.71875 18.625 17.59375 18.332031 18.199219 18.175781 C 18.402344 18.089844 18.289062 18.175781 18.480469 17.964844 C 18.59375 17.84375 18.667969 17.738281 18.789062 17.59375 C 19.011719 17.328125 19.09375 17.171875 19.304688 16.929688 L 19.398438 16.746094 L 19.539062 16.550781 L 19.53125 16.191406 L 19.535156 16.113281 C 19.554688 15.824219 19.585938 15.535156 19.601562 15.242188 C 19.601562 15.207031 19.617188 14.882812 19.621094 14.875 C 19.679688 14.589844 19.664062 14.691406 19.789062 14.550781 C 19.167969 14.402344 19.367188 14.515625 18.890625 14.144531 C 18.125 13.96875 17.132812 13.71875 16.113281 13.871094 Z M 15.570312 17.777344 L 15.492188 17.753906 Z M 10.59375 16.574219 L 10.21875 17.425781 L 10.480469 17.308594 C 10.359375 17.984375 10.261719 18.125 10.070312 18.59375 C 10.070312 18.59375 9.875 18.480469 10.417969 18.429688 C 10.445312 18.425781 10.59375 18.4375 10.617188 18.441406 C 10.777344 18.480469 10.726562 18.480469 10.808594 18.527344 C 10.671875 18.84375 10.796875 18.691406 10.402344 18.921875 C 9.261719 19.589844 10.15625 18.746094 9.5 19.632812 C 9.953125 19.84375 9.65625 19.9375 10.347656 20.019531 C 10.734375 20.066406 11.269531 20.058594 11.570312 20.203125 C 11.890625 20.355469 11.925781 20.683594 12.609375 20.4375 C 12.757812 20.382812 12.648438 20.304688 13.015625 20.207031 C 13.21875 20.152344 13.34375 20.199219 13.613281 20.230469 C 14.0625 19.925781 13.652344 19.863281 14.269531 19.539062 L 14.355469 19.417969 L 14.660156 18.953125 C 14.984375 19.257812 15.03125 19.613281 15.167969 20.039062 L 15.359375 20.035156 C 15.386719 20.011719 15.480469 19.964844 15.5 19.945312 C 15.6875 19.761719 15.578125 19.925781 15.71875 19.652344 L 14.132812 16.808594 C 13.488281 15.972656 12.492188 15.269531 11.355469 15.976562 C 10.886719 16.269531 10.976562 16.394531 10.59375 16.574219 Z M 4.371094 11.796875 C 4.417969 11.617188 4.453125 11.660156 4.257812 11.660156 L 4.257812 11.78125 L 4.371094 11.796875 L 4.378906 11.96875 L 4.457031 11.953125 L 4.59375 12.292969 L 4.675781 12.320312 C 4.871094 12.683594 4.984375 12.699219 5.078125 13.101562 L 4.238281 13.128906 L 4.226562 13.421875 L 4.28125 13.671875 L 4.597656 13.699219 C 5 13.582031 5.363281 13.496094 5.792969 13.382812 C 6.054688 13.316406 6.167969 13.292969 6.429688 13.230469 C 6.75 13.15625 6.777344 13.144531 7.035156 13.023438 L 7.460938 12.917969 C 7.480469 12.898438 7.515625 12.835938 7.527344 12.859375 L 8.820312 11.972656 L 8.84375 11.417969 L 8.199219 11.421875 C 8.3125 11.296875 8.382812 11.25 8.503906 11.152344 C 8.867188 10.859375 9.03125 10.890625 8.507812 10.234375 C 8.132812 9.765625 8.210938 9.988281 7.835938 9.679688 C 7.441406 9.355469 7.789062 9.523438 6.878906 8.832031 C 6.433594 8.496094 6.648438 8.773438 6.640625 8.394531 C 6.375 8.507812 6.40625 8.554688 6.515625 8.292969 C 6.265625 8.394531 6.296875 8.445312 6.382812 8.195312 L 5.914062 8.105469 L 5.117188 9.316406 C 4.242188 10.21875 5.058594 11.097656 4.371094 11.796875 Z M 5.054688 14.3125 L 4.707031 14.375 C 5.058594 14.332031 4.941406 14.277344 4.941406 14.660156 C 4.496094 14.640625 4.679688 14.472656 4.640625 14.855469 C 4.894531 15.15625 4.976562 15.136719 5.164062 15.613281 L 6.082031 17.125 C 6.28125 17.351562 6.523438 17.511719 6.648438 17.789062 L 6.78125 17.652344 L 6.929688 17.765625 L 8.390625 18.199219 C 8.15625 18.773438 8.09375 18.445312 7.433594 19.175781 L 7.304688 19.261719 L 7.433594 19.175781 L 7.699219 19.082031 C 8.476562 19.082031 7.980469 19.023438 8.15625 19.292969 L 8.3125 19.457031 C 8.554688 19.238281 9.25 17.789062 9.429688 17.316406 C 9.800781 16.355469 10.199219 15.671875 9.824219 14.804688 C 10.003906 15.144531 10.054688 15.507812 9.976562 15.886719 C 9.96875 15.921875 9.554688 17.035156 9.511719 16.738281 C 9.507812 16.699219 9.484375 16.671875 9.460938 16.644531 C 9.515625 16.59375 9.601562 16.609375 9.640625 16.324219 C 9.726562 15.683594 9.671875 14.894531 9.148438 14.484375 C 8.992188 14.363281 8.761719 14.175781 8.617188 14.113281 C 7.613281 13.878906 5.972656 14.609375 5.511719 14.542969 C 5.117188 14.488281 5.265625 14.566406 5.054688 14.3125 Z M 3.851562 14.371094 L 4.480469 14.464844 L 4.484375 14.417969 Z M 17.820312 6.445312 L 17.816406 6.386719 C 17.257812 6.382812 17.628906 6.363281 17.210938 6.101562 C 17.039062 5.992188 16.816406 5.882812 16.589844 5.820312 C 16.011719 5.667969 15.78125 5.640625 15.53125 5.082031 C 15.292969 4.9375 15.414062 4.976562 15.121094 4.886719 C 14.484375 4.691406 14.960938 4.835938 14.539062 4.78125 L 14.691406 4.96875 L 14.765625 5.105469 L 14.4375 5.1875 L 14.382812 5.246094 L 13.019531 5.542969 L 13.242188 4.484375 L 13.109375 4.496094 L 12.804688 4.699219 C 12.851562 5.285156 13.070312 8.117188 13.273438 8.664062 C 13.488281 9.257812 14.921875 9.613281 15.96875 8.59375 L 17.019531 7.828125 C 18.203125 6.875 17.316406 7.578125 17.960938 6.9375 C 17.734375 6.730469 17.757812 6.800781 17.820312 6.445312 Z M 8.777344 5.292969 C 8.324219 5.59375 8.394531 5.398438 8.179688 5.8125 L 8 6.164062 L 7.902344 6.210938 L 7.6875 6.753906 L 7.585938 6.792969 L 7.398438 7.101562 C 7.113281 6.988281 7.289062 7.035156 6.996094 6.726562 L 6.855469 6.609375 L 6.808594 6.726562 C 6.839844 6.925781 6.898438 6.910156 6.710938 6.859375 C 6.9375 7.359375 7.191406 7.050781 7.578125 7.605469 L 8.4375 8.484375 C 8.625 8.605469 8.753906 8.570312 8.972656 8.808594 C 8.988281 8.824219 9.011719 8.855469 9.023438 8.871094 L 9.105469 9.007812 C 9.5625 8.917969 9.273438 8.964844 9.320312 9.125 C 10.574219 8.914062 10.84375 9.484375 11.480469 8.183594 C 11.558594 8.019531 11.628906 7.996094 11.664062 7.808594 C 11.695312 7.636719 11.695312 4.550781 11.695312 4.546875 C 10.742188 4.433594 9.515625 4.953125 8.777344 5.292969 Z M 18.367188 10.886719 C 18.226562 10.804688 18.300781 10.625 17.8125 10.902344 C 17.796875 10.910156 17.757812 10.984375 17.746094 10.960938 C 17.734375 10.941406 17.707031 11.003906 17.671875 11.019531 L 17.921875 10.496094 C 18.289062 10.609375 18.257812 10.554688 18.367188 10.886719 Z M 17.664062 12.601562 C 17.925781 12.519531 17.875 12.515625 17.941406 12.480469 C 18.515625 12.195312 19.527344 12.105469 19.691406 12.054688 C 19.582031 11.550781 19.621094 11.8125 19.351562 11.425781 C 17.691406 9.015625 16.355469 10.589844 17.25 11.992188 Z M 19.734375 9.761719 C 19.609375 9.519531 19.683594 9.726562 19.601562 9.511719 C 19.574219 9.433594 19.570312 9.476562 19.535156 9.261719 C 19.25 9.179688 19.496094 9.507812 19.261719 9.035156 L 19.050781 8.839844 L 18.980469 8.734375 L 18.761719 8.554688 C 18.664062 8.773438 18.675781 8.394531 18.550781 9.207031 C 18.367188 8.863281 18.550781 9.246094 18.625 8.703125 C 17.757812 8.707031 17.898438 9.394531 18.234375 9.941406 C 18.25 9.960938 18.269531 9.992188 18.28125 10.015625 C 18.296875 10.035156 18.320312 10.070312 18.332031 10.089844 C 18.34375 10.105469 18.363281 10.144531 18.382812 10.167969 C 18.75 9.9375 18.445312 10.058594 18.59375 9.734375 L 19.007812 9.761719 C 19.375 9.632812 19.078125 9.75 19.304688 9.539062 C 19.527344 9.613281 19.371094 9.5625 19.503906 9.632812 C 19.519531 9.640625 19.558594 9.660156 19.578125 9.671875 Z M 19.734375 9.761719 "/>
<path style=" stroke:none;fill-rule:evenodd;fill:rgb(71.764706%,90.588235%,91.372549%);fill-opacity:1;" d="M 17.003906 12.347656 C 16.976562 10.550781 15.675781 11.226562 16.132812 12.078125 C 16.328125 12.441406 16.523438 12.339844 17.003906 12.347656 Z M 17.003906 12.347656 "/>
<path style=" stroke:none;fill-rule:evenodd;fill:rgb(98.039216%,5.098039%,2.352941%);fill-opacity:1;" d="M 14.023438 12.898438 C 13.390625 15.039062 9.882812 14.148438 10.546875 11.957031 C 11.175781 9.878906 14.667969 10.707031 14.023438 12.898438 Z M 12.457031 3.78125 C 12.546875 4.019531 12.582031 3.976562 12.335938 3.890625 C 12.433594 4.125 12.457031 4.078125 12.214844 3.984375 C 12.3125 4.234375 12.363281 4.203125 12.101562 4.113281 C 12.292969 4.710938 12.171875 7.980469 11.941406 8.472656 C 11.308594 9.816406 9.484375 9.828125 8.847656 9.15625 L 8.765625 9.015625 C 8.519531 9.089844 8.535156 9.152344 8.625 8.917969 C 8.417969 8.863281 8.441406 8.914062 8.238281 8.742188 C 8.03125 8.566406 8.148438 8.691406 8.058594 8.472656 C 7.8125 8.558594 7.832031 8.613281 7.929688 8.375 C 7.636719 8.308594 7.839844 8.417969 7.613281 8.238281 C 7.378906 8.050781 7.582031 8.300781 7.484375 8.03125 C 7.246094 8.109375 7.253906 8.175781 7.347656 7.945312 C 7.078125 7.886719 7.222656 7.96875 7.03125 7.804688 C 6.8125 7.609375 7.003906 7.894531 6.914062 7.578125 C 6.695312 7.640625 6.710938 7.699219 6.785156 7.492188 C 6.527344 7.59375 6.53125 7.671875 6.628906 7.417969 C 6.382812 7.503906 6.410156 7.558594 6.492188 7.320312 C 6.253906 7.402344 6.304688 7.429688 6.378906 7.195312 C 6.085938 6.808594 6.457031 6.605469 6.550781 6.386719 C 6.433594 6.242188 6.371094 6.117188 6.289062 5.9375 L 6.179688 5.503906 C 5.5 6.046875 4.054688 7.527344 3.851562 8.597656 L 4.75 8.835938 L 5.5625 7.554688 C 6.445312 7.488281 5.863281 7.546875 6.089844 7.691406 L 6.140625 7.816406 L 6.984375 8.457031 C 7.132812 8.617188 7.070312 8.5625 7.125 8.636719 L 8.714844 9.9375 C 8.808594 10.050781 8.90625 10.207031 8.980469 10.347656 C 9.324219 11.003906 9.039062 11.769531 8.820312 11.972656 C 8.882812 12.484375 8.089844 12.882812 7.460938 12.917969 L 7.035156 13.023438 C 6.777344 13.144531 6.75 13.15625 6.429688 13.230469 C 6.167969 13.292969 6.054688 13.316406 5.792969 13.382812 C 5.363281 13.496094 5 13.582031 4.59375 13.699219 C 4.574219 13.710938 4.625 14.039062 4.09375 13.722656 C 3.894531 13.601562 4.070312 13.65625 3.90625 13.429688 C 3.59375 13.40625 3.417969 13.4375 3.226562 13.195312 C 3.210938 13.171875 3.199219 13.136719 3.183594 13.113281 C 3.023438 12.839844 3.285156 12.917969 2.871094 12.707031 L 3.082031 14.132812 C 3.484375 14.1875 3.445312 14.136719 3.769531 14.328125 L 3.851562 14.371094 L 4.480469 14.417969 L 4.707031 14.375 L 5.054688 14.3125 C 5.902344 14.144531 6.824219 13.898438 7.699219 13.792969 C 8.90625 13.640625 9.382812 14.113281 9.824219 14.804688 C 10.195312 15.671875 9.800781 16.351562 9.429688 17.316406 C 9.25 17.789062 8.554688 19.238281 8.3125 19.457031 C 8.296875 19.472656 8.257812 19.464844 8.246094 19.496094 C 8.214844 19.597656 8.054688 19.449219 7.761719 19.792969 C 7.671875 19.894531 7.445312 20.222656 7.375 20.398438 C 8.164062 20.90625 9.886719 21.683594 11.226562 21.6875 L 11.238281 20.753906 C 10.527344 20.695312 9.421875 20.335938 8.964844 19.976562 C 8.929688 19.425781 9.34375 18.753906 9.644531 18.207031 L 9.839844 17.84375 C 10.03125 17.453125 10.207031 16.800781 10.59375 16.574219 C 11.039062 14.9375 14.316406 15.535156 14.160156 16.738281 C 14.15625 16.75 14.148438 16.789062 14.132812 16.808594 L 15.71875 19.652344 C 15.882812 19.839844 15.847656 19.410156 15.90625 19.972656 C 15.277344 20.441406 15.773438 20.308594 15.359375 20.710938 C 15.078125 20.988281 15.023438 20.714844 14.988281 21.453125 C 15.570312 21.40625 16.8125 20.839844 17.125 20.550781 L 16.367188 19.597656 C 16.082031 19.277344 16.183594 19.515625 16.128906 19.140625 L 15.570312 17.777344 L 15.492188 17.753906 L 15.46875 17.507812 L 15.234375 17.070312 C 15.167969 16.898438 15.160156 16.871094 15.113281 16.742188 C 15.097656 16.707031 15.003906 16.476562 14.976562 16.390625 C 14.804688 15.882812 14.789062 15.511719 14.96875 14.996094 L 15.023438 14.589844 C 15.316406 14.472656 15.617188 14.089844 16.113281 13.867188 C 17.132812 13.714844 18.125 13.96875 18.890625 14.144531 L 20.105469 14.351562 L 20.511719 14.320312 L 21.699219 14.328125 C 22.082031 13.578125 22.085938 11.191406 21.664062 10.429688 C 21.390625 10.578125 21.132812 10.53125 20.78125 10.761719 C 20.867188 11.332031 21.125 12.824219 20.910156 13.421875 C 20.699219 14.015625 19.851562 13.808594 19.617188 13.707031 C 19.273438 13.550781 19.539062 13.746094 19.304688 13.472656 C 18.023438 13.125 14.542969 12.773438 16.125 10.074219 C 16.28125 9.8125 16.171875 9.894531 16.394531 9.664062 C 16.722656 9.332031 17.5625 8.828125 17.695312 8.464844 C 17.695312 8.222656 17.617188 8.246094 17.835938 8.292969 C 17.800781 8.105469 17.761719 8.140625 17.957031 8.1875 C 17.914062 7.992188 17.875 8.03125 18.074219 8.078125 C 18.027344 7.878906 17.988281 7.917969 18.195312 7.976562 C 18.140625 7.769531 18.101562 7.808594 18.316406 7.867188 C 18.25 7.65625 18.214844 7.695312 18.433594 7.765625 C 18.367188 7.542969 18.328125 7.582031 18.554688 7.65625 L 18.757812 7.46875 C 19.148438 7.320312 19.15625 7.460938 19.257812 7.519531 C 19.878906 7.863281 18.882812 7.894531 20.667969 7.96875 L 20.984375 8.652344 C 21.179688 8.398438 20.273438 7.171875 20.089844 6.949219 L 18.722656 5.496094 L 18.128906 6.277344 C 18.359375 6.527344 18.679688 6.773438 18.484375 7.117188 L 18.140625 7.320312 C 17.824219 7.386719 18.222656 7.117188 17.800781 7.480469 C 17.773438 7.5 17.714844 7.578125 17.691406 7.601562 C 17.300781 7.980469 17.167969 7.941406 16.863281 8.242188 C 16.085938 9.015625 14.996094 9.949219 13.746094 9.292969 C 12.976562 8.890625 13.175781 8.757812 12.746094 8.039062 C 12.425781 7.613281 12.511719 7.539062 12.519531 6.9375 Z M 12.457031 3.78125 "/>
<path style=" stroke:none;fill-rule:evenodd;fill:rgb(98.039216%,5.098039%,2.352941%);fill-opacity:1;" d="M 8.273438 5.21875 C 8.628906 5.113281 8.648438 5.046875 9.046875 4.890625 C 10.277344 4.410156 11.035156 4.367188 11.414062 4.214844 L 11.40625 3.257812 C 10.820312 3.15625 9.023438 3.75 8.398438 4.007812 C 7.734375 4.28125 8.035156 4.941406 8.273438 5.21875 Z M 4.136719 15.558594 C 3.882812 15.976562 3.914062 15.757812 3.613281 15.988281 C 3.941406 16.683594 4.46875 17.878906 5.054688 18.28125 C 6.164062 18.046875 5.984375 18.160156 6.066406 17.78125 C 5.792969 17.894531 5.839844 17.925781 5.953125 17.664062 C 5.6875 17.632812 5.609375 17.871094 5.71875 17.34375 C 5.316406 17.246094 5.746094 17.460938 5.46875 17.246094 C 5.085938 16.945312 4.875 16.089844 4.40625 15.601562 L 4.253906 15.445312 Z M 11.78125 11.558594 C 11.199219 12.175781 11.132812 12.847656 11.707031 13.234375 C 13.085938 14.171875 14.347656 11.257812 11.78125 11.558594 Z M 18.132812 18.75 C 18.375 19.066406 18.417969 19.175781 18.726562 19.480469 C 19.15625 19.160156 20.089844 18.210938 20.332031 17.644531 C 20.300781 17.164062 20.136719 16.800781 19.875 16.574219 C 19.570312 16.972656 19.40625 17.308594 19.050781 17.726562 C 18.761719 18.0625 18.328125 18.453125 18.132812 18.75 Z M 16.890625 3.984375 L 16.703125 3.855469 C 16.550781 4.078125 16.78125 4.015625 16.355469 3.96875 C 15.898438 3.921875 16.265625 3.9375 15.96875 3.8125 C 15.511719 4.019531 15.324219 4.269531 15.019531 4.5625 L 16.539062 5.164062 L 17.125 4.441406 C 16.890625 4.035156 17.054688 4.582031 16.890625 3.984375 Z M 3.570312 11.667969 L 3.90625 11.6875 C 3.8125 11.449219 3.769531 11.480469 4.015625 11.570312 L 4.09375 10.601562 C 3.203125 10.207031 3.078125 10.058594 3.027344 11.234375 C 3.089844 11.273438 3.253906 11.351562 3.296875 11.378906 C 3.324219 11.398438 3.410156 11.453125 3.433594 11.472656 C 3.609375 11.636719 3.476562 11.507812 3.570312 11.667969 Z M 13.390625 3.625 C 13.601562 3.730469 13.839844 3.773438 13.992188 3.824219 C 14.007812 3.800781 14.03125 3.734375 14.039062 3.753906 C 14.101562 3.914062 14.007812 3.851562 14.28125 3.40625 C 14.050781 3.214844 13.71875 3.25 13.300781 3.164062 Z M 13.390625 3.625 "/>
<path style=" stroke:none;fill-rule:evenodd;fill:rgb(92.941176%,92.941176%,90.196078%);fill-opacity:1;" d="M 12.902344 21.886719 L 12.90625 20.554688 L 13.878906 20.351562 L 13.613281 20.230469 C 13.34375 20.199219 13.21875 20.152344 13.015625 20.207031 C 12.648438 20.304688 12.757812 20.382812 12.609375 20.4375 C 11.925781 20.683594 11.890625 20.355469 11.570312 20.203125 C 11.269531 20.058594 10.734375 20.066406 10.347656 20.019531 C 9.65625 19.9375 9.953125 19.84375 9.5 19.632812 C 10.15625 18.742188 9.261719 19.589844 10.402344 18.921875 C 10.796875 18.691406 10.671875 18.84375 10.808594 18.527344 C 10.726562 18.480469 10.777344 18.480469 10.617188 18.441406 C 10.59375 18.433594 10.445312 18.425781 10.417969 18.429688 C 9.875 18.480469 10.070312 18.59375 10.070312 18.59375 C 10.261719 18.125 10.359375 17.984375 10.480469 17.308594 L 10.21875 17.425781 C 10.121094 17.75 10.148438 17.683594 9.992188 17.972656 L 9.34375 19.316406 C 9.175781 19.609375 9.125 19.53125 9.285156 19.867188 L 9.40625 20 C 9.59375 20.027344 11.246094 20.429688 11.484375 20.515625 L 11.515625 22.035156 C 10.328125 21.949219 8.972656 21.542969 7.960938 21.050781 C 7.609375 20.878906 7.292969 20.636719 7.015625 20.515625 C 6.699219 20.292969 7.015625 20.480469 6.605469 20.25 C 6.589844 20.242188 6.34375 20.121094 6.292969 20.09375 C 6.480469 19.640625 6.3125 20.046875 6.867188 19.363281 C 6.730469 19.726562 6.597656 19.175781 7.050781 19.425781 L 7.042969 19.222656 L 6.988281 19.191406 L 6.976562 18.980469 L 6.25 19.113281 C 6.234375 19.136719 6.21875 19.171875 6.210938 19.1875 L 6.046875 19.597656 C 5.570312 19.460938 5.828125 19.621094 5.507812 19.320312 C 4.414062 19.316406 4.375 19.953125 4.1875 18.6875 L 4.773438 18.550781 C 4.601562 18.253906 4.339844 17.929688 4.101562 17.566406 C 3.898438 17.257812 3.734375 16.839844 3.542969 16.652344 C 2.960938 16.019531 3.523438 17.089844 3.371094 16.496094 C 3.363281 16.457031 3.328125 16.449219 3.289062 16.421875 L 3.308594 17.523438 L 2.785156 16.515625 C 2.578125 16.207031 2.707031 16.40625 2.621094 16.414062 L 2.90625 16.046875 C 2.921875 16.03125 2.964844 15.980469 2.988281 15.953125 L 3.269531 16.144531 L 3.304688 16.097656 C 3.132812 15.84375 3.289062 16.28125 3.128906 15.714844 L 2.945312 15.042969 L 3.441406 15.011719 C 3.71875 15.1875 4.0625 15.335938 4.523438 15.320312 C 4.839844 15.460938 4.734375 15.40625 4.921875 15.789062 C 5.019531 15.980469 5.09375 16.132812 5.183594 16.308594 C 5.355469 16.648438 5.664062 16.964844 5.71875 17.34375 C 5.925781 17.375 5.890625 17.109375 5.917969 17.390625 L 6.007812 17.554688 L 6.308594 17.902344 L 6.511719 18.113281 C 6.742188 17.976562 6.777344 18.402344 6.652344 17.789062 C 6.523438 17.511719 6.28125 17.351562 6.082031 17.125 L 5.164062 15.613281 C 4.976562 15.136719 4.894531 15.15625 4.640625 14.855469 C 4.679688 14.472656 4.496094 14.640625 4.941406 14.660156 C 4.941406 14.277344 5.058594 14.332031 4.707031 14.375 L 4.484375 14.417969 L 4.480469 14.464844 L 3.851562 14.371094 L 3.769531 14.328125 L 2.777344 14.351562 L 2.621094 12.542969 L 2.613281 12.253906 C 2.429688 12.265625 2.484375 12.292969 2.546875 12.113281 C 2.042969 12.070312 1.933594 11.847656 1.441406 11.671875 L 1.398438 11.601562 C 1.257812 11.519531 1.097656 11.691406 1.285156 11.199219 L 1.351562 11.15625 L 1.515625 10.824219 L 1.921875 10.929688 L 1.941406 10.980469 L 2.175781 11.015625 L 2.1875 11.070312 C 2.414062 11.1875 2.445312 11.113281 2.292969 11.257812 C 2.625 11.28125 2.457031 11.222656 2.644531 11.320312 L 2.714844 11.328125 L 2.828125 10.144531 L 3.234375 9.449219 C 3.253906 9.46875 3.28125 9.496094 3.296875 9.515625 C 3.980469 10.230469 3.867188 9.890625 4.09375 10.257812 L 4.59375 10.25 C 4.570312 10.597656 4.652344 10.46875 4.390625 10.800781 L 4.265625 11.398438 L 4.257812 11.660156 C 4.453125 11.660156 4.417969 11.617188 4.371094 11.796875 C 5.058594 11.097656 4.242188 10.21875 5.117188 9.316406 L 5.914062 8.105469 L 6.382812 8.195312 C 6.296875 8.445312 6.265625 8.394531 6.515625 8.292969 C 6.40625 8.554688 6.375 8.507812 6.640625 8.394531 C 6.648438 8.773438 6.433594 8.496094 6.878906 8.832031 C 7.789062 9.523438 7.441406 9.355469 7.835938 9.679688 C 8.210938 9.988281 8.132812 9.765625 8.507812 10.234375 C 9.03125 10.890625 8.867188 10.859375 8.503906 11.152344 C 8.382812 11.25 8.3125 11.296875 8.199219 11.421875 L 8.84375 11.417969 L 8.820312 11.972656 L 7.527344 12.859375 C 7.515625 12.835938 7.480469 12.898438 7.460938 12.917969 L 7.035156 13.023438 L 7.460938 12.917969 C 8.089844 12.882812 8.882812 12.484375 8.820312 11.972656 C 9.039062 11.769531 9.324219 11.003906 8.980469 10.347656 C 8.90625 10.207031 8.808594 10.050781 8.714844 9.9375 L 7.125 8.636719 C 6.851562 8.507812 6.917969 8.507812 6.640625 8.394531 C 6.769531 8.136719 6.789062 8.191406 6.515625 8.292969 C 6.640625 8.019531 6.660156 8.078125 6.382812 8.195312 L 6.140625 7.816406 L 6.089844 7.691406 L 5.710938 7.765625 L 4.945312 9.195312 L 3.449219 8.714844 C 3.695312 7.757812 5.390625 5.515625 6.207031 5.175781 L 6.640625 5.621094 L 6.910156 5.503906 C 6.953125 4.929688 6.9375 4.308594 6.933594 3.730469 C 6.933594 3.097656 6.933594 2.84375 7.667969 3.070312 C 7.859375 3.214844 7.742188 3.609375 7.859375 4.050781 C 7.996094 3.925781 7.804688 4.066406 8.023438 3.929688 L 8.164062 3.851562 C 9.007812 3.375 10.808594 2.917969 11.722656 2.953125 L 11.695312 4.546875 C 11.695312 4.550781 11.695312 7.636719 11.664062 7.808594 C 11.628906 7.996094 11.558594 8.019531 11.480469 8.183594 C 10.84375 9.484375 10.578125 8.910156 9.320312 9.125 C 9.273438 8.964844 9.5625 8.917969 9.105469 9.007812 L 9.023438 8.871094 C 9.011719 8.855469 8.988281 8.820312 8.972656 8.804688 C 8.753906 8.570312 8.625 8.605469 8.4375 8.484375 L 7.578125 7.605469 C 7.191406 7.050781 6.9375 7.355469 6.710938 6.859375 C 6.898438 6.910156 6.839844 6.925781 6.808594 6.726562 L 6.855469 6.609375 L 6.808594 6.726562 C 6.617188 6.71875 6.652344 6.675781 6.710938 6.859375 C 6.519531 6.941406 6.554688 6.691406 6.515625 6.925781 L 6.378906 7.195312 C 6.609375 7.140625 6.570312 7.101562 6.492188 7.320312 C 6.738281 7.246094 6.71875 7.1875 6.628906 7.417969 C 6.871094 7.332031 6.859375 7.257812 6.785156 7.492188 C 7.011719 7.414062 6.992188 7.359375 6.914062 7.578125 C 7.085938 7.621094 7.121094 7.609375 7.238281 7.710938 C 7.457031 7.898438 7.265625 7.652344 7.347656 7.945312 C 7.589844 7.863281 7.578125 7.796875 7.484375 8.03125 C 7.78125 8.070312 7.59375 7.960938 7.824219 8.144531 C 8.039062 8.316406 7.851562 8.128906 7.929688 8.375 C 8.179688 8.28125 8.15625 8.230469 8.058594 8.472656 C 8.265625 8.503906 8.304688 8.464844 8.476562 8.617188 C 8.785156 8.882812 8.574219 8.652344 8.625 8.917969 C 8.863281 8.839844 8.839844 8.785156 8.765625 9.015625 L 9.105469 9.007812 C 9.128906 9.183594 8.863281 9.21875 9.320312 9.125 C 9.484375 9.367188 8.933594 9.152344 9.648438 9.371094 C 9.683594 9.378906 10.046875 9.421875 10.105469 9.421875 C 12.441406 9.414062 11.898438 6.835938 11.945312 4.949219 C 11.96875 4.007812 11.875 4.175781 12.101562 4.113281 C 12.003906 3.871094 11.957031 3.902344 12.21875 3.984375 C 12.117188 3.757812 12.09375 3.804688 12.335938 3.890625 C 12.242188 3.652344 12.210938 3.695312 12.457031 3.78125 C 12.636719 3.511719 12.472656 3.640625 12.734375 3.523438 L 12.746094 8.042969 C 13.175781 8.757812 12.976562 8.890625 13.746094 9.292969 C 14.996094 9.949219 16.085938 9.015625 16.863281 8.242188 C 17.167969 7.941406 17.300781 7.980469 17.691406 7.601562 C 17.714844 7.578125 17.777344 7.503906 17.800781 7.480469 C 18.222656 7.121094 17.828125 7.386719 18.144531 7.320312 L 17.820312 6.445312 C 17.757812 6.800781 17.734375 6.730469 17.960938 6.9375 C 17.316406 7.578125 18.203125 6.875 17.019531 7.828125 L 15.96875 8.59375 C 14.921875 9.613281 13.488281 9.257812 13.273438 8.664062 C 13.070312 8.117188 12.851562 5.285156 12.804688 4.699219 L 13.109375 4.496094 L 13.097656 2.890625 L 14.945312 3.140625 L 15.140625 2.949219 L 15.269531 2.839844 L 15.378906 2.730469 L 15.496094 2.617188 L 15.609375 2.507812 L 15.644531 2.429688 C 16.109375 2.511719 16.101562 2.5625 16.347656 2.964844 C 16.03125 3.246094 15.992188 3.125 15.863281 3.515625 L 16.703125 3.855469 L 16.890625 3.984375 L 17.617188 4.355469 L 17.191406 4.984375 C 17.105469 5.21875 17.269531 5.140625 17.117188 5.175781 C 17.179688 5.109375 17.382812 5.199219 17.578125 5.613281 C 17.496094 5.648438 17.492188 5.675781 17.246094 5.707031 L 16.441406 5.507812 L 15.53125 5.082031 C 15.78125 5.640625 16.011719 5.667969 16.59375 5.820312 C 16.816406 5.882812 17.039062 5.992188 17.210938 6.101562 C 17.628906 6.363281 17.257812 6.382812 17.816406 6.386719 C 18.042969 5.832031 18.355469 5.679688 18.589844 5.136719 C 19.308594 5.371094 19.773438 6.097656 20.265625 6.675781 C 20.621094 7.09375 21.191406 8.023438 21.390625 8.628906 C 21.457031 8.820312 21.421875 8.761719 21.34375 8.976562 L 21.675781 9.050781 L 21.703125 9.101562 L 22.445312 9.386719 L 22.484375 9.457031 L 22.820312 9.605469 L 22.738281 10 L 22.675781 10.027344 L 22.515625 10.273438 L 21.953125 10.140625 C 22.34375 11.792969 22.289062 13.054688 22.011719 14.734375 C 21.527344 14.664062 21.492188 14.5625 21.019531 14.601562 L 20.703125 14.628906 C 21.089844 14.738281 21.445312 14.933594 21.550781 15.261719 C 21.84375 15.152344 21.785156 15.238281 21.90625 15.015625 C 21.886719 15.28125 21.929688 15.316406 21.722656 15.488281 L 21.125 15.382812 L 21 15.601562 L 20.992188 15.640625 C 20.730469 15.761719 20.796875 15.507812 20.796875 15.847656 L 21.007812 15.871094 L 21.53125 16.058594 L 21.296875 16.566406 L 21.28125 16.753906 L 21.523438 17.316406 L 21.59375 17.351562 L 21.890625 18.160156 L 21.59375 18.238281 L 21.574219 18.296875 L 21.144531 18.394531 C 21.03125 18.136719 20.867188 17.789062 20.789062 17.648438 L 20.65625 17.648438 L 18.613281 19.835938 C 18.359375 19.5625 18.390625 19.460938 18.109375 19.300781 L 17.644531 18.851562 C 17.765625 19.4375 18.078125 19.664062 18.425781 20.03125 C 18.28125 20.066406 18.0625 20.253906 18.007812 20.335938 C 17.816406 20.113281 17.652344 19.777344 17.320312 19.585938 C 17.378906 19.3125 17.34375 19.464844 17.417969 19.242188 C 17.480469 19.042969 17.457031 19.328125 17.492188 19.039062 C 17.5 18.984375 17.523438 18.976562 17.535156 18.941406 C 17.199219 19.023438 17.011719 19.144531 16.609375 19.101562 C 16.414062 18.84375 15.960938 17.914062 15.46875 17.507812 L 15.492188 17.753906 L 15.570312 17.777344 L 16.128906 19.140625 L 16.304688 19.308594 C 16.523438 19.5 16.3125 19.320312 16.5 19.464844 C 16.90625 19.785156 17.289062 20.277344 17.496094 20.769531 C 16.628906 21.054688 15.945312 21.617188 14.765625 21.796875 L 14.582031 21.851562 L 14.390625 23.078125 L 13.585938 22.9375 C 13.601562 22.5 13.703125 22.371094 13.601562 21.996094 L 13.585938 21.988281 L 13.210938 22.066406 C 13.210938 22.382812 13.15625 22.183594 12.648438 22.171875 C 12.339844 22.167969 12.226562 22.136719 12.011719 22.058594 L 12.171875 20.957031 L 12.652344 20.714844 C 12.574219 20.746094 12.617188 20.550781 12.457031 20.800781 C 12.238281 21.136719 12.546875 21.117188 12.65625 21.84375 Z M 1.53125 16.960938 L 1.609375 17.058594 L 2.070312 18.09375 L 2.183594 18.199219 L 2.453125 18.769531 C 2.660156 18.941406 3.203125 19.648438 3.316406 19.929688 C 3.714844 20.164062 4.589844 21.226562 5.253906 21.644531 C 5.554688 21.832031 5.269531 21.675781 5.625 21.820312 L 5.617188 21.90625 C 5.976562 22.132812 5.878906 22.121094 6.320312 22.269531 L 6.304688 22.335938 L 7.351562 22.828125 L 7.351562 22.875 C 7.839844 23.15625 8.878906 23.480469 9.398438 23.613281 C 11.738281 24.21875 14.222656 24.074219 16.460938 23.335938 L 16.464844 23.304688 C 17.0625 23.136719 17.03125 23.136719 17.523438 22.878906 C 17.691406 22.789062 17.808594 22.734375 17.976562 22.652344 L 19.242188 21.898438 C 19.578125 21.671875 19.65625 21.570312 20.007812 21.363281 L 21.449219 19.976562 C 21.636719 19.8125 21.5 19.933594 21.617188 19.703125 L 21.804688 19.554688 C 22.203125 18.929688 22.445312 18.796875 22.761719 18.007812 L 22.816406 18.011719 L 22.996094 17.574219 L 23.046875 17.5625 L 23.105469 17.347656 L 23.152344 17.332031 C 24 15.265625 24.222656 14.179688 24.25 11.742188 L 24.132812 11.132812 C 23.902344 9.023438 23.332031 8.21875 22.585938 6.585938 L 22.511719 6.597656 L 22.035156 5.710938 L 21.925781 5.691406 C 21.914062 5.660156 21.894531 5.621094 21.882812 5.601562 L 21.605469 5.125 L 21.503906 5.070312 L 21.472656 4.949219 L 21.144531 4.601562 C 20.957031 4.480469 20.1875 3.804688 20.050781 3.617188 L 19.878906 3.484375 L 19.765625 3.402344 L 19.648438 3.273438 C 19.421875 3.242188 19.464844 3.308594 19.464844 3.117188 L 19.320312 3.054688 C 18.871094 2.882812 18.371094 2.480469 17.800781 2.199219 C 17.242188 1.921875 16.695312 1.730469 16.164062 1.449219 C 15.34375 1.023438 13.015625 0.917969 11.832031 0.984375 C 8.9375 1.136719 8.199219 1.492188 6.3125 2.632812 C 4.03125 4.007812 1.980469 6.117188 1.113281 9.214844 C 0.226562 12.375 0.578125 14.070312 1.53125 16.960938 Z M 1.53125 16.960938 "/>
<path style=" stroke:none;fill-rule:evenodd;fill:rgb(92.941176%,92.941176%,90.196078%);fill-opacity:1;" d="M 17.003906 12.347656 C 16.523438 12.339844 16.328125 12.441406 16.132812 12.078125 C 15.675781 11.226562 16.976562 10.550781 17.003906 12.347656 Z M 17.25 11.992188 C 16.355469 10.589844 17.691406 9.015625 19.351562 11.425781 C 19.621094 11.8125 19.582031 11.550781 19.691406 12.054688 C 19.527344 12.105469 18.515625 12.195312 17.941406 12.480469 C 17.875 12.515625 17.925781 12.519531 17.664062 12.601562 Z M 18.761719 8.554688 C 18.957031 8.132812 18.644531 8.308594 19.347656 8.222656 L 19.316406 8.070312 L 18.988281 7.570312 L 18.554688 7.660156 C 18.632812 7.875 18.664062 7.832031 18.433594 7.765625 C 18.503906 7.96875 18.53125 7.925781 18.316406 7.867188 C 18.378906 8.074219 18.414062 8.035156 18.195312 7.976562 C 18.253906 8.171875 18.285156 8.128906 18.074219 8.082031 C 18.121094 8.269531 18.15625 8.230469 17.957031 8.1875 C 18.003906 8.375 18.035156 8.332031 17.835938 8.292969 C 17.875 8.484375 17.910156 8.417969 17.695312 8.464844 C 17.566406 8.828125 16.722656 9.332031 16.398438 9.667969 C 16.171875 9.894531 16.28125 9.8125 16.125 10.074219 C 14.542969 12.773438 18.023438 13.125 19.304688 13.472656 L 19.609375 13.433594 C 19.832031 13.230469 19.691406 13.378906 19.761719 13.28125 C 20.300781 13.285156 20.449219 13.59375 20.472656 13.542969 C 20.480469 13.523438 20.515625 13.570312 20.535156 13.582031 L 20.546875 11.445312 L 20.507812 10.574219 L 21.882812 10.144531 L 21.300781 9.761719 C 21.289062 9.726562 21.253906 9.726562 21.234375 9.710938 C 20.753906 9.75 20.5 9.554688 20.074219 9.394531 C 19.992188 9.570312 20.257812 9.425781 19.734375 9.761719 L 19.578125 9.671875 C 19.558594 9.660156 19.523438 9.640625 19.503906 9.632812 C 19.371094 9.5625 19.527344 9.613281 19.304688 9.539062 C 19.078125 9.75 19.375 9.632812 19.007812 9.761719 L 18.59375 9.734375 C 18.445312 10.058594 18.75 9.9375 18.382812 10.167969 C 18.363281 10.144531 18.34375 10.105469 18.332031 10.089844 C 18.320312 10.070312 18.296875 10.035156 18.28125 10.015625 C 18.269531 9.992188 18.25 9.960938 18.234375 9.941406 C 17.898438 9.394531 17.761719 8.707031 18.628906 8.703125 C 18.550781 9.246094 18.367188 8.863281 18.550781 9.207031 C 18.675781 8.394531 18.664062 8.773438 18.761719 8.554688 Z M 11.808594 11.414062 C 13.265625 10.753906 14.09375 12.984375 12.789062 13.480469 C 11.320312 14.039062 10.429688 12.039062 11.808594 11.414062 Z M 11.769531 11.019531 C 9.5625 11.832031 11.003906 14.632812 12.933594 13.84375 C 14.734375 13.109375 13.765625 10.28125 11.769531 11.019531 Z M 5.054688 14.3125 C 5.265625 14.566406 5.117188 14.488281 5.511719 14.542969 C 5.972656 14.609375 7.613281 13.878906 8.617188 14.113281 C 8.761719 14.175781 8.992188 14.363281 9.148438 14.484375 C 9.671875 14.894531 9.726562 15.683594 9.640625 16.324219 C 9.601562 16.609375 9.515625 16.59375 9.460938 16.644531 C 9.484375 16.671875 9.507812 16.699219 9.511719 16.738281 C 9.554688 17.035156 9.96875 15.921875 9.976562 15.886719 C 10.054688 15.507812 10.003906 15.144531 9.824219 14.804688 C 9.382812 14.113281 8.90625 13.640625 7.699219 13.792969 C 6.824219 13.898438 5.902344 14.144531 5.054688 14.3125 Z M 19.789062 14.550781 L 20.03125 14.671875 L 20.078125 14.761719 L 20.601562 15.039062 L 20.574219 14.511719 C 19.789062 14.582031 20.265625 14.449219 20.109375 14.351562 L 18.890625 14.144531 C 19.367188 14.515625 19.167969 14.402344 19.789062 14.550781 Z M 7.304688 19.261719 L 7.171875 19.351562 L 7.164062 19.546875 C 7.316406 19.695312 7.265625 19.734375 7.53125 19.703125 L 7.613281 19.5625 L 7.671875 19.410156 L 7.742188 19.242188 L 7.699219 19.082031 L 7.433594 19.175781 Z M 7.957031 5.644531 L 8.132812 5.519531 C 7.960938 5.558594 8.019531 5.574219 8.042969 5.390625 L 7.988281 5.226562 L 7.730469 5.199219 C 7.78125 5.550781 7.679688 5.640625 7.957031 5.644531 Z M 22.519531 1.089844 C 22.519531 1.21875 22.765625 1.335938 22.695312 1.089844 C 22.628906 0.839844 22.988281 1.085938 22.644531 1.054688 C 22.5 1.042969 22.519531 0.863281 22.519531 1.089844 Z M 22.519531 1.089844 "/>
<path style=" stroke:none;fill-rule:evenodd;fill:rgb(94.117647%,90.196078%,32.156863%);fill-opacity:1;" d="M 21.449219 19.976562 L 20.007812 21.363281 C 20.019531 21.644531 20.0625 21.457031 19.75 21.707031 C 19.082031 22.242188 18.371094 22.65625 17.480469 23.082031 C 16.546875 23.53125 16.78125 23.414062 16.464844 23.304688 L 16.460938 23.335938 C 16.546875 23.59375 16.8125 23.390625 16.109375 23.628906 L 14.335938 24.039062 C 12.800781 24.316406 10.660156 24.199219 9.164062 23.75 L 7.484375 23.148438 C 7.144531 22.90625 6.996094 23.261719 7.351562 22.875 L 7.351562 22.828125 C 7.039062 22.949219 7.03125 22.953125 6.640625 22.75 C 6.640625 22.75 6.386719 22.574219 6.382812 22.566406 C 6.207031 22.367188 5.992188 22.703125 6.304688 22.335938 L 6.320312 22.269531 C 6 22.414062 6.242188 22.488281 5.808594 22.230469 C 5.332031 21.949219 5.570312 22.164062 5.617188 21.90625 L 5.625 21.820312 C 5.191406 21.992188 5.519531 21.953125 5.195312 21.820312 L 3.316406 19.929688 C 3.203125 19.644531 2.660156 18.941406 2.453125 18.769531 C 2.339844 18.71875 2.25 18.914062 2.09375 18.492188 C 1.992188 18.222656 1.96875 18.417969 2.183594 18.199219 L 2.070312 18.09375 C 1.746094 18.292969 2.042969 18.28125 1.792969 18 C 1.789062 17.996094 1.628906 17.726562 1.617188 17.695312 C 1.4375 17.335938 1.304688 17.269531 1.609375 17.058594 L 1.53125 16.960938 C 1.292969 17.101562 1.4375 17.664062 0.914062 16.019531 L 1.199219 17.03125 C 0.957031 16.917969 1.015625 16.964844 0.804688 16.925781 L 1.304688 18.050781 C 1.410156 18.253906 1.457031 18.359375 1.566406 18.570312 C 1.765625 18.953125 1.765625 18.953125 1.953125 19.023438 C 2.578125 19.695312 3.421875 21.179688 4.875 22.109375 C 5.132812 22.273438 5.179688 22.335938 5.375 22.5 C 6.21875 23.488281 8.664062 24.160156 10.019531 24.46875 C 10.378906 24.546875 10.472656 24.597656 10.90625 24.597656 C 11.171875 24.492188 11.199219 24.550781 11.601562 24.578125 C 12.601562 24.652344 12.917969 24.59375 13.800781 24.539062 L 14.269531 24.597656 C 15.421875 24.597656 17.652344 23.683594 18.449219 23.226562 C 19.898438 22.398438 20.617188 21.859375 21.6875 20.820312 C 22.121094 20.398438 22.488281 19.875 22.84375 19.308594 C 23.199219 18.738281 24.121094 17.183594 24.304688 16.601562 C 25.03125 14.292969 24.578125 14.828125 24.847656 12.929688 C 24.898438 12.574219 24.921875 12.203125 24.949219 11.699219 C 25.035156 10.214844 24.421875 8.730469 23.847656 7.425781 L 23.789062 7.265625 C 23.730469 7.117188 23.789062 7.214844 23.699219 7.019531 C 23.546875 6.699219 23.558594 6.824219 23.375 6.558594 C 23.167969 6.261719 23.0625 6.007812 22.867188 5.722656 C 21.601562 3.890625 20.429688 2.835938 18.460938 1.785156 C 17.515625 1.28125 16.4375 0.765625 15.386719 0.535156 C 15.507812 0.855469 15.660156 0.847656 15.992188 0.945312 C 17.28125 1.335938 19.457031 2.460938 20.207031 3.316406 C 19.632812 3.078125 19.085938 2.402344 18.480469 2.3125 L 19.011719 2.675781 C 19.15625 2.773438 19.1875 2.773438 19.269531 2.863281 C 19.445312 3.066406 19.636719 2.851562 19.320312 3.054688 L 19.460938 3.117188 C 19.464844 3.308594 19.421875 3.242188 19.644531 3.273438 C 19.644531 3.015625 19.714844 3.058594 19.460938 3.117188 C 19.601562 3.066406 20.007812 3.140625 19.765625 3.402344 L 19.878906 3.484375 L 20.046875 3.617188 C 20.046875 3.410156 20.101562 3.460938 19.878906 3.484375 L 20.203125 3.613281 C 20.5 3.832031 21.03125 4.320312 21.144531 4.601562 L 21.472656 4.949219 C 21.589844 5.003906 21.695312 4.882812 21.5 5.070312 L 21.605469 5.125 C 21.695312 5.105469 21.710938 5.019531 21.902344 5.324219 C 22.054688 5.570312 22.136719 5.417969 21.925781 5.691406 L 22.035156 5.710938 C 22.238281 5.683594 22.074219 5.570312 22.339844 5.898438 C 22.464844 6.054688 22.4375 6.074219 22.664062 6.28125 L 22.511719 6.597656 L 22.585938 6.585938 C 22.878906 6.511719 22.640625 6.308594 22.996094 6.9375 C 23.777344 8.292969 24.152344 9.671875 24.351562 11.21875 L 24.132812 11.132812 L 24.25 11.738281 C 24.503906 12.105469 24.488281 12.589844 24.402344 13.457031 C 24.304688 14.421875 24.078125 15.453125 23.757812 16.378906 C 23.332031 17.613281 23.351562 17.53125 23.152344 17.332031 L 23.105469 17.347656 C 23.332031 17.914062 23.265625 17.609375 23.046875 17.5625 L 22.996094 17.574219 C 23.121094 17.871094 23.140625 17.582031 23.023438 17.902344 C 22.855469 18.355469 23.09375 18.046875 22.816406 18.011719 L 22.761719 18.007812 L 22.863281 18.34375 L 21.871094 19.820312 C 21.761719 19.628906 21.59375 19.941406 21.804688 19.554688 L 21.617188 19.703125 C 21.773438 20.054688 21.707031 19.734375 21.601562 19.96875 C 21.539062 20.113281 20.660156 21.058594 20.304688 21.253906 C 20.050781 21.394531 20.429688 21.242188 20.050781 21.359375 C 20.671875 20.808594 20.910156 20.550781 21.445312 19.976562 Z M 21.449219 19.976562 "/>
<path style=" stroke:none;fill-rule:evenodd;fill:rgb(91.764706%,79.607843%,15.294118%);fill-opacity:1;" d="M 1.53125 16.960938 C 0.578125 14.070312 0.226562 12.375 1.113281 9.214844 C 1.980469 6.117188 4.03125 4.007812 6.3125 2.632812 C 8.199219 1.492188 8.9375 1.136719 11.832031 0.984375 C 13.015625 0.917969 15.34375 1.023438 16.164062 1.449219 C 16.695312 1.730469 17.242188 1.921875 17.800781 2.199219 C 18.371094 2.480469 18.871094 2.882812 19.320312 3.054688 C 19.640625 2.851562 19.445312 3.066406 19.269531 2.863281 C 19.1875 2.773438 19.15625 2.773438 19.015625 2.675781 L 18.480469 2.3125 C 19.085938 2.402344 19.636719 3.078125 20.207031 3.316406 C 19.457031 2.460938 17.28125 1.335938 15.992188 0.945312 C 15.660156 0.847656 15.507812 0.855469 15.390625 0.535156 C 14.800781 0.488281 14.074219 0.203125 12.875 0.203125 C 10.410156 0.199219 8.351562 0.597656 6.320312 1.753906 L 5.90625 2.082031 C 5.796875 2.175781 5.277344 2.628906 5.1875 2.523438 C 3.296875 3.644531 1.449219 6.023438 0.675781 8.25 C 0.136719 9.796875 0.0117188 10.863281 0 12.566406 C -0.0078125 14.3125 0.277344 15.699219 0.804688 16.925781 C 1.015625 16.964844 0.957031 16.917969 1.199219 17.03125 L 0.917969 16.019531 C 1.4375 17.664062 1.292969 17.101562 1.53125 16.960938 Z M 19.648438 3.273438 L 19.765625 3.402344 C 20.007812 3.140625 19.601562 3.066406 19.464844 3.117188 C 19.714844 3.058594 19.648438 3.019531 19.648438 3.273438 Z M 20.050781 3.617188 C 20.1875 3.804688 20.957031 4.480469 21.144531 4.601562 C 21.03125 4.320312 20.5 3.832031 20.203125 3.613281 L 19.878906 3.484375 C 20.101562 3.460938 20.050781 3.410156 20.050781 3.617188 Z M 2.070312 18.09375 L 1.609375 17.058594 C 1.304688 17.269531 1.4375 17.335938 1.617188 17.695312 C 1.628906 17.726562 1.789062 17.996094 1.792969 18 C 2.042969 18.28125 1.75 18.292969 2.070312 18.09375 Z M 2.453125 18.769531 L 2.183594 18.199219 C 1.96875 18.417969 1.992188 18.222656 2.09375 18.492188 C 2.25 18.914062 2.339844 18.71875 2.453125 18.769531 Z M 2.453125 18.769531 "/>
</g>
</svg>
