<?xml version="1.0" encoding="UTF-8"?>
<!DOCTYPE svg PUBLIC "-//W3C//DTD SVG 1.0//EN" "http://www.w3.org/TR/2001/REC-SVG-20010904/DTD/svg10.dtd">
<!-- Creator: CorelDRAW 2018 (64-Bit) -->
<svg xmlns="http://www.w3.org/2000/svg" xml:space="preserve" width="11in" height="8.5in" version="1.0" style="shape-rendering:geometricPrecision; text-rendering:geometricPrecision; image-rendering:optimizeQuality; fill-rule:evenodd; clip-rule:evenodd"
viewBox="0 0 1100000 850000"
 xmlns:xlink="http://www.w3.org/1999/xlink">
 <defs>
  <style type="text/css">
   <![CDATA[
    .fil6 {fill:#3497A7}
    .fil7 {fill:#47DCF5}
    .fil3 {fill:#69334B}
    .fil4 {fill:#922738}
    .fil1 {fill:#93B9C5}
    .fil2 {fill:#AB7987}
    .fil8 {fill:#B3AA53}
    .fil10 {fill:#B7E7E9}
    .fil9 {fill:#C71527}
    .fil5 {fill:#D1CEB1}
    .fil0 {fill:#E57D81}
    .fil14 {fill:#EACB27}
    .fil12 {fill:#EDEDE6}
    .fil13 {fill:#F0E652}
    .fil11 {fill:#FA0D06}
    .fil15 {fill:#FEFEFE;fill-rule:nonzero}
   ]]>
  </style>
 </defs>
 <g id="Layer_x0020_1">
  <metadata id="CorelCorpID_0Corel-Layer"/>
  <g id="_2339860980096">
   <path class="fil0" d="M313851 514143l4803 -6778c2470,-2443 3973,-2170 7081,-5382 -5159,2397 -8260,6508 -11288,7790l-596 4370z"/>
   <path class="fil0" d="M224795 440708c2872,-1278 2671,-1900 1368,1056 2812,-1089 2611,-1681 1288,1102 2872,1209 2198,1196 5036,2593 -551,-806 65,-179 -1474,-1933l-8734 -6893 2517 4076 -1 -1z"/>
   <path class="fil0" d="M256149 568211l-1242 -1440c-1671,-3633 -1134,-2786 605,-5944 -2169,1748 -462,-938 -1961,1815 -1670,3068 -791,1919 -1545,4765 2213,215 1574,-61 4144,803l-1 0z"/>
  </g>
  <g id="_2339860981728">
   <path class="fil1" d="M341891 471210c365,-158 668,-865 793,-633 124,230 523,-536 700,-641 5056,-2996 4260,-1040 5742,-147 -1155,-3600 -818,-3019 -4608,-4245l-2626 5666 -1 0z"/>
   <path class="fil1" d="M227558 544320c1322,6613 942,2008 -1450,3477l-2099 -2271 519 328 2720 3386c228,-291 679,-994 711,-854 32,141 476,-679 494,-1001 130,-2288 314,-1187 -502,-4382l2493 1054 -1512 -1202 -1373 1466 0 -1z"/>
  </g>
  <g id="_2339862612064">
   <path class="fil2" d="M241444 408633l550 1795c-245,1988 -823,1791 955,1376l-1824 1375 2293 1793c2237,-4490 1521,-2359 6204,-5593l-6672 2425 -955 -1376 -550 -1795c293,-2705 731,-1757 -2432,-1757l-264 1463 2697 294 -1 0z"/>
   <path class="fil2" d="M361268 530922l-1456 2131 -982 1995c2286,0 1637,440 982,-1995l1456 -2131 2044 -3051 -2122 -815 78 3867z"/>
  </g>
  <g id="_2339862594560">
   <path class="fil3" d="M359297 440989l4552 614 4509 -369c1030,1673 987,6753 10932,7937l724 -37c778,-2304 1160,-1662 478,-3752l-1459 1944 -2744 -1699c-5742,-1146 -3692,-82 -5009,-5963l-12329 -315 348 1639 0 -1z"/>
   <path class="fil3" d="M309293 584482l565 3706 1906 -601c-76,-4970 -723,-6294 874,-10027 1681,-3931 1404,-1589 4877,-4998l393 -3993 -1997 36 -411 2636c-987,2512 734,401 -1750,1720 -1252,664 -1206,296 -2400,702l-2059 10819 2 0z"/>
   <path class="fil3" d="M363312 527871c4741,-104 4223,1838 6206,6539 1196,2834 2202,5345 3354,8388l1390 0 196 -2044 -6111 -13345 -637 -1624 -6490 426 -30 843 2122 815 0 1z"/>
   <path class="fil3" d="M187610 477037l9107 5162c6008,-1881 1172,-294 6023,-2777l-24 -1274 112 -2857c-1194,2285 -645,974 -2594,1868 1029,2583 1474,2234 -1134,1241 -138,297 -543,637 -696,694 -10,4 -1769,1324 -2799,-863 -5130,-431 -4009,-1271 -8879,-3695l-747 -63 -29 1660c2047,-508 1658,-1035 1658,904l1 0z"/>
   <path class="fil3" d="M221487 544237c1750,658 936,-291 3039,1617 -804,3593 894,1277 -1592,3437l-3169 1005c-124,-263 -513,358 -774,533 -4822,-1288 -1731,-689 -3203,1400 5993,-310 2818,217 3203,-1400l4272 721 3998 -1990 -15 -322 -2720 -3386 -519 -328 -3137 -3724 -558 1178c2136,-395 1757,-827 1173,1259l1 0z"/>
   <path class="fil3" d="M374400 525892l2406 5694c241,215 654,132 801,541 1168,3219 -2123,-1636 1719,985l200 -2014c-1440,-2412 -2697,-3791 -2998,-7492l-2213 -256 84 2542 0 -1z"/>
  </g>
  <g id="_2339862560576">
   <path class="fil4" d="M294966 395746c-57,-1474 -385,-6950 41,-8195l985 -1834c2659,-2559 10398,-479 13778,597 -246,1667 596,1803 -2245,5065l-1177 1194c-3110,2653 -4623,1366 -11382,3174l0 0zm-402 5025l1386 -125 2065 -311 1852 -4097 1476 1193 2756 2c-241,-1790 -514,-1250 1435,-931 -198,-1746 -502,-1245 1380,-991 -238,-1900 -672,-1522 1194,-1240 -357,-1872 -717,-1457 1183,-1143 -268,-1942 -696,-1559 1219,-1219 -391,-1919 -724,-1489 1223,-1052 -238,-2045 -752,-1748 1174,-1283 -519,-2286 -1157,-2102 992,-1450l-309 -2026 -19158 -2689 129 17359 2 2z"/>
   <path class="fil4" d="M292431 588580c797,2159 -1232,1206 3209,1915l3852 -817 -3983 -44c-252,-46 -694,-280 -1050,-395 -219,-535 -594,-117 -1104,-3437l-154 -7368c1542,-6879 94,-1679 2444,-4533l7051 -169c-470,5758 -2394,8386 -1358,12824 -1642,740 -1043,-3395 -1678,3201 2847,-1251 2955,1637 1678,-3201l2097 604c-213,-3998 59,-4243 829,-8311 241,-1273 671,-2667 610,-3986 -263,-5598 483,-1483 -1151,-2885l-1169 -9 -10074 2199 -49 14411 0 0z"/>
   <path class="fil4" d="M185738 487674c5926,-789 7108,2263 7633,7140 3064,530 6747,1412 9041,2333l110 -3174 -7346 -926 502 -1560c-467,-5279 -2516,-4374 -7530,-7109l-2472 166 61 3130 1 0z"/>
   <path class="fil4" d="M215715 560857c3324,3256 631,1527 5567,2991l1718 -4433c78,-180 259,-541 380,-816l-3309 -291 -1700 -285 -2655 2835 -2 0z"/>
  </g>
  <g id="_2304861467344">
   <path class="fil5" d="M232963 561206l-1241 793c-4704,-2719 -3330,3238 -1896,-708 -5786,7389 -4020,3006 -5967,7928 517,290 3061,1594 3223,1689 4253,2471 982,434 4258,2834 1386,-3250 24,-1023 2415,-4586 1356,-2020 215,-148 1596,-2120 1496,-2136 25,69 1326,-2070l857 -1507 618 -1650c1865,-163 1313,249 752,-1812l4291 563c-1834,-2925 3300,-2301 -4756,-2301l465 1738 -752 1812 -618 1650 -857 1507c-2719,363 -2220,-54 -3778,-1682l65 -2077 1 0zm-2013 -4037l104 2274 587 341 -691 -2615 0 0z"/>
   <path class="fil5" d="M340483 556764c-124,356 -348,455 -423,1052 -393,3103 -129,16 -806,2189 -750,2406 -388,741 -978,3713 3429,2048 5128,5680 7102,8098 580,-902 2831,-2900 4344,-3285 -3596,-3955 -6837,-6400 -8112,-12739l4844 4839c-1859,-3146 -2170,-3685 -3472,-6608 906,-1052 1229,-1251 2059,-2263 158,-193 437,-511 587,-701 162,-207 450,-622 585,-801l1153 -1771c-6271,1707 -4985,4848 -6882,8279l-1 0z"/>
   <path class="fil5" d="M372286 514594c321,234 1830,1510 2145,1756 237,185 1022,858 1273,1024 1885,1239 314,374 2008,949l6230 1158c2153,-1881 1689,-2263 1893,-5113 -1254,2421 -668,1461 -3705,2663 -1061,-3543 -4781,-5665 -8763,-6832l3255 -310c-243,-184 -594,-384 -772,-491l-4466 -2546 -4212 346c1630,1030 -3296,2471 4837,1718l278 5678 1 0z"/>
   <path class="fil5" d="M295641 590494c-4441,-709 -2412,245 -3209,-1915l-2546 -491c-1162,-7847 -4360,-7628 -2098,-11242 1688,-2697 1210,-590 2046,-936l-4996 2617 -1673 11907c2236,849 3412,1156 6640,1222 5261,108 5835,2282 5835,-1164l1 0z"/>
   <path class="fil5" d="M192855 526063c-312,-5501 -1061,-2733 2757,-4624 278,-138 5471,-1113 5860,-1191l1204 -1231 2829 -1356c-4826,165 -8384,-1437 -11262,-3319l-5153 309 1913 7237c1691,6150 33,1409 1850,4175l1 1z"/>
   <path class="fil5" d="M195306 532023c-1633,-3885 421,-3165 -2832,-5484l-2914 -2063c-239,317 -706,841 -840,1004l-2967 3971c885,-44 -457,-2227 1704,1107l5409 10887 -188 -11889c417,299 757,372 858,778 1583,6450 -4257,-5120 1769,1690l1 -1z"/>
   <path class="fil5" d="M362021 497267c288,191 704,141 870,560 164,415 656,415 887,509 3354,1376 -951,-147 1902,744 8639,2696 7157,-1354 7502,-5103 295,-3207 303,-6427 202,-9640 -122,-3908 94,-5396 -1669,-8547l-100 23102c-217,-149 -557,-639 -652,-440 -261,543 -1790,-2796 -7372,-2817 -753,1074 708,-553 -1568,1631l0 0z"/>
   <path class="fil5" d="M187891 461750c827,-858 1959,-802 2861,-1551l10275 2788 2294 1400 812 4459c2709,-3570 1849,-2213 2109,-5948l-5215 88c-2352,-3965 -1187,-280 -8252,-8024 -196,-213 -469,-500 -654,-696l-4230 7482 1 1z"/>
   <path class="fil5" d="M329127 411666l8361 2193c2560,-377 2574,-667 3448,-1028 -2043,-4466 -4143,-5475 -4768,-4762 1563,-352 -140,487 756,-2054 -1681,1375 -206,-128 -2050,1809 -237,249 -776,1105 -1037,1358 -2958,2872 546,1501 -4709,2483l-1 0z"/>
  </g>
  <g id="_2304861471664">
   <path class="fil6" d="M320507 379281c282,1828 667,1430 -1168,1183 168,1850 592,1459 -1236,1210 211,1776 622,1409 -1127,1206 274,1871 620,1382 -1343,1157 -885,1856 -110,1339 -2039,2061l309 2026c-2150,-652 -1510,-836 -992,1450 -1925,-466 -1412,-763 -1174,1283 -1947,-438 -1615,-868 -1223,1052 -1915,-341 -1487,-724 -1219,1219 -1900,-315 -1540,-729 -1183,1143 -1866,-283 -1433,-660 -1194,1240 -1881,-254 -1578,-756 -1380,991 -1949,-319 -1676,-859 -1435,931l-2756 -2 -1476 -1193c0,2020 -494,1624 1476,1193 192,234 542,544 686,595 117,42 574,219 690,247 1887,454 1659,2189 1380,-841 1964,489 1630,978 1435,-931 1941,325 1645,833 1380,-991 1942,272 1546,688 1194,-1240 1832,275 1456,675 1183,-1143 1985,317 1600,743 1219,-1219 1828,328 1482,744 1223,-1052 2156,457 1737,858 1174,-1283 2330,466 1828,810 992,-1450l1344 -1004c162,-131 480,-374 656,-521 177,-148 444,-402 626,-559l2502 -2279c179,-175 466,-394 635,-573 168,-178 437,-436 590,-614l1648 -2921c2100,2315 2166,1523 3548,3967 -3423,4722 -4028,2541 -6454,7325 -2058,-565 -1685,-954 -1172,1112 -2174,-573 -1784,-980 -1204,1187 -2220,-609 -1907,-1087 -1269,1099 -2395,-698 -2019,-1150 -1264,1221 -2249,-656 -1929,-1118 -1237,1106 -2273,-701 -1873,-1091 -1183,1187 -2292,-694 -1892,-1084 -1171,1200 -2391,-727 -1934,-1057 -1056,1282 -2208,651 -1519,-1033 -2539,898l1860 4881c-3395,2332 -7215,2748 -12675,3423l1926 -9207 -2065 311 -2324 11406 14133 -3199 601 -610 3380 -896 -744 -1478c-1172,-821 -1716,964 -1609,-2031l57 -3496c2301,889 1735,1097 1056,-1282 2271,709 1855,1082 1171,-1200 2255,695 1850,1079 1183,-1187 2307,674 2013,1159 1237,-1106 2294,675 1878,1088 1264,-1221 2217,691 1864,1132 1269,-1099 2142,639 1707,1000 1204,-1187 2146,562 1819,996 1172,-1112 314,-102 724,-215 952,-266 239,-54 768,-171 1009,-222 3372,-717 -1891,150 2178,-293 1314,-4209 1750,-2918 5030,-5943 -2547,-4333 -2457,-4912 -7292,-5783l-369 841 -1 2z"/>
   <path class="fil6" d="M227428 412916c-99,1456 -346,940 80,2350 74,243 261,749 344,986 80,230 326,592 500,881 3846,-6035 3989,-973 3928,-13830 -30,-6223 -979,-13435 1383,-16734 5392,592 4317,-2971 4037,16737 -178,12454 161,7425 2787,12249l1061 3231 1870 -3813 -2293 -1793c-2912,-57 -1838,-1021 -2377,-4841l264 -1463 -219 -2390c4,-4679 -712,-5073 1289,-8547 -1200,-4768 25,-9037 -1970,-10557 -7621,-2463 -7634,274 -7608,7113 24,6239 174,12957 -246,19143l-2829 1277 -2 0zm10863 12218l2248 -5850c-6,2 -677,-992 -2071,1893 -128,265 -520,1252 -569,1550 -401,2478 -587,479 392,2407l0 1zm-8571 -5167l-43 3599 1470 1259c3039,3357 1209,2837 4167,4072l1928 -3357c-163,-13 -433,-209 -489,-34 -65,203 -476,19 -565,41 -189,48 -1928,607 -2385,774 -1793,-4700 -217,-3652 -4084,-6355l0 1z"/>
   <path class="fil6" d="M353193 444574l2277 1951 723 1124c240,162 597,379 721,483 116,96 515,416 626,513 102,89 405,742 479,563 70,-168 257,388 377,588 2422,5067 -140,1560 2827,2432 387,2322 399,1861 705,2694 851,2324 57,95 1357,2689 5428,-3630 2685,-2050 3535,-3938 4405,1696 7047,3842 12022,3398 232,179 587,169 704,528l6046 4174 749 -42 5835 1405 1655 -2623 624 -308 865 -4268 -3478 -1609 -415 -752 -7689 -3093 -310 -520 -3416 -828 -724 37 13950 7312c-981,4471 789,1137 -1969,4375l-12426 -3788 -4191 -3103c-8770,-4405 -8179,-1957 -10932,299 -1949,-5070 350,-1212 -2495,-2039 -1607,-5269 -3098,-3679 -4899,-9110l7522 -1515 -4552 -614c-7285,949 -4067,-974 -6103,3585l0 1z"/>
   <path class="fil6" d="M227246 549239l15 322 -3998 1990 3998 -1990 3026 341c150,-7537 -457,-2226 1385,-4407l11001 3973c-1508,3715 184,961 -1500,3105l-7749 5791 -1944 -2624c-2105,149 -3929,138 -5815,382 -1048,136 -1681,120 -2855,554 -4368,1619 -913,311 -2739,1632l3309 291 7572 -1429 691 2615 80 2215 1241 -793 1365 -1003 1346 -906c6862,-7906 7511,-4336 9928,-10551l-15160 -4691 -2493 -1054c816,3194 633,2093 502,4382 -18,322 -463,1141 -494,1001 -32,-140 -481,563 -711,854l0 0z"/>
   <path class="fil6" d="M361220 526213l6490 -426 637 1624 -637 -1624 -4764 -2102c838,-10938 -346,-9718 3439,-13020l-2511 -1343c-1299,1521 -1136,432 -1759,3515 -17,83 -174,3585 -193,3979 -150,3148 -470,6267 -700,9396l-1 1zm15214 -5524l1278 -2365c-1694,-574 -122,290 -2008,-949 -251,-166 -1036,-839 -1273,-1024 -316,-245 -1824,-1521 -2145,-1756l-5407 -2963c-2775,2717 -878,972 3437,4195 2538,1896 3607,3000 6117,4863l1 -1zm-2033 5203l-84 -2542c26,-3655 -696,-937 2022,-2237 -4770,-1807 -4371,2075 -1936,4779l-1 0z"/>
   <path class="fil6" d="M303436 587159l-2097 -604c1277,4837 1169,1950 -1678,3201 1078,4022 2,5431 -131,10143l8348 1532 1981 -13244 -565 -3706c-160,367 -358,802 -453,1109l-1320 7309c-533,3433 -328,4334 -2343,6616l-2377 -576c-2309,-4030 -80,-6672 637,-11780l-2 -1z"/>
   <path class="fil6" d="M215715 560857l2655 -2835c-8211,1097 -9202,3157 -13762,1436l-502 -3937c1441,-308 3835,-461 5313,-752 3007,-592 57,296 3074,-898l2091 -1420 -6497 78 -6100 1500c1974,13636 2349,6781 13725,6828l2 0z"/>
   <path class="fil6" d="M374457 540755l-196 2044c778,1521 2504,5281 3652,8061l4473 -1052 209 -619 3095 -862 -3101 -8717 -735 -384 -2529 -6115c-3842,-2621 -551,2234 -1719,-985 -148,-409 -561,-327 -801,-541 4360,13004 9252,14280 4181,16566 -2583,1165 -1816,200 -2775,-806l-3756 -6590 1 0z"/>
   <path class="fil6" d="M172602 472682c2711,507 -472,793 2193,-468 96,-46 2780,-1523 3688,-1959l-4217 -1145 -1663 3572 0 0zm8516 -1525l-2426 -372 -1624 1613 4050 -1240zm1223 2602c174,220 398,328 498,677 100,348 439,521 578,605 1770,1067 519,509 2535,1090l1658 904c0,-1938 389,-1412 -1658,-904l29 -1660c-1948,-1081 -198,-448 -3640,-713 1596,-1542 1259,-731 -1090,-2012l-2131 2133 3222 -121 -1 2zm-9255 3748c2559,-2395 1012,-576 125,-1554l-1320 -2784c-1930,5306 -275,3414 1196,4338l-1 0zm11906 5492c-660,1954 -1207,1658 685,1544l2472 -166c-1356,-1928 2425,-2507 -3159,-1378 -557,-617 -194,-688 -1911,-1830 -2480,-1647 -3378,-1155 -6343,-3930l-3217 993c5099,1936 6220,4323 11471,4767l1 0z"/>
   <path class="fil6" d="M196718 482198l5892 -1767c2412,5133 4711,7350 6069,11952l-13000 -896 -502 1560 7346 926 8732 -297c-974,-4310 -2157,-4492 -4169,-8418l-874 -309 -1411 -3643 -828 145 -78 -1829 -1155 -200c-4852,2483 -15,896 -6023,2777l2 -2z"/>
   <path class="fil6" d="M307506 561898l-892 1299c-6408,3514 -2178,4186 -6809,7497l2748 1276 1169 9c-1298,-1451 -281,-1474 -905,-2998l3796 -5784c2149,733 1563,894 892,-1299 2300,-906 755,881 3239,-1913 2615,4106 1705,5036 3705,9386l1050 1872 411 -2636c-1417,-4599 -1912,-8430 -5251,-11718l-3156 5010 2 -1z"/>
  </g>
  <g id="_2339856316432">
   <path class="fil7" d="M356194 447649l-723 -1124 723 1124 2203 2148c-120,-200 -308,-756 -377,-588 -74,178 -376,-474 -479,-563 -112,-97 -510,-417 -626,-513 -124,-103 -481,-322 -721,-483l0 -1zm5030 4580c2847,826 547,-3031 2495,2039 2754,-2256 2163,-4704 10932,-299l4191 3103 12426 3788c2757,-3238 988,96 1969,-4375l-13950 -7312c-9945,-1185 -9902,-6265 -10932,-7937l-4509 369 -7522 1515c1801,5432 3293,3843 4899,9110l1 -1zm22204 -2265l310 520 -310 -520zm7999 3613l415 752 -415 -752zm3028 6629l-624 308 624 -308z"/>
   <path class="fil7" d="M172602 472682l-713 489 1320 2784c888,978 2434,-841 -125,1554l435 725 3217 -993c2965,2775 3863,2283 6343,3930 1718,1142 1356,1213 1911,1830 5582,-1129 1803,-550 3159,1378 5013,2736 7063,1831 7530,7109l13000 896c-1358,-4601 -3658,-6818 -6069,-11952l-5892 1767 -9107 -5162 -1658 -904c-2017,-581 -765,-24 -2535,-1090 -139,-84 -478,-258 -578,-605 -101,-350 -326,-458 -498,-677l-3222 121 2131 -2133 -132 -591 -4050 1240 1624 -1613 -209 -529c-907,435 -3591,1913 -3688,1959 -2664,1261 519,974 -2193,468l-1 -2zm31370 8768l828 -145 -828 145zm2239 3499l874 309 -874 -309z"/>
   <path class="fil7" d="M228352 417133l1368 2834c3867,2703 2291,1654 4084,6355 457,-167 2196,-726 2385,-774 89,-22 500,162 565,-41 56,-176 326,21 489,34l1048 -407c-979,-1928 -793,70 -392,-2407 49,-298 441,-1285 569,-1550 1394,-2885 2065,-1892 2071,-1893l1008 -498 -1061 -3231c-2626,-4825 -2965,206 -2787,-12249 280,-19708 1354,-16145 -4037,-16737 -2362,3298 -1413,10511 -1383,16734 61,12857 -80,7796 -3928,13830l1 0z"/>
   <path class="fil7" d="M307506 561898c671,2194 1257,2031 -892,1299l-3796 5784c624,1523 -393,1547 905,2998 1635,1401 889,-2714 1151,2885 61,1318 -369,2713 -610,3986 -770,4068 -1043,4312 -829,8311 -717,5109 -2946,7751 -637,11780l2377 576c2016,-2282 1811,-3182 2343,-6616l1320 -7309c94,-308 293,-744 453,-1109l2059 -10819c1194,-406 1147,-38 2400,-702 2484,-1319 763,793 1750,-1720l-1050 -1872c-2001,-4350 -1090,-5280 -3705,-9386 -2484,2794 -939,1008 -3239,1913l0 1z"/>
   <path class="fil7" d="M367709 525787l637 1624 6111 13345 3756 6590c958,1008 193,1971 2775,806 5071,-2287 179,-3563 -4181,-16566l-2406 -5694c-2434,-2704 -2834,-6586 1936,-4779l96 -424c-2510,-1862 -3579,-2967 -6117,-4863 -4315,-3223 -6213,-1478 -3437,-4195l-496 -967c-3785,3302 -2600,2082 -3439,13020l4764 2102 0 1zm14146 13439l735 384 -735 -384zm741 9962l-209 619 209 -619z"/>
   <path class="fil7" d="M227261 549559l-3998 1990 -4272 -721c-385,1617 2790,1090 -3203,1400l-1204 222 -2091 1420c-3017,1194 -68,308 -3074,898 -1478,291 -3872,444 -5313,752l502 3937c4561,1723 5550,-339 13762,-1436l1700 285c1826,-1322 -1630,-14 2739,-1632 1174,-435 1806,-418 2855,-554 1885,-244 3709,-233 5815,-382l1944 2624 7749 -5791c1684,-2144 -8,610 1500,-3105l-11001 -3973c-1842,2180 -1234,-3132 -1385,4407l-3026 -341 2 -1z"/>
   <path class="fil7" d="M309443 400341c-879,-2339 -1335,-2009 1056,-1282 -721,-2285 -1121,-1894 1171,-1200 -689,-2277 -1089,-1887 1183,-1187 -692,-2224 -1012,-1761 1237,-1106 -755,-2371 -1131,-1919 1264,-1221 -639,-2187 -951,-1708 1269,-1099 -582,-2169 -971,-1761 1204,-1187 -513,-2066 -886,-1677 1172,-1112 2425,-4784 3031,-2602 6454,-7325 -1382,-2444 -1448,-1651 -3548,-3967l-1648 2921c-152,178 -421,436 -590,614 -169,179 -457,397 -635,573l-2502 2279c-182,157 -449,411 -626,559 -178,148 -494,391 -656,521l-1344 1004c836,2260 1337,1915 -992,1450 563,2142 982,1740 -1174,1283 259,1795 605,1379 -1223,1052 381,1961 767,1535 -1219,1219 273,1818 648,1418 -1183,1143 352,1927 748,1512 -1194,1240 265,1824 561,1315 -1380,991 196,1909 529,1421 -1435,931 279,3030 506,1294 -1380,841 -116,-28 -573,-207 -690,-247 -145,-51 -494,-361 -686,-595 -1971,432 -1476,827 -1476,-1193l-1852 4097 -1926 9207c5460,-675 9280,-1090 12675,-3423l-1860 -4881c1020,-1930 331,-246 2539,-898l-2 -1zm2296 7005l-744 -1478 -1609 -2031c-106,2996 438,1210 1609,2031l744 1478zm-3380 896l-601 610 601 -610zm7273 -24205c1961,224 1617,713 1343,-1157 1748,204 1339,571 1127,-1206 1829,248 1404,639 1236,-1210 1835,246 1450,644 1168,-1183l369 -841 -369 841 -1168 1183 -1236 1210 -1127 1206 -1343 1157 -2039 2061c1929,-722 1155,-206 2039,-2061z"/>
  </g>
  <g id="_2339856314864">
   <path class="fil8" d="M398775 539386c2074,2128 1849,3048 6265,-10289 3317,-10020 5696,-21170 6685,-31575 889,-9352 1052,-14573 -1548,-18537 -301,26330 -2629,38054 -11401,60402l-1 -1zm-1101 2476c2254,532 2949,3798 620,-2326l-620 2326zm-2408 4856c2874,399 410,3689 2163,-1187 1236,-3439 1013,-343 -273,-3543l-1889 4730zm-10476 16674c-2216,4176 -464,767 690,2838l10297 -15946 -1063 -3596c-3278,8509 -5791,9954 -9923,16704l0 0zm-3712 4531c-5577,6199 -8055,9025 -14498,14972 3920,-1295 19,356 2653,-1155 3662,-2102 12773,-12339 13437,-13877 1091,-2530 1786,913 169,-2876 -1212,2470 196,1172 -1763,2936l1 0zm-51692 35928c3289,1225 829,2456 10527,-2369 9255,-4603 16629,-9086 23559,-14851 3244,-2699 2778,-671 2675,-3737 -3659,2263 -4454,3365 -7931,5803l-13167 8136c-1730,888 -2952,1500 -4704,2454 -5064,2757 -4767,2784 -10959,4563l0 1zm-94576 -4608c-3660,4157 -2112,330 1417,2944l17409 6505c15512,4846 37736,6094 53679,3108l18372 -4441c7279,-2567 4546,-369 3631,-3150 -23184,7960 -48974,9544 -73235,3019 -5407,-1455 -16170,-4934 -21273,-7984l-1 0zm-10850 -5810c-3240,3940 -1002,335 827,2489 48,56 2673,1959 2679,1963 4038,2217 4137,2129 7370,841l-10877 -5293zm-7143 -4670c-489,2786 -2929,480 2005,3511 4510,2772 1964,1984 5299,436 -4576,-1634 -3536,-1498 -7304,-3947zm-23843 -21332l19497 20425c3353,1410 -63,1861 4435,6 -3680,-1590 -736,127 -3838,-1915 -6878,-4528 -15981,-15969 -20093,-18515l-1 -1z"/>
   <path class="fil8" d="M381336 405644l310 1330c2018,-2014 919,-721 -310,-1330zm4717 8005c2172,-2942 1344,-1302 -250,-3953 -1978,-3288 -2157,-2344 -3095,-2161l2885 5156c118,231 304,639 459,957l1 0zm6082 9783l1552 -3382c-2311,-2235 -2057,-2476 -3352,-4133 -2767,-3543 -1065,-2324 -3148,-2022l4947 9537 1 0zm16814 48991l2275 940c-2075,-16695 -5984,-31585 -14062,-46257 -3722,-6761 -1217,-4569 -4293,-3784 7745,17639 13685,26323 16079,49101l1 0z"/>
   <path class="fil8" d="M306596 617852l-4858 -662c-9148,624 -12415,1261 -22832,468 -4163,-318 -4454,-941 -7199,194 6419,3233 7578,2433 16819,2415 4176,-8 15425,-1267 18070,-2415l0 1z"/>
   <path class="fil8" d="M214308 595204c-2030,-1763 -2513,-2463 -5169,-4234 -15058,-10037 -23820,-26084 -30307,-33301 626,2931 -65,1033 926,3100 2319,4835 11914,15846 15836,20056 4077,4377 13230,12938 18714,14379l0 0z"/>
   <path class="fil8" d="M212359 379455c965,1137 6344,-3768 7477,-4768 -5017,981 -5330,1113 -7477,4768z"/>
  </g>
  <g id="_2339856324976">
   <path class="fil9" d="M287813 393045c-2581,-920 -2237,-1400 -1288,1177 -2480,-919 -2252,-1442 -1224,1028 -2699,-894 -2196,-1255 -1176,1393 -2379,651 -1394,-1151 -1633,9027 -478,20358 5126,48203 -19108,48274 -588,2 -4378,-430 -4726,-542 -7410,-2366 -1712,-65 -3404,-2640 -4731,993 -1972,631 -2225,-1280l-3540 69c787,-2480 1039,-1889 -1427,-1027 -558,-2901 1635,-377 -1547,-3257 -1817,-1643 -2181,-1223 -4349,-1568 1018,-2622 1263,-2067 -1320,-1041 -816,-2668 1115,-633 -1132,-2517 -2366,-1984 -441,-770 -3503,-1211 983,-2516 1088,-1816 -1418,-907 -846,-3159 1123,-504 -1127,-2545 -1235,-1120 -1581,-972 -3366,-1433 814,-2360 999,-1763 -1348,-921 791,-2516 901,-1731 -1617,-830 926,-2482 1117,-1847 -1409,-1046 791,-2352 1222,-1945 -1175,-1330l1390 -2906c410,-2552 65,156 2028,-721 -584,-1966 -981,-1521 1037,-1455l472 -1271 43 -3599 -1368 -2834c-174,-289 -421,-650 -500,-881 -81,-237 -270,-744 -344,-986 -427,-1409 -180,-894 -80,-2350l-4459 -4812c-8492,3684 -26087,27880 -28619,38203l15494 5182 7943 -15427 3950 -797c-2339,-1560 3709,-2178 -5449,-1480l-8461 13850 -9331 -2587c2136,-11568 17108,-27534 24194,-33414l1129 4685c835,1940 1493,3294 2697,4857 -976,2367 -4837,4542 -1765,8745 -793,2536 -1322,2231 1175,1330 -858,2574 -1122,1999 1409,1046 -999,2769 -1059,1923 1617,830 -746,2214 -915,1609 1348,921 930,3430 -1069,313 1230,2421 1960,1797 452,909 3263,1557 -971,2480 -1070,1777 1418,907 1014,2916 -1109,200 1341,2236 2330,1936 248,780 3294,1493 -1024,2554 -1236,1973 1320,1041 939,2360 -296,1019 1864,2912 2107,1846 1854,1294 4032,1912 -951,2509 -1123,1852 1427,1027l852 1554c6641,7243 25549,7089 32103,-7406 2409,-5328 3659,-40606 1683,-47055 2696,951 2161,1281 1176,-1393 2499,981 2250,1487 1224,-1028 2569,945 2206,1407 1288,-1177l652 34081c-106,6472 -998,7269 2324,11921l-139 -48809c-2709,1275 -974,-121 -2838,2806l2 -2z"/>
   <path class="fil9" d="M268455 531184c-3980,2444 -5843,9511 -7794,13715l-2031 3931c-3106,5919 -7428,13173 -7050,19121 4735,3848 16194,7725 23584,8390l-133 10054c-13902,-2 -31755,-8397 -39933,-13913 700,-1867 3081,-5422 3980,-6516 3044,-3706 4698,-2121 5033,-3207 101,-328 508,-245 709,-437l-1626 -1767 -4291 -563c561,2061 1113,1650 -752,1812l-618 1650 -857 1507c-1302,2138 170,-65 -1326,2070 -1381,1971 -240,99 -1596,2120 -2391,3565 -1029,1337 -2415,4586 2870,1326 6158,3935 9814,5792 10484,5323 24561,9708 36870,10649l-316 -16435c-2471,-913 -19630,-5240 -21559,-5537 -2570,-865 -1931,-588 -4144,-803 755,-2846 -125,-1697 1545,-4765 1499,-2754 -207,-67 1961,-1815l6696 -14529c1626,-3104 1343,-2423 2370,-5920l3878 -9194c3978,-1953 3054,-3300 7931,-6462 11775,-7637 22102,-44 28804,9002 149,-226 257,-617 276,-767 1632,-12980 -32396,-19443 -37010,-1772l2 1z"/>
   <path class="fil9" d="M343418 421168l24 620 3350 9470 3535 -2176c2059,-3707 -1308,-6406 -3670,-9101l6149 -8408 14180 15674c1917,2398 11306,15641 9302,18379l-3296 -7381c-18540,-800 -8186,-1138 -14636,-4843 -1059,-608 -1147,-2157 -5181,-550l-2112 2057c-2333,-816 -1952,-1232 -1253,1136 -2252,-742 -1880,-1154 -1227,1120 -2217,-650 -1821,-1061 -1248,1173 -2134,-622 -1744,-1030 -1261,1130 -2056,-544 -1665,-935 -1207,1138 -2028,-470 -1631,-878 -1246,1159 -2273,-496 -1478,-774 -1478,1864 2227,-528 1887,196 1478,-1864 2065,419 1714,868 1246,-1159 2052,467 1693,891 1207,-1138 2178,528 1852,1001 1261,-1130 2263,617 1906,1065 1248,-1173 2259,635 1942,1101 1227,-1120 2370,729 2050,1206 1253,-1136l4513 -962 3373 5400 12329 315c1319,5881 -733,4818 5009,5963l2744 1699 1459 -1944c-2077,-6550 -8004,-16591 -11655,-21062 -5120,-6269 -9940,-14107 -17400,-16634 -2450,5849 -5693,7501 -8017,13482l0 2z"/>
   <path class="fil9" d="M371714 475790c1763,3150 1547,4639 1669,8547 101,3213 93,6433 -202,9640 -344,3748 1137,7800 -7502,5103 -2853,-891 1452,633 -1902,-744 -230,-95 -723,-94 -887,-509 -166,-419 -582,-369 -870,-560l-3194 429c2470,2973 -310,847 3283,2521 2428,1131 11215,3351 13397,-3043 2210,-6478 -465,-22602 -1317,-28751 3632,-2506 6284,-1963 9133,-3587 4378,8232 4334,33992 379,42094l-12319 -78 4466 2546c179,106 529,307 772,491 4902,-413 5280,660 10305,1414 2878,-18103 3454,-31723 -585,-49571l-749 42 -14274 4625 395 9392 -1 -1z"/>
   <path class="fil9" d="M244391 408547c-2461,-2984 -5569,-10105 1303,-13058 6460,-2777 25142,-9200 31190,-8106l91 10337c-3921,1646 -11802,2125 -24537,7285 -4156,1684 -4361,2439 -8048,3543l0 -1zm-4309 -12608c-2001,3475 -1285,3869 -1289,8547l219 2390c3163,0 2726,-947 2432,1757l550 1795 955 1376 6672 -2425c7671,-3702 20364,-9314 30267,-8098l295 -17179c-9500,-375 -28174,4561 -36932,9679l-1452 866c-2276,1480 -297,-59 -1717,1291l0 0z"/>
   <path class="fil9" d="M202678 519016l1579 1675c4857,5252 7052,14487 11059,17744 2859,2324 -1587,16 2565,1070 -1108,5714 -314,3117 2434,3473 -1166,2808 -1639,2471 1173,1259 -850,4098 1033,2878 -10472,5406 -6105,-4367 -11580,-17249 -14983,-24766 3119,-2493 2811,-123 5442,-4630 -389,78 -5582,1054 -5860,1191 -3820,1891 -3070,-877 -2757,4624l-381 476c3253,2319 1198,1599 2832,5484 2003,2063 3688,6550 5806,9891 2474,3905 5189,7399 6976,10615l6497 -78 1204 -222c1472,-2089 -1619,-2688 3203,-1400 260,-175 649,-796 774,-533l3169 -1005c2486,-2161 787,155 1592,-3437 -2104,-1906 -1291,-957 -3039,-1617 585,-2086 962,-1653 -1173,-1259l558 -1178 -906 -1794c-289,-3036 63,-155 -2086,-502 -582,-4071 -3771,-7528 -5543,-11174 -928,-1910 -1709,-3537 -2708,-5641 -1956,-4123 -868,-3496 -4124,-5030l-2829 1356 -2 2z"/>
   <path class="fil9" d="M318998 390947c646,2107 973,1674 -1172,1112 504,2187 938,1828 -1204,1187 595,2231 948,1791 -1269,1099 615,2309 1030,1896 -1264,1221 776,2265 1070,1780 -1237,1106 666,2266 1071,1881 -1183,1187 684,2283 1101,1909 -1171,1200 679,2379 1245,2170 -1056,1282l-57 3496c4405,595 -540,-983 6041,1135 3046,979 1797,555 4269,2109l9431 4583c5256,-982 1750,388 4709,-2483 262,-253 799,-1109 1037,-1358 1845,-1937 369,-434 2050,-1809l4420 -6788 -7548 -3983c1722,6432 -2,512 2444,4941l-6087 7790 -15775 -6503c3180,-3159 5105,-5877 9876,-8072 3041,1305 -763,1145 3989,1672 4443,493 2031,1169 3599,-1225l-8705 -3680c-4068,443 1194,-424 -2178,293 -241,52 -770,169 -1009,222 -228,52 -639,164 -952,266l2 -2z"/>
   <path class="fil9" d="M280661 471197c20732,-7954 30774,22559 12077,30515 -20000,8511 -34986,-21726 -12077,-30515zm23372 20303c6721,-23691 -29531,-32615 -36058,-10184 -6889,23671 29495,33322 36058,10184z"/>
   <path class="fil9" d="M346667 554676c2033,-3188 6554,-7402 9537,-11052 3687,-4510 5403,-8127 8578,-12443 2684,2473 4388,6400 4736,11576 -2529,6132 -12228,16340 -16657,19828 -3222,-3281 -3686,-4482 -6195,-7909l0 0zm14601 -23754l-1456 2131c656,2435 1304,1995 -982,1995 -2169,2578 -3009,4300 -5328,7153 -1250,1539 -2016,2680 -3195,4019 -1976,2246 -820,1331 -2940,2263l-1153 1771c-135,179 -423,595 -585,801 -150,190 -429,508 -587,701 -830,1012 -1153,1210 -2059,2263 1302,2923 1613,3461 3472,6608 2915,1738 2583,2827 5215,5811l21202 -23642c-1153,-3043 -2159,-5554 -3354,-8388 -1982,-4702 -1465,-6645 -6206,-6539l-2044 3051 0 2z"/>
   <path class="fil9" d="M321631 564430c-1454,2944 -305,1172 -2277,3182 -192,196 -1151,693 -1446,958l-393 3993c-3474,3409 -3197,1067 -4877,4998 -1596,3732 -950,5056 -874,10027 12238,-1933 19328,-8015 28302,-11104 -2157,-5306 -6124,-10602 -10331,-14058 -1930,-1585 235,354 -2029,-1689l-1816 -1835c592,4057 -465,1485 2486,4937l7880 10299c-3278,3139 -16130,9230 -22191,9754 379,-7959 949,-5041 3863,-8014 4270,-4357 -855,-2934 5677,-7990 -639,-6077 -246,-1415 -1972,-3457l-1 0z"/>
   <path class="fil9" d="M280783 477021c26642,-3243 13563,28219 -774,18118 -5926,-4175 -5257,-11442 774,-18118zm299 -1546c-14333,6757 -5080,28348 10144,22317 13559,-5372 4957,-29435 -10144,-22317z"/>
   <path class="fil9" d="M200235 477158c-2578,-968 -2131,-1316 -1134,1241l-3495 -169c-976,-1773 418,-346 -1438,-2130 -236,-226 -1120,-811 -1387,-998 -473,-331 -2178,-1161 -2825,-1583 551,-12711 1828,-11075 11087,-6831l-807 10470 -1 0zm-12345 -15406l-1163 12785c4869,2424 3749,3264 8879,3695 1029,2185 2788,867 2799,863 153,-56 558,-396 696,-694 2608,993 2163,1341 1134,-1241 1949,-894 1400,417 2594,-1868l1303 -6441 -812 -4459 -2294 -1400 -10275 -2788c-903,748 -2033,693 -2861,1551l-1 -2z"/>
   <path class="fil9" d="M299492 589677l168 80c635,-6596 36,-2461 1678,-3201 -1036,-4437 890,-7066 1358,-12824l-7051 169c-2350,2854 -902,-2346 -2444,4533l154 7368c510,3320 886,2901 1104,3437 356,115 797,348 1050,395l3983 44 0 0z"/>
   <path class="fil9" d="M197653 506928c-3342,-2059 -2963,-1504 -7126,-2105l-2180 -15391c4281,2294 1572,1457 3256,4375 162,280 248,637 447,900 1974,2620 3777,2269 7047,2538 1697,2440 -137,1837 1936,3142 5490,3456 4987,-114 5210,-237l-3261 -285 -569 -2715c-2294,-921 -5978,-1803 -9041,-2333 -524,-4876 -1707,-7929 -7633,-7140l1641 19512 10274 -259 -2 0z"/>
   <path class="fil9" d="M296565 386357c4329,960 7756,551 10176,2634 -2868,4792 -1889,5462 -2540,3744 -74,-194 -325,509 -480,768 -1590,-534 -4057,-1023 -6243,-2147l-913 -5000 -1 0zm-1599 9389c6759,-1807 8272,-521 11382,-3174l1177 -1194c2841,-3261 1999,-3398 2245,-5065 -3379,-1075 -11118,-3156 -13778,-597l-985 1834c-426,1244 -98,6720 -41,8195l0 0z"/>
   <path class="fil9" d="M379527 531098l2418 -5477 -5415 -2015c302,3701 1558,5080 2998,7492z"/>
  </g>
  <g id="_2339856320528">
   <path class="fil10" d="M325735 501984c-3108,3211 -4610,2938 -7081,5382l-4803 6778c-1857,5592 -1698,9569 91,15060 302,926 1268,3444 1407,3822 507,1370 572,1660 1247,3519l2435 4719c5130,4404 9825,14433 11848,17233 4175,451 6134,-856 9605,-1730 1898,-3430 611,-6572 6882,-8279 2120,-932 964,-17 2940,-2263 1179,-1339 1945,-2480 3195,-4019 2319,-2853 3161,-4576 5328,-7153l982 -1995 1456 -2131 -78 -3867 30 -843c230,-3130 549,-6248 700,-9396 19,-394 176,-3895 193,-3979 624,-3083 461,-1994 1759,-3515 -6431,-1585 -4382,-346 -9309,-4375 -7975,-1880 -18251,-4610 -28828,-2964l1 -5zm-5622 42197l-833 -237 833 237z"/>
   <path class="fil10" d="M268455 531184l-3878 9194 2706 -1261c-1236,7306 -2249,8826 -4267,13898 21,-25 -2020,-1227 3628,-1791 289,-29 1805,74 2069,137 1660,401 1149,431 1991,931 -1416,3409 -125,1784 -4224,4272 -11833,7178 -2549,-1943 -9373,7648 4726,2280 1624,3288 8800,4175 4028,498 9586,416 12709,1980 3285,1645 3682,5210 10771,2526 1527,-578 415,-1413 4192,-2456 2143,-592 3441,-91 6226,255 4631,-3311 400,-3983 6809,-7497l892 -1299 3156 -5010c3338,3288 3834,7119 5251,11718l1997 -36c295,-265 1254,-763 1446,-958 1971,-2010 823,-237 2277,-3182l-16441 -30706c-6702,-9046 -17028,-16639 -28804,-9002 -4875,3163 -3953,4509 -7931,6462l-2 0z"/>
   <path class="fil10" d="M203896 479621c483,-1974 863,-1474 -1179,-1474l24 1274 1155 200 78 1829 828 -145 1411 3643 874 309c2013,3926 3194,4107 4169,8418l-8732 297 -110 3174 569 2715 3261 285c4182,-1248 7966,-2200 12413,-3399 2703,-729 3903,-975 6595,-1642 3330,-827 3614,-967 6287,-2243l4419 -1137c224,-228 579,-889 703,-656l13411 -9578 259 -5970 -6710 33c1178,-1358 1909,-1876 3163,-2927 3765,-3159 5483,-2819 44,-9898 -3902,-5081 -3072,-2648 -6967,-5989 -4105,-3520 -511,-1688 -9945,-9163 -4597,-3642 -2370,-630 -2463,-4711 -2754,1231 -2441,1723 -1288,-1102 -2593,1099 -2294,1628 -1368,-1056l-4901 -990 -8248 13083c-9090,9744 -606,19230 -7751,26820l0 1z"/>
   <path class="fil10" d="M211022 506770l-3615 656c3634,-465 2412,-1056 2412,3100 -4614,-203 -2718,-2018 -3094,2113 2620,3258 3475,3019 5415,8180l9507 16325c2061,2467 4613,4160 5913,7176l1373 -1466 1512 1202 15160 4691c-2416,6214 -3066,2645 -9928,10551l-1346 906 1346 -906 2761 -1039c8056,0 2922,-624 4756,2301l1626 1767c2501,-2360 9689,-18005 11583,-23119 3850,-10394 7956,-17753 4092,-27114 1843,3654 2378,7565 1562,11658 -80,400 -4382,12422 -4813,9202 -57,-426 -301,-693 -526,-992 553,-576 1459,-388 1857,-3467 894,-6922 340,-15446 -5089,-19853 -1637,-1329 -4022,-3359 -5518,-4042 -10434,-2528 -27432,5358 -32223,4660 -4097,-597 -2554,247 -4722,-2488l-2 -1zm-12497 642l6510 1003 27 -517 -6537 -485z"/>
   <path class="fil10" d="M343441 421789l-24 -620c-5801,-41 -1949,-246 -6290,-3063 -1800,-1168 -4094,-2383 -6433,-3031 -6018,-1670 -8390,-1934 -10998,-7991 -2472,-1554 -1222,-1130 -4269,-2109 -6582,-2117 -1637,-540 -6041,-1135l1609 2031 744 1478 -3380 896 -601 610 -14133 3199 2324 -11406 -1386 125 -3176 2165c522,6353 2788,36936 4858,42827 2259,6429 17103,10261 27983,-734l10915 -8298c12257,-10276 3060,-2680 9757,-9598 -2330,-2262 -2086,-1476 -1461,-5346l1 1z"/>
   <path class="fil10" d="M249622 409380c-4684,3234 -3968,1103 -6204,5593l-1870 3813 -1008 498 -2248 5850 -1048 407 -1928 3357c-2958,-1236 -1129,-716 -4167,-4072l-1470 -1259 -472 1271c307,2176 931,1976 -1037,1455 2371,5370 4983,2037 8992,8034l8930 9507c1946,1318 3287,909 5567,3475 156,175 382,514 512,682l858 1493c4728,-985 1739,-481 2225,1280 13028,-2317 15817,3852 22402,-10196 825,-1761 1542,-2005 1907,-4032 335,-1864 338,-35179 326,-35252 -9902,-1215 -22595,4397 -30267,8098l0 -3z"/>
   <path class="fil10" d="M349126 469791c-1482,-892 -686,-2848 -5742,147 -177,104 -576,871 -700,641 -125,-232 -428,476 -793,633l2626 -5666c3790,1226 3454,643 4608,4245l1 0zm-7316 18490c2726,-880 2194,-931 2878,-1282 5987,-3078 16462,-4074 18164,-4593 -1146,-5452 -733,-2627 -3517,-6830 -17224,-26002 -31086,-9015 -21799,6130l4276 6576 -1 0z"/>
   <path class="fil10" d="M363287 457611c-1300,-2594 -506,-365 -1357,-2689 -305,-833 -318,-372 -705,-2694 -2967,-872 -405,2635 -2827,-2432l-2203 -2148 -723 -1124 -2277 -1951c-1004,2368 -888,-1741 -2168,7046 -1898,-3711 -3,427 787,-5411 -8997,18 -7549,7462 -4063,13339 144,243 348,578 481,798 139,230 401,631 517,819 119,193 340,570 534,838 3820,-2495 643,-1166 2199,-4688l4262 292c3814,-1376 769,-132 3075,-2398 2330,812 725,252 2086,1003 181,100 566,329 751,432l1628 966 1 1z"/>
   <path class="fil10" d="M334976 485536c-293,-19371 -13790,-12118 -9040,-2914 2029,3929 4066,2838 9040,2914z"/>
  </g>
  <g id="_2304866010944">
   <path class="fil11" d="M304033 491502c-6563,23137 -42947,13488 -36058,-10184 6528,-22430 42778,-13508 36058,10184zm-16219 -98455c919,2583 1281,2123 -1288,1177 1026,2516 1275,2009 -1224,1028 985,2674 1519,2344 -1176,1393 1976,6449 726,41727 -1683,47055 -6554,14494 -25462,14648 -32103,7406l-852 -1554c-2550,824 -2378,1481 -1427,-1027 -2180,-620 -1926,-67 -4032,-1912 -2159,-1894 -924,-551 -1864,-2912 -2555,932 -2343,1513 -1320,-1041 -3046,-711 -964,444 -3294,-1493 -2450,-2035 -327,680 -1341,-2236 -2488,870 -2389,1573 -1418,-907 -2811,-647 -1303,240 -3263,-1557 -2300,-2108 -301,1009 -1230,-2421 -2263,688 -2094,1293 -1348,-921 -2675,1093 -2615,1938 -1617,-830 -2532,953 -2267,1529 -1409,-1046 -2497,902 -1968,1206 -1175,-1330 -3072,-4203 789,-6378 1765,-8745 -1204,-1565 -1862,-2917 -2697,-4857l-1129 -4685c-7085,5881 -22058,21848 -24194,33414l9331 2587 8461 -13850c9158,-698 3110,-80 5449,1480l540 1367 8734 6893c1540,1754 922,1126 1474,1933l16481 14056c966,1243 2002,2919 2762,4433 3574,7117 588,15375 -1660,17543 631,5519 -7572,9850 -14115,10234l-4419 1137c-2673,1276 -2957,1417 -6287,2243 -2691,667 -3891,913 -6595,1642 -4446,1198 -8230,2152 -12413,3399 -222,123 280,3694 -5210,237 -2073,-1305 -239,-702 -1936,-3142 -3270,-268 -5072,82 -7047,-2538 -198,-262 -285,-620 -447,-900 -1684,-2917 1025,-2080 -3256,-4375l2180 15391c4163,602 3784,46 7126,2105l872 485 6537 485 2345 -473 3615 -656c8769,-1807 18348,-4455 27409,-5621 12536,-1613 17498,3450 22063,10944 3865,9361 -242,16719 -4092,27114 -1894,5115 -9081,20758 -11583,23119 -200,192 -608,109 -709,437 -335,1086 -1989,-498 -5033,3207 -898,1093 -3280,4649 -3980,6516 8178,5516 26031,13911 39933,13913l133 -10054c-7391,-665 -18849,-4544 -23584,-8390 -378,-5948 3945,-13202 7050,-19121l2031 -3931c1950,-4204 3814,-11270 7794,-13715 4614,-17669 38643,-11206 37010,1772 -19,151 -127,540 -276,767l16441 30706c1726,2043 1333,-2619 1972,3457 -6531,5056 -1407,3634 -5677,7990 -2913,2973 -3483,55 -3863,8014 6061,-524 18913,-6616 22191,-9754l-7880 -10299c-2950,-3452 -1894,-880 -2486,-4937l-5776 -14721 -833 -237 -250 -2682 -2435 -4719c-675,-1858 -740,-2148 -1247,-3519 -140,-376 -1106,-2896 -1407,-3822 -1788,-5490 -1947,-9468 -91,-15060l596 -4370c3028,-1282 6128,-5392 11288,-7790 10576,-1647 20853,1084 28828,2964l12608 2251 4212 -346 12319 78c3954,-8104 3998,-33862 -379,-42094 -2848,1626 -5501,1082 -9133,3587 851,6149 3526,22273 1317,28751 -2181,6394 -10969,4173 -13397,3043 -3593,-1674 -812,452 -3283,-2521 -13267,-3747 -49379,-7560 -32969,-36683 1609,-2856 481,-1959 2808,-4424 3402,-3604 12125,-9038 13472,-12957 0,-2639 -793,-2359 1478,-1864 -385,-2035 -781,-1630 1246,-1159 -457,-2073 -848,-1682 1207,-1138 -481,-2161 -873,-1752 1261,-1130 -573,-2234 -969,-1823 1248,-1173 -652,-2274 -1024,-1862 1227,-1120 -699,-2368 -1080,-1951 1253,-1136l2112 -2057c4035,-1607 4124,-59 5181,550 6450,3705 -3904,4042 14636,4843l3296 7381c2004,-2739 -7385,-15981 -9302,-18379l-14180 -15674 -6149 8408c2362,2695 5729,5394 3670,9101l-3535 2176c-3289,725 816,-2172 -3562,1743 -248,221 -871,1035 -1112,1279 -4068,4124 -5445,3689 -8590,6938 -8072,8338 -19387,18418 -32341,11354 -7980,-4352 -5924,-5767 -10396,-13524 -3322,-4651 -2430,-5449 -2324,-11921l-652 -34081 7 2z"/>
   <path class="fil11" d="M244391 408547c3687,-1103 3891,-1858 8048,-3543 12734,-5160 20615,-5639 24537,-7285l-91 -10337c-6048,-1093 -24729,5330 -31190,8106 -6871,2953 -3763,10074 -1303,13058l0 1z"/>
   <path class="fil11" d="M201474 520247c-2630,4507 -2322,2136 -5442,4630 3404,7517 8879,20399 14983,24766 11504,-2527 9622,-1309 10472,-5406 -2813,1213 -2338,1550 -1173,-1259 -2748,-356 -3542,2241 -2434,-3473 -4152,-1054 294,1252 -2565,-1070 -4007,-3256 -6202,-12491 -11059,-17744l-1579 -1675 -1204 1231 1 0z"/>
   <path class="fil11" d="M280783 477021c-6031,6676 -6699,13943 -774,18118 14337,10101 27417,-21361 774,-18118z"/>
   <path class="fil11" d="M346667 554676c2510,3426 2973,4626 6195,7909 4428,-3487 14128,-13696 16657,-19828 -348,-5176 -2052,-9101 -4736,-11576 -3176,4316 -4891,7933 -8578,12443 -2984,3649 -7505,7863 -9537,11052l0 0z"/>
   <path class="fil11" d="M333796 395244l-1953 -1397c-1568,2393 843,1718 -3599,1225 -4752,-527 -949,-367 -3989,-1672 -4770,2194 -6695,4913 -9876,8072l15775 6503 6087 -7790c-2446,-4428 -722,1491 -2444,-4941l-1 0z"/>
   <path class="fil11" d="M195606 478230l3495 169c-997,-2557 -1444,-2210 1134,-1241l807 -10470c-9259,-4244 -10535,-5879 -11087,6831 646,422 2352,1252 2825,1583 267,187 1152,772 1387,998 1857,1784 462,356 1438,2130l1 0z"/>
   <path class="fil11" d="M297478 391356c2185,1124 4652,1613 6243,2147 155,-259 407,-961 480,-768 651,1718 -327,1048 2540,-3744 -2420,-2083 -5846,-1674 -10176,-2634l913 5000 1 0z"/>
  </g>
  <path class="fil12" d="M292431 588580l49 -14411 10074 -2199 -2748 -1276c-2784,-346 -4083,-847 -6226,-255 -3777,1043 -2665,1878 -4192,2456 -7089,2684 -7486,-881 -10771,-2526 -3123,-1564 -8680,-1481 -12709,-1980 -7177,-888 -4074,-1896 -8800,-4175 6826,-9592 -2459,-470 9373,-7648 4099,-2486 2808,-863 4224,-4272 -842,-500 -331,-530 -1991,-931 -264,-63 -1780,-166 -2069,-137 -5649,565 -3607,1767 -3628,1791 2018,-5072 3030,-6592 4267,-13898l-2706 1261c-1029,3498 -745,2816 -2370,5920l-6696 14529c-1739,3157 -2276,2311 -605,5944l1242 1440c1929,297 19088,4623 21559,5537l316 16435c-12308,-941 -26385,-5327 -36870,-10649 -3656,-1857 -6944,-4466 -9814,-5792 -3275,-2400 -5,-363 -4258,-2834 -162,-94 -2706,-1399 -3223,-1689 1946,-4922 180,-539 5967,-7928 -1434,3946 -2808,-2011 1896,708l-80 -2215 -587 -341 -104 -2274 -7572 1429c-121,274 -303,637 -380,816l-1718 4433c-4935,-1464 -2243,265 -5567,-2991 -11376,-47 -11752,6809 -13725,-6828l6100 -1500c-1788,-3216 -4502,-6710 -6976,-10615 -2118,-3341 -3803,-7827 -5806,-9891 -6026,-6809 -186,4760 -1769,-1690 -99,-405 -441,-480 -858,-778l188 11889 -5409 -10887c-2161,-3334 -819,-1151 -1704,-1107l2967 -3971c134,-163 601,-686 840,-1004l2914 2063 381 -476c-1817,-2766 -159,1975 -1850,-4175l-1913 -7237 5153 -309c2878,1881 6436,3483 11262,3319 3256,1534 2168,907 4124,5030 999,2104 1780,3730 2708,5641 1771,3648 4961,7104 5543,11174 2149,346 1797,-2535 2086,502l906 1794 3137 3724 2099 2271c2392,-1470 2772,3137 1450,-3477 -1300,-3015 -3852,-4711 -5913,-7176l-9507 -16325c-1939,-5160 -2794,-4922 -5415,-8180 376,-4131 -1520,-2317 3094,-2113 0,-4154 1222,-3565 -2412,-3100l-2345 473 -27 517 -6510 -1003 -872 -485 -10274 259 -1641 -19512 -61 -3130c-1893,114 -1345,410 -685,-1544 -5252,-444 -6374,-2831 -11471,-4767l-435 -725c-1470,-924 -3126,968 -1196,-4338l713 -489 1663 -3572 4217 1145 209 529 2426 372 132 591c2349,1281 2688,470 1090,2012 3444,265 1693,-369 3640,713l747 63 1163 -12785 4230 -7482c186,196 459,481 654,696 7066,7743 5900,4059 8252,8024l5215 -88c-260,3735 599,2378 -2109,5948l-1303 6441 -112 2857c2041,0 1660,-500 1179,1474 7145,-7591 -1339,-17076 7751,-26820l8248 -13083 4901 990c-926,2684 -1224,2155 1368,1056 -1153,2825 -1466,2333 1288,1102 93,4082 -2134,1069 2463,4711 9434,7475 5841,5643 9945,9163 3895,3341 3065,909 6967,5989 5438,7079 3720,6739 -44,9898 -1254,1052 -1986,1569 -3163,2927l6710 -33 -259 5970 -13411 9578c-124,-233 -479,427 -703,656l-4419 1137 4419 -1137c6543,-383 14746,-4715 14115,-10234 2248,-2169 5234,-10427 1660,-17543 -761,-1514 -1796,-3191 -2762,-4433l-16481 -14056c-2838,-1396 -2164,-1383 -5036,-2593 1324,-2782 1524,-2191 -1288,-1102 1303,-2957 1504,-2333 -1368,-1056l-2517 -4076 -540 -1367 -3950 797 -7943 15427 -15494 -5182c2532,-10324 20128,-34520 28619,-38203l4459 4812 2829 -1277c420,-6187 270,-12904 246,-19143 -26,-6839 -13,-9576 7608,-7113 1995,1520 770,5789 1970,10557 1420,-1350 -559,190 1717,-1291l1452 -866c8758,-5119 27432,-10054 36932,-9679l-295 17179c11,74 9,33389 -326,35252 -365,2028 -1081,2272 -1907,4032 -6586,14048 -9373,7880 -22402,10196 -487,-1761 2503,-2265 -2225,-1280l-858 -1493c-130,-168 -356,-507 -512,-682 -2280,-2566 -3621,-2157 -5567,-3475l-8930 -9507c-4009,-5996 -6621,-2664 -8992,-8034 1968,521 1343,721 1037,-1455l472 -1271 -472 1271c-2018,-65 -1620,-511 -1037,1455 -1961,877 -1617,-1831 -2028,721l-1390 2906c2397,-616 1965,-1023 1175,1330 2526,-802 2334,-1437 1409,1046 2517,-901 2408,-1686 1617,830 2346,-841 2162,-1440 1348,921 1784,461 2130,313 3366,1433 2250,2041 281,-615 1127,2545 2505,-909 2400,-1609 1418,907 3062,441 1137,-772 3503,1211 2247,1885 317,-150 1132,2517 2581,-1027 2337,-1583 1320,1041 2168,344 2532,-76 4349,1568 3182,2880 989,356 1547,3257 2465,-863 2214,-1453 1427,1027l3540 -69c254,1911 -2505,2273 2225,1280 1693,2576 -4006,274 3404,2640 348,111 4139,543 4726,542 24233,-70 18630,-27915 19108,-48274 239,-10179 -746,-8376 1633,-9027 -1020,-2647 -1523,-2287 1176,-1393 -1028,-2470 -1255,-1946 1224,-1028 -949,-2577 -1293,-2098 1288,-1177 1864,-2927 130,-1531 2838,-2806l139 48809c4473,7757 2416,9172 10396,13524 12954,7064 24270,-3017 32341,-11354 3144,-3249 4522,-2814 8590,-6938 240,-243 864,-1057 1112,-1279 4378,-3915 273,-1018 3562,-1743l-3350 -9470c-626,3870 -869,3084 1461,5346 -6696,6918 2500,-678 -9757,9598l-10915 8298c-10880,10995 -25724,7163 -27983,734 -2069,-5891 -4336,-36474 -4858,-42827l3176 -2165 -129 -17359 19158 2689 2039 -2061 1343 -1157 1127 -1206 1236 -1210 1168 -1183 369 -841c4835,871 4746,1450 7292,5783 -3280,3024 -3717,1733 -5030,5943l8705 3680 1953 1397 7548 3983 -4420 6788c-896,2542 807,1702 -756,2054 626,-713 2726,296 4768,4762 -874,361 -889,650 -3448,1028l-8361 -2193 -9431 -4583c2607,6057 4980,6321 10998,7991 2339,649 4633,1864 6433,3031 4341,2817 489,3022 6290,3063 2326,-5981 5567,-7633 8017,-13482 7460,2527 12280,10364 17400,16634 3651,4471 9578,14512 11655,21062 682,2090 301,1450 -478,3752l3416 828 310 520 7689 3093 415 752 3478 1609 -865 4268 -624 308 -1655 2623 -5835 -1405c4038,17848 3463,31468 585,49571 -5025,-755 -5404,-1827 -10305,-1414l-3255 310c3981,1168 7701,3291 8763,6832 3035,-1202 2450,-242 3705,-2663 -203,2849 261,3231 -1893,5113l-6230 -1158 -1278 2365 -96 424c-2718,1300 -1995,-1418 -2022,2237l2213 256 5415 2015 -2418 5477 -200 2014 2529 6115 735 384 3101 8717 -3095 862 -209 619 -4473 1052c-1147,-2779 -2874,-6539 -3652,-8061l-1390 0 -21202 23642c-2632,-2984 -2299,-4074 -5215,-5811l-4844 -4839c1275,6339 4516,8785 8112,12739 -1513,385 -3765,2384 -4344,3285 -1974,-2419 -3674,-6051 -7102,-8098 591,-2972 228,-1307 978,-3713 677,-2174 414,913 806,-2189 76,-597 299,-695 423,-1052 -3470,874 -5430,2181 -9605,1730 -2022,-2800 -6718,-12830 -11848,-17233l250 2682 833 237 5776 14721 1816 1835c2264,2043 99,104 2029,1689 4207,3456 8175,8752 10331,14058 -8972,3089 -16063,9171 -28302,11104l-1906 601 -1981 13244 -8348 -1532c133,-4711 1209,-6119 131,-10143l-168 -80 -3852 817c0,3446 -574,1272 -5835,1164 -3228,-67 -4405,-372 -6640,-1222l1673 -11907 4996 -2617c-835,346 -357,-1761 -2046,936 -2263,3613 935,3395 2098,11242l2546 491 -4 -1zm-117969 -53190l794 1022 4798 11181 1164 1146 2771 6177c2164,1843 7788,9459 8984,12517 4112,2546 13215,13987 20093,18515 3102,2041 158,325 3838,1915l-88 903c3768,2448 2729,2313 7304,3947l-161 722 10877 5293 -27 516c5103,3050 15866,6530 21273,7984 24261,6526 50052,4942 73235,-3019l69 -357c6192,-1780 5895,-1807 10959,-4563 1752,-953 2973,-1567 4704,-2454l13167 -8136c3477,-2438 4272,-3540 7931,-5803l14931 -14972c1959,-1765 550,-466 1763,-2936l1949 -1594c4133,-6750 6646,-8196 9923,-16704l553 31 1889 -4730 517 -126 620 -2326 481 -150c8772,-22348 11100,-34070 11401,-60402l-1227 -6561c-2395,-22778 -8334,-31460 -16079,-49101l-736 109 -4947 -9537 -1134 -246c-154,-319 -341,-727 -459,-957l-2885 -5156 -1063 -563 -310 -1330 -3401 -3735c-1943,-1339 -9951,-8630 -11366,-10619l-1763 -1453 -1165 -894 -1251 -1401c-2331,-329 -1881,392 -1898,-1662l-1482 -673c-4666,-1887 -9835,-6197 -15767,-9260 -5799,-2995 -11459,-5073 -17000,-8076 -8504,-4609 -32670,-5728 -44911,-5052 -30030,1660 -37702,5484 -57294,17794 -23651,14860 -44932,37642 -53940,71097 -9192,34137 -5548,52463 4366,83681l0 -2z"/>
  <path class="fil12" d="M334976 485536c-4974,-76 -7011,1015 -9040,-2914 -4750,-9204 8747,-16458 9040,2914zm2560 -3833c-9287,-15144 4576,-32131 21799,-6130 2784,4203 2371,1378 3517,6830 -1702,519 -12176,1515 -18164,4593 -682,350 -152,402 -2878,1282l-4276 -6576 1 0zm15659 -37130c2035,-4557 -1183,-2634 6103,-3585l-348 -1639 -3373 -5400 -4513 962c797,2341 1117,1864 -1253,1136 715,2221 1031,1756 -1227,1120 657,2238 1015,1788 -1248,1173 591,2131 915,1658 -1261,1130 485,2030 843,1606 -1207,1138 467,2026 819,1578 -1246,1159 409,2059 749,1337 -1478,1864 -1347,3918 -10071,9354 -13472,12957 -2328,2465 -1200,1569 -2808,4424 -16410,29124 19703,32936 32969,36683l3194 -429c2276,-2185 815,-557 1568,-1631 5581,21 7111,3359 7372,2817 95,-200 437,291 652,440l100 -23102 -395 -9392 14274 -4625 -6046 -4174c-116,-359 -470,-350 -704,-528 -4975,444 -7618,-1702 -12022,-3398 -850,1889 1893,308 -3535,3938l-1628 -966c-185,-104 -570,-333 -751,-432 -1361,-751 243,-191 -2086,-1003 -2307,2266 739,1022 -3075,2398l-4262 -292c-1556,3522 1620,2193 -2199,4688 -196,-268 -416,-645 -534,-838 -116,-188 -378,-590 -517,-819 -134,-220 -338,-555 -481,-798 -3486,-5877 -4934,-13321 4063,-13339 -791,5839 -2685,1701 -787,5411 1280,-8787 1163,-4678 2168,-7046l-3 1z"/>
  <path class="fil12" d="M281082 475474c15101,-7119 23705,16945 10144,22317 -15224,6031 -24478,-15560 -10144,-22317zm-422 -4277c-22909,8789 -7925,39027 12077,30515 18697,-7956 8656,-38470 -12077,-30515z"/>
  <path class="fil12" d="M211022 506770c2169,2735 626,1892 4722,2488 4791,698 21789,-7188 32223,-4660 1495,683 3880,2714 5518,4042 5428,4407 5982,12931 5089,19853 -397,3078 -1303,2891 -1857,3467 224,299 469,567 526,992 432,3220 4733,-8802 4813,-9202 816,-4093 281,-8004 -1562,-11658 -4565,-7494 -9528,-12557 -22063,-10944 -9061,1166 -18641,3814 -27409,5621l0 1z"/>
  <path class="fil12" d="M363871 509322l2511 1343 496 967 5407 2963 -278 -5678c-8133,754 -3208,-688 -4837,-1718l-12608 -2251c4926,4028 2878,2790 9309,4375l-1 -1z"/>
  <path class="fil12" d="M234329 560203l-1365 1003 -65 2077c1558,1630 1059,2046 3778,1682l857 -1507 618 -1650 752 -1812 -465 -1738 -2761 1039 -1346 906 -2 2z"/>
  <path class="fil12" d="M241125 413180l1824 -1375c-1778,416 -1200,613 -955,-1376l-550 -1795 -2697 -294c539,3820 -535,4784 2377,4841l1 0z"/>
  <path class="fil13" d="M381079 567923l-14931 14972c103,3065 569,1039 -2675,3737 -6931,5765 -14304,10248 -23559,14851 -9698,4824 -7239,3594 -10527,2369l-69 357c915,2780 3649,584 -3631,3150l-18372 4441c-15943,2987 -38166,1739 -53679,-3108l-17409 -6505c-3530,-2615 -5078,1213 -1417,-2944l27 -516c-3234,1288 -3332,1375 -7370,-841 -6,-4 -2631,-1907 -2679,-1963 -1829,-2155 -4067,1452 -827,-2489l161 -722c-3335,1547 -789,2335 -5299,-436 -4933,-3031 -2493,-725 -2005,-3511l88 -903c-4498,1856 -1081,1404 -4435,-6l-19497 -20425c-1196,-3058 -6820,-10673 -8984,-12517 -1154,-561 -2107,1570 -3730,-3022 -1021,-2891 -1267,-780 959,-3154l-1164 -1146c-3365,2142 -307,2019 -2898,-985 -52,-61 -1692,-2978 -1843,-3294 -1862,-3901 -3238,-4614 -57,-6902l-794 -1022c-2499,1503 -972,7572 -6398,-10198l2942 10952c-2513,-1263 -1917,-735 -4095,-1174l5162 12159c1113,2205 1607,3360 2739,5638 2043,4108 2054,4108 4019,4899 6488,7218 15248,23265 30307,33301 2656,1770 3140,2472 5169,4234 8761,10639 34158,17937 48200,21222 3741,875 4693,1426 9196,1426 2744,-1135 3035,-511 7199,-194 10417,793 13684,157 22832,-468l4858 662c11969,0 35118,-9881 43378,-14802 15054,-8970 22502,-14794 33606,-26000 4496,-4538 8307,-10216 11963,-16317 3707,-6184 13265,-22978 15170,-29261 7549,-24896 2855,-19148 5651,-39645 521,-3824 759,-7846 1056,-13262 880,-16070 -5479,-32091 -11422,-46159l-641 -1743c-594,-1584 31,-537 -928,-2648 -1566,-3450 -1436,-2121 -3357,-4987 -2157,-3218 -3234,-5943 -5280,-9025 -13137,-19800 -25295,-31184 -45694,-42513 -9803,-5445 -20981,-11031 -31886,-13491 1234,3454 2819,3354 6256,4435 13381,4207 35947,16337 43748,25567 -5943,-2539 -11640,-9845 -17922,-10820l5529 3941c1502,1033 1825,1044 2651,2024 1849,2193 3833,-137 536,2059l1482 673c17,2054 -434,1333 1898,1662 0,-2752 708,-2291 -1898,-1662 1447,-549 5653,251 3150,3064l1165 894 1763 1453c0,-2244 533,-1699 -1763,-1453l3358 1413c3078,2330 8585,7602 9770,10658l3401 3735c1229,608 2328,-685 310,1330l1063 563c937,-184 1117,-1127 3095,2161 1594,2651 2423,1010 250,3953l1134 246c2083,-302 380,-1520 3148,2022 1295,1657 1041,1898 3352,4133l-1552 3382 736 -109c3075,-784 570,-2977 4293,3784 8078,14672 11987,29561 14062,46257l-2275 -940 1227 6561c2600,3964 2437,9184 1548,18537 -988,10406 -3367,21556 -6685,31575 -4416,13337 -4191,12418 -6265,10289l-481 150c2330,6126 1634,2859 -620,2326l-517 126c1286,3199 1510,103 273,3543 -1752,4875 711,1586 -2163,1187l-553 -31 1063 3596 -10297 15946c-1154,-2071 -2906,1339 -690,-2838l-1949 1594c1617,3789 922,346 -169,2876 -664,1539 -9776,11775 -13437,13877 -2634,1512 1266,-140 -2653,1155 6443,-5949 8920,-8774 14498,-14972l4 1z"/>
  <path class="fil14" d="M174463 535390c-9913,-31218 -13557,-49544 -4366,-83681 9008,-33455 30289,-56237 53940,-71097 19593,-12310 27264,-16134 57294,-17794 12243,-676 36407,443 44911,5052 5542,3004 11201,5082 17000,8076 5932,3063 11101,7372 15767,9260 3296,-2196 1313,133 -536,-2059 -827,-980 -1150,-992 -2651,-2024l-5529 -3941c6282,974 11980,8280 17922,10820 -7800,-9230 -30367,-21360 -43748,-25567 -3437,-1080 -5021,-979 -6256,-4435 -6083,-521 -13619,-3599 -26100,-3617 -25553,-36 -46916,4285 -67999,16749l-4276 3556c-1133,1000 -6513,5904 -7477,4768 -19606,12133 -38768,37811 -46788,61834 -5586,16735 -6916,28220 -7010,46644 -96,18810 2872,33802 8352,47037 2178,439 1582,-89 4095,1174l-2942 -10952c5426,17770 3899,11702 6398,10198l-3 0zm187929 -147849l1251 1401c2503,-2813 -1702,-3612 -3150,-3064 2606,-628 1898,-1090 1898,1662l0 1zm4178 3748c1415,1989 9423,9279 11366,10619 -1185,-3056 -6693,-8328 -9770,-10658l-3358 -1413c2296,-245 1763,-791 1763,1453zm-186514 156304l-4798 -11181c-3181,2288 -1805,3002 57,6902 151,317 1791,3234 1843,3294 2592,3004 -467,3127 2898,985zm3935 7323l-2771 -6177c-2227,2374 -1980,263 -959,3154 1624,4593 2577,2461 3730,3022l0 1z"/>
  <g id="_2304866005856">
   <path class="fil15" d="M463189 463484c0,1739 -450,3303 -1350,4692 -893,1390 -2208,2477 -3940,3263 -1732,785 -3786,1175 -6156,1175 -2846,0 -5196,-537 -7042,-1604 -1309,-772 -2370,-1806 -3189,-3095 -819,-1289 -1229,-2544 -1229,-3766 0,-705 248,-1309 739,-1819 490,-504 1114,-752 1873,-752 618,0 1135,195 1557,591 430,389 792,973 1094,1752 363,913 765,1685 1188,2296 430,618 1027,1128 1799,1531 779,396 1792,597 3054,597 1725,0 3135,-403 4216,-1208 1081,-806 1624,-1813 1624,-3021 0,-960 -289,-1739 -873,-2329 -584,-598 -1343,-1054 -2269,-1370 -920,-315 -2161,-651 -3706,-1007 -2067,-483 -3806,-1054 -5196,-1698 -1396,-651 -2504,-1537 -3323,-2658 -819,-1121 -1229,-2511 -1229,-4182 0,-1584 430,-2994 1296,-4229 866,-1228 2121,-2175 3759,-2840 1638,-665 3565,-993 5780,-993 1766,0 3296,222 4592,658 1289,443 2363,1027 3216,1752 846,725 1470,1490 1866,2289 389,799 591,1584 591,2343 0,692 -248,1322 -738,1880 -490,557 -1108,832 -1839,832 -671,0 -1175,-168 -1524,-497 -349,-335 -725,-886 -1128,-1644 -530,-1088 -1155,-1940 -1893,-2551 -731,-611 -1913,-913 -3544,-913 -1504,0 -2725,329 -3645,994 -926,665 -1390,1457 -1390,2390 0,577 154,1074 470,1497 315,416 752,779 1302,1081 550,302 1107,537 1671,711 564,168 1497,416 2793,745 1624,382 3101,799 4417,1262 1316,457 2437,1014 3363,1672 926,651 1645,1483 2162,2484 517,1007 779,2235 779,3692zm28861 -1779c0,1604 -248,3074 -745,4424 -504,1349 -1222,2511 -2169,3477 -940,973 -2074,1712 -3383,2229 -1309,517 -2786,779 -4424,779 -1631,0 -3094,-262 -4390,-785 -1296,-524 -2424,-1276 -3377,-2256 -946,-974 -1671,-2128 -2161,-3457 -490,-1336 -739,-2806 -739,-4417 0,-1624 248,-3115 745,-4464 504,-1349 1215,-2504 2148,-3464 933,-953 2061,-1692 3383,-2209 1322,-517 2786,-779 4390,-779 1624,0 3102,262 4424,785 1322,524 2457,1276 3403,2249 946,967 1665,2121 2155,3464 490,1336 738,2813 738,4424zm-5397 0c0,-2189 -483,-3887 -1443,-5109 -967,-1215 -2256,-1826 -3880,-1826 -1054,0 -1974,269 -2772,812 -799,544 -1417,1349 -1846,2410 -436,1061 -651,2302 -651,3712 0,1403 215,2631 638,3679 430,1047 1034,1853 1826,2410 792,557 1732,832 2806,832 1624,0 2913,-611 3880,-1839 960,-1222 1443,-2920 1443,-5082zm13798 7646l0 -23280c0,-1074 242,-1887 718,-2437 477,-550 1121,-826 1933,-826 806,0 1463,275 1960,819 497,544 745,1356 745,2444l0 23280c0,1087 -255,1900 -759,2443 -504,544 -1155,819 -1947,819 -785,0 -1423,-282 -1913,-846 -490,-564 -739,-1369 -739,-2417zm29016 235l0 -692c-644,813 -1316,1497 -2028,2048 -705,550 -1477,960 -2316,1228 -839,269 -1793,403 -2867,403 -1302,0 -2464,-269 -3491,-806 -1027,-537 -1826,-1275 -2390,-2222 -665,-1141 -1000,-2779 -1000,-4920l0 -10633c0,-1081 242,-1880 725,-2410 483,-530 1128,-799 1927,-799 806,0 1463,269 1960,806 497,537 745,1336 745,2404l0 8593c0,1242 107,2289 316,3135 208,846 584,1511 1128,1987 544,476 1282,718 2215,718 906,0 1759,-269 2557,-806 799,-537 1383,-1242 1752,-2108 302,-759 450,-2423 450,-4994l0 -6525c0,-1067 248,-1866 745,-2404 504,-537 1155,-806 1954,-806 799,0 1443,269 1926,799 490,530 732,1329 732,2410l0 15554c0,1020 -235,1786 -698,2303 -470,510 -1067,765 -1806,765 -732,0 -1343,-269 -1819,-799 -477,-530 -718,-1276 -718,-2229zm33829 -3612c0,665 -202,1383 -604,2142 -396,758 -1007,1483 -1826,2168 -819,685 -1853,1242 -3101,1658 -1242,423 -2645,631 -4209,631 -3316,0 -5907,-967 -7767,-2900 -1866,-1933 -2799,-4524 -2799,-7780 0,-2202 430,-4148 1282,-5840 852,-1692 2088,-3000 3699,-3920 1618,-926 3544,-1390 5787,-1390 1389,0 2665,202 3826,611 1154,409 2141,933 2947,1578 806,644 1423,1329 1846,2054 430,732 644,1410 644,2041 0,644 -242,1188 -719,1638 -483,443 -1061,665 -1745,665 -443,0 -812,-114 -1107,-343 -295,-228 -624,-597 -994,-1107 -658,-993 -1343,-1745 -2054,-2242 -719,-497 -1625,-745 -2726,-745 -1584,0 -2867,618 -3833,1860 -973,1235 -1457,2927 -1457,5075 0,1007 128,1933 376,2779 248,846 604,1571 1081,2161 470,598 1041,1047 1712,1356 665,309 1403,463 2202,463 1074,0 1994,-248 2759,-745 772,-497 1450,-1262 2041,-2283 322,-604 678,-1074 1061,-1409 376,-343 846,-517 1396,-517 658,0 1202,255 1631,752 430,497 651,1027 651,1591zm14200 -12144l0 15520c0,1074 -255,1886 -765,2437 -510,551 -1155,826 -1940,826 -785,0 -1423,-282 -1913,-846 -490,-564 -739,-1369 -739,-2417l0 -15359c0,-1067 248,-1866 739,-2404 490,-537 1128,-806 1913,-806 785,0 1430,269 1940,806 510,537 765,1289 765,2242zm-2652 -5545c-745,0 -1383,-228 -1913,-685 -530,-456 -792,-1107 -792,-1946 0,-752 269,-1376 812,-1867 544,-490 1175,-738 1893,-738 698,0 1309,221 1846,665 537,450 806,1094 806,1940 0,826 -262,1470 -785,1933 -524,463 -1141,698 -1866,698zm32480 13419c0,1604 -248,3074 -745,4424 -504,1349 -1222,2511 -2169,3477 -940,973 -2074,1712 -3383,2229 -1309,517 -2786,779 -4424,779 -1631,0 -3094,-262 -4390,-785 -1296,-524 -2424,-1276 -3377,-2256 -946,-974 -1671,-2128 -2161,-3457 -490,-1336 -739,-2806 -739,-4417 0,-1624 248,-3115 745,-4464 504,-1349 1215,-2504 2148,-3464 933,-953 2061,-1692 3383,-2209 1322,-517 2786,-779 4390,-779 1624,0 3102,262 4424,785 1322,524 2457,1276 3403,2249 946,967 1665,2121 2155,3464 490,1336 738,2813 738,4424zm-5397 0c0,-2189 -483,-3887 -1443,-5109 -967,-1215 -2256,-1826 -3880,-1826 -1054,0 -1974,269 -2772,812 -799,544 -1417,1349 -1846,2410 -436,1061 -651,2302 -651,3712 0,1403 215,2631 638,3679 430,1047 1034,1853 1826,2410 792,557 1732,832 2806,832 1624,0 2913,-611 3880,-1839 960,-1222 1443,-2920 1443,-5082zm18658 -7955l0 651c946,-1249 1980,-2162 3101,-2746 1121,-584 2410,-873 3867,-873 1416,0 2678,309 3799,926 1115,611 1947,1484 2497,2611 356,658 584,1363 692,2128 100,759 154,1725 154,2907l0 9996c0,1074 -248,1886 -739,2437 -490,551 -1134,826 -1920,826 -799,0 -1450,-282 -1954,-846 -497,-564 -745,-1369 -745,-2417l0 -8955c0,-1765 -248,-3121 -738,-4061 -490,-933 -1470,-1403 -2941,-1403 -953,0 -1826,282 -2618,852 -785,571 -1363,1356 -1725,2356 -262,799 -396,2289 -396,4484l0 6726c0,1087 -255,1900 -758,2443 -504,544 -1155,819 -1947,819 -772,0 -1410,-282 -1907,-846 -496,-564 -745,-1369 -745,-2417l0 -15520c0,-1020 222,-1785 665,-2289 450,-504 1054,-759 1826,-759 470,0 899,114 1275,336 383,222 685,557 913,1000 228,443 343,994 343,1631zm38615 9277l-10506 0c13,1222 262,2296 738,3229 477,933 1115,1631 1907,2101 792,477 1672,712 2625,712 644,0 1228,-74 1759,-228 537,-148 1047,-383 1544,-705 504,-322 960,-665 1376,-1034 423,-369 967,-866 1638,-1497 275,-235 665,-356 1175,-356 550,0 1000,154 1343,456 335,296 510,725 510,1276 0,483 -195,1047 -571,1698 -383,644 -953,1269 -1725,1859 -765,597 -1725,1094 -2887,1483 -1161,396 -2497,591 -4001,591 -3450,0 -6129,-987 -8042,-2954 -1913,-1967 -2867,-4632 -2867,-8002 0,-1584 235,-3061 705,-4417 470,-1356 1161,-2517 2061,-3491 906,-967 2021,-1712 3343,-2229 1322,-517 2793,-779 4404,-779 2101,0 3900,443 5397,1329 1504,886 2625,2027 3376,3437 745,1403 1121,2833 1121,4290 0,1349 -389,2228 -1161,2631 -772,396 -1859,597 -3263,597zm-10506 -3061l9734 0c-128,-1833 -624,-3202 -1484,-4115 -859,-906 -1987,-1363 -3390,-1363 -1343,0 -2437,463 -3296,1383 -859,926 -1383,2289 -1564,4095zm40911 5639c0,1477 -363,2745 -1081,3799 -719,1054 -1786,1853 -3195,2397 -1410,544 -3122,812 -5142,812 -1927,0 -3578,-296 -4954,-886 -1376,-584 -2390,-1322 -3048,-2209 -651,-879 -980,-1765 -980,-2658 0,-591 208,-1094 631,-1510 416,-423 947,-631 1591,-631 564,0 994,141 1296,416 302,275 591,658 866,1161 550,953 1208,1671 1974,2141 765,477 1812,711 3135,711 1074,0 1954,-241 2638,-718 692,-477 1034,-1027 1034,-1644 0,-947 -356,-1631 -1067,-2068 -718,-430 -1893,-846 -3531,-1242 -1846,-456 -3350,-940 -4511,-1443 -1154,-504 -2081,-1175 -2779,-2001 -691,-826 -1041,-1846 -1041,-3048 0,-1081 322,-2094 960,-3054 644,-960 1591,-1719 2846,-2289 1249,-570 2759,-859 4531,-859 1390,0 2638,141 3739,430 1107,289 2034,678 2772,1161 745,490 1309,1027 1692,1618 389,591 584,1161 584,1732 0,611 -208,1121 -624,1510 -409,396 -1000,591 -1759,591 -550,0 -1020,-154 -1410,-470 -383,-315 -826,-785 -1329,-1417 -403,-524 -879,-946 -1430,-1262 -550,-316 -1295,-470 -2242,-470 -967,0 -1772,208 -2417,618 -638,416 -960,933 -960,1551 0,564 235,1027 705,1383 477,363 1108,665 1907,900 799,235 1900,524 3303,866 1665,403 3028,893 4081,1457 1054,564 1853,1228 2396,2000 544,765 819,1638 819,2625zm54807 -2585c0,920 -222,1913 -678,2981 -450,1067 -1161,2115 -2135,3141 -967,1034 -2209,1867 -3713,2511 -1510,638 -3269,960 -5276,960 -1517,0 -2900,-141 -4149,-430 -1242,-289 -2376,-738 -3390,-1349 -1013,-604 -1953,-1409 -2806,-2403 -759,-906 -1409,-1913 -1947,-3034 -537,-1121 -940,-2323 -1208,-3591 -269,-1276 -403,-2625 -403,-4055 0,-2316 336,-4397 1014,-6230 671,-1839 1644,-3410 2900,-4713 1262,-1302 2732,-2296 4424,-2980 1692,-678 3498,-1020 5411,-1020 2336,0 4411,463 6237,1396 1819,926 3215,2081 4189,3450 967,1369 1457,2658 1457,3880 0,671 -242,1256 -711,1772 -470,510 -1041,765 -1712,765 -745,0 -1309,-181 -1678,-530 -376,-356 -792,-967 -1248,-1833 -765,-1430 -1658,-2497 -2685,-3209 -1033,-705 -2296,-1061 -3806,-1061 -2404,0 -4310,913 -5733,2732 -1423,1826 -2135,4417 -2135,7774 0,2242 315,4108 946,5598 624,1490 1517,2598 2672,3336 1155,732 2504,1101 4055,1101 1678,0 3095,-417 4256,-1249 1161,-832 2034,-2054 2625,-3672 248,-758 557,-1376 926,-1859 363,-476 954,-718 1766,-718 698,0 1295,242 1792,731 497,483 745,1088 745,1806zm29143 -1316c0,1604 -248,3074 -745,4424 -504,1349 -1222,2511 -2169,3477 -940,973 -2074,1712 -3383,2229 -1309,517 -2786,779 -4424,779 -1631,0 -3094,-262 -4390,-785 -1296,-524 -2424,-1276 -3377,-2256 -946,-974 -1671,-2128 -2161,-3457 -490,-1336 -739,-2806 -739,-4417 0,-1624 248,-3115 745,-4464 504,-1349 1215,-2504 2148,-3464 933,-953 2061,-1692 3383,-2209 1322,-517 2786,-779 4390,-779 1624,0 3102,262 4424,785 1322,524 2457,1276 3403,2249 946,967 1665,2121 2155,3464 490,1336 738,2813 738,4424zm-5397 0c0,-2189 -483,-3887 -1443,-5109 -967,-1215 -2256,-1826 -3880,-1826 -1054,0 -1974,269 -2772,812 -799,544 -1417,1349 -1846,2410 -436,1061 -651,2302 -651,3712 0,1403 215,2631 638,3679 430,1047 1034,1853 1826,2410 792,557 1732,832 2806,832 1624,0 2913,-611 3880,-1839 960,-1222 1443,-2920 1443,-5082zm31641 389l0 7136c0,1128 -255,1974 -765,2537 -510,564 -1188,846 -2020,846 -812,0 -1470,-282 -1974,-846 -504,-564 -759,-1409 -759,-2537l0 -8552c0,-1356 -47,-2403 -141,-3148 -87,-745 -335,-1363 -745,-1839 -409,-477 -1047,-719 -1933,-719 -1759,0 -2913,604 -3470,1813 -557,1202 -839,2933 -839,5189l0 7257c0,1114 -255,1960 -758,2531 -504,571 -1168,853 -1987,853 -813,0 -1477,-282 -1994,-853 -517,-570 -779,-1417 -779,-2531l0 -15359c0,-1007 235,-1779 698,-2303 463,-524 1074,-785 1833,-785 738,0 1349,248 1839,739 490,490 738,1168 738,2034l0 510c926,-1114 1927,-1933 2987,-2457 1061,-524 2242,-785 3538,-785 1356,0 2511,269 3484,806 973,537 1772,1349 2396,2437 906,-1101 1880,-1913 2913,-2443 1034,-530 2182,-799 3444,-799 1470,0 2732,289 3793,866 1061,578 1859,1403 2383,2477 457,967 685,2497 685,4578l0 10485c0,1128 -255,1974 -765,2537 -510,564 -1188,846 -2021,846 -812,0 -1477,-282 -1994,-853 -517,-570 -779,-1417 -779,-2531l0 -9029c0,-1155 -47,-2074 -148,-2772 -101,-692 -363,-1276 -799,-1752 -430,-470 -1087,-705 -1967,-705 -711,0 -1383,208 -2020,631 -631,416 -1128,980 -1483,1692 -396,899 -591,2504 -591,4800zm36944 933l-10506 0c13,1222 262,2296 738,3229 477,933 1115,1631 1907,2101 792,477 1672,712 2625,712 644,0 1228,-74 1759,-228 537,-148 1047,-383 1544,-705 504,-322 960,-665 1376,-1034 423,-369 967,-866 1638,-1497 275,-235 665,-356 1175,-356 550,0 1000,154 1343,456 335,296 510,725 510,1276 0,483 -195,1047 -571,1698 -383,644 -953,1269 -1725,1859 -765,597 -1725,1094 -2887,1483 -1161,396 -2497,591 -4001,591 -3450,0 -6129,-987 -8042,-2954 -1913,-1967 -2867,-4632 -2867,-8002 0,-1584 235,-3061 705,-4417 470,-1356 1161,-2517 2061,-3491 906,-967 2021,-1712 3343,-2229 1322,-517 2793,-779 4404,-779 2101,0 3900,443 5397,1329 1504,886 2625,2027 3376,3437 745,1403 1121,2833 1121,4290 0,1349 -389,2228 -1161,2631 -772,396 -1859,597 -3263,597zm-10506 -3061l9734 0c-128,-1833 -624,-3202 -1484,-4115 -859,-906 -1987,-1363 -3390,-1363 -1343,0 -2437,463 -3296,1383 -859,926 -1383,2289 -1564,4095zm28948 4900l0 4484c0,1087 -255,1900 -765,2443 -510,544 -1155,819 -1940,819 -772,0 -1410,-275 -1907,-826 -496,-550 -745,-1363 -745,-2437l0 -14950c0,-2410 872,-3619 2611,-3619 886,0 1530,282 1920,846 396,564 611,1403 651,2504 638,-1101 1296,-1940 1974,-2504 678,-564 1578,-846 2705,-846 1128,0 2222,282 3283,846 1061,564 1591,1316 1591,2249 0,658 -221,1195 -678,1624 -450,430 -940,638 -1463,638 -194,0 -671,-121 -1423,-363 -758,-242 -1423,-363 -2000,-363 -785,0 -1423,208 -1926,618 -497,416 -886,1027 -1161,1839 -275,812 -463,1779 -571,2900 -100,1121 -154,2484 -154,4095zm34715 1107c0,665 -202,1383 -604,2142 -396,758 -1007,1483 -1826,2168 -819,685 -1853,1242 -3101,1658 -1242,423 -2645,631 -4209,631 -3316,0 -5907,-967 -7767,-2900 -1866,-1933 -2799,-4524 -2799,-7780 0,-2202 430,-4148 1282,-5840 852,-1692 2088,-3000 3699,-3920 1618,-926 3544,-1390 5787,-1390 1389,0 2665,202 3826,611 1154,409 2141,933 2947,1578 806,644 1423,1329 1846,2054 430,732 644,1410 644,2041 0,644 -242,1188 -719,1638 -483,443 -1061,665 -1745,665 -443,0 -812,-114 -1107,-343 -295,-228 -624,-597 -994,-1107 -658,-993 -1343,-1745 -2054,-2242 -719,-497 -1625,-745 -2726,-745 -1584,0 -2867,618 -3833,1860 -973,1235 -1457,2927 -1457,5075 0,1007 128,1933 376,2779 248,846 604,1571 1081,2161 470,598 1041,1047 1712,1356 665,309 1403,463 2202,463 1074,0 1994,-248 2759,-745 772,-497 1450,-1262 2041,-2283 322,-604 678,-1074 1061,-1409 376,-343 846,-517 1396,-517 658,0 1202,255 1631,752 430,497 651,1027 651,1591zm14200 -12144l0 15520c0,1074 -255,1886 -765,2437 -510,551 -1155,826 -1940,826 -785,0 -1423,-282 -1913,-846 -490,-564 -739,-1369 -739,-2417l0 -15359c0,-1067 248,-1866 739,-2404 490,-537 1128,-806 1913,-806 785,0 1430,269 1940,806 510,537 765,1289 765,2242zm-2652 -5545c-745,0 -1383,-228 -1913,-685 -530,-456 -792,-1107 -792,-1946 0,-752 269,-1376 812,-1867 544,-490 1175,-738 1893,-738 698,0 1309,221 1846,665 537,450 806,1094 806,1940 0,826 -262,1470 -785,1933 -524,463 -1141,698 -1866,698z"/>
   <path class="fil15" d="M927396 469599c-1302,1007 -2558,1759 -3766,2262 -1215,504 -2578,752 -4081,752 -1376,0 -2591,-275 -3631,-819 -1041,-544 -1846,-1275 -2410,-2208 -564,-933 -846,-1940 -846,-3028 0,-1470 463,-2719 1396,-3753 933,-1040 2215,-1732 3846,-2087 335,-81 1181,-255 2531,-530 1349,-276 2511,-524 3470,-759 960,-228 2007,-504 3135,-832 -67,-1417 -349,-2457 -852,-3115 -510,-665 -1551,-994 -3142,-994 -1363,0 -2390,188 -3074,571 -692,376 -1282,946 -1772,1712 -490,758 -839,1255 -1041,1504 -208,242 -644,363 -1309,363 -604,0 -1128,-195 -1564,-584 -437,-382 -658,-879 -658,-1483 0,-946 335,-1866 1000,-2759 671,-893 1712,-1624 3128,-2202 1417,-578 3182,-866 5296,-866 2356,0 4216,282 5565,839 1349,557 2302,1437 2860,2645 557,1209 839,2806 839,4800 0,1262 -7,2329 -13,3209 -7,880 -13,1859 -27,2933 0,1007 168,2061 504,3155 335,1087 496,1793 496,2108 0,550 -255,1054 -772,1504 -524,450 -1107,678 -1765,678 -550,0 -1094,-255 -1631,-772 -537,-517 -1108,-1262 -1712,-2242zm-356 -7780c-785,289 -1927,597 -3430,913 -1497,322 -2537,564 -3115,711 -578,154 -1128,450 -1652,886 -524,443 -785,1054 -785,1846 0,812 309,1504 926,2074 611,570 1417,859 2417,859 1061,0 2041,-235 2934,-698 899,-470 1557,-1067 1980,-1806 483,-812 725,-2155 725,-4021l0 -765zm14892 7532l0 -23280c0,-1074 242,-1887 718,-2437 477,-550 1121,-826 1933,-826 806,0 1463,275 1960,819 497,544 745,1356 745,2444l0 23280c0,1087 -255,1900 -759,2443 -504,544 -1155,819 -1947,819 -785,0 -1423,-282 -1913,-846 -490,-564 -739,-1369 -739,-2417zm30063 -6324l-10506 0c13,1222 262,2296 738,3229 477,933 1115,1631 1907,2101 792,477 1672,712 2625,712 644,0 1228,-74 1759,-228 537,-148 1047,-383 1544,-705 504,-322 960,-665 1376,-1034 423,-369 967,-866 1638,-1497 275,-235 665,-356 1175,-356 550,0 1000,154 1343,456 335,296 510,725 510,1276 0,483 -195,1047 -571,1698 -383,644 -953,1269 -1725,1859 -765,597 -1725,1094 -2887,1483 -1161,396 -2497,591 -4001,591 -3450,0 -6129,-987 -8042,-2954 -1913,-1967 -2867,-4632 -2867,-8002 0,-1584 235,-3061 705,-4417 470,-1356 1161,-2517 2061,-3491 906,-967 2021,-1712 3343,-2229 1322,-517 2793,-779 4404,-779 2101,0 3900,443 5397,1329 1504,886 2625,2027 3376,3437 745,1403 1121,2833 1121,4290 0,1349 -389,2228 -1161,2631 -772,396 -1859,597 -3263,597zm-10506 -3061l9734 0c-128,-1833 -624,-3202 -1484,-4115 -859,-906 -1987,-1363 -3390,-1363 -1343,0 -2437,463 -3296,1383 -859,926 -1383,2289 -1564,4095zm40911 5639c0,1477 -363,2745 -1081,3799 -719,1054 -1786,1853 -3195,2397 -1410,544 -3122,812 -5142,812 -1927,0 -3578,-296 -4954,-886 -1376,-584 -2390,-1322 -3048,-2209 -651,-879 -980,-1765 -980,-2658 0,-591 208,-1094 631,-1510 416,-423 947,-631 1591,-631 564,0 994,141 1296,416 302,275 591,658 866,1161 550,953 1208,1671 1974,2141 765,477 1812,711 3135,711 1074,0 1954,-241 2638,-718 692,-477 1034,-1027 1034,-1644 0,-947 -356,-1631 -1067,-2068 -718,-430 -1893,-846 -3531,-1242 -1846,-456 -3350,-940 -4511,-1443 -1154,-504 -2081,-1175 -2779,-2001 -691,-826 -1041,-1846 -1041,-3048 0,-1081 322,-2094 960,-3054 644,-960 1591,-1719 2846,-2289 1249,-570 2759,-859 4531,-859 1390,0 2638,141 3739,430 1107,289 2034,678 2772,1161 745,490 1309,1027 1692,1618 389,591 584,1161 584,1732 0,611 -208,1121 -624,1510 -409,396 -1000,591 -1759,591 -550,0 -1020,-154 -1410,-470 -383,-315 -826,-785 -1329,-1417 -403,-524 -879,-946 -1430,-1262 -550,-316 -1295,-470 -2242,-470 -967,0 -1772,208 -2417,618 -638,416 -960,933 -960,1551 0,564 235,1027 705,1383 477,363 1108,665 1907,900 799,235 1900,524 3303,866 1665,403 3028,893 4081,1457 1054,564 1853,1228 2396,2000 544,765 819,1638 819,2625zm-555243 27355l0 8263 12607 0 0 -8263c0,-1175 269,-2061 799,-2652 530,-591 1228,-886 2094,-886 872,0 1584,289 2128,873 544,584 819,1470 819,2665l0 22710c0,1195 -275,2081 -826,2672 -550,591 -1262,886 -2121,886 -880,0 -1584,-296 -2108,-893 -524,-598 -785,-1483 -785,-2665l0 -9694 -12607 0 0 9694c0,1195 -275,2081 -826,2672 -550,591 -1262,886 -2121,886 -880,0 -1584,-296 -2108,-893 -524,-598 -785,-1483 -785,-2665l0 -22710c0,-1181 262,-2061 779,-2652 517,-591 1222,-886 2115,-886 873,0 1584,289 2128,873 544,584 819,1477 819,2665zm29719 7485l0 15520c0,1074 -255,1886 -765,2437 -510,551 -1155,826 -1940,826 -785,0 -1423,-282 -1913,-846 -490,-564 -739,-1369 -739,-2417l0 -15359c0,-1067 248,-1866 739,-2404 490,-537 1128,-806 1913,-806 785,0 1430,269 1940,806 510,537 765,1289 765,2242zm-2652 -5545c-745,0 -1383,-228 -1913,-685 -530,-456 -792,-1107 -792,-1946 0,-752 269,-1376 812,-1867 544,-490 1175,-738 1893,-738 698,0 1309,221 1846,665 537,450 806,1094 806,1940 0,826 -262,1470 -785,1933 -524,463 -1141,698 -1866,698zm22911 21260l0 -530c-718,826 -1430,1497 -2135,2014 -698,517 -1463,913 -2282,1181 -819,269 -1712,403 -2685,403 -1282,0 -2470,-275 -3565,-819 -1094,-544 -2048,-1316 -2846,-2329 -799,-1007 -1403,-2195 -1819,-3558 -409,-1363 -617,-2840 -617,-4424 0,-3356 819,-5974 2457,-7847 1638,-1873 3800,-2813 6471,-2813 1551,0 2853,269 3914,799 1061,530 2101,1349 3108,2457l0 -7928c0,-1101 222,-1933 658,-2497 443,-564 1067,-846 1880,-846 812,0 1436,262 1880,779 436,517 658,1282 658,2289l0 23670c0,1020 -235,1793 -705,2303 -476,510 -1087,765 -1832,765 -732,0 -1343,-269 -1819,-799 -477,-530 -719,-1289 -719,-2269zm-10553 -7881c0,1457 228,2692 678,3719 450,1020 1067,1785 1859,2302 785,517 1644,779 2571,779 946,0 1806,-248 2585,-738 779,-490 1403,-1242 1866,-2256 463,-1020 698,-2283 698,-3806 0,-1423 -235,-2652 -698,-3679 -463,-1034 -1094,-1819 -1886,-2363 -792,-544 -1658,-812 -2605,-812 -980,0 -1859,275 -2631,832 -772,557 -1369,1356 -1799,2396 -423,1047 -638,2256 -638,3625zm26342 3202l0 4484c0,1087 -255,1900 -765,2443 -510,544 -1155,819 -1940,819 -772,0 -1410,-275 -1907,-826 -496,-550 -745,-1363 -745,-2437l0 -14950c0,-2410 872,-3619 2611,-3619 886,0 1530,282 1920,846 396,564 611,1403 651,2504 638,-1101 1296,-1940 1974,-2504 678,-564 1578,-846 2705,-846 1128,0 2222,282 3283,846 1061,564 1591,1316 1591,2249 0,658 -221,1195 -678,1624 -450,430 -940,638 -1463,638 -194,0 -671,-121 -1423,-363 -758,-242 -1423,-363 -2000,-363 -785,0 -1423,208 -1926,618 -497,416 -886,1027 -1161,1839 -275,812 -463,1779 -571,2900 -100,1121 -154,2484 -154,4095zm24892 4733c-1302,1007 -2558,1759 -3766,2262 -1215,504 -2578,752 -4081,752 -1376,0 -2591,-275 -3631,-819 -1041,-544 -1846,-1275 -2410,-2208 -564,-933 -846,-1940 -846,-3028 0,-1470 463,-2719 1396,-3753 933,-1040 2215,-1732 3846,-2087 335,-81 1181,-255 2531,-530 1349,-276 2511,-524 3470,-759 960,-228 2007,-504 3135,-832 -67,-1417 -349,-2457 -852,-3115 -510,-665 -1551,-994 -3142,-994 -1363,0 -2390,188 -3074,571 -692,376 -1282,946 -1772,1712 -490,758 -839,1255 -1041,1504 -208,242 -644,363 -1309,363 -604,0 -1128,-195 -1564,-584 -437,-382 -658,-879 -658,-1483 0,-946 335,-1866 1000,-2759 671,-893 1712,-1624 3128,-2202 1417,-578 3182,-866 5296,-866 2356,0 4216,282 5565,839 1349,557 2302,1437 2860,2645 557,1209 839,2806 839,4800 0,1262 -7,2329 -13,3209 -7,880 -13,1859 -27,2933 0,1007 168,2061 504,3155 335,1087 496,1793 496,2108 0,550 -255,1054 -772,1504 -524,450 -1107,678 -1765,678 -550,0 -1094,-255 -1631,-772 -537,-517 -1108,-1262 -1712,-2242zm-356 -7780c-785,289 -1927,597 -3430,913 -1497,322 -2537,564 -3115,711 -578,154 -1128,450 -1652,886 -524,443 -785,1054 -785,1846 0,812 309,1504 926,2074 611,570 1417,859 2417,859 1061,0 2041,-235 2934,-698 899,-470 1557,-1067 1980,-1806 483,-812 725,-2155 725,-4021l0 -765zm24650 7767l0 -692c-644,813 -1316,1497 -2028,2048 -705,550 -1477,960 -2316,1228 -839,269 -1793,403 -2867,403 -1302,0 -2464,-269 -3491,-806 -1027,-537 -1826,-1275 -2390,-2222 -665,-1141 -1000,-2779 -1000,-4920l0 -10633c0,-1081 242,-1880 725,-2410 483,-530 1128,-799 1927,-799 806,0 1463,269 1960,806 497,537 745,1336 745,2404l0 8593c0,1242 107,2289 316,3135 208,846 584,1511 1128,1987 544,476 1282,718 2215,718 906,0 1759,-269 2557,-806 799,-537 1383,-1242 1752,-2108 302,-759 450,-2423 450,-4994l0 -6525c0,-1067 248,-1866 745,-2404 504,-537 1155,-806 1954,-806 799,0 1443,269 1926,799 490,530 732,1329 732,2410l0 15554c0,1020 -235,1786 -698,2303 -470,510 -1067,765 -1806,765 -732,0 -1343,-269 -1819,-799 -477,-530 -718,-1276 -718,-2229zm15755 -15756l0 15520c0,1074 -255,1886 -765,2437 -510,551 -1155,826 -1940,826 -785,0 -1423,-282 -1913,-846 -490,-564 -739,-1369 -739,-2417l0 -15359c0,-1067 248,-1866 739,-2404 490,-537 1128,-806 1913,-806 785,0 1430,269 1940,806 510,537 765,1289 765,2242zm-2652 -5545c-745,0 -1383,-228 -1913,-685 -530,-456 -792,-1107 -792,-1946 0,-752 269,-1376 812,-1867 544,-490 1175,-738 1893,-738 698,0 1309,221 1846,665 537,450 806,1094 806,1940 0,826 -262,1470 -785,1933 -524,463 -1141,698 -1866,698zm8210 21065l0 -23280c0,-1074 242,-1887 718,-2437 477,-550 1121,-826 1933,-826 806,0 1463,275 1960,819 497,544 745,1356 745,2444l0 23280c0,1087 -255,1900 -759,2443 -504,544 -1155,819 -1947,819 -785,0 -1423,-282 -1913,-846 -490,-564 -739,-1369 -739,-2417zm16272 -15520l0 15520c0,1074 -255,1886 -765,2437 -510,551 -1155,826 -1940,826 -785,0 -1423,-282 -1913,-846 -490,-564 -739,-1369 -739,-2417l0 -15359c0,-1067 248,-1866 739,-2404 490,-537 1128,-806 1913,-806 785,0 1430,269 1940,806 510,537 765,1289 765,2242zm-2652 -5545c-745,0 -1383,-228 -1913,-685 -530,-456 -792,-1107 -792,-1946 0,-752 269,-1376 812,-1867 544,-490 1175,-738 1893,-738 698,0 1309,221 1846,665 537,450 806,1094 806,1940 0,826 -262,1470 -785,1933 -524,463 -1141,698 -1866,698zm27469 17689c0,665 -202,1383 -604,2142 -396,758 -1007,1483 -1826,2168 -819,685 -1853,1242 -3101,1658 -1242,423 -2645,631 -4209,631 -3316,0 -5907,-967 -7767,-2900 -1866,-1933 -2799,-4524 -2799,-7780 0,-2202 430,-4148 1282,-5840 852,-1692 2088,-3000 3699,-3920 1618,-926 3544,-1390 5787,-1390 1389,0 2665,202 3826,611 1154,409 2141,933 2947,1578 806,644 1423,1329 1846,2054 430,732 644,1410 644,2041 0,644 -242,1188 -719,1638 -483,443 -1061,665 -1745,665 -443,0 -812,-114 -1107,-343 -295,-228 -624,-597 -994,-1107 -658,-993 -1343,-1745 -2054,-2242 -719,-497 -1625,-745 -2726,-745 -1584,0 -2867,618 -3833,1860 -973,1235 -1457,2927 -1457,5075 0,1007 128,1933 376,2779 248,846 604,1571 1081,2161 470,598 1041,1047 1712,1356 665,309 1403,463 2202,463 1074,0 1994,-248 2759,-745 772,-497 1450,-1262 2041,-2283 322,-604 678,-1074 1061,-1409 376,-343 846,-517 1396,-517 658,0 1202,255 1631,752 430,497 651,1027 651,1591zm18239 3625c-1302,1007 -2558,1759 -3766,2262 -1215,504 -2578,752 -4081,752 -1376,0 -2591,-275 -3631,-819 -1041,-544 -1846,-1275 -2410,-2208 -564,-933 -846,-1940 -846,-3028 0,-1470 463,-2719 1396,-3753 933,-1040 2215,-1732 3846,-2087 335,-81 1181,-255 2531,-530 1349,-276 2511,-524 3470,-759 960,-228 2007,-504 3135,-832 -67,-1417 -349,-2457 -852,-3115 -510,-665 -1551,-994 -3142,-994 -1363,0 -2390,188 -3074,571 -692,376 -1282,946 -1772,1712 -490,758 -839,1255 -1041,1504 -208,242 -644,363 -1309,363 -604,0 -1128,-195 -1564,-584 -437,-382 -658,-879 -658,-1483 0,-946 335,-1866 1000,-2759 671,-893 1712,-1624 3128,-2202 1417,-578 3182,-866 5296,-866 2356,0 4216,282 5565,839 1349,557 2302,1437 2860,2645 557,1209 839,2806 839,4800 0,1262 -7,2329 -13,3209 -7,880 -13,1859 -27,2933 0,1007 168,2061 504,3155 335,1087 496,1793 496,2108 0,550 -255,1054 -772,1504 -524,450 -1107,678 -1765,678 -550,0 -1094,-255 -1631,-772 -537,-517 -1108,-1262 -1712,-2242zm-356 -7780c-785,289 -1927,597 -3430,913 -1497,322 -2537,564 -3115,711 -578,154 -1128,450 -1652,886 -524,443 -785,1054 -785,1846 0,812 309,1504 926,2074 611,570 1417,859 2417,859 1061,0 2041,-235 2934,-698 899,-470 1557,-1067 1980,-1806 483,-812 725,-2155 725,-4021l0 -765zm28000 3786c0,1477 -363,2745 -1081,3799 -719,1054 -1786,1853 -3195,2397 -1410,544 -3122,812 -5142,812 -1927,0 -3578,-296 -4954,-886 -1376,-584 -2390,-1322 -3048,-2209 -651,-879 -980,-1765 -980,-2658 0,-591 208,-1094 631,-1510 416,-423 947,-631 1591,-631 564,0 994,141 1296,416 302,275 591,658 866,1161 550,953 1208,1671 1974,2141 765,477 1812,711 3135,711 1074,0 1954,-241 2638,-718 692,-477 1034,-1027 1034,-1644 0,-947 -356,-1631 -1067,-2068 -718,-430 -1893,-846 -3531,-1242 -1846,-456 -3350,-940 -4511,-1443 -1154,-504 -2081,-1175 -2779,-2001 -691,-826 -1041,-1846 -1041,-3048 0,-1081 322,-2094 960,-3054 644,-960 1591,-1719 2846,-2289 1249,-570 2759,-859 4531,-859 1390,0 2638,141 3739,430 1107,289 2034,678 2772,1161 745,490 1309,1027 1692,1618 389,591 584,1161 584,1732 0,611 -208,1121 -624,1510 -409,396 -1000,591 -1759,591 -550,0 -1020,-154 -1410,-470 -383,-315 -826,-785 -1329,-1417 -403,-524 -879,-946 -1430,-1262 -550,-316 -1295,-470 -2242,-470 -967,0 -1772,208 -2417,618 -638,416 -960,933 -960,1551 0,564 235,1027 705,1383 477,363 1108,665 1907,900 799,235 1900,524 3303,866 1665,403 3028,893 4081,1457 1054,564 1853,1228 2396,2000 544,765 819,1638 819,2625zm22146 -4713l-5350 0 0 8163c0,1168 -275,2047 -826,2652 -550,604 -1249,906 -2081,906 -880,0 -1591,-296 -2128,-893 -537,-598 -806,-1477 -806,-2625l0 -22226c0,-1282 295,-2202 886,-2752 591,-550 1524,-826 2813,-826l7492 0c2215,0 3920,168 5115,510 1181,329 2202,873 3061,1631 859,765 1511,1692 1954,2793 450,1101 671,2343 671,3719 0,2940 -906,5162 -2712,6680 -1813,1510 -4504,2269 -8089,2269zm-1417 -13211l-3934 0 0 8821 3934 0c1376,0 2531,-148 3457,-437 920,-289 1624,-758 2115,-1416 483,-651 725,-1517 725,-2578 0,-1276 -376,-2309 -1121,-3108 -839,-853 -2564,-1282 -5176,-1282zm30167 15346l-10506 0c13,1222 262,2296 738,3229 477,933 1115,1631 1907,2101 792,477 1672,712 2625,712 644,0 1228,-74 1759,-228 537,-148 1047,-383 1544,-705 504,-322 960,-665 1376,-1034 423,-369 967,-866 1638,-1497 275,-235 665,-356 1175,-356 550,0 1000,154 1343,456 335,296 510,725 510,1276 0,483 -195,1047 -571,1698 -383,644 -953,1269 -1725,1859 -765,597 -1725,1094 -2887,1483 -1161,396 -2497,591 -4001,591 -3450,0 -6129,-987 -8042,-2954 -1913,-1967 -2867,-4632 -2867,-8002 0,-1584 235,-3061 705,-4417 470,-1356 1161,-2517 2061,-3491 906,-967 2021,-1712 3343,-2229 1322,-517 2793,-779 4404,-779 2101,0 3900,443 5397,1329 1504,886 2625,2027 3376,3437 745,1403 1121,2833 1121,4290 0,1349 -389,2228 -1161,2631 -772,396 -1859,597 -3263,597zm-10506 -3061l9734 0c-128,-1833 -624,-3202 -1484,-4115 -859,-906 -1987,-1363 -3390,-1363 -1343,0 -2437,463 -3296,1383 -859,926 -1383,2289 -1564,4095zm24777 4900l0 4484c0,1087 -255,1900 -765,2443 -510,544 -1155,819 -1940,819 -772,0 -1410,-275 -1907,-826 -496,-550 -745,-1363 -745,-2437l0 -14950c0,-2410 872,-3619 2611,-3619 886,0 1530,282 1920,846 396,564 611,1403 651,2504 638,-1101 1296,-1940 1974,-2504 678,-564 1578,-846 2705,-846 1128,0 2222,282 3283,846 1061,564 1591,1316 1591,2249 0,658 -221,1195 -678,1624 -450,430 -940,638 -1463,638 -194,0 -671,-121 -1423,-363 -758,-242 -1423,-363 -2000,-363 -785,0 -1423,208 -1926,618 -497,416 -886,1027 -1161,1839 -275,812 -463,1779 -571,2900 -100,1121 -154,2484 -154,4095z"/>
   <path class="fil15" d="M761867 509642l-10506 0c13,1222 262,2296 738,3229 477,933 1115,1631 1907,2101 792,477 1672,712 2625,712 644,0 1228,-74 1759,-228 537,-148 1047,-383 1544,-705 504,-322 960,-665 1376,-1034 423,-369 967,-866 1638,-1497 275,-235 665,-356 1175,-356 550,0 1000,154 1343,456 335,296 510,725 510,1276 0,483 -195,1047 -571,1698 -383,644 -953,1269 -1725,1859 -765,597 -1725,1094 -2887,1483 -1161,396 -2497,591 -4001,591 -3450,0 -6129,-987 -8042,-2954 -1913,-1967 -2867,-4632 -2867,-8002 0,-1584 235,-3061 705,-4417 470,-1356 1161,-2517 2061,-3491 906,-967 2021,-1712 3343,-2229 1322,-517 2793,-779 4404,-779 2101,0 3900,443 5397,1329 1504,886 2625,2027 3376,3437 745,1403 1121,2833 1121,4290 0,1349 -389,2228 -1161,2631 -772,396 -1859,597 -3263,597zm-10506 -3061l9734 0c-128,-1833 -624,-3202 -1484,-4115 -859,-906 -1987,-1363 -3390,-1363 -1343,0 -2437,463 -3296,1383 -859,926 -1383,2289 -1564,4095zm24818 -6136l0 15520c0,1074 -255,1886 -765,2437 -510,551 -1155,826 -1940,826 -785,0 -1423,-282 -1913,-846 -490,-564 -739,-1369 -739,-2417l0 -15359c0,-1067 248,-1866 739,-2404 490,-537 1128,-806 1913,-806 785,0 1430,269 1940,806 510,537 765,1289 765,2242zm-2652 -5545c-745,0 -1383,-228 -1913,-685 -530,-456 -792,-1107 -792,-1946 0,-752 269,-1376 812,-1867 544,-490 1175,-738 1893,-738 698,0 1309,221 1846,665 537,450 806,1094 806,1940 0,826 -262,1470 -785,1933 -524,463 -1141,698 -1866,698zm13526 16581l0 4484c0,1087 -255,1900 -765,2443 -510,544 -1155,819 -1940,819 -772,0 -1410,-275 -1907,-826 -496,-550 -745,-1363 -745,-2437l0 -14950c0,-2410 872,-3619 2611,-3619 886,0 1530,282 1920,846 396,564 611,1403 651,2504 638,-1101 1296,-1940 1974,-2504 678,-564 1578,-846 2705,-846 1128,0 2222,282 3283,846 1061,564 1591,1316 1591,2249 0,658 -221,1195 -678,1624 -450,430 -940,638 -1463,638 -194,0 -671,-121 -1423,-363 -758,-242 -1423,-363 -2000,-363 -785,0 -1423,208 -1926,618 -497,416 -886,1027 -1161,1839 -275,812 -463,1779 -571,2900 -100,1121 -154,2484 -154,4095zm24892 4733c-1302,1007 -2558,1759 -3766,2262 -1215,504 -2578,752 -4081,752 -1376,0 -2591,-275 -3631,-819 -1041,-544 -1846,-1275 -2410,-2208 -564,-933 -846,-1940 -846,-3028 0,-1470 463,-2719 1396,-3753 933,-1040 2215,-1732 3846,-2087 335,-81 1181,-255 2531,-530 1349,-276 2511,-524 3470,-759 960,-228 2007,-504 3135,-832 -67,-1417 -349,-2457 -852,-3115 -510,-665 -1551,-994 -3142,-994 -1363,0 -2390,188 -3074,571 -692,376 -1282,946 -1772,1712 -490,758 -839,1255 -1041,1504 -208,242 -644,363 -1309,363 -604,0 -1128,-195 -1564,-584 -437,-382 -658,-879 -658,-1483 0,-946 335,-1866 1000,-2759 671,-893 1712,-1624 3128,-2202 1417,-578 3182,-866 5296,-866 2356,0 4216,282 5565,839 1349,557 2302,1437 2860,2645 557,1209 839,2806 839,4800 0,1262 -7,2329 -13,3209 -7,880 -13,1859 -27,2933 0,1007 168,2061 504,3155 335,1087 496,1793 496,2108 0,550 -255,1054 -772,1504 -524,450 -1107,678 -1765,678 -550,0 -1094,-255 -1631,-772 -537,-517 -1108,-1262 -1712,-2242zm-356 -7780c-785,289 -1927,597 -3430,913 -1497,322 -2537,564 -3115,711 -578,154 -1128,450 -1652,886 -524,443 -785,1054 -785,1846 0,812 309,1504 926,2074 611,570 1417,859 2417,859 1061,0 2041,-235 2934,-698 899,-470 1557,-1067 1980,-1806 483,-812 725,-2155 725,-4021l0 -765zm39036 1665c0,1739 -450,3303 -1350,4692 -893,1390 -2208,2477 -3940,3263 -1732,785 -3786,1175 -6156,1175 -2846,0 -5196,-537 -7042,-1604 -1309,-772 -2370,-1806 -3189,-3095 -819,-1289 -1229,-2544 -1229,-3766 0,-705 248,-1309 739,-1819 490,-504 1114,-752 1873,-752 618,0 1135,195 1557,591 430,389 792,973 1094,1752 363,913 765,1685 1188,2296 430,618 1027,1128 1799,1531 779,396 1792,597 3054,597 1725,0 3135,-403 4216,-1208 1081,-806 1624,-1813 1624,-3021 0,-960 -289,-1739 -873,-2329 -584,-598 -1343,-1054 -2269,-1370 -920,-315 -2161,-651 -3706,-1007 -2067,-483 -3806,-1054 -5196,-1698 -1396,-651 -2504,-1537 -3323,-2658 -819,-1121 -1229,-2511 -1229,-4182 0,-1584 430,-2994 1296,-4229 866,-1228 2121,-2175 3759,-2840 1638,-665 3565,-993 5780,-993 1766,0 3296,222 4592,658 1289,443 2363,1027 3216,1752 846,725 1470,1490 1866,2289 389,799 591,1584 591,2343 0,692 -248,1322 -738,1880 -490,557 -1108,832 -1839,832 -671,0 -1175,-168 -1524,-497 -349,-335 -725,-886 -1128,-1644 -530,-1088 -1155,-1940 -1893,-2551 -731,-611 -1913,-913 -3544,-913 -1504,0 -2725,329 -3645,994 -926,665 -1390,1457 -1390,2390 0,577 154,1074 470,1497 315,416 752,779 1302,1081 550,302 1107,537 1671,711 564,168 1497,416 2793,745 1624,382 3101,799 4417,1262 1316,457 2437,1014 3363,1672 926,651 1645,1483 2162,2484 517,1007 779,2235 779,3692zm6605 9130c-812,0 -1511,-262 -2101,-785 -591,-524 -886,-1262 -886,-2202 0,-806 282,-1490 846,-2068 564,-577 1262,-866 2088,-866 826,0 1530,282 2115,852 584,571 872,1262 872,2081 0,926 -289,1658 -872,2189 -584,530 -1269,799 -2061,799zm29798 -3068l0 -530c-718,826 -1430,1497 -2135,2014 -698,517 -1463,913 -2282,1181 -819,269 -1712,403 -2685,403 -1282,0 -2470,-275 -3565,-819 -1094,-544 -2048,-1316 -2846,-2329 -799,-1007 -1403,-2195 -1819,-3558 -409,-1363 -617,-2840 -617,-4424 0,-3356 819,-5974 2457,-7847 1638,-1873 3800,-2813 6471,-2813 1551,0 2853,269 3914,799 1061,530 2101,1349 3108,2457l0 -7928c0,-1101 222,-1933 658,-2497 443,-564 1067,-846 1880,-846 812,0 1436,262 1880,779 436,517 658,1282 658,2289l0 23670c0,1020 -235,1793 -705,2303 -476,510 -1087,765 -1832,765 -732,0 -1343,-269 -1819,-799 -477,-530 -719,-1289 -719,-2269zm-10553 -7881c0,1457 228,2692 678,3719 450,1020 1067,1785 1859,2302 785,517 1644,779 2571,779 946,0 1806,-248 2585,-738 779,-490 1403,-1242 1866,-2256 463,-1020 698,-2283 698,-3806 0,-1423 -235,-2652 -698,-3679 -463,-1034 -1094,-1819 -1886,-2363 -792,-544 -1658,-812 -2605,-812 -980,0 -1859,275 -2631,832 -772,557 -1369,1356 -1799,2396 -423,1047 -638,2256 -638,3625zm36002 1363l-10506 0c13,1222 262,2296 738,3229 477,933 1115,1631 1907,2101 792,477 1672,712 2625,712 644,0 1228,-74 1759,-228 537,-148 1047,-383 1544,-705 504,-322 960,-665 1376,-1034 423,-369 967,-866 1638,-1497 275,-235 665,-356 1175,-356 550,0 1000,154 1343,456 335,296 510,725 510,1276 0,483 -195,1047 -571,1698 -383,644 -953,1269 -1725,1859 -765,597 -1725,1094 -2887,1483 -1161,396 -2497,591 -4001,591 -3450,0 -6129,-987 -8042,-2954 -1913,-1967 -2867,-4632 -2867,-8002 0,-1584 235,-3061 705,-4417 470,-1356 1161,-2517 2061,-3491 906,-967 2021,-1712 3343,-2229 1322,-517 2793,-779 4404,-779 2101,0 3900,443 5397,1329 1504,886 2625,2027 3376,3437 745,1403 1121,2833 1121,4290 0,1349 -389,2228 -1161,2631 -772,396 -1859,597 -3263,597zm-10506 -3061l9734 0c-128,-1833 -624,-3202 -1484,-4115 -859,-906 -1987,-1363 -3390,-1363 -1343,0 -2437,463 -3296,1383 -859,926 -1383,2289 -1564,4095zm33712 -161l-2047 0 0 9250c0,1222 -269,2115 -806,2692 -537,577 -1242,866 -2101,866 -933,0 -1658,-302 -2169,-906 -510,-604 -765,-1483 -765,-2652l0 -22186c0,-1256 282,-2169 846,-2732 564,-564 1477,-846 2732,-846l9499 0c1309,0 2430,54 3363,168 933,114 1772,335 2517,678 906,383 1705,926 2403,1631 691,712 1222,1537 1578,2470 363,940 544,1933 544,2987 0,2148 -604,3867 -1819,5156 -1215,1282 -3055,2195 -5518,2732 1034,551 2027,1363 2974,2437 940,1074 1786,2222 2524,3430 739,1215 1316,2302 1732,3283 410,973 618,1644 618,2014 0,376 -121,752 -363,1128 -241,376 -570,671 -993,886 -416,215 -906,322 -1457,322 -651,0 -1202,-155 -1652,-463 -443,-309 -826,-698 -1148,-1168 -322,-470 -759,-1168 -1309,-2081l-2343 -3894c-839,-1423 -1591,-2511 -2249,-3256 -665,-752 -1336,-1262 -2020,-1537 -678,-275 -1537,-409 -2571,-409zm3343 -12124l-5391 0 0 7935 5229 0c1403,0 2585,-121 3544,-363 953,-242 1685,-658 2189,-1242 504,-584 758,-1390 758,-2410 0,-806 -201,-1511 -611,-2122 -403,-611 -967,-1067 -1692,-1369 -678,-289 -2020,-430 -4028,-430zm20964 24932c-812,0 -1511,-262 -2101,-785 -591,-524 -886,-1262 -886,-2202 0,-806 282,-1490 846,-2068 564,-577 1262,-866 2088,-866 826,0 1530,282 2115,852 584,571 872,1262 872,2081 0,926 -289,1658 -872,2189 -584,530 -1269,799 -2061,799zm15137 -26268l0 20991 11842 0c940,0 1665,228 2168,685 510,463 759,1041 759,1732 0,705 -248,1282 -745,1719 -496,436 -1228,658 -2181,658l-14104 0c-1269,0 -2182,-282 -2739,-846 -557,-564 -839,-1477 -839,-2732l0 -22206c0,-1175 269,-2061 799,-2652 530,-591 1228,-886 2094,-886 872,0 1584,289 2128,873 544,584 819,1477 819,2665zm21797 26268c-812,0 -1511,-262 -2101,-785 -591,-524 -886,-1262 -886,-2202 0,-806 282,-1490 846,-2068 564,-577 1262,-866 2088,-866 826,0 1530,282 2115,852 584,571 872,1262 872,2081 0,926 -289,1658 -872,2189 -584,530 -1269,799 -2061,799z"/>
  </g>
 </g>
</svg>
