<?xml version="1.0" encoding="UTF-8"?>
<!DOCTYPE svg PUBLIC "-//W3C//DTD SVG 1.0//EN" "http://www.w3.org/TR/2001/REC-SVG-20010904/DTD/svg10.dtd">
<!-- Creator: CorelDRAW 2018 (64-Bit) -->
<svg xmlns="http://www.w3.org/2000/svg" xml:space="preserve" width="2.58943in" height="2.65985in" version="1.0" style="shape-rendering:geometricPrecision; text-rendering:geometricPrecision; image-rendering:optimizeQuality; fill-rule:evenodd; clip-rule:evenodd"
viewBox="0 0 260785 267877"
 xmlns:xlink="http://www.w3.org/1999/xlink">
 <defs>
  <style type="text/css">
   <![CDATA[
    .fil6 {fill:#3497A7}
    .fil7 {fill:#47DCF5}
    .fil3 {fill:#69334B}
    .fil4 {fill:#922738}
    .fil1 {fill:#93B9C5}
    .fil2 {fill:#AB7987}
    .fil8 {fill:#B3AA53}
    .fil10 {fill:#B7E7E9}
    .fil9 {fill:#C71527}
    .fil5 {fill:#D1CEB1}
    .fil0 {fill:#E57D81}
    .fil14 {fill:#EACB27}
    .fil12 {fill:#EDEDE6}
    .fil13 {fill:#F0E652}
    .fil11 {fill:#FA0D06}
   ]]>
  </style>
 </defs>
 <g id="Layer_x0020_1">
  <metadata id="CorelCorpID_0Corel-Layer"/>
  <g id="_1299930208048">
   <g>
    <path class="fil0" d="M156398 160898l4837 -6826c2488,-2460 4001,-2186 7131,-5420 -5196,2414 -8319,6554 -11368,7845l-600 4401z"/>
    <path class="fil0" d="M66708 86940c2893,-1287 2690,-1914 1378,1064 2832,-1097 2630,-1693 1297,1110 2893,1218 2214,1205 5072,2611 -555,-812 66,-180 -1485,-1947l-8796 -6942 2535 4105z"/>
    <path class="fil0" d="M98285 215350l-1251 -1450c-1683,-3659 -1142,-2806 609,-5986 -2184,1760 -465,-945 -1975,1828 -1682,3090 -797,1933 -1556,4799 2229,217 1585,-62 4174,809z"/>
   </g>
   <g>
    <path class="fil1" d="M184638 117659c367,-159 673,-871 799,-637 125,232 527,-540 705,-646 5092,-3017 4290,-1047 5783,-148 -1163,-3626 -824,-3040 -4641,-4275l-2645 5706z"/>
    <path class="fil1" d="M69491 191289c1331,6660 949,2022 -1460,3502l-2114 -2287 522 330 2739 3410c230,-293 684,-1001 716,-860 32,142 479,-684 498,-1008 131,-2304 316,-1195 -506,-4413l2511 1061 -1523 -1210 -1383 1476z"/>
   </g>
   <g>
    <path class="fil2" d="M83476 54637l554 1808c-247,2002 -829,1804 962,1386l-1837 1385 2309 1806c2253,-4522 1532,-2376 6248,-5633l-6720 2442 -962 -1386 -554 -1808c295,-2724 736,-1769 -2449,-1769l-266 1473 2716 296z"/>
    <path class="fil2" d="M204152 177796l-1466 2146 -989 2009c2302,0 1649,443 989,-2009l1466 -2146 2059 -3073 -2137 -821 78 3894z"/>
   </g>
   <g>
    <path class="fil3" d="M202167 87223l4584 618 4541 -371c1037,1685 994,6801 11010,7994l729 -37c784,-2320 1168,-1674 481,-3779l-1469 1958 -2764 -1711c-5783,-1154 -3718,-83 -5045,-6005l-12417 -317 350 1651z"/>
    <path class="fil3" d="M151807 231737l569 3732 1920 -605c-77,-5006 -728,-6339 880,-10098 1693,-3959 1414,-1600 4912,-5034l396 -4021 -2011 36 -414 2655c-994,2530 739,404 -1762,1732 -1261,669 -1214,298 -2417,707l-2074 10896z"/>
    <path class="fil3" d="M206211 174723c4775,-105 4253,1851 6250,6586 1204,2854 2218,5383 3378,8448l1400 0 197 -2059 -6154 -13440 -642 -1635 -6536 429 -30 849 2137 821z"/>
    <path class="fil3" d="M29259 123527l9172 5199c6051,-1895 1180,-296 6066,-2797l-24 -1283 113 -2878c-1202,2301 -650,981 -2613,1881 1036,2601 1485,2250 -1142,1250 -139,299 -547,642 -701,699 -10,4 -1782,1333 -2819,-869 -5166,-434 -4038,-1280 -8942,-3721l-752 -63 -29 1672c2062,-512 1670,-1042 1670,910z"/>
    <path class="fil3" d="M63377 191205c1762,663 943,-293 3061,1628 -810,3618 901,1286 -1603,3462l-3191 1012c-125,-265 -517,361 -780,537 -4856,-1297 -1743,-694 -3226,1410 6036,-312 2838,219 3226,-1410l4302 726 4026 -2004 -15 -324 -2739 -3410 -522 -330 -3159 -3751 -562 1186c2151,-398 1770,-833 1181,1268z"/>
    <path class="fil3" d="M217378 172730l2423 5735c243,216 658,133 807,545 1176,3242 -2138,-1648 1731,992l202 -2028c-1450,-2429 -2716,-3818 -3019,-7545l-2229 -258 85 2560z"/>
   </g>
   <g>
    <path class="fil4" d="M137379 41658c-58,-1485 -388,-6999 41,-8253l992 -1847c2678,-2577 10472,-482 13876,601 -248,1679 600,1816 -2261,5101l-1185 1202c-3132,2672 -4656,1376 -11463,3196zm-405 5061l1396 -126 2080 -313 1865 -4126 1487 1201 2776 2c-243,-1803 -518,-1259 1445,-938 -199,-1758 -505,-1254 1390,-998 -240,-1913 -677,-1533 1203,-1249 -360,-1885 -722,-1468 1191,-1151 -270,-1956 -701,-1570 1227,-1227 -394,-1933 -729,-1500 1232,-1059 -240,-2060 -757,-1761 1182,-1292 -522,-2302 -1165,-2117 999,-1460l-311 -2040 -19294 -2708 130 17483z"/>
    <path class="fil4" d="M134826 235864c803,2175 -1241,1214 3232,1928l3879 -823 -4011 -44c-254,-46 -699,-282 -1057,-398 -220,-539 -598,-118 -1112,-3461l-155 -7420c1553,-6928 95,-1691 2461,-4565l7101 -170c-473,5799 -2411,8446 -1368,12915 -1654,745 -1050,-3419 -1690,3224 2867,-1260 2976,1649 1690,-3224l2112 608c-215,-4027 59,-4273 835,-8370 243,-1282 676,-2686 614,-4014 -265,-5638 487,-1494 -1159,-2905l-1177 -9 -10146 2215 -49 14514z"/>
    <path class="fil4" d="M27373 134240c5968,-794 7159,2279 7687,7191 3086,534 6795,1422 9105,2350l111 -3197 -7398 -932 506 -1571c-470,-5317 -2534,-4405 -7583,-7160l-2490 167 61 3152z"/>
    <path class="fil4" d="M57564 207944c3348,3279 636,1538 5607,3012l1730 -4465c78,-181 261,-545 383,-822l-3332 -293 -1712 -287 -2674 2855z"/>
   </g>
   <g>
    <path class="fil5" d="M74934 208295l-1250 799c-4737,-2738 -3354,3261 -1910,-713 -5827,7441 -4049,3027 -6009,7984 521,292 3083,1606 3246,1701 4283,2489 989,437 4288,2854 1396,-3273 24,-1030 2432,-4619 1365,-2034 216,-149 1607,-2135 1507,-2151 25,69 1335,-2085l863 -1518 622 -1662c1878,-164 1322,251 757,-1825l4322 567c-1847,-2946 3323,-2317 -4790,-2317l468 1750 -757 1825 -622 1662 -863 1518c-2738,366 -2236,-54 -3805,-1694l65 -2092zm-2027 -4065l105 2290 591 343 -696 -2633z"/>
    <path class="fil5" d="M183220 203822c-125,359 -350,458 -426,1059 -396,3125 -130,16 -812,2205 -755,2423 -391,746 -985,3739 3453,2063 5165,5720 7153,8156 584,-908 2851,-2921 4375,-3309 -3622,-3983 -6886,-6446 -8170,-12830l4879 4873c-1872,-3169 -2186,-3711 -3497,-6655 912,-1060 1238,-1260 2074,-2279 159,-194 440,-515 591,-706 163,-208 453,-627 589,-807l1161 -1784c-6316,1719 -5020,4883 -6931,8338z"/>
    <path class="fil5" d="M215249 161352c323,236 1843,1521 2160,1768 239,186 1029,864 1282,1031 1898,1248 316,377 2022,956l6274 1166c2168,-1895 1701,-2279 1906,-5149 -1263,2438 -673,1471 -3731,2682 -1069,-3568 -4815,-5705 -8825,-6881l3278 -312c-245,-185 -598,-387 -778,-494l-4498 -2564 -4242 349c1641,1037 -3319,2489 4871,1730l280 5718z"/>
    <path class="fil5" d="M138058 237792c-4473,-714 -2429,247 -3232,-1928l-2564 -494c-1170,-7903 -4391,-7682 -2113,-11322 1700,-2716 1219,-594 2061,-943l-5032 2636 -1685 11992c2252,855 3436,1164 6687,1231 5299,109 5877,2298 5877,-1172z"/>
    <path class="fil5" d="M34541 172902c-314,-5540 -1069,-2753 2777,-4657 280,-139 5510,-1121 5902,-1200l1213 -1240 2849 -1366c-4860,166 -8444,-1447 -11342,-3342l-5190 311 1927 7288c1703,6194 33,1419 1863,4205z"/>
    <path class="fil5" d="M37009 178905c-1645,-3913 424,-3188 -2852,-5523l-2935 -2078c-241,319 -711,847 -846,1011l-2988 3999c891,-44 -460,-2243 1716,1115l5448 10965 -189 -11973c420,301 763,375 864,783 1594,6496 -4287,-5156 1781,1702z"/>
    <path class="fil5" d="M204911 143901c290,192 709,142 876,564 165,418 660,418 893,513 3378,1386 -958,-148 1915,749 8700,2715 7208,-1364 7555,-5139 297,-3230 305,-6473 203,-9709 -123,-3936 95,-5435 -1681,-8608l-101 23267c-218,-150 -561,-644 -657,-443 -263,547 -1803,-2816 -7424,-2837 -758,1082 713,-557 -1579,1643z"/>
    <path class="fil5" d="M29541 108132c833,-864 1973,-808 2881,-1562l10348 2808 2310 1410 818 4491c2728,-3595 1862,-2229 2124,-5990l-5252 89c-2369,-3993 -1195,-282 -8311,-8081 -197,-215 -472,-503 -659,-701l-4260 7535z"/>
    <path class="fil5" d="M171783 57691l8420 2209c2578,-380 2592,-672 3473,-1035 -2057,-4498 -4172,-5514 -4802,-4796 1574,-355 -141,491 761,-2069 -1693,1385 -207,-129 -2065,1822 -239,251 -781,1113 -1044,1368 -2979,2892 550,1512 -4742,2501z"/>
   </g>
   <g>
    <path class="fil6" d="M163101 25076c284,1841 672,1440 -1176,1192 169,1863 596,1469 -1245,1219 213,1789 626,1419 -1135,1214 276,1884 624,1392 -1352,1165 -891,1869 -111,1349 -2054,2076l311 2040c-2165,-657 -1521,-842 -999,1460 -1939,-469 -1422,-768 -1182,1292 -1961,-441 -1626,-874 -1232,1059 -1928,-343 -1497,-729 -1227,1227 -1914,-317 -1551,-734 -1191,1151 -1879,-285 -1443,-665 -1203,1249 -1895,-256 -1589,-761 -1390,998 -1963,-321 -1688,-865 -1445,938l-2776 -2 -1487 -1201c0,2034 -498,1636 1487,1201 193,236 546,548 691,599 118,42 578,221 695,249 1900,457 1671,2205 1390,-847 1978,493 1642,985 1445,-938 1955,327 1657,839 1390,-998 1956,274 1557,693 1203,-1249 1845,277 1466,680 1191,-1151 1999,319 1611,748 1227,-1227 1841,330 1493,749 1232,-1059 2171,460 1749,864 1182,-1292 2346,469 1841,816 999,-1460l1354 -1011c163,-132 483,-377 661,-525 178,-149 447,-405 630,-563l2520 -2295c180,-176 469,-397 640,-577 169,-179 440,-439 594,-618l1660 -2942c2115,2332 2181,1534 3573,3995 -3447,4756 -4057,2559 -6500,7377 -2073,-569 -1697,-961 -1180,1120 -2189,-577 -1797,-987 -1212,1196 -2236,-613 -1921,-1095 -1278,1107 -2412,-703 -2033,-1158 -1273,1230 -2265,-660 -1943,-1126 -1246,1114 -2289,-706 -1886,-1099 -1192,1195 -2308,-699 -1905,-1092 -1179,1209 -2408,-732 -1948,-1065 -1063,1291 -2224,656 -1530,-1040 -2557,904l1873 4916c-3419,2349 -7266,2767 -12765,3447l1940 -9273 -2080 313 -2341 11487 14234 -3222 605 -614 3404 -902 -749 -1488c-1180,-827 -1728,971 -1621,-2046l58 -3521c2317,895 1747,1105 1063,-1291 2287,714 1868,1090 1179,-1209 2271,700 1863,1087 1192,-1195 2324,679 2027,1167 1246,-1114 2310,680 1891,1096 1273,-1230 2233,696 1877,1140 1278,-1107 2157,644 1719,1007 1212,-1196 2161,566 1832,1003 1180,-1120 316,-103 729,-217 959,-268 241,-54 773,-172 1016,-224 3396,-722 -1904,151 2193,-295 1323,-4239 1763,-2939 5066,-5985 -2565,-4364 -2474,-4947 -7344,-5824l-372 847z"/>
    <path class="fil6" d="M69360 58950c-100,1466 -349,947 81,2367 74,245 263,754 346,993 80,232 328,596 504,887 3874,-6078 4017,-980 3956,-13928 -30,-6267 -986,-13531 1393,-16853 5430,596 4348,-2992 4066,16856 -179,12543 162,7478 2807,12336l1068 3254 1883 -3840 -2309 -1806c-2933,-57 -1851,-1028 -2394,-4875l266 -1473 -221 -2407c4,-4712 -717,-5109 1298,-8608 -1208,-4802 25,-9101 -1984,-10632 -7675,-2480 -7688,276 -7662,7164 24,6283 175,13049 -248,19279l-2849 1286zm10940 12305l2264 -5892c-6,2 -682,-999 -2086,1906 -129,267 -524,1261 -573,1561 -404,2495 -591,482 395,2424zm-8632 -5204l-43 3625 1480 1268c3060,3381 1218,2857 4197,4101l1942 -3381c-164,-13 -436,-211 -492,-34 -65,204 -479,19 -569,41 -190,48 -1942,611 -2402,779 -1806,-4733 -218,-3678 -4113,-6400z"/>
    <path class="fil6" d="M196020 90833l2293 1965 728 1132c242,163 601,382 726,486 117,97 519,419 631,517 103,90 408,747 482,567 70,-169 259,391 380,592 2439,5103 -141,1571 2847,2449 390,2338 402,1874 710,2713 857,2341 58,96 1367,2708 5467,-3656 2704,-2065 3560,-3966 4436,1708 7097,3869 12108,3422 234,180 591,170 709,532l6089 4204 754 -42 5876 1415 1667 -2642 628 -310 871 -4298 -3503 -1621 -418 -757 -7744 -3115 -312 -524 -3440 -834 -729 37 14049 7364c-988,4503 794,1145 -1983,4406l-12514 -3815 -4221 -3125c-8833,-4436 -8237,-1971 -11010,301 -1963,-5106 353,-1221 -2513,-2053 -1619,-5306 -3120,-3705 -4934,-9175l7576 -1526 -4584 -618c-7337,956 -4096,-981 -6146,3610z"/>
    <path class="fil6" d="M69177 196243l15 324 -4026 2004 4026 -2004 3047 343c151,-7591 -460,-2242 1395,-4438l11079 4001c-1519,3741 185,968 -1511,3127l-7804 5832 -1958 -2643c-2120,150 -3957,139 -5856,385 -1055,137 -1693,121 -2875,558 -4399,1630 -919,313 -2758,1644l3332 293 7626 -1439 696 2633 80 2231 1250 -799 1375 -1010 1356 -912c6911,-7962 7565,-4367 9998,-10626l-15268 -4724 -2511 -1061c822,3217 637,2108 506,4413 -18,324 -466,1149 -498,1008 -32,-141 -485,567 -716,860z"/>
    <path class="fil6" d="M204104 173053l6536 -429 642 1635 -642 -1635 -4798 -2117c844,-11016 -349,-9787 3463,-13113l-2529 -1352c-1308,1532 -1144,435 -1772,3540 -17,84 -175,3610 -194,4007 -151,3170 -473,6311 -705,9463zm15322 -5563l1287 -2382c-1706,-578 -123,292 -2022,-956 -253,-167 -1043,-845 -1282,-1031 -318,-247 -1837,-1532 -2160,-1768l-5446 -2984c-2795,2736 -884,979 3462,4225 2556,1909 3633,3021 6160,4897zm-2048 5240l-85 -2560c26,-3681 -701,-944 2036,-2253 -4804,-1820 -4402,2090 -1950,4813z"/>
    <path class="fil6" d="M145909 234433l-2112 -608c1286,4872 1177,1964 -1690,3224 1086,4051 2,5470 -132,10215l8408 1543 1995 -13338 -569 -3732c-161,369 -361,808 -456,1117l-1330 7361c-537,3457 -330,4365 -2360,6663l-2394 -580c-2325,-4059 -80,-6719 642,-11864z"/>
    <path class="fil6" d="M57564 207944l2674 -2855c-8270,1105 -9267,3180 -13860,1446l-505 -3965c1451,-310 3862,-464 5351,-757 3028,-596 58,298 3096,-905l2106 -1430 -6543 79 -6143 1511c1988,13733 2366,6829 13823,6876z"/>
    <path class="fil6" d="M217435 187699l-197 2059c783,1532 2522,5319 3678,8118l4505 -1060 211 -623 3117 -868 -3123 -8779 -740 -387 -2547 -6158c-3869,-2640 -555,2250 -1731,-992 -149,-412 -565,-329 -807,-545 4391,13096 9318,14381 4211,16684 -2601,1173 -1829,202 -2795,-812l-3783 -6637z"/>
    <path class="fil6" d="M14144 119141c2730,511 -475,799 2208,-471 97,-46 2800,-1534 3714,-1973l-4247 -1153 -1675 3597zm8576 -1536l-2443 -375 -1636 1624 4079 -1249zm1232 2621c175,222 401,330 502,682 101,350 442,525 582,609 1783,1074 522,513 2553,1098l1670 910c0,-1952 392,-1422 -1670,-910l29 -1672c-1962,-1089 -199,-451 -3666,-718 1608,-1553 1268,-736 -1098,-2026l-2146 2148 3245 -122zm-9321 3775c2577,-2412 1019,-580 126,-1565l-1329 -2804c-1944,5344 -277,3438 1204,4369zm11991 5531c-665,1968 -1216,1670 690,1555l2490 -167c-1365,-1942 2442,-2525 -3181,-1388 -561,-621 -196,-693 -1925,-1843 -2497,-1659 -3402,-1163 -6388,-3958l-3240 1000c5135,1950 6264,4354 11553,4801z"/>
    <path class="fil6" d="M38431 128725l5934 -1779c2429,5170 4744,7403 6112,12037l-13093 -902 -506 1571 7398 932 8794 -299c-981,-4341 -2172,-4524 -4199,-8478l-880 -311 -1421 -3669 -834 146 -78 -1842 -1163 -201c-4886,2501 -15,902 -6066,2797z"/>
    <path class="fil6" d="M150008 208992l-898 1308c-6454,3539 -2193,4216 -6857,7550l2768 1285 1177 9c-1307,-1461 -283,-1485 -911,-3019l3823 -5825c2164,738 1574,901 898,-1308 2316,-912 760,887 3262,-1927 2634,4135 1717,5072 3731,9453l1058 1885 414 -2655c-1427,-4632 -1926,-8490 -5288,-11801l-3178 5046z"/>
   </g>
   <g>
    <path class="fil7" d="M199042 93930l-728 -1132 728 1132 2219 2163c-121,-201 -310,-761 -380,-592 -74,179 -379,-477 -482,-567 -113,-98 -514,-420 -631,-517 -125,-104 -484,-324 -726,-486zm5066 4612c2867,832 551,-3053 2513,2053 2774,-2272 2178,-4737 11010,-301l4221 3125 12514 3815c2777,-3261 995,97 1983,-4406l-14049 -7364c-10016,-1193 -9973,-6309 -11010,-7994l-4541 371 -7576 1526c1814,5471 3316,3870 4934,9175zm22362 -2281l312 524 -312 -524zm8056 3639l418 757 -418 -757zm3050 6676l-628 310 628 -310z"/>
    <path class="fil7" d="M14144 119141l-718 492 1329 2804c894,985 2451,-847 -126,1565l438 730 3240 -1000c2986,2795 3891,2299 6388,3958 1730,1150 1365,1222 1925,1843 5622,-1137 1816,-554 3181,1388 5049,2756 7113,1844 7583,7160l13093 902c-1368,-4634 -3684,-6867 -6112,-12037l-5934 1779 -9172 -5199 -1670 -910c-2031,-585 -770,-24 -2553,-1098 -140,-85 -481,-260 -582,-609 -102,-352 -328,-461 -502,-682l-3245 122 2146 -2148 -133 -595 -4079 1249 1636 -1624 -210 -533c-914,438 -3617,1927 -3714,1973 -2683,1270 522,981 -2208,471zm31593 8830l834 -146 -834 146zm2255 3524l880 311 -880 -311z"/>
    <path class="fil7" d="M70291 63197l1378 2854c3895,2722 2307,1666 4113,6400 460,-168 2212,-731 2402,-779 90,-22 504,163 569,-41 56,-177 328,21 492,34l1056 -410c-986,-1942 -799,71 -395,-2424 49,-300 444,-1294 573,-1561 1404,-2906 2080,-1905 2086,-1906l1015 -502 -1068 -3254c-2645,-4859 -2986,207 -2807,-12336 282,-19848 1364,-16260 -4066,-16856 -2379,3322 -1423,10586 -1393,16853 61,12948 -81,7851 -3956,13928z"/>
    <path class="fil7" d="M150008 208992c676,2210 1266,2046 -898,1308l-3823 5825c628,1534 -396,1558 911,3019 1647,1411 895,-2733 1159,2905 62,1327 -371,2732 -614,4014 -776,4097 -1050,4343 -835,8370 -722,5145 -2967,7806 -642,11864l2394 580c2030,-2298 1824,-3205 2360,-6663l1330 -7361c95,-310 295,-749 456,-1117l2074 -10896c1202,-409 1155,-38 2417,-707 2502,-1328 768,798 1762,-1732l-1058 -1885c-2015,-4381 -1098,-5318 -3731,-9453 -2502,2814 -946,1015 -3262,1927z"/>
    <path class="fil7" d="M210639 172624l642 1635 6154 13440 3783 6637c965,1015 194,1985 2795,812 5107,-2303 180,-3588 -4211,-16684l-2423 -5735c-2451,-2723 -2854,-6633 1950,-4813l97 -427c-2528,-1875 -3604,-2988 -6160,-4897 -4346,-3246 -6257,-1489 -3462,-4225l-500 -974c-3812,3326 -2618,2097 -3463,13113l4798 2117zm14247 13535l740 387 -740 -387zm746 10033l-211 623 211 -623z"/>
    <path class="fil7" d="M69192 196566l-4026 2004 -4302 -726c-388,1629 2810,1098 -3226,1410l-1213 224 -2106 1430c-3038,1203 -68,310 -3096,905 -1489,293 -3900,447 -5351,757l505 3965c4593,1735 5590,-341 13860,-1446l1712 287c1839,-1331 -1641,-14 2758,-1644 1182,-438 1819,-421 2875,-558 1899,-246 3736,-235 5856,-385l1958 2643 7804 -5832c1696,-2159 -8,614 1511,-3127l-11079 -4001c-1855,2196 -1243,-3154 -1395,4438l-3047 -343z"/>
    <path class="fil7" d="M151959 46286c-885,-2356 -1345,-2023 1063,-1291 -726,-2301 -1129,-1908 1179,-1209 -694,-2293 -1097,-1900 1192,-1195 -697,-2240 -1019,-1774 1246,-1114 -760,-2388 -1139,-1933 1273,-1230 -643,-2203 -958,-1720 1278,-1107 -586,-2184 -978,-1773 1212,-1196 -517,-2081 -892,-1689 1180,-1120 2442,-4818 3053,-2621 6500,-7377 -1392,-2461 -1458,-1663 -3573,-3995l-1660 2942c-153,179 -424,439 -594,618 -170,180 -460,400 -640,577l-2520 2295c-183,158 -452,414 -630,563 -179,149 -498,394 -661,525l-1354 1011c842,2276 1347,1929 -999,1460 567,2157 989,1752 -1182,1292 261,1808 609,1389 -1232,1059 384,1975 772,1546 -1227,1227 275,1831 653,1428 -1191,1151 354,1941 753,1523 -1203,1249 267,1837 565,1324 -1390,998 197,1923 533,1431 -1445,938 281,3051 510,1303 -1390,847 -117,-28 -577,-208 -695,-249 -146,-51 -498,-363 -691,-599 -1985,435 -1487,833 -1487,-1201l-1865 4126 -1940 9273c5499,-680 9346,-1098 12765,-3447l-1873 -4916c1027,-1944 333,-248 2557,-904zm2312 7055l-749 -1488 -1621 -2046c-107,3017 441,1219 1621,2046l749 1488zm-3404 902l-605 614 605 -614zm7325 -24377c1975,226 1628,718 1352,-1165 1761,205 1349,575 1135,-1214 1842,250 1414,644 1245,-1219 1848,248 1460,649 1176,-1192l372 -847 -372 847 -1176 1192 -1245 1219 -1135 1214 -1352 1165 -2054 2076c1943,-727 1163,-207 2054,-2076z"/>
   </g>
   <g>
    <path class="fil8" d="M241926 186320c2089,2143 1862,3070 6310,-10362 3341,-10091 5737,-21321 6732,-31800 895,-9419 1060,-14677 -1559,-18669 -303,26518 -2648,38325 -11482,60832zm-1109 2494c2270,536 2970,3825 624,-2343l-624 2343zm-2425 4890c2894,402 413,3715 2178,-1195 1245,-3464 1020,-345 -275,-3568l-1903 4763zm-10551 16793c-2232,4206 -467,772 695,2858l10370 -16059 -1071 -3622c-3301,8569 -5832,10025 -9994,16823zm-3738 4563c-5617,6243 -8112,9089 -14601,15079 3948,-1304 19,359 2672,-1163 3688,-2117 12864,-12427 13533,-13976 1099,-2548 1799,919 170,-2897 -1221,2488 198,1180 -1775,2957zm-52060 36184c3312,1234 835,2473 10602,-2386 9321,-4636 16747,-9151 23727,-14957 3267,-2718 2798,-676 2694,-3763 -3685,2279 -4486,3389 -7988,5844l-13261 8194c-1742,894 -2973,1511 -4737,2471 -5100,2777 -4801,2804 -11037,4596zm-95249 -4641c-3686,4187 -2127,332 1427,2965l17533 6551c15622,4881 38005,6138 54061,3130l18503 -4472c7331,-2585 4578,-372 3657,-3173 -23349,8017 -49323,9612 -73756,3040 -5445,-1465 -16285,-4969 -21424,-8041zm-10927 -5851c-3263,3968 -1009,337 833,2507 48,56 2692,1973 2698,1977 4067,2233 4166,2144 7423,847l-10954 -5331zm-7194 -4703c-493,2806 -2950,483 2019,3536 4542,2792 1978,1998 5337,439 -4608,-1646 -3561,-1509 -7356,-3975zm-24013 -21484l19636 20570c3377,1420 -63,1874 4466,6 -3706,-1601 -741,128 -3865,-1928 -6927,-4560 -16095,-16083 -20236,-18647z"/>
    <path class="fil8" d="M224363 51626l312 1339c2032,-2028 926,-726 -312,-1339zm4750 8062c2188,-2963 1354,-1311 -252,-3981 -1992,-3311 -2172,-2361 -3117,-2176l2906 5193c119,233 306,643 462,964zm6125 9853l1563 -3406c-2328,-2251 -2072,-2494 -3376,-4162 -2787,-3568 -1072,-2341 -3170,-2037l4982 9605zm16934 49340l2291 947c-2090,-16814 -6027,-31810 -14162,-46586 -3749,-6809 -1226,-4601 -4323,-3811 7800,17765 13782,26510 16193,49450z"/>
    <path class="fil8" d="M149091 265344l-4893 -667c-9213,629 -12504,1270 -22995,471 -4193,-320 -4486,-948 -7250,195 6465,3256 7632,2450 16939,2432 4206,-8 15535,-1276 18199,-2432z"/>
    <path class="fil8" d="M56147 242535c-2044,-1775 -2531,-2481 -5206,-4264 -15165,-10108 -23989,-26270 -30523,-33538 631,2952 -65,1040 933,3122 2335,4870 11999,15959 15949,20199 4106,4408 13324,13030 18847,14481z"/>
    <path class="fil8" d="M54184 25251c972,1145 6389,-3795 7530,-4802 -5053,988 -5368,1121 -7530,4802z"/>
   </g>
   <g>
    <path class="fil9" d="M130175 38938c-2599,-927 -2253,-1410 -1297,1185 -2497,-925 -2268,-1452 -1233,1035 -2718,-900 -2212,-1264 -1184,1403 -2396,656 -1404,-1159 -1645,9091 -481,20503 5162,48546 -19244,48617 -592,2 -4409,-433 -4760,-546 -7463,-2383 -1724,-65 -3428,-2659 -4765,1000 -1986,636 -2241,-1289l-3565 69c793,-2498 1046,-1903 -1437,-1034 -562,-2922 1647,-380 -1558,-3280 -1830,-1655 -2197,-1232 -4380,-1579 1025,-2641 1272,-2082 -1329,-1048 -822,-2687 1123,-638 -1140,-2535 -2383,-1998 -444,-775 -3528,-1220 990,-2534 1096,-1829 -1428,-914 -852,-3182 1131,-508 -1135,-2563 -1244,-1128 -1592,-979 -3390,-1443 820,-2377 1006,-1775 -1358,-928 797,-2534 907,-1743 -1628,-836 932,-2500 1125,-1860 -1419,-1053 797,-2369 1231,-1959 -1183,-1339l1400 -2927c413,-2570 66,157 2042,-726 -588,-1980 -988,-1532 1044,-1465l475 -1280 43 -3625 -1378 -2854c-175,-291 -424,-655 -504,-887 -82,-239 -272,-749 -346,-993 -430,-1419 -181,-900 -81,-2367l-4491 -4846c-8552,3710 -26273,28078 -28823,38475l15604 5219 7999 -15537 3978 -803c-2356,-1571 3735,-2194 -5488,-1491l-8521 13949 -9397 -2606c2151,-11650 17230,-27730 24366,-33652l1137 4718c841,1954 1503,3317 2716,4892 -983,2384 -4872,4574 -1778,8807 -799,2554 -1332,2247 1183,1339 -864,2592 -1130,2013 1419,1053 -1006,2789 -1067,1937 1628,836 -751,2230 -921,1621 1358,928 936,3454 -1077,315 1239,2438 1974,1810 455,916 3286,1568 -978,2498 -1078,1790 1428,914 1021,2937 -1117,202 1350,2252 2347,1950 250,786 3318,1503 -1031,2572 -1245,1987 1329,1048 946,2377 -298,1026 1877,2933 2122,1859 1867,1303 4061,1926 -958,2527 -1131,1865 1437,1034l858 1565c6688,7294 25731,7139 32331,-7459 2426,-5366 3685,-40895 1695,-47390 2715,958 2176,1290 1184,-1403 2517,988 2266,1498 1233,-1035 2587,952 2222,1417 1297,-1185l657 34324c-107,6518 -1005,7321 2341,12006l-140 -49156c-2728,1284 -981,-122 -2858,2826z"/>
    <path class="fil9" d="M110679 178060c-4008,2462 -5885,9579 -7850,13813l-2046 3959c-3128,5961 -7481,13267 -7100,19257 4769,3875 16309,7780 23752,8450l-134 10126c-14001,-2 -31981,-8457 -40217,-14012 705,-1880 3103,-5461 4008,-6562 3066,-3732 4731,-2136 5069,-3230 102,-330 512,-247 714,-440l-1638 -1779 -4322 -567c565,2076 1121,1662 -757,1825l-622 1662 -863 1518c-1311,2153 171,-66 -1335,2085 -1391,1985 -242,100 -1607,2135 -2408,3590 -1036,1347 -2432,4619 2890,1335 6202,3963 9884,5833 10559,5361 24736,9777 37132,10725l-318 -16552c-2489,-920 -19770,-5277 -21713,-5576 -2588,-871 -1945,-592 -4174,-809 760,-2866 -126,-1709 1556,-4799 1510,-2773 -209,-67 1975,-1828l6744 -14632c1637,-3126 1352,-2440 2387,-5962l3905 -9260c4006,-1967 3076,-3323 7987,-6508 11859,-7691 22260,-45 29009,9066 150,-228 259,-621 278,-772 1644,-13072 -32627,-19581 -37274,-1785z"/>
    <path class="fil9" d="M186175 67261l24 624 3374 9538 3560 -2191c2074,-3733 -1317,-6452 -3696,-9166l6193 -8468 14281 15785c1931,2415 11386,15752 9368,18510l-3320 -7434c-18672,-806 -8244,-1146 -14740,-4877 -1066,-612 -1155,-2173 -5218,-554l-2127 2072c-2350,-822 -1966,-1241 -1262,1144 -2268,-747 -1893,-1162 -1236,1128 -2233,-655 -1834,-1069 -1257,1181 -2149,-626 -1756,-1037 -1270,1138 -2071,-548 -1677,-942 -1216,1146 -2042,-474 -1643,-884 -1255,1167 -2289,-499 -1489,-780 -1489,1877 2243,-532 1901,197 1489,-1877 2080,422 1726,874 1255,-1167 2066,470 1705,897 1216,-1146 2193,532 1865,1008 1270,-1138 2279,621 1919,1073 1257,-1181 2275,640 1956,1109 1236,-1128 2387,734 2065,1214 1262,-1144l4545 -969 3397 5439 12417 317c1328,5923 -738,4852 5045,6005l2764 1711 1469 -1958c-2092,-6597 -8061,-16709 -11738,-21212 -5157,-6314 -10011,-14207 -17524,-16752 -2468,5891 -5733,7554 -8074,13578z"/>
    <path class="fil9" d="M214673 122271c1776,3173 1558,4672 1681,8608 102,3236 93,6479 -203,9709 -347,3775 1145,7855 -7555,5139 -2873,-897 1462,637 -1915,-749 -232,-96 -728,-95 -893,-513 -167,-422 -586,-372 -876,-564l-3217 432c2488,2994 -312,853 3306,2539 2445,1139 11295,3375 13492,-3065 2226,-6524 -468,-22763 -1326,-28956 3658,-2524 6329,-1977 9198,-3613 4409,8291 4365,34234 382,42394l-12407 -78 4498 2564c180,107 533,309 778,494 4937,-416 5318,665 10378,1424 2899,-18232 3478,-31949 -589,-49924l-754 42 -14376 4658 398 9459z"/>
    <path class="fil9" d="M86444 54550c-2478,-3005 -5608,-10177 1312,-13151 6506,-2797 25321,-9265 31412,-8164l92 10411c-3949,1658 -11886,2140 -24711,7337 -4186,1696 -4392,2456 -8105,3568zm-4340 -12698c-2015,3500 -1294,3896 -1298,8608l221 2407c3185,0 2745,-954 2449,1769l554 1808 962 1386 6720 -2442c7726,-3728 20509,-9380 30482,-8156l297 -17301c-9568,-378 -28375,4594 -37195,9748l-1462 872c-2292,1491 -299,-60 -1729,1300z"/>
    <path class="fil9" d="M44434 165805l1590 1687c4892,5289 7102,14590 11138,17870 2879,2340 -1598,16 2583,1078 -1116,5755 -316,3139 2451,3498 -1174,2828 -1651,2489 1181,1268 -856,4127 1040,2899 -10546,5444 -6148,-4398 -11662,-17372 -15090,-24942 3141,-2511 2831,-124 5481,-4663 -392,79 -5622,1061 -5902,1200 -3847,1904 -3092,-883 -2777,4657l-384 479c3276,2335 1207,1610 2852,5523 2017,2078 3714,6596 5847,9961 2492,3933 5226,7452 7026,10691l6543 -79 1213 -224c1483,-2104 -1630,-2707 3226,-1410 262,-176 654,-802 780,-537l3191 -1012c2504,-2176 793,156 1603,-3462 -2119,-1920 -1300,-964 -3061,-1628 589,-2101 969,-1665 -1181,-1268l562 -1186 -912 -1807c-291,-3058 63,-156 -2101,-505 -586,-4100 -3798,-7581 -5582,-11254 -934,-1924 -1721,-3562 -2727,-5681 -1970,-4152 -874,-3521 -4153,-5066l-2849 1366z"/>
    <path class="fil9" d="M161582 36825c651,2122 980,1686 -1180,1120 507,2203 945,1841 -1212,1196 599,2247 955,1804 -1278,1107 619,2325 1037,1910 -1273,1230 781,2281 1078,1793 -1246,1114 671,2282 1079,1894 -1192,1195 689,2299 1109,1923 -1179,1209 684,2396 1254,2186 -1063,1291l-58 3521c4436,599 -544,-990 6084,1143 3068,986 1810,559 4299,2124l9498 4616c5293,-989 1763,391 4742,-2501 264,-255 805,-1117 1044,-1368 1858,-1951 372,-437 2065,-1822l4452 -6836 -7602 -4011c1734,6478 -2,516 2461,4976l-6130 7845 -15887 -6549c3203,-3181 5141,-5919 9946,-8129 3062,1314 -768,1153 4017,1684 4474,497 2046,1177 3625,-1234l-8767 -3706c-4097,446 1202,-427 -2193,295 -243,52 -776,170 -1016,224 -230,52 -644,165 -959,268z"/>
    <path class="fil9" d="M122971 117646c20880,-8011 30993,22720 12163,30733 -20143,8572 -35235,-21881 -12163,-30733zm23539 20448c6769,-23860 -29741,-32847 -36315,-10257 -6938,23840 29705,33559 36315,10257z"/>
    <path class="fil9" d="M189447 201719c2047,-3211 6600,-7455 9605,-11130 3713,-4542 5441,-8185 8639,-12532 2703,2491 4419,6445 4770,11658 -2547,6176 -12315,16456 -16775,19969 -3245,-3305 -3712,-4514 -6239,-7965zm14705 -23923l-1466 2146c660,2452 1313,2009 -989,2009 -2184,2596 -3031,4331 -5366,7204 -1259,1550 -2030,2699 -3218,4048 -1990,2262 -826,1340 -2961,2279l-1161 1784c-136,180 -426,599 -589,807 -151,191 -432,512 -591,706 -836,1019 -1161,1219 -2074,2279 1311,2944 1625,3486 3497,6655 2936,1750 2601,2847 5252,5852l21353 -23810c-1161,-3065 -2174,-5594 -3378,-8448 -1996,-4735 -1475,-6692 -6250,-6586l-2059 3073z"/>
    <path class="fil9" d="M164233 211542c-1464,2965 -307,1180 -2293,3205 -193,197 -1159,698 -1456,965l-396 4021c-3499,3433 -3220,1075 -4912,5034 -1608,3759 -957,5092 -880,10098 12325,-1947 19466,-8072 28503,-11183 -2172,-5344 -6167,-10677 -10405,-14158 -1944,-1596 237,357 -2043,-1701l-1829 -1848c596,4086 -468,1496 2504,4972l7936 10372c-3301,3161 -16245,9296 -22349,9823 382,-8016 956,-5077 3890,-8071 4300,-4388 -861,-2955 5717,-8047 -644,-6120 -248,-1425 -1986,-3482z"/>
    <path class="fil9" d="M123094 123511c26832,-3266 13660,28420 -780,18247 -5968,-4205 -5295,-11524 780,-18247zm301 -1557c-14435,6805 -5116,28550 10217,22476 13656,-5410 4992,-29645 -10217,-22476z"/>
    <path class="fil9" d="M41974 123649c-2596,-975 -2146,-1325 -1142,1250l-3520 -170c-983,-1786 421,-349 -1448,-2145 -238,-228 -1128,-817 -1397,-1005 -476,-333 -2194,-1169 -2845,-1594 555,-12801 1841,-11154 11166,-6880l-813 10544zm-12433 -15516l-1171 12876c4904,2441 3776,3287 8942,3721 1036,2201 2808,873 2819,869 154,-56 562,-399 701,-699 2627,1000 2178,1350 1142,-1250 1963,-901 1410,420 2613,-1881l1312 -6487 -818 -4491 -2310 -1410 -10348 -2808c-909,753 -2048,698 -2881,1562z"/>
    <path class="fil9" d="M141937 236969l169 80c640,-6643 36,-2479 1690,-3224 -1043,-4469 896,-7116 1368,-12915l-7101 170c-2367,2874 -908,-2363 -2461,4565l155 7420c514,3344 892,2922 1112,3461 358,116 803,351 1057,398l4011 44z"/>
    <path class="fil9" d="M39373 153631c-3366,-2074 -2984,-1515 -7177,-2120l-2195 -15501c4311,2311 1583,1468 3279,4406 163,282 250,642 450,906 1988,2639 3804,2285 7097,2556 1709,2457 -138,1850 1950,3164 5529,3480 5023,-115 5247,-239l-3284 -287 -573 -2734c-2310,-928 -6020,-1816 -9105,-2350 -528,-4911 -1719,-7985 -7687,-7191l1653 19651 10347 -261z"/>
    <path class="fil9" d="M138989 32202c4360,967 7811,555 10248,2653 -2888,4826 -1902,5501 -2558,3771 -74,-195 -327,513 -483,773 -1601,-538 -4086,-1030 -6287,-2162l-919 -5035zm-1610 9456c6807,-1820 8331,-525 11463,-3196l1185 -1202c2861,-3284 2013,-3422 2261,-5101 -3403,-1083 -11197,-3178 -13876,-601l-992 1847c-429,1253 -99,6768 -41,8253z"/>
    <path class="fil9" d="M222541 177973l2435 -5516 -5454 -2029c304,3727 1569,5116 3019,7545z"/>
   </g>
   <g>
    <path class="fil10" d="M168367 148652c-3130,3234 -4643,2959 -7131,5420l-4837 6826c-1870,5632 -1710,9637 91,15167 304,932 1277,3469 1417,3849 511,1380 576,1672 1256,3544l2452 4752c5166,4435 9895,14536 11932,17356 4205,454 6178,-862 9673,-1742 1911,-3454 615,-6619 6931,-8338 2135,-939 971,-17 2961,-2279 1187,-1349 1959,-2498 3218,-4048 2335,-2873 3183,-4609 5366,-7204l989 -2009 1466 -2146 -78 -3894 30 -849c232,-3152 553,-6293 705,-9463 19,-397 177,-3923 194,-4007 628,-3105 464,-2008 1772,-3540 -6477,-1596 -4413,-349 -9375,-4406 -8032,-1893 -18381,-4643 -29033,-2985zm-5662 42497l-839 -239 839 239z"/>
    <path class="fil10" d="M110679 178060l-3905 9260 2725 -1270c-1245,7358 -2265,8889 -4297,13997 21,-25 -2035,-1236 3654,-1804 291,-29 1818,74 2084,138 1672,404 1157,434 2005,938 -1426,3433 -126,1797 -4254,4302 -11917,7229 -2567,-1957 -9440,7703 4760,2296 1635,3311 8863,4205 4057,502 9654,419 12799,1994 3309,1657 3708,5247 10848,2544 1538,-582 418,-1423 4222,-2473 2158,-596 3466,-92 6270,257 4664,-3334 403,-4011 6857,-7550l898 -1308 3178 -5046c3362,3311 3861,7169 5288,11801l2011 -36c297,-267 1263,-768 1456,-965 1985,-2024 829,-239 2293,-3205l-16558 -30924c-6750,-9111 -17150,-16757 -29009,-9066 -4910,3185 -3981,4541 -7987,6508z"/>
    <path class="fil10" d="M45660 126130c486,-1988 869,-1484 -1187,-1484l24 1283 1163 201 78 1842 834 -146 1421 3669 880 311c2027,3954 3217,4137 4199,8478l-8794 299 -111 3197 573 2734 3284 287c4212,-1257 8023,-2216 12501,-3423 2722,-734 3931,-982 6642,-1654 3354,-833 3640,-974 6332,-2259l4450 -1145c226,-230 583,-895 708,-660l13507 -9646 261 -6013 -6758 33c1186,-1368 1923,-1889 3186,-2948 3792,-3181 5522,-2839 45,-9968 -3930,-5117 -3094,-2667 -7017,-6032 -4134,-3545 -515,-1700 -10016,-9228 -4630,-3668 -2387,-634 -2481,-4745 -2773,1240 -2458,1735 -1297,-1110 -2611,1107 -2311,1640 -1378,-1064l-4936 -997 -8307 13176c-9155,9813 -610,19367 -7806,27011z"/>
    <path class="fil10" d="M52837 153472l-3641 661c3660,-468 2429,-1063 2429,3122 -4647,-204 -2737,-2032 -3116,2128 2639,3281 3500,3040 5453,8238l9575 16441c2076,2484 4646,4190 5955,7227l1383 -1476 1523 1210 15268 4724c-2433,6258 -3088,2664 -9998,10626l-1356 912 1356 -912 2781 -1046c8113,0 2943,-628 4790,2317l1638 1779c2519,-2377 9758,-18133 11665,-23283 3877,-10468 8013,-17879 4121,-27307 1856,3680 2395,7619 1573,11741 -80,403 -4413,12510 -4847,9267 -57,-429 -303,-698 -530,-999 557,-580 1469,-391 1870,-3491 900,-6971 342,-15556 -5125,-19994 -1649,-1338 -4051,-3383 -5557,-4071 -10508,-2546 -27627,5396 -32452,4693 -4126,-601 -2572,249 -4756,-2506zm-12586 647l6556 1010 27 -521 -6583 -489z"/>
    <path class="fil10" d="M186199 67886l-24 -624c-5842,-41 -1963,-248 -6335,-3085 -1813,-1176 -4123,-2400 -6479,-3053 -6061,-1682 -8450,-1948 -11076,-8048 -2490,-1565 -1231,-1138 -4299,-2124 -6629,-2132 -1649,-544 -6084,-1143l1621 2046 749 1488 -3404 902 -605 614 -14234 3222 2341 -11487 -1396 126 -3199 2180c526,6398 2808,37199 4893,43132 2275,6475 17225,10334 28182,-739l10993 -8357c12344,-10349 3082,-2699 9826,-9666 -2346,-2278 -2101,-1486 -1471,-5384z"/>
    <path class="fil10" d="M91712 55389c-4717,3257 -3996,1111 -6248,5633l-1883 3840 -1015 502 -2264 5892 -1056 410 -1942 3381c-2979,-1245 -1137,-721 -4197,-4101l-1480 -1268 -475 1280c309,2191 938,1990 -1044,1465 2388,5408 5018,2052 9056,8091l8993 9575c1960,1327 3310,916 5606,3500 157,176 385,518 516,687l864 1504c4762,-992 1751,-484 2241,1289 13121,-2334 15929,3879 22561,-10269 831,-1773 1553,-2019 1921,-4061 337,-1877 340,-35429 328,-35503 -9972,-1224 -22756,4428 -30482,8156z"/>
    <path class="fil10" d="M191924 116229c-1493,-898 -691,-2868 -5783,148 -178,105 -580,877 -705,646 -126,-234 -431,479 -799,637l2645 -5706c3817,1235 3479,648 4641,4275zm-7368 18622c2745,-886 2210,-938 2898,-1291 6030,-3100 16579,-4103 18293,-4626 -1154,-5491 -738,-2646 -3542,-6879 -17346,-26187 -31307,-9079 -21954,6173l4306 6623z"/>
    <path class="fil10" d="M206186 103963c-1309,-2612 -510,-367 -1367,-2708 -307,-839 -320,-375 -710,-2713 -2988,-878 -408,2654 -2847,-2449l-2219 -2163 -728 -1132 -2293 -1965c-1011,2385 -894,-1753 -2183,7096 -1911,-3737 -3,430 793,-5450 -9061,18 -7603,7515 -4092,13434 145,245 350,582 485,804 140,231 404,636 521,825 120,194 342,574 538,844 3847,-2513 647,-1174 2215,-4721l4292 294c3841,-1386 774,-133 3097,-2415 2346,818 730,254 2101,1010 182,101 570,331 756,435l1640 973z"/>
    <path class="fil10" d="M177673 132087c-295,-19509 -13888,-12204 -9104,-2935 2043,3957 4095,2858 9104,2935z"/>
   </g>
   <g>
    <path class="fil11" d="M146510 138095c-6610,23302 -43253,13584 -36315,-10257 6574,-22590 43083,-13604 36315,10257zm-16335 -99156c925,2602 1290,2138 -1297,1185 1033,2534 1284,2023 -1233,1035 992,2693 1530,2361 -1184,1403 1990,6495 731,42024 -1695,47390 -6600,14597 -25643,14752 -32331,7459l-858 -1565c-2568,830 -2395,1492 -1437,-1034 -2195,-624 -1940,-67 -4061,-1926 -2175,-1907 -931,-555 -1877,-2933 -2573,939 -2360,1524 -1329,-1048 -3068,-716 -971,447 -3318,-1503 -2468,-2050 -329,685 -1350,-2252 -2506,876 -2406,1584 -1428,-914 -2831,-652 -1312,242 -3286,-1568 -2316,-2123 -303,1016 -1239,-2438 -2279,693 -2109,1302 -1358,-928 -2694,1101 -2634,1952 -1628,-836 -2550,960 -2283,1540 -1419,-1053 -2515,908 -1982,1215 -1183,-1339 -3094,-4233 795,-6423 1778,-8807 -1213,-1576 -1875,-2938 -2716,-4892l-1137 -4718c-7136,5923 -22215,22003 -24366,33652l9397 2606 8521 -13949c9223,-703 3132,-80 5488,1491l544 1377 8796 6942c1551,1767 929,1134 1485,1947l16598 14156c973,1252 2016,2940 2782,4465 3599,7167 592,15484 -1672,17668 635,5559 -7626,9920 -14215,10307l-4450 1145c-2692,1285 -2978,1427 -6332,2259 -2710,672 -3919,920 -6642,1654 -4478,1207 -8288,2167 -12501,3423 -224,124 282,3720 -5247,239 -2088,-1314 -241,-707 -1950,-3164 -3293,-270 -5108,83 -7097,-2556 -199,-264 -287,-624 -450,-906 -1696,-2938 1032,-2095 -3279,-4406l2195 15501c4193,606 3811,46 7177,2120l878 488 6583 489 2362 -476 3641 -661c8831,-1820 18478,-4487 27604,-5661 12625,-1624 17622,3475 22220,11022 3892,9428 -244,16838 -4121,27307 -1908,5151 -9146,20906 -11665,23283 -202,193 -612,110 -714,440 -338,1094 -2003,-502 -5069,3230 -905,1101 -3303,4682 -4008,6562 8236,5555 26216,14010 40217,14012l134 -10126c-7443,-670 -18983,-4576 -23752,-8450 -381,-5990 3973,-13296 7100,-19257l2046 -3959c1964,-4234 3841,-11350 7850,-13813 4647,-17795 38918,-11286 37274,1785 -19,152 -128,544 -278,772l16558 30924c1738,2057 1342,-2638 1986,3482 -6578,5092 -1417,3660 -5717,8047 -2934,2994 -3508,55 -3890,8071 6104,-528 19048,-6663 22349,-9823l-7936 -10372c-2971,-3476 -1907,-886 -2504,-4972l-5817 -14826 -839 -239 -252 -2701 -2452 -4752c-680,-1871 -745,-2163 -1256,-3544 -141,-379 -1114,-2917 -1417,-3849 -1801,-5529 -1961,-9535 -91,-15167l600 -4401c3049,-1291 6172,-5430 11368,-7845 10651,-1659 21001,1092 29033,2985l12698 2267 4242 -349 12407 78c3982,-8161 4027,-34103 -382,-42394 -2868,1637 -5540,1090 -9198,3613 857,6193 3551,22432 1326,28956 -2197,6440 -11047,4203 -13492,3065 -3618,-1686 -818,455 -3306,-2539 -13361,-3774 -49730,-7614 -33203,-36945 1621,-2876 485,-1973 2828,-4456 3426,-3629 12211,-9102 13568,-13049 0,-2658 -799,-2376 1489,-1877 -388,-2050 -787,-1641 1255,-1167 -460,-2088 -854,-1694 1216,-1146 -485,-2176 -879,-1764 1270,-1138 -577,-2250 -976,-1836 1257,-1181 -657,-2290 -1031,-1875 1236,-1128 -704,-2385 -1088,-1965 1262,-1144l2127 -2072c4064,-1619 4153,-59 5218,554 6496,3731 -3932,4071 14740,4877l3320 7434c2018,-2758 -7437,-16095 -9368,-18510l-14281 -15785 -6193 8468c2379,2714 5770,5433 3696,9166l-3560 2191c-3312,730 822,-2188 -3587,1755 -250,223 -877,1042 -1120,1288 -4097,4153 -5484,3715 -8651,6987 -8129,8397 -19525,18549 -32571,11435 -8037,-4383 -5966,-5808 -10470,-13620 -3346,-4684 -2448,-5488 -2341,-12006l-657 -34324z"/>
    <path class="fil11" d="M86444 54550c3713,-1111 3919,-1871 8105,-3568 12825,-5197 20762,-5679 24711,-7337l-92 -10411c-6091,-1101 -24905,5368 -31412,8164 -6920,2974 -3790,10146 -1312,13151z"/>
    <path class="fil11" d="M43221 167045c-2649,4539 -2339,2151 -5481,4663 3428,7570 8942,20544 15090,24942 11586,-2545 9690,-1318 10546,-5444 -2833,1222 -2355,1561 -1181,-1268 -2768,-359 -3567,2257 -2451,-3498 -4182,-1062 296,1261 -2583,-1078 -4036,-3279 -6246,-12580 -11138,-17870l-1590 -1687 -1213 1240z"/>
    <path class="fil11" d="M123094 123511c-6074,6723 -6747,14043 -780,18247 14439,10173 27612,-21513 780,-18247z"/>
    <path class="fil11" d="M189447 201719c2528,3450 2994,4659 6239,7965 4460,-3512 14228,-13793 16775,-19969 -351,-5213 -2067,-9166 -4770,-11658 -3198,4347 -4926,7990 -8639,12532 -3005,3675 -7558,7919 -9605,11130z"/>
    <path class="fil11" d="M176485 41152l-1967 -1407c-1579,2410 849,1730 -3625,1234 -4786,-531 -956,-370 -4017,-1684 -4804,2210 -6743,4948 -9946,8129l15887 6549 6130 -7845c-2463,-4460 -727,1502 -2461,-4976z"/>
    <path class="fil11" d="M37312 124729l3520 170c-1004,-2575 -1454,-2226 1142,-1250l813 -10544c-9325,-4274 -10610,-5921 -11166,6880 651,425 2369,1261 2845,1594 269,188 1160,777 1397,1005 1870,1797 465,359 1448,2145z"/>
    <path class="fil11" d="M139909 37237c2200,1132 4685,1624 6287,2162 156,-261 410,-968 483,-773 656,1730 -329,1055 2558,-3771 -2437,-2098 -5888,-1686 -10248,-2653l919 5035z"/>
   </g>
   <g>
    <path class="fil12" d="M134826 235864l49 -14514 10146 -2215 -2768 -1285c-2804,-349 -4112,-853 -6270,-257 -3804,1050 -2684,1891 -4222,2473 -7139,2703 -7539,-887 -10848,-2544 -3145,-1575 -8742,-1492 -12799,-1994 -7228,-894 -4103,-1910 -8863,-4205 6874,-9660 -2477,-473 9440,-7703 4128,-2504 2828,-869 4254,-4302 -848,-504 -333,-534 -2005,-938 -266,-64 -1793,-167 -2084,-138 -5689,569 -3633,1779 -3654,1804 2032,-5108 3052,-6639 4297,-13997l-2725 1270c-1036,3523 -750,2836 -2387,5962l-6744 14632c-1751,3180 -2292,2327 -609,5986l1251 1450c1943,299 19224,4656 21713,5576l318 16552c-12396,-948 -26573,-5365 -37132,-10725 -3682,-1870 -6993,-4498 -9884,-5833 -3298,-2417 -5,-365 -4288,-2854 -163,-95 -2725,-1409 -3246,-1701 1960,-4957 181,-543 6009,-7984 -1444,3974 -2828,-2025 1910,713l-80 -2231 -591 -343 -105 -2290 -7626 1439c-122,276 -305,641 -383,822l-1730 4465c-4970,-1474 -2259,267 -5607,-3012 -11457,-47 -11835,6857 -13823,-6876l6143 -1511c-1801,-3239 -4534,-6758 -7026,-10691 -2133,-3365 -3830,-7883 -5847,-9961 -6069,-6858 -187,4794 -1781,-1702 -100,-408 -444,-483 -864,-783l189 11973 -5448 -10965c-2176,-3358 -825,-1159 -1716,-1115l2988 -3999c135,-164 605,-691 846,-1011l2935 2078 384 -479c-1830,-2786 -160,1989 -1863,-4205l-1927 -7288 5190 -311c2898,1895 6482,3508 11342,3342 3279,1545 2183,914 4153,5066 1006,2119 1793,3757 2727,5681 1784,3674 4996,7154 5582,11254 2164,349 1810,-2553 2101,505l912 1807 3159 3751 2114 2287c2409,-1480 2792,3159 1460,-3502 -1309,-3037 -3879,-4744 -5955,-7227l-9575 -16441c-1953,-5197 -2814,-4957 -5453,-8238 379,-4160 -1531,-2333 3116,-2128 0,-4184 1231,-3590 -2429,-3122l-2362 476 -27 521 -6556 -1010 -878 -488 -10347 261 -1653 -19651 -61 -3152c-1906,115 -1355,413 -690,-1555 -5289,-447 -6419,-2851 -11553,-4801l-438 -730c-1481,-930 -3148,975 -1204,-4369l718 -492 1675 -3597 4247 1153 210 533 2443 375 133 595c2366,1290 2707,473 1098,2026 3468,267 1705,-371 3666,718l752 63 1171 -12876 4260 -7535c187,197 462,485 659,701 7116,7798 5942,4088 8311,8081l5252 -89c-262,3762 603,2395 -2124,5990l-1312 6487 -113 2878c2056,0 1672,-504 1187,1484 7196,-7645 -1349,-17198 7806,-27011l8307 -13176 4936 997c-933,2703 -1233,2170 1378,1064 -1161,2845 -1476,2350 1297,1110 94,4111 -2149,1077 2481,4745 9501,7528 5882,5683 10016,9228 3923,3365 3087,915 7017,6032 5477,7129 3747,6787 -45,9968 -1263,1059 -2000,1580 -3186,2948l6758 -33 -261 6013 -13507 9646c-125,-235 -482,430 -708,660l-4450 1145 4450 -1145c6589,-386 14851,-4748 14215,-10307 2264,-2184 5271,-10501 1672,-17668 -766,-1525 -1809,-3214 -2782,-4465l-16598 -14156c-2858,-1406 -2179,-1393 -5072,-2611 1333,-2802 1535,-2207 -1297,-1110 1312,-2978 1515,-2350 -1378,-1064l-2535 -4105 -544 -1377 -3978 803 -7999 15537 -15604 -5219c2550,-10397 20271,-34766 28823,-38475l4491 4846 2849 -1286c423,-6231 272,-12996 248,-19279 -26,-6888 -13,-9644 7662,-7164 2009,1531 776,5830 1984,10632 1430,-1360 -563,191 1729,-1300l1462 -872c8820,-5155 27627,-10126 37195,-9748l-297 17301c11,75 9,33627 -328,35503 -368,2042 -1089,2288 -1921,4061 -6633,14148 -9440,7936 -22561,10269 -490,-1773 2521,-2281 -2241,-1289l-864 -1504c-131,-169 -359,-511 -516,-687 -2296,-2584 -3647,-2172 -5606,-3500l-8993 -9575c-4038,-6039 -6668,-2683 -9056,-8091 1982,525 1352,726 1044,-1465l475 -1280 -475 1280c-2032,-66 -1632,-515 -1044,1465 -1975,883 -1629,-1844 -2042,726l-1400 2927c2414,-620 1979,-1030 1183,1339 2544,-808 2351,-1447 1419,1053 2535,-907 2425,-1698 1628,836 2363,-847 2177,-1450 1358,928 1797,464 2145,315 3390,1443 2266,2055 283,-619 1135,2563 2523,-916 2417,-1621 1428,914 3084,444 1145,-778 3528,1220 2263,1898 319,-151 1140,2535 2600,-1034 2354,-1594 1329,1048 2183,347 2550,-77 4380,1579 3205,2900 996,358 1558,3280 2482,-869 2230,-1463 1437,1034l3565 -69c256,1925 -2523,2289 2241,1289 1705,2594 -4034,276 3428,2659 351,112 4168,547 4760,546 24406,-71 18763,-28114 19244,-48617 241,-10251 -751,-8435 1645,-9091 -1027,-2666 -1534,-2303 1184,-1403 -1035,-2488 -1264,-1960 1233,-1035 -956,-2595 -1302,-2113 1297,-1185 1877,-2948 131,-1542 2858,-2826l140 49156c4505,7812 2433,9237 10470,13620 13046,7114 24443,-3038 32571,-11435 3167,-3272 4554,-2834 8651,-6987 242,-245 870,-1065 1120,-1288 4409,-3943 275,-1025 3587,-1755l-3374 -9538c-630,3898 -875,3106 1471,5384 -6744,6967 2518,-683 -9826,9666l-10993 8357c-10957,11073 -25907,7214 -28182,739 -2084,-5933 -4367,-36734 -4893,-43132l3199 -2180 -130 -17483 19294 2708 2054 -2076 1352 -1165 1135 -1214 1245 -1219 1176 -1192 372 -847c4870,877 4780,1460 7344,5824 -3303,3046 -3743,1745 -5066,5985l8767 3706 1967 1407 7602 4011 -4452 6836c-902,2560 813,1714 -761,2069 630,-718 2745,298 4802,4796 -880,364 -895,655 -3473,1035l-8420 -2209 -9498 -4616c2626,6100 5015,6366 11076,8048 2356,654 4666,1877 6479,3053 4372,2837 492,3044 6335,3085 2342,-6024 5606,-7687 8074,-13578 7513,2545 12367,10438 17524,16752 3677,4503 9646,14615 11738,21212 687,2105 303,1460 -481,3779l3440 834 312 524 7744 3115 418 757 3503 1621 -871 4298 -628 310 -1667 2642 -5876 -1415c4067,17975 3488,31692 589,49924 -5061,-760 -5442,-1840 -10378,-1424l-3278 312c4010,1176 7756,3314 8825,6881 3057,-1211 2468,-244 3731,-2682 -204,2869 263,3254 -1906,5149l-6274 -1166 -1287 2382 -97 427c-2737,1309 -2009,-1428 -2036,2253l2229 258 5454 2029 -2435 5516 -202 2028 2547 6158 740 387 3123 8779 -3117 868 -211 623 -4505 1060c-1155,-2799 -2894,-6585 -3678,-8118l-1400 0 -21353 23810c-2651,-3005 -2315,-4103 -5252,-5852l-4879 -4873c1284,6384 4548,8847 8170,12830 -1524,388 -3792,2401 -4375,3309 -1988,-2436 -3700,-6094 -7153,-8156 595,-2993 230,-1316 985,-3739 682,-2189 417,919 812,-2205 76,-601 301,-700 426,-1059 -3495,880 -5469,2197 -9673,1742 -2037,-2820 -6766,-12921 -11932,-17356l252 2701 839 239 5817 14826 1829 1848c2280,2058 100,105 2043,1701 4237,3481 8233,8814 10405,14158 -9036,3111 -16177,9236 -28503,11183l-1920 605 -1995 13338 -8408 -1543c134,-4745 1218,-6163 132,-10215l-169 -80 -3879 823c0,3470 -578,1281 -5877,1172 -3251,-67 -4436,-375 -6687,-1231l1685 -11992 5032 -2636c-841,349 -360,-1773 -2061,943 -2279,3639 942,3419 2113,11322l2564 494zm-118808 -53568l800 1029 4832 11261 1172 1154 2791 6221c2179,1856 7843,9526 9048,12606 4141,2564 13309,14087 20236,18647 3124,2056 159,327 3865,1928l-89 909c3795,2466 2748,2329 7356,3975l-162 727 10954 5331 -27 520c5139,3072 15979,6576 21424,8041 24434,6572 50408,4977 73756,-3040l69 -360c6236,-1792 5937,-1820 11037,-4596 1764,-960 2994,-1578 4737,-2471l13261 -8194c3502,-2455 4303,-3565 7988,-5844l15037 -15078c1973,-1777 554,-469 1775,-2957l1963 -1606c4162,-6798 6693,-8254 9994,-16823l557 31 1903 -4763 521 -127 624 -2343 485 -151c8834,-22507 11179,-34313 11482,-60832l-1236 -6608c-2412,-22940 -8393,-31684 -16193,-49450l-741 110 -4982 -9605 -1142 -248c-155,-321 -343,-732 -462,-964l-2906 -5193 -1070 -567 -312 -1339 -3425 -3762c-1957,-1349 -10022,-8691 -11447,-10694l-1775 -1463 -1173 -900 -1260 -1411c-2348,-331 -1894,395 -1912,-1674l-1493 -678c-4699,-1901 -9905,-6241 -15879,-9326 -5840,-3016 -11540,-5109 -17121,-8134 -8565,-4642 -32902,-5769 -45231,-5088 -30244,1672 -37970,5523 -57702,17921 -23819,14966 -45252,37910 -54324,71603 -9257,34380 -5587,52837 4397,84277z"/>
    <path class="fil12" d="M177673 132087c-5009,-76 -7061,1023 -9104,-2935 -4784,-9269 8809,-16575 9104,2935zm2578 -3860c-9353,-15252 4609,-32360 21954,-6173 2804,4233 2388,1388 3542,6879 -1714,523 -12263,1526 -18293,4626 -687,353 -153,405 -2898,1291l-4306 -6623zm15770 -37394c2050,-4590 -1191,-2653 6146,-3610l-350 -1651 -3397 -5439 -4545 969c803,2358 1125,1877 -1262,1144 720,2237 1039,1768 -1236,1128 662,2254 1022,1801 -1257,1181 595,2146 922,1670 -1270,1138 488,2044 849,1617 -1216,1146 470,2040 825,1589 -1255,1167 412,2074 754,1346 -1489,1877 -1357,3946 -10143,9420 -13568,13049 -2344,2483 -1208,1580 -2828,4456 -16527,29331 19843,33171 33203,36945l3217 -432c2292,-2201 821,-561 1579,-1643 5621,21 7162,3383 7424,2837 96,-201 440,293 657,443l101 -23267 -398 -9459 14376 -4658 -6089 -4204c-117,-362 -474,-352 -709,-532 -5010,447 -7672,-1714 -12108,-3422 -856,1902 1906,310 -3560,3966l-1640 -973c-186,-105 -574,-335 -756,-435 -1371,-756 245,-192 -2101,-1010 -2323,2282 744,1029 -3097,2415l-4292 -294c-1567,3547 1632,2208 -2215,4721 -197,-270 -419,-650 -538,-844 -117,-189 -381,-594 -521,-825 -135,-222 -340,-559 -485,-804 -3511,-5919 -4969,-13416 4092,-13434 -797,5880 -2704,1713 -793,5450 1289,-8849 1171,-4711 2183,-7096z"/>
    <path class="fil12" d="M123396 121953c15209,-7169 23874,17066 10217,22476 -15333,6074 -24652,-15671 -10217,-22476zm-425 -4307c-23072,8852 -7981,39305 12163,30733 18830,-8013 8717,-38744 -12163,-30733z"/>
    <path class="fil12" d="M52837 153472c2184,2755 630,1905 4756,2506 4825,703 21944,-7239 32452,-4693 1506,688 3908,2733 5557,4071 5467,4438 6025,13023 5125,19994 -400,3100 -1312,2911 -1870,3491 226,301 472,571 530,999 435,3243 4767,-8864 4847,-9267 822,-4122 283,-8061 -1573,-11741 -4598,-7547 -9596,-12646 -22220,-11022 -9126,1174 -18773,3841 -27604,5661z"/>
    <path class="fil12" d="M206774 156042l2529 1352 500 974 5446 2984 -280 -5718c-8191,759 -3231,-693 -4871,-1730l-12698 -2267c4961,4057 2898,2810 9375,4406z"/>
    <path class="fil12" d="M76310 207285l-1375 1010 -65 2092c1569,1641 1067,2061 3805,1694l863 -1518 622 -1662 757 -1825 -468 -1750 -2781 1046 -1356 912z"/>
    <path class="fil12" d="M83154 59216l1837 -1385c-1791,419 -1208,617 -962,-1386l-554 -1808 -2716 -296c543,3847 -539,4818 2394,4875z"/>
    <path class="fil12" d="M235301 9645c0,1411 2584,2705 1858,0 -727,-2712 3054,-33 -554,-356 -1512,-135 -1304,-2084 -1304,356z"/>
   </g>
   <path class="fil13" d="M224104 215060l-15037 15078c104,3087 573,1046 -2694,3763 -6980,5806 -14406,10321 -23727,14957 -9767,4858 -7290,3620 -10602,2386l-69 360c921,2800 3675,588 -3657,3173l-18503 4472c-16056,3008 -38438,1751 -54061,-3130l-17533 -6551c-3555,-2633 -5114,1222 -1427,-2965l27 -520c-3257,1297 -3356,1385 -7423,-847 -6,-4 -2650,-1921 -2698,-1977 -1842,-2170 -4096,1462 -833,-2507l162 -727c-3359,1558 -795,2352 -5337,-439 -4968,-3053 -2511,-730 -2019,-3536l89 -909c-4530,1869 -1089,1414 -4466,-6l-19636 -20570c-1205,-3080 -6869,-10749 -9048,-12606 -1162,-565 -2122,1581 -3757,-3044 -1028,-2911 -1276,-785 966,-3176l-1172 -1154c-3389,2157 -309,2033 -2919,-992 -52,-61 -1704,-2999 -1856,-3318 -1875,-3929 -3261,-4647 -57,-6951l-800 -1029c-2517,1514 -979,7626 -6444,-10271l2963 11030c-2531,-1272 -1931,-740 -4124,-1182l5199 12246c1121,2221 1618,3384 2758,5678 2058,4137 2069,4137 4047,4934 6534,7269 15357,23431 30523,33538 2675,1783 3162,2490 5206,4264 8823,10715 34401,18065 48543,21373 3767,881 4726,1436 9262,1436 2764,-1143 3057,-515 7250,-195 10491,799 13782,158 22995,-471l4893 667c12054,0 35368,-9951 43686,-14907 15161,-9034 22662,-14899 33845,-26185 4528,-4570 8366,-10289 12048,-16433 3733,-6228 13359,-23141 15278,-29469 7603,-25073 2875,-19284 5691,-39927 525,-3851 765,-7902 1063,-13357 886,-16184 -5518,-32319 -11503,-46487l-646 -1755c-598,-1595 31,-541 -934,-2667 -1577,-3475 -1446,-2136 -3381,-5022 -2173,-3241 -3257,-5985 -5317,-9089 -13230,-19941 -25475,-31406 -46019,-42815 -9873,-5484 -21130,-11110 -32113,-13587 1243,3479 2839,3378 6300,4466 13476,4237 36203,16453 44059,25749 -5985,-2557 -11723,-9915 -18050,-10897l5568 3969c1513,1040 1838,1052 2670,2038 1862,2208 3860,-138 540,2074l1493 678c17,2069 -437,1343 1912,1674 0,-2772 713,-2307 -1912,-1674 1457,-553 5693,253 3172,3086l1173 900 1775 1463c0,-2260 537,-1711 -1775,-1463l3382 1423c3100,2347 8646,7656 9840,10734l3425 3762c1238,612 2344,-690 312,1339l1070 567c944,-185 1125,-1135 3117,2176 1606,2670 2440,1017 252,3981l1142 248c2098,-304 383,-1531 3170,2037 1304,1669 1048,1911 3376,4162l-1563 3406 741 -110c3097,-790 574,-2998 4323,3811 8135,14776 12072,29771 14162,46586l-2291 -947 1236 6608c2619,3992 2454,9250 1559,18669 -995,10480 -3391,21709 -6732,31800 -4447,13432 -4221,12506 -6310,10362l-485 151c2346,6169 1646,2879 -624,2343l-521 127c1295,3222 1521,104 275,3568 -1765,4910 716,1597 -2178,1195l-557 -31 1071 3622 -10370 16059c-1162,-2086 -2927,1349 -695,-2858l-1963 1606c1629,3816 929,349 -170,2897 -669,1550 -9845,11859 -13533,13976 -2653,1523 1275,-141 -2672,1163 6489,-5991 8984,-8836 14601,-15079z"/>
   <path class="fil14" d="M16018 182296c-9984,-31440 -13654,-49897 -4397,-84277 9072,-33693 30505,-56637 54324,-71603 19732,-12398 27458,-16249 57702,-17921 12330,-681 36666,446 45231,5088 5581,3025 11281,5118 17121,8134 5974,3085 11180,7425 15879,9326 3320,-2212 1322,134 -540,-2074 -833,-987 -1158,-999 -2670,-2038l-5568 -3969c6327,981 12065,8339 18050,10897 -7856,-9296 -30583,-21512 -44059,-25749 -3461,-1088 -5057,-986 -6300,-4466 -6126,-525 -13716,-3625 -26286,-3643 -25735,-36 -47250,4315 -68483,16868l-4306 3581c-1141,1007 -6559,5946 -7530,4802 -19745,12219 -39044,38080 -47121,62274 -5626,16854 -6965,28421 -7060,46976 -97,18944 2892,34042 8411,47372 2193,442 1593,-90 4124,1182l-2963 -11030c5465,17896 3927,11785 6444,10271zm189266 -148901l1260 1411c2521,-2833 -1714,-3638 -3172,-3086 2624,-632 1912,-1098 1912,1674zm4208 3775c1425,2003 9490,9345 11447,10694 -1194,-3078 -6740,-8387 -9840,-10734l-3382 -1423c2312,-247 1775,-797 1775,1463zm-187841 157416l-4832 -11261c-3204,2304 -1818,3023 57,6951 152,319 1804,3257 1856,3318 2610,3025 -470,3149 2919,992zm3963 7375l-2791 -6221c-2243,2391 -1994,265 -966,3176 1635,4625 2595,2479 3757,3044z"/>
  </g>
 </g>
</svg>
