<?xml version="1.0" encoding="UTF-8"?>
<!DOCTYPE svg PUBLIC "-//W3C//DTD SVG 1.0//EN" "http://www.w3.org/TR/2001/REC-SVG-20010904/DTD/svg10.dtd">
<!-- Creator: CorelDRAW 2018 (64-Bit) -->
<svg xmlns="http://www.w3.org/2000/svg" xml:space="preserve" width="1.61937in" height="1.00463in" version="1.0" style="shape-rendering:geometricPrecision; text-rendering:geometricPrecision; image-rendering:optimizeQuality; fill-rule:evenodd; clip-rule:evenodd"
viewBox="0 0 42034 26077"
 xmlns:xlink="http://www.w3.org/1999/xlink">
 <defs>
  <style type="text/css">
   <![CDATA[
    .str0 {stroke:#3E4095;stroke-width:78;stroke-miterlimit:2.61313}
    .fil0 {fill:#0C3978}
    .fil1 {fill:#859BB9}
    .fil2 {fill:#0C3978;fill-rule:nonzero}
   ]]>
  </style>
 </defs>
 <g id="Layer_x0020_1">
  <metadata id="CorelCorpID_0Corel-Layer"/>
  <g id="_2355082833632">
   <g>
    <path class="fil0" d="M15870 7463l570 -534 137 654c998,1076 5061,8923 6455,9440 2582,958 4053,-1499 2617,-3832l-2996 -4723c-1168,-1768 -2015,-3240 -3086,-4871 -974,-1482 -1923,-4104 -4297,-3513 -2023,504 -3894,7412 -5885,9911 -123,-135 -178,-187 -360,-438l-2656 -4595c-787,-1375 -2021,-4162 -3111,-4626 -2350,-1002 -3965,1463 -2948,3432l5653 9779c909,1565 1812,4143 4114,3641 1620,-353 2373,-2915 3238,-4578 753,-1449 2152,-3769 2555,-5147z"/>
    <path class="fil0" d="M23197 201c-2417,1096 -1413,3009 -324,4665l6477 10162c488,792 1167,2868 3605,2043 859,-291 1406,-1093 1309,-2334 -68,-862 -7350,-12579 -8398,-13810 -509,-597 -1601,-1210 -2669,-726z"/>
    <path class="fil0" d="M31101 149c-2486,863 -1586,3044 -592,4567 1062,1627 1912,3059 2898,4578 1018,1569 2023,3112 2901,4569 885,1468 1830,4017 4164,3278 3061,-969 742,-4084 378,-4667l-5792 -9157c-706,-1162 -1848,-3900 -3957,-3168z"/>
   </g>
   <path class="fil1" d="M15870 7463l228 -276c28,51 149,35 172,136 159,695 -45,-76 308,260l-137 -654 -570 534z"/>
   <path class="fil2 str0" d="M2845 25972l0 -3614 1096 0 648 2465 640 -2465 1099 0 0 3614 -676 0 -3 -2845 -712 2845 -703 0 -709 -2845 -2 2845 -676 0zm4189 0l0 -3614 732 0 0 3614 -732 0zm1448 0l0 -3583 732 0 0 2973 1812 0 0 611 -2544 0zm3083 0l0 -3583 732 0 0 2973 1812 0 0 611 -2544 0zm3063 0l0 -3614 2675 0 0 611 -1943 0 0 802 1807 0 0 611 -1807 0 0 979 2014 0 0 611 -2746 0zm3366 0l0 -3614 1537 0c386,0 667,33 842,98 176,65 315,180 421,346 105,167 158,356 158,570 0,272 -79,496 -238,672 -159,177 -396,288 -712,334 157,92 287,193 389,303 103,110 241,306 414,587l441 705 -872 0 -523 -789c-188,-280 -316,-457 -386,-530 -69,-72 -142,-123 -220,-150 -78,-27 -201,-40 -369,-40l-148 0 0 1509 -732 0zm732 -2085l540 0c350,0 568,-15 655,-45 87,-29 156,-81 204,-153 50,-72 74,-163 74,-272 0,-122 -33,-220 -97,-295 -65,-75 -157,-122 -274,-141 -60,-8 -237,-13 -532,-13l-570 0 0 918zm5240 2085l-1293 -3614 791 0 918 2675 881 -2675 777 0 -1285 3614 -788 0zm5323 0l-788 0 -312 -823 -1449 0 -300 823 -774 0 1403 -3614 773 0 1448 3614zm-1337 -1433l-502 -1338 -488 1338 990 0zm1747 1433l0 -3583 732 0 0 2973 1812 0 0 611 -2544 0zm3613 0l-1293 -3614 791 0 918 2675 881 -2675 777 0 -1285 3614 -788 0zm2442 0l0 -3614 2675 0 0 611 -1943 0 0 802 1807 0 0 611 -1807 0 0 979 2014 0 0 611 -2746 0zm3175 -1171l712 -71c43,238 129,412 259,524 130,112 306,167 527,167 234,0 411,-50 529,-149 119,-99 178,-215 178,-348 0,-86 -25,-158 -75,-219 -50,-60 -137,-112 -262,-156 -85,-30 -278,-82 -581,-158 -389,-98 -663,-217 -820,-359 -221,-199 -331,-442 -331,-729 0,-184 52,-358 156,-518 104,-161 254,-283 450,-367 196,-84 432,-126 709,-126 452,0 792,100 1020,301 229,201 348,469 360,804l-732 25c-31,-187 -97,-321 -199,-402 -102,-82 -255,-123 -459,-123 -210,0 -375,44 -494,131 -77,56 -115,131 -115,225 0,86 36,159 109,220 92,78 315,159 669,243 354,83 616,171 785,260 170,90 303,212 399,368 96,156 144,347 144,575 0,207 -57,401 -172,582 -115,181 -278,315 -488,403 -210,88 -473,132 -786,132 -457,0 -808,-105 -1052,-316 -245,-210 -390,-517 -438,-920z"/>
  </g>
 </g>
</svg>
